<?xml version="1.0" encoding="UTF-8" standalone="no"?>
<svg xmlns:rdf="http://www.w3.org/1999/02/22-rdf-syntax-ns#" xmlns="http://www.w3.org/2000/svg" xmlns:osb="http://www.openswatchbook.org/uri/2009/osb" height="32" width="32" version="1.0" xmlns:cc="http://creativecommons.org/ns#" xmlns:xlink="http://www.w3.org/1999/xlink" xmlns:dc="http://purl.org/dc/elements/1.1/">
 <path style="color:#000000;fill:#6fc8e2" d="m0 0v32h32v-32z"/>
 <path style="opacity:.1" d="m9.256 9.578c-1.878 0-3.39 1.512-3.39 3.39v5.424c0 1.88 1.512 3.39 3.39 3.39h8.136v4.068l3.39-4.068h3.39c1.88 0 3.39-1.51 3.39-3.39v-5.424c0-1.878-1.51-3.39-3.39-3.39"/>
 <path style="fill:#fff" d="m8.578 8.9c-1.878 0-3.39 1.512-3.39 3.39v5.424c0 1.88 1.512 3.39 3.39 3.39h8.136v4.068l3.39-4.068h3.39c1.88 0 3.39-1.51 3.39-3.39v-5.424c0-1.878-1.51-3.39-3.39-3.39"/>
</svg>
