<?xml version="1.0" encoding="UTF-8" standalone="no"?>
<svg xmlns:rdf="http://www.w3.org/1999/02/22-rdf-syntax-ns#" xmlns="http://www.w3.org/2000/svg" xmlns:osb="http://www.openswatchbook.org/uri/2009/osb" height="32" width="32" version="1.0" xmlns:cc="http://creativecommons.org/ns#" xmlns:xlink="http://www.w3.org/1999/xlink" xmlns:dc="http://purl.org/dc/elements/1.1/">
 <path style="color:#000000;fill:#de6517" d="m0 0v32h32v-32z"/>
 <g style="opacity:.1" transform="translate(-17.22 7.476)">
  <path style="color-rendering:auto;color:#000000;isolation:auto;mix-blend-mode:normal;shape-rendering:auto;solid-color:#000000;image-rendering:auto" d="m34.29-1.175a10.76 10.76 0 0 0 -10.76 10.76 10.76 10.76 0 0 0 10.76 10.76 10.76 10.76 0 0 0 10.76 -10.76 10.76 10.76 0 0 0 -10.76 -10.76zm-0.0507 4.36c2.292 0.06267 5.86 1.525 6.356 5.579 0.000673 0.0068-0.0081 0.1759-0.01114 0.196-0.08572 0.5521-0.5621 0.9647-1.127 0.9646-0.5778-0.000673-1.064-0.4337-1.131-1.008-0.3283-2.002-2.058-3.472-4.087-3.473-0.6122 0.0013-1.216 0.1387-1.769 0.4016 0.111-0.1909 0.1696-0.4077 0.17-0.6286 0-0.04248-0.0027-0.08441-0.0068-0.1258l0.09615-0.03339a1.433 1.433 0 0 1 0.000633 0.0047 4.765 4.765 0 0 1 1.559 -0.2681 4.765 4.765 0 0 1 4.479 3.151 1.433 1.433 0 0 1 0.2229 -0.1178 5.017 5.017 0 0 0 -4.702 -3.285 5.017 5.017 0 0 0 -1.542 0.2483l-0.000316-0.0013c-0.0092-0.0047-0.09452 0.02781-0.1629 0.05473-0.05661-0.1826-0.1551-0.3462-0.2823-0.4826l0.1611-0.05965a5.572 5.572 0 0 1 1.827 -0.315 5.572 5.572 0 0 1 5.251 3.725 1.433 1.433 0 0 1 0.01206 -0.000317 1.433 1.433 0 0 1 0.3132 0.03615 5.867 5.867 0 0 0 -5.576 -4.055 5.867 5.867 0 0 0 -2.062 0.3818 1.433 1.433 0 0 1 0.0053 0.0047l-0.1864 0.07513c-0.1927-0.1204-0.4182-0.1932-0.6622-0.1932-0.08141 0.000316-0.1626 0.0087-0.2424 0.0247 0.948-0.5248 2.014-0.8004 3.097-0.8011zm-3.189 1.103c0.6189 0.000013 1.121 0.5018 1.12 1.121-0.000633 0.4842-0.6877 1.06-0.6456 1.054-0.906 0.7854-1.427 1.925-1.429 3.124 0.0013 1.328 0.6396 2.575 1.716 3.353-0.2429 0.0047-0.4679 0.07931-0.6579 0.2028a4.765 4.765 0 0 1 -1.629 -3.583 4.765 4.765 0 0 1 1.152 -3.104 1.433 1.433 0 0 1 -0.2164 -0.1289 5.017 5.017 0 0 0 -1.187 3.233 5.017 5.017 0 0 0 1.685 3.74c-0.1354 0.1329-0.2399 0.2961-0.3042 0.4786a5.572 5.572 0 0 1 -1.937 -4.219 5.572 5.572 0 0 1 1.362 -3.646 1.433 1.433 0 0 1 -0.1336 -0.2872 5.867 5.867 0 0 0 -1.522 3.933 5.867 5.867 0 0 0 2.141 4.526 1.433 1.433 0 0 1 0.04174 -0.1388c-0.01609 0.08012-0.0247 0.1629-0.0247 0.2476 0.000316 0.3208 0.1233 0.6293 0.3438 0.8623-3.592-2.272-4.09-7.465-0.6137-10.49 0.2042-0.1802 0.4669-0.28 0.7392-0.2804zm9.579 5.648c-0.1852 3.394-2.991 6.052-6.39 6.053-0.7105-0.0033-1.416-0.1254-2.086-0.3605-0.1457-0.02498-0.2852-0.07796-0.4106-0.1561-0.0033-0.002-0.05998-0.03952-0.06523-0.04329-0.2962-0.214-0.4721-0.5574-0.4724-0.9235 0.000034-0.6297 0.5105-1.14 1.14-1.14 0.1868 0.0001 0.3707 0.04605 0.5355 0.1339l-0.002-0.0033c0.4372 0.1538 0.8972 0.2331 1.361 0.2347 2.113-0.000673 3.887-1.592 4.117-3.692 0.129 0.2469 0.3342 0.4373 0.5772 0.5522a4.765 4.765 0 0 1 -4.644 3.734 4.765 4.765 0 0 1 -0.917 -0.09059 1.433 1.433 0 0 1 0.01482 0.1939 1.433 1.433 0 0 1 -0.0033 0.06369 5.017 5.017 0 0 0 0.9053 0.08472 5.017 5.017 0 0 0 4.883 -3.902c0.09596 0.02342 0.1948 0.03797 0.2962 0.03804 0.09251-0.00004 0.1823-0.0136 0.2702-0.03306a5.572 5.572 0 0 1 -5.45 4.452 5.572 5.572 0 0 1 -1.037 -0.1005 1.433 1.433 0 0 1 -0.1598 0.2643 5.867 5.867 0 0 0 1.197 0.1305 5.867 5.867 0 0 0 5.777 -4.869c0.2478-0.1349 0.4502-0.3494 0.5624-0.6214z"/>
 </g>
 <g transform="translate(-18.29 6.413)">
  <path style="color-rendering:auto;color:#000000;isolation:auto;mix-blend-mode:normal;shape-rendering:auto;solid-color:#000000;image-rendering:auto;fill:#fff" d="m34.29-1.175a10.76 10.76 0 0 0 -10.76 10.76 10.76 10.76 0 0 0 10.76 10.76 10.76 10.76 0 0 0 10.76 -10.76 10.76 10.76 0 0 0 -10.76 -10.76zm-0.0507 4.36c2.292 0.06267 5.86 1.525 6.356 5.579 0.000673 0.0068-0.0081 0.1759-0.01114 0.196-0.08572 0.5521-0.5621 0.9647-1.127 0.9646-0.5778-0.000673-1.064-0.4337-1.131-1.008-0.3283-2.002-2.058-3.472-4.087-3.473-0.6122 0.0013-1.216 0.1387-1.769 0.4016 0.111-0.1909 0.1696-0.4077 0.17-0.6286 0-0.04248-0.0027-0.08441-0.0068-0.1258l0.09615-0.03339a1.433 1.433 0 0 1 0.000633 0.0047 4.765 4.765 0 0 1 1.559 -0.2681 4.765 4.765 0 0 1 4.479 3.151 1.433 1.433 0 0 1 0.2229 -0.1178 5.017 5.017 0 0 0 -4.702 -3.285 5.017 5.017 0 0 0 -1.542 0.2483l-0.000316-0.0013c-0.0092-0.0047-0.09452 0.02781-0.1629 0.05473-0.05661-0.1826-0.1551-0.3462-0.2823-0.4826l0.1611-0.05965a5.572 5.572 0 0 1 1.827 -0.315 5.572 5.572 0 0 1 5.251 3.725 1.433 1.433 0 0 1 0.01206 -0.000317 1.433 1.433 0 0 1 0.3132 0.03615 5.867 5.867 0 0 0 -5.576 -4.055 5.867 5.867 0 0 0 -2.062 0.3818 1.433 1.433 0 0 1 0.0053 0.0047l-0.1864 0.07513c-0.1927-0.1204-0.4182-0.1932-0.6622-0.1932-0.08141 0.000316-0.1626 0.0087-0.2424 0.0247 0.948-0.5248 2.014-0.8004 3.097-0.8011zm-3.189 1.103c0.6189 0.000013 1.121 0.5018 1.12 1.121-0.000633 0.4842-0.6877 1.06-0.6456 1.054-0.906 0.7854-1.427 1.925-1.429 3.124 0.0013 1.328 0.6396 2.575 1.716 3.353-0.2429 0.0047-0.4679 0.07931-0.6579 0.2028a4.765 4.765 0 0 1 -1.629 -3.583 4.765 4.765 0 0 1 1.152 -3.104 1.433 1.433 0 0 1 -0.2164 -0.1289 5.017 5.017 0 0 0 -1.187 3.233 5.017 5.017 0 0 0 1.685 3.74c-0.1354 0.1329-0.2399 0.2961-0.3042 0.4786a5.572 5.572 0 0 1 -1.937 -4.219 5.572 5.572 0 0 1 1.362 -3.646 1.433 1.433 0 0 1 -0.1336 -0.2872 5.867 5.867 0 0 0 -1.522 3.933 5.867 5.867 0 0 0 2.141 4.526 1.433 1.433 0 0 1 0.04174 -0.1388c-0.01609 0.08012-0.0247 0.1629-0.0247 0.2476 0.000316 0.3208 0.1233 0.6293 0.3438 0.8623-3.592-2.272-4.09-7.465-0.6137-10.49 0.2042-0.1802 0.4669-0.28 0.7392-0.2804zm9.579 5.648c-0.1852 3.394-2.991 6.052-6.39 6.053-0.7105-0.0033-1.416-0.1254-2.086-0.3605-0.1457-0.02498-0.2852-0.07796-0.4106-0.1561-0.0033-0.002-0.05998-0.03952-0.06523-0.04329-0.2962-0.214-0.4721-0.5574-0.4724-0.9235 0.000034-0.6297 0.5105-1.14 1.14-1.14 0.1868 0.0001 0.3707 0.04605 0.5355 0.1339l-0.002-0.0033c0.4372 0.1538 0.8972 0.2331 1.361 0.2347 2.113-0.000673 3.887-1.592 4.117-3.692 0.129 0.2469 0.3342 0.4373 0.5772 0.5522a4.765 4.765 0 0 1 -4.644 3.734 4.765 4.765 0 0 1 -0.917 -0.09059 1.433 1.433 0 0 1 0.01482 0.1939 1.433 1.433 0 0 1 -0.0033 0.06369 5.017 5.017 0 0 0 0.9053 0.08472 5.017 5.017 0 0 0 4.883 -3.902c0.09596 0.02342 0.1948 0.03797 0.2962 0.03804 0.09251-0.00004 0.1823-0.0136 0.2702-0.03306a5.572 5.572 0 0 1 -5.45 4.452 5.572 5.572 0 0 1 -1.037 -0.1005 1.433 1.433 0 0 1 -0.1598 0.2643 5.867 5.867 0 0 0 1.197 0.1305 5.867 5.867 0 0 0 5.777 -4.869c0.2478-0.1349 0.4502-0.3494 0.5624-0.6214z"/>
 </g>
</svg>
