<?xml version="1.0" encoding="UTF-8" standalone="no"?>
<svg xmlns:rdf="http://www.w3.org/1999/02/22-rdf-syntax-ns#" xmlns="http://www.w3.org/2000/svg" xmlns:osb="http://www.openswatchbook.org/uri/2009/osb" height="32" width="32" version="1.0" xmlns:cc="http://creativecommons.org/ns#" xmlns:xlink="http://www.w3.org/1999/xlink" xmlns:dc="http://purl.org/dc/elements/1.1/">
 <path style="color:#000000;fill:#cc514b" d="m0 0v32h32v-32z"/>
 <g transform="matrix(.8149 0 0 .8149 -3.716 -2.743)">
  <g transform="translate(1,1)">
   <g style="opacity:.1">
    <path d="m14.89 17h18.23c0.488 0 0.887 0.398 0.887 0.887v16.23c0 0.488-0.398 0.887-0.887 0.887h-18.23c-0.49-0.01-0.89-0.41-0.89-0.9v-16.22c0-0.49 0.4-0.89 0.89-0.89"/>
    <path d="m17 18c0-4 2-8 7-8s7 4 7 8c0 1-1 1-1 0 0-3-2-7-6-7s-6 4-6 7c0 1-1 1-1 0"/>
   </g>
  </g>
  <path style="fill:#eec84a" d="m14.89 17h18.23c0.488 0 0.887 0.398 0.887 0.887v16.23c0 0.488-0.398 0.887-0.887 0.887h-18.23c-0.49-0.01-0.89-0.41-0.89-0.9v-16.22c0-0.49 0.4-0.89 0.89-0.89"/>
  <path style="fill:#fbdb70" d="m14.89 19h18.23c0.488 0 0.887 0.398 0.887 0.887v0.227c0 0.488-0.398 0.887-0.887 0.887h-18.23c-0.49-0.01-0.89-0.41-0.89-0.9v-0.227c0-0.48 0.4-0.88 0.89-0.88"/>
  <path style="fill:#d4b142" d="m14.89 17h18.23c0.488 0 0.887 0.398 0.887 0.887v1.227c0 0.488-0.398 0.887-0.887 0.887h-18.23c-0.49-0.01-0.89-0.41-0.89-0.9v-1.227c0-0.48 0.4-0.88 0.89-0.88"/>
  <path style="fill:#705d22" d="m26 26c0 1.105-0.895 2-2 2s-2-0.895-2-2 0.895-2 2-2 2 0.895 2 2"/>
  <path style="fill:#705d22" d="m23 27-2 5h6l-2-5m-2 0"/>
  <path style="fill:#ffd659" d="m21.41 31-0.41 1h6l-0.406-1m-5.188 0"/>
  <path style="fill:#ccc" d="m17 18c0-4 2-8 7-8s7 4 7 8c0 1-1 1-1 0 0-3-2-7-6-7s-6 4-6 7c0 1-1 1-1 0"/>
  <path style="fill:#4a4a4a" d="m19 18.5c0 0.28-0.67 0.5-1.5 0.5s-1.5-0.22-1.5-0.5 0.67-0.5 1.5-0.5c0.828 0 1.5 0.223 1.5 0.5"/>
  <path style="fill:#4a4a4a" d="m32 18.5c0 0.28-0.67 0.5-1.5 0.5s-1.5-0.22-1.5-0.5 0.67-0.5 1.5-0.5c0.828 0 1.5 0.223 1.5 0.5"/>
 </g>
</svg>
