<?xml version="1.0" encoding="UTF-8" standalone="no"?>
<svg xmlns:rdf="http://www.w3.org/1999/02/22-rdf-syntax-ns#" xmlns="http://www.w3.org/2000/svg" xmlns:osb="http://www.openswatchbook.org/uri/2009/osb" height="32" width="32" version="1.0" xmlns:cc="http://creativecommons.org/ns#" xmlns:xlink="http://www.w3.org/1999/xlink" xmlns:dc="http://purl.org/dc/elements/1.1/">
 <path style="color:#000000;fill:#8b8b8b" d="m0 0v32h32v-32z"/>
 <g style="opacity:.1" transform="translate(-18.34 22.71)">
  <g style="color-rendering:auto;color:#000000;isolation:auto;mix-blend-mode:normal;shape-rendering:auto;solid-color:#000000;image-rendering:auto" transform="matrix(.05 0 0 .05 40.79 -4.497)">
   <path d="m-339.7 285.6c0.5225-0.4422 4.196-3.405 8.164-6.584 10.95-8.776 25.97-25.55 34.71-38.78 3.263-4.936 3.933-7.003 5.188-16 4.713-33.79 16.33-76.44 28.69-105.4 7.154-16.74 9.381-24.91 11.17-40.95 1.77-15.88 3.382-23.79 8.634-42.33 2.233-7.883 3.909-14.45 3.725-14.59-0.1839-0.1403-7.308-4.024-15.83-8.63-35.51-19.19-49.32-32.81-43.86-43.27 2.535-4.863 12.29-14.78 18.66-18.98 9.77-6.437 19.38-11.06 37.08-17.85 29.49-11.31 33.5-13.94 53.13-34.9 21.88-23.36 39.15-40.8 44.5-44.94 7.208-5.565 14.01-8.632 22-9.918 3.85-0.6199 10.15-1.858 14-2.752 6.789-1.576 7.272-1.9 16.03-10.74 19.82-20 47.02-56.51 83.14-111.6 5.588-8.525 11.8-17.41 13.81-19.74 3.509-4.073 3.759-4.185 6.334-2.853 5.902 3.053 18.51 18.22 26.8 32.24 8.764 14.82 11.19 28.42 9.216 51.65-1.035 12.19-0.9902 13.98 0.3865 15.35 2.129 2.129 5.437 0.9186 7.292-2.668 0.9056-1.751 1.489-5.642 1.489-9.929 0-8.176 0.0918-8.226 8.404-4.55 7.326 3.24 9.713 3.152 16.27-0.5977 6.509-3.724 9.196-3.383 14.07 1.786 7.423 7.871 12.6 22.03 12.54 34.31-0.081 17.07-4.957 28.45-18.22 42.54-16.73 17.78-27.81 42-35.18 76.96-3.648 17.31-7.082 30.13-10.47 39.12-3.8 10.08-5.361 19.7-6.463 39.85-1.146 20.95 0.1729 51.78 2.688 62.84 0.8924 3.924 4.228 13.9 7.413 22.16 6.801 17.65 9.548 27.58 11.06 39.99 1.736 14.22 0.4106 23.28-5.64 38.54-3.832 9.666-6.89 25.57-8.54 44.41-1.272 14.53-0.6296 23.75 2.083 29.91 2.159 4.902 4.984 22.79 4.984 31.56v6.122h-195.2c-107.4 0-194.8-0.3618-194.2-0.8039z"/>
  </g>
 </g>
 <g transform="translate(-18.95 22.1)">
  <g style="color-rendering:auto;color:#000000;isolation:auto;mix-blend-mode:normal;shape-rendering:auto;solid-color:#000000;image-rendering:auto" transform="matrix(.05 0 0 .05 40.79 -4.497)">
   <path d="m-339.7 285.6c0.5225-0.4422 4.196-3.405 8.164-6.584 10.95-8.776 25.97-25.55 34.71-38.78 3.263-4.936 3.933-7.003 5.188-16 4.713-33.79 16.33-76.44 28.69-105.4 7.154-16.74 9.381-24.91 11.17-40.95 1.77-15.88 3.382-23.79 8.634-42.33 2.233-7.883 3.909-14.45 3.725-14.59-0.1839-0.1403-7.308-4.024-15.83-8.63-35.51-19.19-49.32-32.81-43.86-43.27 2.535-4.863 12.29-14.78 18.66-18.98 9.77-6.437 19.38-11.06 37.08-17.85 29.49-11.31 33.5-13.94 53.13-34.9 21.88-23.36 39.15-40.8 44.5-44.94 7.208-5.565 14.01-8.632 22-9.918 3.85-0.6199 10.15-1.858 14-2.752 6.789-1.576 7.272-1.9 16.03-10.74 19.82-20 47.02-56.51 83.14-111.6 5.588-8.525 11.8-17.41 13.81-19.74 3.509-4.073 3.759-4.185 6.334-2.853 5.902 3.053 18.51 18.22 26.8 32.24 8.764 14.82 11.19 28.42 9.216 51.65-1.035 12.19-0.9902 13.98 0.3865 15.35 2.129 2.129 5.437 0.9186 7.292-2.668 0.9056-1.751 1.489-5.642 1.489-9.929 0-8.176 0.0918-8.226 8.404-4.55 7.326 3.24 9.713 3.152 16.27-0.5977 6.509-3.724 9.196-3.383 14.07 1.786 7.423 7.871 12.6 22.03 12.54 34.31-0.081 17.07-4.957 28.45-18.22 42.54-16.73 17.78-27.81 42-35.18 76.96-3.648 17.31-7.082 30.13-10.47 39.12-3.8 10.08-5.361 19.7-6.463 39.85-1.146 20.95 0.1729 51.78 2.688 62.84 0.8924 3.924 4.228 13.9 7.413 22.16 6.801 17.65 9.548 27.58 11.06 39.99 1.736 14.22 0.4106 23.28-5.64 38.54-3.832 9.666-6.89 25.57-8.54 44.41-1.272 14.53-0.6296 23.75 2.083 29.91 2.159 4.902 4.984 22.79 4.984 31.56v6.122h-195.2c-107.4 0-194.8-0.3618-194.2-0.8039z"/>
  </g>
 </g>
</svg>
