<?xml version="1.0" encoding="UTF-8" standalone="no"?>
<svg xmlns:rdf="http://www.w3.org/1999/02/22-rdf-syntax-ns#" xmlns="http://www.w3.org/2000/svg" xmlns:osb="http://www.openswatchbook.org/uri/2009/osb" height="32" width="32" version="1.0" xmlns:cc="http://creativecommons.org/ns#" xmlns:xlink="http://www.w3.org/1999/xlink" xmlns:dc="http://purl.org/dc/elements/1.1/">
 <path style="color:#000000;fill:#f59550" d="m0 0v32h32v-32z"/>
 <g transform="matrix(.8697 0 0 .8697 -4.335 -5.307)">
  <g transform="translate(1,1)">
   <g style="opacity:.1">
    <path d="m35.22 16c-2.27 7.04-12.7 8.483-18.88 0.691 0.062 2.687-0.133 4.697 1.078 6.902-0.819 0.248-1.418 0.999-1.422 1.898-0.369 0.02-0.884 0.038-1.281 0.053-0.709-0.795-1.586-1.284-2.422-0.932-1.227 0.52-1.622 2.301-1.02 4.02 0.469 1.351 1.436 2.287 2.408 2.35 3.736 2.632 11.69 4.594 15.64 1.238l0.768 0.17 0.002 0.004h0.012l3.318-0.016c0.378 0.635 2.104 1.751 5.576-0.613-1.695-0.266-4.094-1.234-4.816-1.066-0.255 0.053-0.432 0.218-0.572 0.414l-3-0.4c0.94-1.36 1.53-2.59 1.58-4.82 2.71-2.78 5.04-4.88 3.02-9.88zm-18.88 0.691v-0.004h-0.004s0.003 0.002 0.004 0.004z" transform="translate(-1,-1)"/>
    <path d="m11.5 24.88c-0.273 0-0.5 0.262-0.5 0.566 0 0.305 0.227 0.551 0.5 0.551s0.5-0.246 0.5-0.551-0.227-0.566-0.5-0.566"/>
   </g>
  </g>
  <g transform="translate(.0003405)">
   <path style="fill:#a67240" d="m15.34 15.69c6.18 7.797 16.61 6.355 18.88-0.688 2.01 5-0.313 7.098-3.02 9.879-0.066 2.488-0.758 3.719-1.918 5.309-4.285 5.895-17.31 1.246-18.54-2.359l1.363-3.223c2.328-0.07 3.125-0.098 5.496-0.305-2.547-2.953-2.184-5.25-2.262-8.613"/>
   <path style="fill:#333" d="m14.57 25.79c0.82 1.594 0.457 3.289-1.102 4.047-1.195 0.582-2.598-0.488-3.195-2.207-0.602-1.719-0.207-3.5 1.02-4.02 1.223-0.516 2.543 0.754 3.277 2.176"/>
   <path style="fill:#e5e5e5" d="m19 24.5c0 1.105-0.895 2-2 2s-2-0.895-2-2 0.895-2 2-2 2 0.895 2 2"/>
   <path style="fill:#e5e5e5" d="m24 25.5c0 1.38-1.12 2.5-2.5 2.5s-2.5-1.12-2.5-2.5 1.12-2.5 2.5-2.5c1.379 0 2.5 1.121 2.5 2.5"/>
   <path style="fill:#333" d="m18.49 25.06c0 0.551-0.391 1-0.875 1s-0.875-0.449-0.875-1 0.391-1 0.875-1 0.875 0.449 0.875 1"/>
   <path style="fill:#333" d="m23 25.75c0 0.691-0.449 1.25-1 1.25s-1-0.559-1-1.25 0.449-1.25 1-1.25 1 0.559 1 1.25"/>
   <path style="fill-opacity:.8;fill:#333" d="m14.83 31.18c5.41 1.121 7.773-0.273 10.66-3.488 0.02 2.734-1.234 4.418-2.645 4.648-2.484 0.41-5.137-0.039-8.02-1.16"/>
   <path style="fill:#6b4b28" d="m23.67 29.54 5.824 0.242-0.391 1.613-6.094-1.359c0.223-0.16 0.43-0.336 0.66-0.496"/>
   <path style="fill:#aaa" d="m32.66 30.12-3.164-0.422s-0.688 0.145-0.781 0.719c-0.09 0.578 0.379 0.977 0.379 0.977l3.473-0.016m0.094-1.258"/>
   <path style="fill:#ba2121" d="m33.18 29.7c-0.664 0.137-0.926 0.945-0.848 1.477 0.07 0.52 1.781 2.234 5.664-0.41-1.7-0.27-4.1-1.24-4.82-1.07"/>
   <path style="fill:#f9f9f9" d="m11.5 24.88c-0.273 0-0.5 0.262-0.5 0.566 0 0.305 0.227 0.551 0.5 0.551s0.5-0.246 0.5-0.551-0.227-0.566-0.5-0.566"/>
   <path style="fill:#fff" d="m17.04 25.11c-0.137 0-0.25 0.113-0.25 0.254 0 0.137 0.113 0.246 0.25 0.246s0.25-0.109 0.25-0.246c0-0.141-0.113-0.254-0.25-0.254"/>
   <path style="fill:#fff" d="m21.75 26c-0.137 0-0.25 0.117-0.25 0.254s0.113 0.246 0.25 0.246c0.14 0 0.25-0.11 0.25-0.25 0-0.13-0.11-0.25-0.25-0.25"/>
   <path style="fill-opacity:.7650;fill:#fff" d="m33.64 30.27c-0.207-0.039-0.379-0.027-0.387 0.027-0.008 0.055 0.156 0.133 0.363 0.172 0.207 0.043 0.379 0.035 0.387-0.02 0.008-0.059-0.156-0.137-0.363-0.18"/>
   <path style="fill-opacity:.7650;fill:#fff" d="m33.76 30.01c-0.137-0.023-0.254-0.012-0.262 0.023-0.004 0.031 0.102 0.078 0.238 0.102 0.137 0.023 0.254 0.016 0.262-0.02 0.004-0.035-0.102-0.082-0.238-0.105"/>
   <path style="fill-opacity:.7650;fill:#fff" d="m33.51 30.63c-0.137-0.031-0.254-0.039-0.262-0.016-0.008 0.027 0.102 0.074 0.238 0.105 0.137 0.035 0.254 0.043 0.262 0.016 0.008-0.023-0.098-0.07-0.238-0.105"/>
   <path style="fill-opacity:.7330;fill:#fff" d="m30.16 30.08c-0.359-0.047-0.656 0.004-0.66 0.113s0.281 0.238 0.641 0.285c0.355 0.051 0.652 0 0.656-0.109 0.004-0.105-0.281-0.238-0.637-0.289"/>
   <path style="fill:#46403d" d="m29.37 29.68s-0.691 0.145-0.781 0.719c-0.09 0.578 0.367 0.984 0.367 0.984h0.113c-0.109-0.207-0.219-0.5-0.172-0.855 0.066-0.512 0.465-0.742 0.664-0.824m-0.191-0.023"/>
  </g>
 </g>
</svg>
