<?xml version="1.0" encoding="UTF-8" standalone="no"?>
<svg xmlns:rdf="http://www.w3.org/1999/02/22-rdf-syntax-ns#" xmlns="http://www.w3.org/2000/svg" xmlns:osb="http://www.openswatchbook.org/uri/2009/osb" height="32" width="32" version="1.0" xmlns:cc="http://creativecommons.org/ns#" xmlns:xlink="http://www.w3.org/1999/xlink" xmlns:dc="http://purl.org/dc/elements/1.1/">
 <path style="color:#000000;fill:#e44930" d="m0 0v32h32v-32z"/>
 <g transform="matrix(0.79 0 0 0.79 -3.232 -2.833)">
  <g transform="translate(1,1)">
   <g style="opacity:.1">
    <path d="m24 11.98c-7.18 0-13 5.188-13 11.59 0 3.859 2.129 7.258 5.383 9.352-0.117 0.441-0.27 0.91-0.508 1.395-0.809 1.656-1.625 1.656-1.625 1.656s2.438 0 4.063-0.828c0.344-0.176 0.645-0.461 0.918-0.801 1.48 0.523 3.07 0.801 4.773 0.801 7.18 0 13-5.188 13-11.59 0-6.395-5.82-11.59-13-11.59m-4.445 4.156 4.441 4.551 4.441-4.551 2.871 2.922-4.441 4.523 4.441 4.555l-2.87 2.9-4.44-4.52-4.44 4.52-2.87-2.9 4.44-4.55-4.44-4.52m2.871-2.922"/>
   </g>
  </g>
  <path style="fill:#fff" d="m24 11.98c-7.18 0-13 5.188-13 11.59 0 3.859 2.129 7.258 5.383 9.352-0.117 0.441-0.27 0.91-0.508 1.395-0.809 1.656-1.625 1.656-1.625 1.656s2.438 0 4.063-0.828c0.344-0.176 0.645-0.461 0.918-0.801 1.48 0.523 3.07 0.801 4.773 0.801 7.18 0 13-5.188 13-11.59 0-6.395-5.82-11.59-13-11.59m-4.445 4.156 4.441 4.551 4.441-4.551 2.871 2.922-4.441 4.523 4.441 4.555l-2.87 2.9-4.44-4.52-4.44 4.52-2.87-2.9 4.44-4.55-4.44-4.52m2.871-2.922"/>
 </g>
</svg>
