<?xml version="1.0" encoding="UTF-8" standalone="no"?>
<svg xmlns:rdf="http://www.w3.org/1999/02/22-rdf-syntax-ns#" xmlns="http://www.w3.org/2000/svg" xmlns:osb="http://www.openswatchbook.org/uri/2009/osb" height="32" width="32" version="1.0" xmlns:cc="http://creativecommons.org/ns#" xmlns:xlink="http://www.w3.org/1999/xlink" xmlns:dc="http://purl.org/dc/elements/1.1/">
 <path style="color:#000000;fill:#5c6977" d="m0 0v32h32v-32z"/>
 <g transform="matrix(.7774 0 0 .7774 -2.781 -2.269)">
  <g transform="translate(-1)">
   <path style="fill-opacity:0.098" d="m18 11c-0.554 0-1 0.446-1 1v1h-2v24h22v-24h-2v-1c0-0.554-0.446-1-1-1s-1 0.446-1 1v1h-2v-1c0-0.554-0.446-1-1-1s-1 0.446-1 1v1h-2v-1c0-0.554-0.446-1-1-1s-1 0.446-1 1v1h-2v-1c0-0.554-0.446-1-1-1s-1 0.446-1 1v1h-2v-1c0-0.554-0.446-1-1-1z"/>
   <rect style="fill:#efebe9" height="24" width="22" y="12" x="14"/>
   <path style="opacity:.1" d="m16.1 12v1.199c0 0.665 0.534 1.201 1.199 1.201s1.199-0.536 1.199-1.201v-1.199h-2.398m4 0v1.199c0 0.665 0.534 1.201 1.199 1.201s1.199-0.536 1.199-1.201v-1.199h-2.398m4 0v1.199c0 0.665 0.534 1.201 1.199 1.201s1.199-0.536 1.199-1.201v-1.199h-2.398m4 0v1.199c0 0.665 0.534 1.201 1.199 1.201s1.199-0.536 1.199-1.201v-1.199h-2.398m4 0v1.199c0 0.665 0.534 1.201 1.199 1.201s1.199-0.536 1.199-1.201v-1.199h-2.398"/>
   <rect style="fill:#a6a6a6" rx="1" height="4" width="2" y="10" x="16"/>
   <rect style="fill:#808080" height="1" width="15" y="17" x="17"/>
   <rect style="fill:#808080" height="1" width="11" y="20" x="17"/>
   <rect style="fill:#808080" height="1" width="16" y="23" x="17"/>
   <rect style="fill:#808080" height="1" width="10" y="26" x="17"/>
   <g transform="matrix(.6897 .6802 -.6658 .7046 39.47 19.23)">
    <path style="fill-opacity:0.098" d="m-6.54 2.01 0.001 22 1 3.999 1-3.998v-22z"/>
    <rect style="fill:#3b6dad" height="19" width="2" y="5" x="-8"/>
    <path style="fill:#c83737" d="m31.62 15.2-1.33 1.41 1.379 1.361 1.332-1.41-1.381-1.361z" transform="matrix(.7505 -.7246 .7092 .7346 -42.51 13.75)"/>
    <path style="fill:#efdc90" d="m-8 24h2l-1 4z"/>
    <rect style="fill:#d7e3f4" height="1" width="2" y="4" x="-8"/>
    <rect style="fill:#2c4f92" height="19" width="1" y="5" x="-7"/>
    <path style="fill:#212121" d="m-6.481 26-0.519 2-0.492-2h1.01z"/>
   </g>
   <rect style="fill:#a6a6a6" rx="1" height="4" width="2" y="10" x="20"/>
   <rect style="fill:#a6a6a6" rx="1" height="4" width="2" y="10" x="28"/>
   <rect style="fill:#a6a6a6" rx="1" height="4" width="2" y="10" x="32"/>
   <rect style="fill:#a6a6a6" rx="1" height="4" width="2" y="10" x="24"/>
  </g>
 </g>
</svg>
