<?xml version="1.0" encoding="UTF-8" standalone="no"?>
<svg xmlns:rdf="http://www.w3.org/1999/02/22-rdf-syntax-ns#" xmlns="http://www.w3.org/2000/svg" xmlns:osb="http://www.openswatchbook.org/uri/2009/osb" height="32" width="32" version="1.0" xmlns:cc="http://creativecommons.org/ns#" xmlns:xlink="http://www.w3.org/1999/xlink" xmlns:dc="http://purl.org/dc/elements/1.1/">
 <path style="color:#000000;fill:#47ade5" d="m0 0v32h32v-32z"/>
 <g transform="matrix(.7232 0 0 .7232 -1.281 -1.407)">
  <g transform="translate(1,1)"></g>
  <circle cx="25" cy="25" r="15" style="opacity:.1"/>
  <circle cy="24" cx="24" r="15" style="fill:#e54747"/>
  <g transform="translate(0,-1)">
   <path style="fill:#f9f9f9" d="m16 24a8 8 0 0 0 7 7.928v2.072h-2v2h6v-2h-2v-2.07a8 8 0 0 0 7 -7.93h-2a6 6 0 0 1 -6 6 6 6 0 0 1 -6 -6h-2z"/>
  </g>
  <rect style="fill:#f9f9f9" rx="4" height="14" width="8" y="14" x="20"/>
 </g>
</svg>
