<?xml version="1.0" encoding="UTF-8" standalone="no"?>
<svg xmlns:rdf="http://www.w3.org/1999/02/22-rdf-syntax-ns#" xmlns="http://www.w3.org/2000/svg" xmlns:osb="http://www.openswatchbook.org/uri/2009/osb" height="32" width="32" version="1.0" xmlns:cc="http://creativecommons.org/ns#" xmlns:xlink="http://www.w3.org/1999/xlink" xmlns:dc="http://purl.org/dc/elements/1.1/">
 <defs>
  <linearGradient id="a" x2="47" gradientUnits="userSpaceOnUse" x1="1" gradientTransform="matrix(0 -1 1 0 -.0000015 48)">
   <stop style="stop-color:#3d3d3d" offset="0"/>
   <stop style="stop-color:#474747" offset="1"/>
  </linearGradient>
 </defs>
 <path style="color:#000000;fill:#e54747" d="m0 0v32h32v-32z"/>
 <g transform="matrix(.4894 0 0 .4894 4.011 4.011)">
  <path style="opacity:.05" d="m36.31 5c5.859 4.062 9.688 10.83 9.688 18.5 0 12.43-10.07 22.5-22.5 22.5-7.669 0-14.44-3.828-18.5-9.688 1.037 1.822 2.306 3.499 3.781 4.969 4.085 3.712 9.514 5.969 15.47 5.969 12.7 0 23-10.3 23-23 0-5.954-2.256-11.38-5.969-15.47-1.47-1.474-3.15-2.743-4.97-3.78zm4.969 3.781c3.854 4.113 6.219 9.637 6.219 15.72 0 12.7-10.3 23-23 23-6.081 0-11.61-2.364-15.72-6.219 4.16 4.144 9.883 6.719 16.22 6.719 12.7 0 23-10.3 23-23 0-6.335-2.575-12.06-6.719-16.22z"/>
  <path style="opacity:.1" d="m41.28 8.781c3.712 4.085 5.969 9.514 5.969 15.47 0 12.7-10.3 23-23 23-5.954 0-11.38-2.256-15.47-5.969 4.113 3.854 9.637 6.219 15.72 6.219 12.7 0 23-10.3 23-23 0-6.081-2.364-11.61-6.219-15.72z"/>
  <path style="opacity:.2" d="m31.25 2.375c8.61 3.154 14.75 11.42 14.75 21.12 0 12.43-10.07 22.5-22.5 22.5-9.708 0-17.97-6.135-21.12-14.75a23 23 0 0 0 44.88 -7 23 23 0 0 0 -16 -21.88z"/>
  <path style="fill:url(#a)" d="m24 1c12.7 0 23 10.3 23 23s-10.3 23-23 23-23-10.3-23-23 10.3-23 23-23z"/>
  <g transform="translate(1,1)"></g>
  <circle cx="25" cy="25" r="15" style="opacity:.1"/>
  <circle cy="24" cx="24" r="15" style="fill:#e54747"/>
  <g transform="translate(0,-1)">
   <path style="fill:#f9f9f9" d="m16 24a8 8 0 0 0 7 7.928v2.072h-2v2h6v-2h-2v-2.07a8 8 0 0 0 7 -7.93h-2a6 6 0 0 1 -6 6 6 6 0 0 1 -6 -6h-2z"/>
  </g>
  <path style="opacity:.1" d="m40.03 7.531c3.712 4.084 5.969 9.514 5.969 15.47 0 12.7-10.3 23-23 23-5.96 0-11.38-2.26-15.47-5.97 4.18 4.29 10.01 6.97 16.47 6.97 12.7 0 23-10.3 23-23 0-6.462-2.677-12.29-6.969-16.47z"/>
  <rect style="fill:#f9f9f9" rx="4" height="14" width="8" y="14" x="20"/>
 </g>
</svg>
