<?xml version="1.0" encoding="UTF-8" standalone="no"?>
<svg xmlns:rdf="http://www.w3.org/1999/02/22-rdf-syntax-ns#" xmlns="http://www.w3.org/2000/svg" xmlns:osb="http://www.openswatchbook.org/uri/2009/osb" height="32" width="32" version="1.0" xmlns:cc="http://creativecommons.org/ns#" xmlns:xlink="http://www.w3.org/1999/xlink" xmlns:dc="http://purl.org/dc/elements/1.1/">
 <path style="color:#000000;fill:#e1e0d2" d="m0 0v32h32v-32z"/>
 <g transform="matrix(.7371 0 0 .7371 -1.683 -1.558)">
  <g transform="translate(1,1)">
   <g style="opacity:.1">
    <path d="m18 11c-3.312 0-6 2.687-6 6 0 3.312 2.687 6 6 6h14c3.312 0 6-2.687 6-6 0-3.312-2.687-6-6-6h-14zm0 16c-3.313 0-6 2.688-6 6 0 3.313 2.688 6 6 6h14c3.313 0 6-2.688 6-6 0-3.313-2.688-6-6-6h-14z" transform="translate(-1,-1)"/>
   </g>
  </g>
  <path style="fill:#5dba6f" d="m17 10c-3.312 0-6 2.687-6 6 0 3.312 2.687 6 6 6h14c3.312 0 6-2.687 6-6 0-3.312-2.687-6-6-6h-14z"/>
  <path style="fill:#ededed" d="m22 16c0 2.762-2.238 5-5 5s-5-2.238-5-5 2.238-5 5-5 5 2.238 5 5"/>
  <path style="fill:#5dba6f;fill-rule:evenodd" d="m14.5 16.32 2.08 1.68 2.92-3.35-0.62-0.65-2.3 2.7-1.36-1.12m-0.72 0.74"/>
  <path style="fill:#eb594d" d="m17 26c-3.313 0-6 2.688-6 6 0 3.313 2.688 6 6 6h14c3.313 0 6-2.688 6-6 0-3.313-2.688-6-6-6h-14z"/>
  <path style="fill:#ededed" d="m26 32c0 2.762 2.238 5 5 5s5-2.238 5-5-2.238-5-5-5-5 2.238-5 5"/>
  <path style="fill:#eb594d" d="m29 30h0.83l1.17 1.5 1.17-1.5h0.83l-1.5 2 1.5 2h-0.83l-1.17-1.5-1 1.5h-1l1.5-2"/>
 </g>
</svg>
