<?xml version="1.0" encoding="UTF-8" standalone="no"?>
<svg xmlns:rdf="http://www.w3.org/1999/02/22-rdf-syntax-ns#" xmlns="http://www.w3.org/2000/svg" xmlns:osb="http://www.openswatchbook.org/uri/2009/osb" height="32" width="32" version="1.0" xmlns:cc="http://creativecommons.org/ns#" xmlns:xlink="http://www.w3.org/1999/xlink" xmlns:dc="http://purl.org/dc/elements/1.1/">
 <path style="color:#000000;fill:#58c617" d="m0 0v32h32v-32z"/>
 <g transform="matrix(.8530 0 0 .8530 -4.459 -4.584)">
  <g transform="matrix(3.543 0 0 3.543 -.0003357 .001035)">
   <g style="opacity:.1" transform="translate(-.4940 2.448)">
    <path d="m4.163 2.35v2.822h1.693c0 0.847-0.564 1.129-0.564 1.129v0.564s1.693-0.564 1.693-1.976v-2.54m-2.822 0"/>
    <path d="m8.114 2.35v2.822h1.693c0 0.847-0.564 1.129-0.564 1.129v0.564s1.693-0.564 1.693-1.976v-2.54m-2.822 0"/>
   </g>
   <g transform="translate(-.7762 2.166)">
    <path style="fill:#f9f9f9" d="m4.163 2.35v2.822h1.693c0 0.847-0.564 1.129-0.564 1.129v0.564s1.693-0.564 1.693-1.976v-2.54m-2.822 0"/>
    <path style="fill:#f9f9f9" d="m8.114 2.35v2.822h1.693c0 0.847-0.564 1.129-0.564 1.129v0.564s1.693-0.564 1.693-1.976v-2.54m-2.822 0"/>
   </g>
  </g>
 </g>
</svg>
