<?xml version="1.0" encoding="UTF-8" standalone="no"?>
<svg xmlns:rdf="http://www.w3.org/1999/02/22-rdf-syntax-ns#" xmlns="http://www.w3.org/2000/svg" xmlns:osb="http://www.openswatchbook.org/uri/2009/osb" height="32" width="32" version="1.0" xmlns:cc="http://creativecommons.org/ns#" xmlns:xlink="http://www.w3.org/1999/xlink" xmlns:dc="http://purl.org/dc/elements/1.1/">
 <path style="color:#000000;fill:#f55670" d="m0 0v32h32v-32z"/>
 <g transform="matrix(.7850 0 0 .7850 -2.982 -3.796)">
  <g transform="translate(1,1)"></g>
  <g transform="translate(.000001785)"></g>
  <path style="opacity:.1;color-rendering:auto;color:#000000;isolation:auto;mix-blend-mode:normal;fill-rule:evenodd;shape-rendering:auto;solid-color:#000000;image-rendering:auto;white-space:normal" d="m32 11v1h1c2.216 0 4 1.769 4 4v1h1v-1c0-2.77-2.23-5-5-5h-1zm-1 3v1h1c1.108 0 2 0.892 2 2v1h1v-1c0-1.662-1.338-3-3-3h-1zm-2 3c-0.593 0-1 0.464-1 0.996v2h-14c-1 0-2 1-2 2v11c0 1 1 2 2 2h22c1 0 2-1 2-2v-11c0-1-1-2-2-2h-4v-2c0-0.56-0.45-1-1-1h-2zm0.5 1h1c0.277 0 0.5 0.223 0.5 0.5v1.5h-2v-1.5c0-0.28 0.22-0.5 0.5-0.5zm-13.81 4h7.62c0.846 0 1.691 0.709 1.691 1.424v8.145c0 0.714-0.845 1.432-1.691 1.432h-7.617c-0.106 0-0.212-0.012-0.316-0.033-0.72-0.14-1.37-0.76-1.37-1.39v-8.145c0-0.714 0.845-1.426 1.691-1.426v-0.004zm11.31 0h7.309c0.846 0 1.689 0.711 1.689 1.426v8.145c0 0.714-0.843 1.43-1.689 1.43h-7.309v-11zm2.5 0.998c-0.277 0-0.5 0.223-0.5 0.5s0.223 0.502 0.5 0.502h1c0.277 0 0.5-0.225 0.5-0.502s-0.223-0.5-0.5-0.5h-1zm3 0c-0.277 0-0.5 0.223-0.5 0.5s0.223 0.502 0.5 0.502h1c0.277 0 0.5-0.225 0.5-0.502s-0.223-0.5-0.5-0.5h-1zm-13 1c-1.933 0-3.5 1.567-3.5 3.5s1.567 3.5 3.5 3.5 3.5-1.567 3.5-3.5-1.567-3.5-3.5-3.5zm10 0.998c-0.277 0-0.5 0.223-0.5 0.5s0.223 0.502 0.5 0.502h1c0.277 0 0.5-0.225 0.5-0.502s-0.223-0.5-0.5-0.5h-1zm3 0c-0.277 0-0.5 0.223-0.5 0.5s0.223 0.502 0.5 0.502h1c0.277 0 0.5-0.225 0.5-0.502s-0.223-0.5-0.5-0.5h-1zm-13 1c0.828 0 1.5 0.672 1.5 1.5s-0.672 1.5-1.5 1.5-1.5-0.672-1.5-1.5 0.672-1.5 1.5-1.5zm13 0.998c-0.277 0-0.5 0.223-0.5 0.5s0.223 0.502 0.5 0.502h1c0.277 0 0.5-0.225 0.5-0.502s-0.223-0.5-0.5-0.5h-1zm-3 0.002c-0.277 0-0.5 0.221-0.5 0.498s0.223 0.502 0.5 0.502h1c0.277 0 0.5-0.225 0.5-0.502s-0.223-0.498-0.5-0.498h-1zm4.5 3c-0.552 0-1 0.448-1 1s0.448 1 1 1 1-0.448 1-1-0.448-1-1-1z" isolation="auto" mix-blend-mode="normal" white-space="normal"/>
  <path style="color-rendering:auto;color:#000000;isolation:auto;mix-blend-mode:normal;fill-rule:evenodd;shape-rendering:auto;solid-color:#000000;image-rendering:auto;white-space:normal;fill:#f9eff1" d="m31 10v1h1c2.216 0 4 1.769 4 4v1h1v-1c0-2.77-2.23-5-5-5h-1zm-1 3v1h1c1.108 0 2 0.892 2 2v1h1v-1c0-1.662-1.338-3-3-3h-1zm-2 3c-0.593 0-1 0.464-1 0.996v2h-14c-1 0-2 1-2 2v11c0 1 1 2 2 2h22c1 0 2-1 2-2v-11c0-1-1-2-2-2h-4v-2c0-0.56-0.45-1-1-1h-2zm0.5 1h1c0.277 0 0.5 0.223 0.5 0.5v1.5h-2v-1.5c0-0.28 0.22-0.5 0.5-0.5zm-13.81 4h7.62c0.846 0 1.691 0.709 1.691 1.424v8.145c0 0.714-0.845 1.432-1.691 1.432h-7.617c-0.106 0-0.212-0.012-0.316-0.033-0.72-0.14-1.37-0.76-1.37-1.39v-8.145c0-0.714 0.845-1.426 1.691-1.426v-0.004zm11.31 0h7.309c0.846 0 1.689 0.711 1.689 1.426v8.145c0 0.714-0.843 1.43-1.689 1.43h-7.309v-11zm2.5 0.998c-0.277 0-0.5 0.223-0.5 0.5s0.223 0.502 0.5 0.502h1c0.277 0 0.5-0.225 0.5-0.502s-0.223-0.5-0.5-0.5h-1zm3 0c-0.277 0-0.5 0.223-0.5 0.5s0.223 0.502 0.5 0.502h1c0.277 0 0.5-0.225 0.5-0.502s-0.223-0.5-0.5-0.5h-1zm-13 1c-1.933 0-3.5 1.567-3.5 3.5s1.567 3.5 3.5 3.5 3.5-1.567 3.5-3.5-1.567-3.5-3.5-3.5zm10 0.998c-0.277 0-0.5 0.223-0.5 0.5s0.223 0.502 0.5 0.502h1c0.277 0 0.5-0.225 0.5-0.502s-0.223-0.5-0.5-0.5h-1zm3 0c-0.277 0-0.5 0.223-0.5 0.5s0.223 0.502 0.5 0.502h1c0.277 0 0.5-0.225 0.5-0.502s-0.223-0.5-0.5-0.5h-1zm-13 1c0.828 0 1.5 0.672 1.5 1.5s-0.672 1.5-1.5 1.5-1.5-0.672-1.5-1.5 0.672-1.5 1.5-1.5zm13 0.998c-0.277 0-0.5 0.223-0.5 0.5s0.223 0.502 0.5 0.502h1c0.277 0 0.5-0.225 0.5-0.502s-0.223-0.5-0.5-0.5h-1zm-3 0.002c-0.277 0-0.5 0.221-0.5 0.498s0.223 0.502 0.5 0.502h1c0.277 0 0.5-0.225 0.5-0.502s-0.223-0.498-0.5-0.498h-1zm4.5 3c-0.552 0-1 0.448-1 1s0.448 1 1 1 1-0.448 1-1-0.448-1-1-1z" isolation="auto" mix-blend-mode="normal" white-space="normal"/>
 </g>
</svg>
