<?xml version="1.0" encoding="UTF-8" standalone="no"?>
<svg xmlns:rdf="http://www.w3.org/1999/02/22-rdf-syntax-ns#" xmlns="http://www.w3.org/2000/svg" xmlns:osb="http://www.openswatchbook.org/uri/2009/osb" height="32" width="32" version="1.0" xmlns:cc="http://creativecommons.org/ns#" xmlns:xlink="http://www.w3.org/1999/xlink" xmlns:dc="http://purl.org/dc/elements/1.1/">
 <path style="color:#000000;fill:#7ce01b" d="m0 0v32h32v-32z"/>
 <g transform="matrix(.7177 0 0 .7177 -1.344 -1.267)">
  <g transform="translate(1,1)">
   <g style="opacity:.1">
    <path d="m21.25 9c-0.313 0-0.586 0.379-0.586 0.879v2.953c0 0.043 0.027 0.078 0.031 0.121-0.863 0.242-1.695 0.594-2.469 1.012l-1.91-1.85c-0.125-0.125-0.246-0.188-0.391-0.254-0.316-0.207-0.629-0.27-0.809-0.094l-3.934 3.801c-0.23 0.215-0.105 0.684 0.258 1.039l2.02 1.949c0.027 0.023 0.039 0.039 0.066 0.063-0.297 0.531-0.574 1.086-0.781 1.664h-2.695c-0.371 0-0.68 0.172-0.813 0.41-0.137 0.117-0.227 0.273-0.227 0.441v6.438c0 0.371 0.379 0.66 0.879 0.66h2.762c0.105 0 0.203-0.039 0.297-0.066 0.219 0.543 0.48 1.066 0.777 1.566-0.035 0.031-0.066 0.066-0.105 0.098l-1.977 1.918c-0.289 0.273-0.398 0.578-0.328 0.816-0.035 0.172-0.004 0.34 0.102 0.441l3.902 3.801c0.223 0.215 0.707 0.098 1.07-0.25l2.02-1.949c0.109-0.109 0.164-0.227 0.227-0.348 0.656 0.32 1.355 0.582 2.078 0.785-0.004 0.043-0.031 0.082-0.031 0.125v2.918c0 0.5 0.273 0.91 0.586 0.91h5.492c0.309 0 0.551-0.41 0.551-0.91v-2.918c0-0.043 0.004-0.082 0-0.125 0.824-0.23 1.629-0.52 2.375-0.91 0.055 0.16 0.141 0.328 0.293 0.473l2.02 1.949c0.363 0.352 0.82 0.465 1.043 0.25l3.95-3.81c0.109-0.109 0.141-0.289 0.098-0.473 0.047-0.234-0.09-0.523-0.355-0.785l-1.984-1.918c-0.102-0.098-0.215-0.195-0.328-0.25 0.262-0.457 0.484-0.922 0.691-1.414 0.094 0.023 0.188 0.063 0.293 0.063h2.727c0.5 0 0.91-0.293 0.91-0.66v-6.438c0-0.176-0.109-0.32-0.258-0.438-0.004-0.008 0.004-0.027 0-0.035-0.012-0.004-0.023-0.023-0.031-0.031-0.145-0.203-0.445-0.348-0.781-0.348h-2.664c-0.176-0.5-0.438-0.977-0.684-1.445 0.125-0.059 0.242-0.141 0.355-0.25l2.02-1.949c0.363-0.352 0.449-0.82 0.23-1.039l-3.91-3.8c-0.168-0.164-0.48-0.137-0.781 0.031-0.168 0.055-0.328 0.133-0.488 0.285l-1.98 1.914c-0.02 0.02-0.02 0.047-0.031 0.066-0.836-0.477-1.746-0.867-2.695-1.133 0.004-0.043 0-0.082 0-0.121v-2.953c0-0.5-0.242-0.879-0.555-0.879"/>
   </g>
  </g>
  <path style="fill:#191919" d="m33.82 24.25c0.063 3.496-1.855 6.75-5.02 8.516-3.16 1.766-7.07 1.766-10.23 0s-5.078-5.02-5.02-8.516c-0.059-3.496 1.859-6.75 5.02-8.516 3.16-1.766 7.07-1.766 10.23 0s5.078 5.02 5.02 8.516"/>
  <path style="fill:#61b212" d="m21.25 9c-0.313 0-0.586 0.379-0.586 0.879v2.953c0 0.043 0.027 0.078 0.031 0.121-0.863 0.242-1.695 0.594-2.469 1.012l-1.91-1.85c-0.125-0.125-0.246-0.188-0.391-0.254-0.316-0.207-0.629-0.27-0.809-0.094l-3.934 3.801c-0.23 0.215-0.105 0.684 0.258 1.039l2.02 1.949c0.027 0.023 0.039 0.039 0.066 0.063-0.297 0.531-0.574 1.086-0.781 1.664h-2.695c-0.371 0-0.68 0.172-0.813 0.41-0.137 0.117-0.227 0.273-0.227 0.441v6.438c0 0.371 0.379 0.66 0.879 0.66h2.762c0.105 0 0.203-0.039 0.297-0.066 0.219 0.543 0.48 1.066 0.777 1.566-0.035 0.031-0.066 0.066-0.105 0.098l-1.977 1.918c-0.289 0.273-0.398 0.578-0.328 0.816-0.035 0.172-0.004 0.34 0.102 0.441l3.902 3.801c0.223 0.215 0.707 0.098 1.07-0.25l2.02-1.949c0.109-0.109 0.164-0.227 0.227-0.348 0.656 0.32 1.355 0.582 2.078 0.785-0.004 0.043-0.031 0.082-0.031 0.125v2.918c0 0.5 0.273 0.91 0.586 0.91h5.492c0.309 0 0.551-0.41 0.551-0.91v-2.918c0-0.043 0.004-0.082 0-0.125 0.824-0.23 1.629-0.52 2.375-0.91 0.055 0.16 0.141 0.328 0.293 0.473l2.02 1.949c0.363 0.352 0.82 0.465 1.043 0.25l3.95-3.81c0.109-0.109 0.141-0.289 0.098-0.473 0.047-0.234-0.09-0.523-0.355-0.785l-1.984-1.918c-0.102-0.098-0.215-0.195-0.328-0.25 0.262-0.457 0.484-0.922 0.691-1.414 0.094 0.023 0.188 0.063 0.293 0.063h2.727c0.5 0 0.91-0.293 0.91-0.66v-6.438c0-0.176-0.109-0.32-0.258-0.438-0.004-0.008 0.004-0.027 0-0.035-0.012-0.004-0.023-0.023-0.031-0.031-0.145-0.203-0.445-0.348-0.781-0.348h-2.664c-0.176-0.5-0.438-0.977-0.684-1.445 0.125-0.059 0.242-0.141 0.355-0.25l2.02-1.949c0.363-0.352 0.449-0.82 0.23-1.039l-3.91-3.8c-0.168-0.164-0.48-0.137-0.781 0.031-0.168 0.055-0.328 0.133-0.488 0.285l-1.98 1.914c-0.02 0.02-0.02 0.047-0.031 0.066-0.836-0.477-1.746-0.867-2.695-1.133 0.004-0.043 0-0.082 0-0.121v-2.953c0-0.5-0.242-0.879-0.555-0.879m0.992 7c0.316-0.02 0.652 0.059 0.941 0.223 0.781 0.434 1.031 1.41 0.586 2.168-0.449 0.758-1.43 1-2.211 0.566-0.781-0.438-1.07-1.379-0.617-2.137 0.285-0.477 0.773-0.781 1.301-0.82m-3.773 1.539c0.531 0 1.059 0.043 1.563 0.156 0.043 0.738 0.457 1.457 1.172 1.852 0.715 0.402 1.559 0.402 2.242 0.066 1.063 1.094 1.688 2.469 1.816 3.957h-2.797c-0.273-1.895-1.961-3.332-3.996-3.332-0.527 0-1.027 0.102-1.492 0.285l-1.434-2.355c0.898-0.41 1.902-0.629 2.926-0.629m-3.898 1.164 1.395 2.355c-0.938 0.715-1.559 1.832-1.559 3.078s0.617 2.355 1.559 3.078l-1.395 2.352c-0.324-0.223-0.652-0.473-0.941-0.754-0.813-0.781-1.367-1.727-1.691-2.762 0.645-0.406 1.074-1.117 1.074-1.918 0-0.797-0.426-1.48-1.074-1.891 0.324-1.027 0.879-2.01 1.691-2.793 0.289-0.277 0.613-0.527 0.941-0.754m-3.934 3.859c0.902 0 1.656 0.699 1.656 1.57s-0.754 1.57-1.656 1.57-1.629-0.699-1.629-1.57 0.727-1.57 1.629-1.57m11.83 2.137h2.797c-0.129 1.492-0.75 2.863-1.816 3.957-0.688-0.336-1.531-0.336-2.242 0.066-0.719 0.398-1.133 1.113-1.172 1.852-0.508 0.113-1.027 0.156-1.563 0.156-1.02 0-2.023-0.219-2.926-0.625l1.398-2.328c0.465 0.191 0.996 0.285 1.523 0.285 2.035 0 3.727-1.465 3.996-3.363m0.035 4.398c0.527 0.035 1.023 0.313 1.301 0.785 0.453 0.754 0.168 1.73-0.613 2.168s-1.789 0.191-2.242-0.566c-0.449-0.758-0.164-1.727 0.617-2.168 0.293-0.164 0.629-0.242 0.938-0.219"/>
 </g>
</svg>
