<?xml version="1.0" encoding="UTF-8" standalone="no"?>
<svg id="svg2817" xmlns:rdf="http://www.w3.org/1999/02/22-rdf-syntax-ns#" xmlns="http://www.w3.org/2000/svg" xmlns:osb="http://www.openswatchbook.org/uri/2009/osb" height="32" width="32" version="1.0" xmlns:cc="http://creativecommons.org/ns#" xmlns:xlink="http://www.w3.org/1999/xlink" xmlns:dc="http://purl.org/dc/elements/1.1/">
 <g style="color:#000000">
  <path id="path14907" fill="#333" d="m0.0096284-0.038611v32.126h32.126v-32.126z"/>
  <path id="rect4238" opacity=".05" fill="#fff" d="m0.0096284-0.038611v32.126l32.041-31.971z"/>
 </g>
 <g id="g4409" style="color-rendering:auto;color:#000000;isolation:auto;mix-blend-mode:normal;shape-rendering:auto;solid-color:#000000;image-rendering:auto" transform="matrix(.20176 0 0 .20176 6.7798 7.0116)" fill="#fff">
    <path id="path4361"  d="m82.287 45.907c-0.937-4.071-4.267-7.074-8.275-7.521-9.489-1.06-19.098-1.065-28.66-1.06-9.566-0.005-19.173 0-28.665 1.06-4.006 0.448-7.334 3.451-8.27 7.521-1.334 5.797-1.35 12.125-1.35 18.094s0 12.296 1.334 18.093c0.936 4.07 4.264 7.073 8.272 7.521 9.49 1.061 19.097 1.065 28.662 1.061 9.566 0.005 19.171 0 28.664-1.061 4.006-0.448 7.336-3.451 8.272-7.521 1.333-5.797 1.34-12.124 1.34-18.093-0.001-5.97 0.009-12.297-1.324-18.094zm-53.387 4.493h-5.54v29.438h-5.146v-29.438h-5.439v-4.822h16.125v4.822zm13.977 29.439h-4.629v-2.785c-1.839 2.108-3.585 3.136-5.286 3.136-1.491 0-2.517-0.604-2.98-1.897-0.252-0.772-0.408-1.994-0.408-3.796v-20.186h4.625v18.795c0 1.084 0 1.647 0.042 1.799 0.111 0.718 0.462 1.082 1.082 1.082 0.928 0 1.898-0.715 2.924-2.166v-19.51h4.629l0.001 25.528zm17.573-7.662c0 2.361-0.159 4.062-0.468 5.144-0.618 1.899-1.855 2.869-3.695 2.869-1.646 0-3.234-0.914-4.781-2.824v2.474h-4.625v-34.262h4.625v11.189c1.494-1.839 3.08-2.769 4.781-2.769 1.84 0 3.078 0.969 3.695 2.88 0.311 1.027 0.468 2.715 0.468 5.132v10.167zm17.457-4.259h-9.251v4.525c0 2.363 0.773 3.543 2.363 3.543 1.139 0 1.802-0.619 2.066-1.855 0.043-0.251 0.104-1.279 0.104-3.134h4.719v0.675c0 1.491-0.057 2.518-0.099 2.98-0.155 1.024-0.519 1.953-1.08 2.771-1.281 1.854-3.179 2.768-5.595 2.768-2.42 0-4.262-0.871-5.599-2.614-0.981-1.278-1.485-3.29-1.485-6.003v-8.941c0-2.729 0.447-4.725 1.43-6.015 1.336-1.747 3.177-2.617 5.54-2.617 2.321 0 4.161 0.87 5.457 2.617 0.969 1.29 1.432 3.286 1.432 6.015v5.285h-0.002z"/>
    <path id="path4363"  d="m70.978 58.163c-1.546 0-2.321 1.181-2.321 3.541v2.362h4.625v-2.362c-0.001-2.36-0.774-3.541-2.304-3.541z"/>
    <path id="path4365"  d="m53.812 58.163c-0.762 0-1.534 0.36-2.307 1.125v15.559c0.772 0.774 1.545 1.14 2.307 1.14 1.334 0 2.012-1.14 2.012-3.445v-10.896c0-2.302-0.678-3.483-2.012-3.483z"/>
    <path id="path4367"  d="m56.396 34.973c1.705 0 3.479-1.036 5.34-3.168v2.814h4.675v-25.799h-4.675v19.718c-1.036 1.464-2.018 2.188-2.953 2.188-0.626 0-0.994-0.37-1.096-1.095-0.057-0.153-0.057-0.722-0.057-1.817v-18.994h-4.66v20.4c0 1.822 0.156 3.055 0.414 3.836 0.47 1.307 1.507 1.917 3.012 1.917z"/>
    <path id="path4369"  d="m23.851 20.598v14.021h5.184v-14.021l6.236-20.598h-5.242l-3.537 13.595-3.68-13.595h-5.455c1.093 3.209 2.23 6.434 3.323 9.646 1.663 4.828 2.701 8.468 3.171 10.952z"/>
    <path id="path4371"  d="m42.219 34.973c2.342 0 4.162-0.881 5.453-2.641 0.981-1.291 1.451-3.325 1.451-6.067v-9.034c0-2.758-0.469-4.774-1.451-6.077-1.291-1.765-3.11-2.646-5.453-2.646-2.33 0-4.149 0.881-5.443 2.646-0.993 1.303-1.463 3.319-1.463 6.077v9.034c0 2.742 0.47 4.776 1.463 6.067 1.293 1.76 3.113 2.641 5.443 2.641zm-2.231-18.679c0-2.387 0.724-3.577 2.231-3.577s2.229 1.189 2.229 3.577v10.852c0 2.387-0.722 3.581-2.229 3.581s-2.231-1.194-2.231-3.581v-10.852z"/>
   </g>
</svg>
