<?xml version="1.0" encoding="UTF-8" standalone="no"?>
<svg xmlns:rdf="http://www.w3.org/1999/02/22-rdf-syntax-ns#" xmlns="http://www.w3.org/2000/svg" height="32" width="32" version="1.0" xmlns:cc="http://creativecommons.org/ns#" xmlns:dc="http://purl.org/dc/elements/1.1/">
 <path style="color:#000000;fill:#af1616" d="m0.009628-0.03861v32.13h32.13v-32.13z"/>
 <path style="color-rendering:auto;color:#000000;isolation:auto;mix-blend-mode:normal;shape-rendering:auto;solid-color:#000000;image-rendering:auto;fill:#fff" d="m23.38 16.27c-0.189-0.8214-0.8609-1.427-1.67-1.517-1.915-0.2139-3.853-0.2149-5.782-0.2139-1.93-0.001-3.868 0-5.783 0.2139-0.8083 0.09039-1.48 0.6963-1.669 1.517-0.2691 1.17-0.2724 2.446-0.2724 3.651 0 1.204 0 2.481 0.2691 3.65 0.1888 0.8212 0.8603 1.427 1.669 1.517 1.915 0.2141 3.853 0.2149 5.783 0.2141 1.93 0.001 3.868 0 5.783-0.2141 0.8083-0.09039 1.48-0.6963 1.669-1.517 0.2689-1.17 0.2704-2.446 0.2704-3.65-0.000201-1.205 0.0018-2.481-0.2671-3.651zm-10.77 0.9065h-1.118v5.939h-1.038v-5.939h-1.097v-0.9729h3.253v0.9729zm2.82 5.94h-0.9339v-0.5619c-0.371 0.4253-0.7233 0.6327-1.067 0.6327-0.3008 0-0.5078-0.1219-0.6012-0.3827-0.05084-0.1558-0.08232-0.4023-0.08232-0.7659v-4.073h0.9331v3.792c0 0.2187 0 0.3323 0.0085 0.363 0.0224 0.1449 0.09321 0.2183 0.2183 0.2183 0.1872 0 0.3829-0.1443 0.5899-0.437v-3.936h0.9339l0.000202 5.151zm3.546-1.546c0 0.4764-0.03208 0.8195-0.09442 1.038-0.1247 0.3831-0.3743 0.5788-0.7455 0.5788-0.3321 0-0.6525-0.1844-0.9646-0.5698v0.4992h-0.9331v-6.913h0.9331v2.257c0.3014-0.371 0.6214-0.5587 0.9646-0.5587 0.3712 0 0.621 0.1955 0.7455 0.5811 0.06275 0.2072 0.09442 0.5478 0.09442 1.035v2.051zm3.522-0.8593h-1.866v0.913c0 0.4768 0.156 0.7148 0.4768 0.7148 0.2298 0 0.3636-0.1249 0.4168-0.3743 0.0087-0.05064 0.02098-0.2581 0.02098-0.6323h0.9521v0.1362c0 0.3008-0.0115 0.508-0.01997 0.6012-0.03127 0.2066-0.1047 0.394-0.2179 0.5591-0.2585 0.3741-0.6414 0.5585-1.129 0.5585-0.4883 0-0.8599-0.1757-1.13-0.5274-0.1979-0.2578-0.2996-0.6638-0.2996-1.211v-1.804c0-0.5506 0.09019-0.9533 0.2885-1.214 0.2696-0.3525 0.641-0.528 1.118-0.528 0.4683 0 0.8395 0.1755 1.101 0.528 0.1955 0.2603 0.2889 0.663 0.2889 1.214v1.066h-0.000404z"/>
 <path style="color-rendering:auto;color:#000000;isolation:auto;mix-blend-mode:normal;shape-rendering:auto;solid-color:#000000;image-rendering:auto;fill:#fff" d="m21.1 18.75c-0.3119 0-0.4683 0.2383-0.4683 0.7144v0.4766h0.9331v-0.4766c-0.000201-0.4762-0.1562-0.7144-0.4649-0.7144z"/>
 <path style="color-rendering:auto;color:#000000;isolation:auto;mix-blend-mode:normal;shape-rendering:auto;solid-color:#000000;image-rendering:auto;fill:#fff" d="m17.64 18.75c-0.1537 0-0.3095 0.07263-0.4655 0.227v3.139c0.1558 0.1562 0.3117 0.23 0.4655 0.23 0.2691 0 0.4059-0.23 0.4059-0.6951v-2.198c0-0.4645-0.1368-0.7027-0.4059-0.7027z"/>
 <path style="color-rendering:auto;color:#000000;isolation:auto;mix-blend-mode:normal;shape-rendering:auto;solid-color:#000000;image-rendering:auto;fill:#fff" d="m18.16 14.07c0.344 0 0.7019-0.209 1.077-0.6392v0.5678h0.9432v-5.205h-0.9432v3.978c-0.209 0.2954-0.4072 0.4415-0.5958 0.4415-0.1263 0-0.2005-0.07465-0.2211-0.2209-0.0115-0.03087-0.0115-0.1457-0.0115-0.3666v-3.832h-0.9402v4.116c0 0.3676 0.03147 0.6164 0.08353 0.774 0.09483 0.2637 0.3041 0.3868 0.6077 0.3868z"/>
 <path style="color-rendering:auto;color:#000000;isolation:auto;mix-blend-mode:normal;shape-rendering:auto;solid-color:#000000;image-rendering:auto;fill:#fff" d="m11.59 11.17v2.829h1.046v-2.829l1.258-4.156h-1.058l-0.7136 2.743-0.7425-2.743h-1.101c0.2205 0.6474 0.4499 1.298 0.6704 1.946 0.3355 0.9741 0.545 1.709 0.6398 2.21z"/>
 <path style="color-rendering:auto;color:#000000;isolation:auto;mix-blend-mode:normal;shape-rendering:auto;solid-color:#000000;image-rendering:auto;fill:#fff" d="m15.3 14.07c0.4725 0 0.8397-0.1778 1.1-0.5328 0.1979-0.2605 0.2928-0.6709 0.2928-1.224v-1.823c0-0.5565-0.09463-0.9632-0.2928-1.226-0.2605-0.3561-0.6275-0.5339-1.1-0.5339-0.4701 0-0.8371 0.1778-1.098 0.5339-0.2003 0.2629-0.2952 0.6696-0.2952 1.226v1.823c0 0.5532 0.09483 0.9636 0.2952 1.224 0.2609 0.3551 0.6281 0.5328 1.098 0.5328zm-0.4501-3.769c0-0.4816 0.1461-0.7217 0.4501-0.7217 0.3041 0 0.4497 0.2399 0.4497 0.7217v2.19c0 0.4816-0.1457 0.7225-0.4497 0.7225-0.3041 0-0.4501-0.2409-0.4501-0.7225v-2.19z"/>
</svg>
