<?xml version="1.0" encoding="UTF-8" standalone="no"?>
<svg xmlns="http://www.w3.org/2000/svg" height="32" width="32" version="1.0">
 <path style="fill:#333" d="m0 0v32h32v-32z"/>
 <g style="fill:#fff">
 <path d="m8.682 6.967c-0.958 0-1.729 0.771-1.729 1.728v14.6c0 0.96 0.771 1.73 1.729 1.73h14.64c0.96 0 1.73-0.77 1.73-1.73v-14.6c0-0.962-0.77-1.733-1.73-1.733h-14.64zm0.601 2.013h6.147v6.14h-6.147v-6.14zm7.287 0h6.15v6.14h-6.15v-6.14zm-7.287 7.9h6.147v6.14h-6.147v-6.14zm7.287 0h6.15v6.14h-6.15v-6.14z"/>
 <rect ry="0" height="5.853" width="5.853" y="17.02" x="9.43"/>
 <rect ry="0" height="5.853" width="5.853" y="9.126" x="16.72"/>
 </g>
</svg>
