<?xml version="1.0" encoding="UTF-8" standalone="no"?>
<svg xmlns="http://www.w3.org/2000/svg" height="32" width="32" version="1.1" viewBox="0 0 32 32">
 <path fill="#333" d="m0 0v32h32v-32z"/>
 <path style="fill:#fff;fill-rule:evenodd" d="m27.1 4.92c-0.5-0.52-2.4 0.87-3.3 1.56-0.2 0.21-0.5 0.4-0.7 0.62l-2.32 2.32c-0.141 0.128-0.2 0.137-0.347 0.128l-3.44-0.325c-0.212-0.044-0.378-0.215-0.0743-0.493l0.206-0.206c0.116-0.116 0.116-0.303-0.0064-0.425l-0.3-0.27c-0.2-0.12-0.4-0.13-0.5-0.01l-1.21 1.21c-0.0376 0.0376-0.0472 0.0344-0.0999 0.0312l-3.29-0.277c-0.303-0.0599-0.253-0.247-0.0496-0.468l0.3-0.37c0.2-0.11 0.2-0.3 0-0.42l-0.2-0.27c-0.1-0.12-0.3-0.13-0.5-0.01l-1.26 1.26c-0.016 0.016-0.0248 0.012-0.0408 0.00882l-3.44-0.34c-0.27 0.02-0.41 0.02-0.65 0.27l-0.72 0.7c-0.109 0.0775-0.0528 0.216 0.044 0.25 0 0 5.19 1.35 6.97 2.07 1.78 0.731 3.81 2.04 3.81 2.04 0.156 0.0999 0.278 0.209 0.197 0.39l-5.31 5.31c-0.631 0.637-0.765 1.27-1.25 1.25l-4.01-0.1c-0.253 0.0032-0.437 0.0376-0.656 0.231l-0.22 0.3c-0.0935 0.106-0.106 0.2 0.0032 0.285l3.29 2.05c0.0903 0.0472 0.141 0.109 0.125 0.225l-0.3 0.843 0.921-0.253c0.109-0.0152 0.225 0.044 0.269 0.131 0.637 1 1.27 2.01 1.91 3.02 0.0903 0.116 0.181 0.2 0.328 0.0783l0.337-0.337c0.178-0.284 0.144-0.531 0.137-0.818l-0.396-3.79c-0.0096-0.384 0.583-0.59 1.29-1.16l5.25-5.25 0.0032 0.0032 0.0064-0.0064 0.0064 0.0064c0.0096-0.0096 0.0192-0.0128 0.0248-0.0184 0.0128-0.0064 0.0224-0.0096 0.0312-0.012 0.0064-0.0064 0.016-0.0096 0.0224-0.0096 0.0096-0.0032 0.0192-0.0128 0.0248-0.012 0.0096-0.0032 0.0312 0.0057 0.0344 0.0024 0.0096-0.0032 0.0224-0.0096 0.0312-0.0057 0.0096-0.0032 0.028 0.0088 0.0344 0.0024h0.0256c0.0096 0.0032 0.0248 0.012 0.028 0.0088 0.0128 0 0.0224 0.0032 0.0288 0.0032 0.0096 0.0032 0.0216 0.0152 0.0248 0.012 0.0128 0.0064 0.0192 0.0128 0.0248 0.012 0.0128 0.0128 0.0184 0.0184 0.0248 0.0184l0.0248 0.0248c0.0096 0.0096 0.0128 0.0192 0.0184 0.0248 0.016 0.016 0.0184 0.0184 0.0248 0.0312 0 0 1.2 1.83 1.97 3.62 0.767 1.8 2.24 7.15 2.24 7.15 0.0679 0.0999 0.144 0.157 0.221 0.0839l0.655-0.655c0.178-0.172 0.218-0.45 0.216-0.59l-0.293-3.45c0.0096-0.141 0.0088-0.172 0.0528-0.216l1.25-1.25c0.116-0.116 0.109-0.309-0.0088-0.428l-0.272-0.272c-0.118-0.118-0.312-0.125-0.428-0.0088l-0.378 0.378c-0.203 0.246-0.35 0.269-0.384 0.0216l-0.344-3.35c-0.0064-0.0751-0.016-0.0847 0.0184-0.119l1.21-1.21c0.116-0.116 0.113-0.306-0.0088-0.428l-0.269-0.269c-0.116-0.116-0.309-0.122-0.425-0.0064l-0.206 0.206c-0.259 0.321-0.516 0.178-0.512-0.0935l-0.318-3.45c-0.0064-0.157 0.0368-0.2 0.121-0.328l2.3-2.41c0.2-0.23 0.5-0.5 0.6-0.74 0.7-0.94 2.2-3.03 1.6-3.23"/>
</svg>
