<?xml version="1.0" encoding="UTF-8" standalone="no"?>
<svg xmlns:rdf="http://www.w3.org/1999/02/22-rdf-syntax-ns#" xmlns="http://www.w3.org/2000/svg" height="32" width="32" version="1.1" xmlns:cc="http://creativecommons.org/ns#" xmlns:dc="http://purl.org/dc/elements/1.1/" viewBox="0 0 32 32">
 <path style="fill:#333" d="m0 0v32h32v-32z"/>
 <path style="fill:#fff" d="m10.75 25.2q-2.875 0-4.768-1.631-1.856-1.631-1.856-4.283 0-2.346 2.73-6.458 2.147-3.025 4.331-6.017h4.695l-5.132 6.934q0.2912 0 0.5823 0 2.766 0 4.368 1.53 1.638 1.496 1.638 4.079 0 2.651-1.893 4.249t-4.695 1.598zm0-8.43q-1.165 0-1.893 0.7478-0.6915 0.7478-0.6915 1.835 0 1.122 0.6915 1.87 0.7279 0.7478 1.893 0.7478t1.856-0.7478q0.6915-0.7478 0.6915-1.87 0-1.088-0.6915-1.835-0.6915-0.7478-1.856-0.7478z"/>
 <path style="fill:#fff" d="m26.12 20.95v3.875h-3.931v-3.875h-7.461v-3.229l6.042-10.91h5.35v11.12h1.747v3.025h-1.747zm-3.749-10.44-4.076 7.41h4.076v-7.41z"/>
</svg>
