<?xml version="1.0" encoding="UTF-8" standalone="no"?>
<svg xmlns:rdf="http://www.w3.org/1999/02/22-rdf-syntax-ns#" xmlns="http://www.w3.org/2000/svg" height="32" width="32" version="1.0" xmlns:cc="http://creativecommons.org/ns#" xmlns:dc="http://purl.org/dc/elements/1.1/">
 <path style="color:#000000;fill:#333" d="m0 0v32h32v-32z"/>
<g style="fill:#fff">
 <path d="m20.69 18.32c0 1.299-0.5473 2.561-1.541 3.555-1.262 1.262-3.129 1.986-5.121 1.986-1.609 0-3.911-0.6785-5.872-2.367-0.2569-0.2212-0.5926-0.357-0.958-0.357-0.8103 0-1.467 0.6571-1.467 1.467 0 0.4003 0.1633 0.767 0.4233 1.032 0.212 0.2159 0.4562 0.4058 0.6974 0.5917 2.725 2.099 5.804 2.262 6.682 2.262 2.996 0 5.513-0.9342 7.28-2.701 1.861-1.861 2.525-4.232 2.525-5.831 0-1.855-0.6684-3.587-1.834-4.752-0.8955-0.8955-2.027-1.389-3.187-1.389-1.223 0-2.353 0.457-3.183 1.287-0.2326 0.2325-0.4329 0.4864-0.5993 0.7554 0.4355-0.2782 0.9716-0.4232 1.577-0.4232 2.524 0 4.577 2.191 4.577 4.883z"/>
 <path d="m18.32 11.31c1.299 0 2.561 0.5475 3.555 1.541 1.262 1.262 1.986 3.129 1.986 5.121 0 1.61-0.6784 3.911-2.367 5.872-0.2212 0.257-0.3568 0.5924-0.3568 0.9581 0 0.8101 0.6568 1.467 1.467 1.467 0.4003 0 0.7669-0.1633 1.032-0.4234 0.2158-0.212 0.4058-0.4561 0.5916-0.6974 2.099-2.725 2.262-5.804 2.262-6.682 0-2.995-0.9341-5.513-2.701-7.28-1.861-1.861-4.232-2.525-5.831-2.525-1.855 0-3.587 0.6683-4.752 1.834-0.8954 0.8957-1.389 2.027-1.389 3.187 0 1.223 0.4571 2.353 1.287 3.183 0.2326 0.2327 0.4863 0.433 0.7554 0.5994-0.2782-0.4355-0.4233-0.9715-0.4233-1.577 0-2.524 2.191-4.577 4.883-4.577z"/>
 <path d="m11.31 13.68c0-1.299 0.5474-2.561 1.541-3.555 1.262-1.262 3.129-1.986 5.121-1.986 1.609 0 3.911 0.6783 5.872 2.367 0.2568 0.2212 0.5925 0.357 0.958 0.357 0.8102 0 1.467-0.6571 1.467-1.467 0-0.4005-0.1633-0.7672-0.4233-1.032-0.22-0.216-0.46-0.406-0.7-0.592-2.73-2.099-5.81-2.262-6.68-2.262-2.996 0-5.513 0.934-7.28 2.701-1.861 1.861-2.525 4.232-2.525 5.831 0 1.855 0.6683 3.587 1.833 4.752 0.8955 0.8955 2.027 1.389 3.187 1.389 1.223 0 2.353-0.457 3.183-1.287 0.2325-0.2325 0.4328-0.4862 0.5992-0.7552-0.4355 0.2782-0.9716 0.4232-1.577 0.4232-2.524 0-4.577-2.191-4.577-4.883z"/>
 <path d="m13.68 20.69c-1.299 0-2.561-0.5473-3.555-1.541-1.262-1.262-1.986-3.129-1.986-5.121 0-1.61 0.6784-3.911 2.367-5.872 0.2211-0.257 0.3568-0.5927 0.3568-0.9581 0-0.8103-0.6569-1.467-1.467-1.467-0.4004 0-0.767 0.1633-1.032 0.4234-0.216 0.217-0.406 0.461-0.592 0.703-2.099 2.725-2.262 5.807-2.262 6.677 0 2.996 0.9341 5.513 2.701 7.28 1.861 1.861 4.232 2.525 5.831 2.525 1.855 0 3.587-0.6683 4.752-1.834 0.8954-0.8955 1.389-2.027 1.389-3.187 0-1.223-0.4571-2.353-1.287-3.183-0.2326-0.2327-0.4863-0.4328-0.7554-0.5994 0.2782 0.4355 0.4233 0.9716 0.4233 1.577 0 2.524-2.191 4.577-4.883 4.577z"/>
</g>
</svg>
