<?xml version="1.0" encoding="UTF-8" standalone="no"?>
<svg xmlns="http://www.w3.org/2000/svg" height="32" width="32" version="1.1" viewBox="0 0 32 32">
 <path fill="#333" d="m0 0v32h32v-32z"/>
 <g transform="translate(.180)">
  <path id="speech_bubble_5_" d="m4.88 9.79c-0.745 0-1.32 0.572-1.32 1.32v9.97c0 0.688 0.574 1.32 1.32 1.32h4.47l6.36 3.84v-3.95h4.47c0.745 0 1.32-0.572 1.32-1.32v-9.91c-0.0573-0.688-0.63-1.26-1.38-1.26zm7.42 2.91c0.917 0 1.66 0.458 2.18 1.2v-1.03h1.2v6.19h-1.2v-0.975c-0.458 0.688-1.2 1.15-2.12 1.15-1.89 0-2.98-1.55-2.98-3.32 0-1.66 1.15-3.21 2.92-3.21zm0.229 1.14c-1.26 0-1.95 1.03-1.95 2.18s0.687 2.23 1.95 2.23 2.01-1.03 2.01-2.23-0.745-2.18-2.01-2.18z" style="stroke-width:.573;fill:#fff"/>
  <g id="lens_7_" style="fill:#fff" transform="matrix(.573 0 0 .573 -1.14 -.635)">
   <path style="fill:#fff" d="m50.7 35.1-3.3-2.4c-0.7-0.5-1.1-1.3-1.1-2.1v-12.1c0-0.8 0.4-1.6 1.1-2.1l3.3-2.4c0.4-0.3 1 0 1 0.5v20c0.1 0.6-0.5 0.9-1 0.6z"/>
  </g>
  <path d="m7.52 7.16c-0.745 0-1.32 0.631-1.32 1.32v1.11h14.1c0.763 0 1.35 0.587 1.41 1.29v8.88h1.04c0.745 0 1.32-0.631 1.32-1.32v-10c0-0.745-0.572-1.32-1.32-1.32z" style="stroke-width:.573;fill:#fff"/>
 </g>
</svg>
