<?xml version="1.0" encoding="UTF-8" standalone="no"?>
<svg xmlns:rdf="http://www.w3.org/1999/02/22-rdf-syntax-ns#" xmlns="http://www.w3.org/2000/svg" height="32" width="32" version="1.0" xmlns:cc="http://creativecommons.org/ns#" xmlns:dc="http://purl.org/dc/elements/1.1/">
  <path style="color:#000000" fill="#333" d="m0.009628-0.03861v32.13h32.13v-32.13z"/>
 <path style="fill:#fff" d="m17.41 7.445c-3.08 0-5.64 2.211-6.18 5.125h-0.21c-2.292 0-4.225 1.51-4.856 3.6-0.097-0.01-0.197-0.02-0.297-0.02-1.809 0-3.277 1.47-3.277 3.28s1.466 3.28 3.275 3.28h17.82c2.6 0 4.7-2.1 4.7-4.69s-2.1-4.7-4.69-4.7h-0.01c-0.21-3.28-2.94-5.875-6.27-5.875zm-1.33 3.785c0.58 0 1.17 0.1 1.71 0.31 0.4 0.18 0.44 0.19 0.69 0.34 1.02 0.57 1.83 1.56 2.17 2.64 0.23 0.76 0.25 1.71 0.05 2.6-0.04 0.15-0.08 0.27-0.09 0.28-0.02 0.02-0.01 0.04 0.03 0.09 0.14 0.15 0.26 0.38 0.26 0.5 0 0.18-0.42 1.81-0.48 1.88-0.08 0.09-0.41 0.25-0.6 0.3-0.21 0.06-0.57 0.06-0.57 0.01 0-0.07 0.76-3.07 0.78-3.1 0.01-0.01 0.06 0 0.11 0.03l0.1 0.04-0.02-0.45c-0.02-0.49-0.06-0.79-0.16-1.17-0.4-1.59-1.53-2.74-3.13-3.05-0.57-0.11-1.09-0.14-1.67-0.01-1.52 0.32-2.7 1.47-3.1 2.99-0.09 0.36-0.14 0.72-0.16 1.21-0.01 0.44-0.01 0.46 0.04 0.44 0.03-0.02 0.07-0.03 0.09-0.03 0.03 0 0.15 0.44 0.42 1.54 0.21 0.86 0.38 1.56 0.37 1.58-0.02 0.03-0.4 0.02-0.56-0.03-0.2-0.05-0.32-0.1-0.49-0.22l-0.15-0.1-0.21-0.86c-0.13-0.5-0.22-0.91-0.22-1 0.01-0.11 0.02-0.17 0.11-0.3 0.06-0.09 0.13-0.18 0.15-0.2 0.04-0.03 0.04-0.06 0.02-0.09-0.01-0.02-0.04-0.13-0.06-0.23-0.19-0.79-0.2-1.6-0.05-2.32 0.34-1.57 1.59-2.88 3.23-3.4 0.43-0.14 0.91-0.21 1.39-0.22zm-2.38 5.21c0.15-0.01 0.28 0 0.3 0.02s0.23 0.84 0.48 1.84c0.33 1.31 0.45 1.82 0.43 1.86-0.05 0.07-0.34 0.22-0.59 0.3-0.17 0.05-0.3 0.07-0.54 0.08-0.18 0.01-0.33 0.01-0.35-0.01-0.02-0.01-0.24-0.85-0.49-1.85-0.45-1.81-0.46-1.84-0.4-1.88 0.11-0.09 0.46-0.24 0.7-0.3 0.13-0.03 0.31-0.05 0.46-0.06zm4.84 0c0.16 0.01 0.35 0.03 0.46 0.06 0.25 0.06 0.58 0.21 0.69 0.3l0.06 0.05-0.46 1.83c-0.25 1-0.46 1.83-0.47 1.84-0.03 0.02-0.23 0.06-0.34 0.06-0.06 0-0.19-0.02-0.28-0.04-0.29-0.07-0.78-0.28-0.87-0.39-0.02-0.03 0.07-0.45 0.43-1.86 0.25-1 0.46-1.83 0.47-1.83 0.02-0.02 0.16-0.03 0.31-0.02z"/>
</svg>
