<?xml version="1.0" encoding="UTF-8" standalone="no"?>
<svg xmlns="http://www.w3.org/2000/svg" height="32" width="32" version="1.1" viewBox="0 0 32 32">
 <path d="m0 0v32h32v-32z" fill="#333"/>
 <g style="fill:#fff" transform="translate(-29.8 -17.9)">
  <g style="fill:#fff" transform="matrix(.506 0 0 .506 33.2 21.1)">
   <path style="fill:#fff" d="m40.4 27.4c-0.623-0.532-1.41-0.713-2.17-0.608l0.025-13.3c0-7.41-6.01-13.4-13.4-13.4-7.4 0-13.4 6.01-13.4 13.4 0 0.141-0.044 13.3-0.044 13.3-0.718-0.066-1.38 0.136-1.97 0.639-1.14 0.974-1.28 2.67-0.349 3.84l15.8 19.1 15.9-19.3c0.7-1.2 0.6-2.7-0.5-3.7zm-24.9-11.4c0-1.04 0.84-1.88 1.88-1.88h4.23c1.04 0 1.88 0.84 1.88 1.88s-0.84 1.88-1.88 1.88h-4.23c-1.04 0-1.88-0.841-1.88-1.88zm9.32 13.2c-1.86 0-3.36-1.51-3.36-3.36s1.51-3.36 3.36-3.36c1.86 0 3.36 1.51 3.36 3.36 0 1.86-1.51 3.36-3.36 3.36zm7.3-11.3h-4.23c-1.04 0-1.88-0.841-1.88-1.88s0.839-1.88 1.88-1.88h4.23c1.04 0 1.88 0.84 1.88 1.88s-0.84 1.88-1.88 1.88z"/>
  </g>
 </g>
</svg>
