<?xml version="1.0" encoding="UTF-8" standalone="no"?>
<svg id="svg2817" xmlns:rdf="http://www.w3.org/1999/02/22-rdf-syntax-ns#" xmlns="http://www.w3.org/2000/svg" xmlns:osb="http://www.openswatchbook.org/uri/2009/osb" height="32" width="32" version="1.0" xmlns:cc="http://creativecommons.org/ns#" xmlns:xlink="http://www.w3.org/1999/xlink" xmlns:dc="http://purl.org/dc/elements/1.1/">
 <path style="fill:#333" d="m0 0v32h32v-32z"/>
 <path style="color-rendering:auto;color:#000000;isolation:auto;mix-blend-mode:normal;shape-rendering:auto;solid-color:#000000;image-rendering:auto" d="m16 6.2211-6.7228 0.49141-1.9112 2.5661-0.16354 4.6969 3.6588 2.4571-1.3107 2.9493 1.2562 5.4056 5.1932 1.8566 5.1932-1.8566 1.2554-5.4056-1.3099-2.9493 3.6588-2.4571-0.16435-4.6969-1.9112-2.5661zm-0.78675 1.5288s1.4284 10.633 1.5507 12.003c-0.16826-0.01312-0.33916-0.02091-0.51339-0.01629-2.0478 0.05461-3.85 1.5288-3.85 1.5288l1.3384 1.4474s0.9832-0.81894 2.3757-0.79164c0.1541 0.0029 0.31232 0.0125 0.47108 0.02441-0.35307 1.4862-1.0178 3.3887-1.0178 3.3887l-4.2047-1.8298-0.845-3.986 2.185-3.249-3.9325-2.785-0.109-2.976 1.4195-2.3758 5.133-0.3824zm-1.1081 1.6109-3.7133 0.082171s-1.4743 1.6378-1.4197 2.3204c0.054608 0.68261 3.4131 3.1405 4.0957 2.8948 0.68261-0.24574 2.2114-3.5229 2.2114-3.5229s0.1994-0.21541-0.08136-0.84615c-0.41217-0.92599-1.0927-0.92832-1.0927-0.92832zm4.112 0 3.7133 0.082171s1.4743 1.6378 1.4197 2.3204c-0.05461 0.68261-3.4131 3.1405-4.0957 2.8948-0.68261-0.24574-2.2114-3.5229-2.2114-3.5229s-0.1994-0.21541 0.08136-0.84615c0.41217-0.92599 1.0927-0.92832 1.0927-0.92832zm-3.5074 1.4612-0.49223 1.8827-4.7693-0.53128 0.27011-1.3034zm2.9029 0 0.49223 1.8827 4.7693-0.53128-0.27011-1.3034z" fill="#fff"/>
</svg>
