<?xml version="1.0" encoding="UTF-8" standalone="no"?>
<svg xmlns:rdf="http://www.w3.org/1999/02/22-rdf-syntax-ns#" xmlns="http://www.w3.org/2000/svg" height="32" width="32" version="1.1" xmlns:cc="http://creativecommons.org/ns#" xmlns:dc="http://purl.org/dc/elements/1.1/" viewBox="0 0 32 32">
 <path d="m0 0v32h32v-32z" fill="#333"/>
 <path style="enable-background:new;fill:#fff" d="m16.98 26.47c0.0282-1.975 0.0218-1.936 0.3772-2.249 0.1741-0.1533 0.183-0.177 0.183-0.4864 0-0.185-0.0263-0.3515-0.0611-0.3863-0.07-0.07003-1.247-0.08618-1.353-0.01857-0.05 0.03169-0.0614 0.3289-0.0509 1.311l0.0136 1.27 0.1783 0.01671c0.3505 0.03286 0.3565 0.05361 0.3565 1.23 0 0.5792 0.0163 1.069 0.0363 1.089 0.1009 0.05155 0.1872 0.004 0.2948 0.0062l0.0255-1.783zm-6.281-0.5931c0.0453-0.03763 0.0674-0.1853 0.0674-0.4509s0.0293-1.523 0.051-2.481c0.0284-1.25 0.0249-1.237 0.394-1.395l0.2172-0.09309v-10.65s-0.3262-0.2006-0.355-0.2544c-0.0318-0.05942-0.0525-0.5812-0.0525-1.326 0-1.585 0.0218-1.636 0.7078-1.681l0.3871-0.02546s0.0695-0.9454 0.0921-0.9804c0.0264-0.0408 0.1672-0.06366 0.3917-0.06366s0.3653 0.02286 0.3917 0.06366c0.0227 0.03501 0.1016 0.9804 0.194 0.9804 0.0957 0 0.1034-0.04244 0.1273-0.6958 0.0251-0.6853 0.0276-0.6975 0.1655-0.8058 0.129-0.1013 0.14-0.1382 0.14-0.4662 0-0.4829 0.0442-0.5532 0.3481-0.5532 0.1335 0 0.2702 0.02749 0.3038 0.06115 0.037 0.03704 0.0611 0.217 0.0611 0.4572 0 0.3769 0.007 0.4003 0.14 0.4837 0.0771 0.04823 0.1515 0.09636 0.1655 0.1071 0.014 0.01071 0.0764 1.412 0.0764 1.412l0.4192 0.02547c0.3729 0.02267 0.4348 0.04109 0.5602 0.1667l0.141 0.1412v1.303 1.303l-0.2167 0.1866-0.2167 0.1866 0.0259 10.64 0.2037 0.06623c0.3413 0.111 0.404 0.2103 0.4329 0.6866l0.0255 0.419h1.426v-8.658l-0.1578-0.05103c-0.313-0.1012-0.326-0.1331-0.326-0.7979 0-0.5679 0.008-0.6145 0.1176-0.7195 0.0646-0.06173 0.1577-0.1352 0.2066-0.1632 0.0547-0.03125 0.0962-0.1285 0.1075-0.2523 0.0199-0.2172 0.1281-0.3334 0.3106-0.3334 0.1012 0 0.1136-0.03067 0.1326-0.3291 0.0115-0.181 0.0333-0.3414 0.0483-0.3565 0.015-0.01505 0.3702-0.04225 0.7892-0.06038 0.9588-0.04148 0.9868-0.03038 0.9868 0.3928 0 0.2464 0.0172 0.3107 0.0891 0.3329 0.1977 0.06106 0.2425 0.1143 0.2574 0.3055 0.0122 0.1561 0.0557 0.2328 0.2037 0.3588l0.1883 0.1602 0.0143 0.5782c0.0158 0.6403-0.0268 0.7887-0.2586 0.8998l-0.1395 0.06684s0.0137 7.587 0.0648 7.57c0.0459-0.01522 0.0715-0.2254 0.0897-0.7389 0.014-0.3947 0.0415-0.7336 0.0612-0.7531 0.0549-0.05456 0.477-0.09104 0.6247-0.05399 0.0724 0.01817 0.1769 0.07829 0.2322 0.1336 0.0966 0.09663 0.1219 0.1769 0.1219 2.053 0.0379 3.321 0.002 6.87-0.00015 9.761h-10.58"/>
</svg>
