<?xml version="1.0" encoding="UTF-8" standalone="no"?>
<svg xmlns:rdf="http://www.w3.org/1999/02/22-rdf-syntax-ns#" xmlns="http://www.w3.org/2000/svg" height="32" width="32" version="1.1" xmlns:cc="http://creativecommons.org/ns#" xmlns:dc="http://purl.org/dc/elements/1.1/" viewBox="0 0 32 32">
 <path d="m0 0v32h32v-32z" fill="#333"/>
 <path style="enable-background:new;fill:#fff" d="m13.82 26.99c0.8318-0.3822 2.139-1.406 3.548-2.781 1.38-1.346 1.07-1.286 3.47-0.6703 1.801 0.4623 3.838 0.6372 4.578 0.3931 0.7494-0.2473 0.9352-0.769 0.6929-1.945-0.2348-1.139-0.8677-2.775-1.607-4.154-0.3145-0.5862-0.5718-1.138-0.5718-1.227 0-0.08843 0.3688-0.715 0.8196-1.392 1.236-1.857 2.09-3.752 2.09-4.638 0-0.8923-0.2312-1.134-1.307-1.364-0.87-0.2-3.01-0.102-4.8 0.208-0.6 0.104-1.17 0.161-1.26 0.126-0.09-0.034-0.71-0.716-1.37-1.516-1.37-1.662-2.41-2.62-3.31-3.055-0.53-0.26-0.68-0.278-1.04-0.127-0.8176 0.3386-1.602 2.326-2.036 5.16-0.2567 1.676-0.3039 1.756-1.192 2.043-0.4251 0.1371-1.508 0.6013-2.405 1.032-1.946 0.9325-2.95 1.785-2.95 2.506 0 0.8759 1.572 2.181 4.408 3.662l1.338 0.6984 0.1018 1.606c0.1838 2.899 0.6863 4.856 1.389 5.409 0.45 0.354 0.6744 0.3562 1.418 0.01449z"/>
 <path style="opacity:.1;fill:#fff;fill-rule:evenodd" d="m32 18-15 14h15z"/>
</svg>
