<?xml version="1.0" encoding="UTF-8" standalone="no"?>
<svg xmlns="http://www.w3.org/2000/svg" height="32" width="32" version="1.1" viewBox="0 0 32 32">
 <path fill="#333" d="m0 0v32h32v-32z"/>
 <g style="fill:#fff" transform="matrix(.254 0 0 .254 3.81 3.81)">
  <path style="fill:#fff" d="m64 94h-32c-1.1 0-2-0.9-2-2v-16c0-1.1 0.896-2 2-2h32c1.1 0 2 0.9 2 2v16c0 1.1-0.896 2-2 2zm-30-4h28v-12h-28z"/>
  <path style="fill:#fff" d="m56 78h-16c-1.1 0-2-0.9-2-2v-8c0-1.1 0.896-2 2-2h16c1.1 0 2 0.9 2 2v8c0 1.1-0.896 2-2 2zm-14-4h12v-4h-12z"/>
  <path style="fill:#fff" d="m48.2 70c-9 0-18.2-2.1-18.2-17.4v-17.3c0-13.2 6.73-21 18-21 11.1 0 18 8.35 18 21.8v16.5c0 15.3-9 17.4-17.8 17.4zm-0.2-51.8c-9.03 0-14 6.05-14 17v17.4c0 11.2 5.2 13.4 14.1 13.4 9 0 13.9-2.1 13.9-13.4v-16.6c0-11.3-5.1-17.8-14-17.8z"/>
  <path style="fill:#fff" d="m48 68c-1.1 0-2-0.9-2-2v-4c0-1.1 0.896-2 2-2s2 0.9 2 2v4c0 1.1-0.896 2-2 2z"/>
  <path style="fill:#fff" d="m47.8 61.3c-4.27 0-7.75-3.48-7.75-7.75 0-4.04 3.37-8.08 6.31-11.1 0.752-0.784 2.13-0.784 2.89 0 2.94 3.06 6.31 7.1 6.31 11.1 0 4.28-3.48 7.75-7.75 7.75zm0-14.6c-1.63 1.85-3.75 4.64-3.75 6.81 0 2.07 1.68 3.75 3.75 3.75s3.75-1.68 3.75-3.75c0-2.17-2.12-4.96-3.75-6.81z"/>
  <path style="fill:#fff" d="m56 20c-1.1 0-2-0.896-2-2v-8c0-2.2-1.8-4-4-4h-4c-2.2 0-4 1.8-4 4v8c0 1.1-0.896 2-2 2s-2-0.896-2-2v-8c0-4.41 3.59-8 8-8h4c4.42 0 8 3.59 8 8v8c0 1.1-0.896 2-2 2z"/>
  <path style="fill:#fff" d="m32 81.8c-0.132 0-0.264-0.012-0.4-0.044-5.6-1.2-9.6-6.1-9.6-11.8v-40c0-10.2 7.64-18.8 17.8-19.9 1.15-0.1 2.09 0.672 2.21 1.77s-0.668 2.09-1.77 2.21c-8.1 0.9-14.2 7.7-14.2 15.9v40c0 3.79 2.69 7.08 6.4 7.84 1.08 0.224 1.78 1.28 1.56 2.36-0.196 0.948-1.03 1.6-1.96 1.6z"/>
  <path style="fill:#fff" d="m64 82c-1.06 0-1.94-0.832-2-1.9-0.056-1.1 0.796-2.04 1.9-2.09 4.5-0.2 6.1-4.3 6.1-8v-40c0-8.9-5.9-15.7-14.1-16-1.1 0-1.9-1-1.9-2.1s1-1.96 2.1-1.9c10.4 0.4 17.9 8.8 17.9 20v40c0 6.87-3.98 11.7-9.91 12h-0.092z"/>
 </g>
</svg>
