<?xml version="1.0" encoding="UTF-8" standalone="no"?>
<svg xmlns:rdf="http://www.w3.org/1999/02/22-rdf-syntax-ns#" xmlns="http://www.w3.org/2000/svg" height="32" width="32" version="1.0" xmlns:cc="http://creativecommons.org/ns#" xmlns:dc="http://purl.org/dc/elements/1.1/">
 <path style="color:#000000;fill:#333" d="m0 0v32h32v-32z"/>
 <g style="fill:#fff" transform="matrix(.2164 0 0 .2164 5.18 5.18)">
  <path d="m93.88 34.6c0.299-0.266 0.605-0.519 0.892-0.805 8.022-8.021 2.861-31.09 2.861-31.09s-24.14-7.267-31.91 2.038c-0.04 0.048-0.08 0.099-0.12 0.146-3.95-1.421-8.17-2.325-12.57-2.614v13.4h-6.058v-13.4c-4.4 0.291-8.62 1.194-12.57 2.615-0.04-0.048-0.08-0.099-0.12-0.147-7.77-9.305-31.91-2.038-31.91-2.038s-5.161 23.07 2.861 31.09c0.288 0.288 0.595 0.542 0.895 0.809-1.328 4.333-2.049 8.937-2.049 13.71 0 8.495 2.294 16.45 6.28 23.28-0.007 0.011-0.016 0.02-0.022 0.03l-4.784 16.08c-1.447 2.559-0.545 5.806 2.014 7.253l7.693 4.351c2.559 1.449 5.807 0.547 7.253-2.013l7.016-7.677c6.167 3.092 13.12 4.841 20.48 4.841 7.357 0 14.3-1.746 20.46-4.833l7.009 7.67c1.446 2.56 4.693 3.461 7.252 2.013l7.692-4.35c2.56-1.447 3.461-4.695 2.014-7.253l-4.77-16.07c-0.005-0.008-0.011-0.014-0.016-0.022 3.985-6.838 6.279-14.79 6.279-23.29 0-4.778-0.722-9.383-2.051-13.72zm-43.88 45.79c-11.34 0-20.54-9.2-20.54-20.55 0-11.34 9.2-20.54 20.54-20.54s20.54 9.198 20.54 20.54-9.199 20.54-20.54 20.54z"/>
 </g>
 <ellipse style="fill:#fff" rx=".5763" ry="1.322" transform="scale(1,-1)" cy="-19.25" cx="15.05"/>
 <ellipse style="fill:#fff" rx=".5763" transform="scale(1,-1)" ry="1.322" cy="-19.25" cx="16.92"/>
</svg>
