<?xml version="1.0" encoding="UTF-8" standalone="no"?>
<svg xmlns:rdf="http://www.w3.org/1999/02/22-rdf-syntax-ns#" xmlns="http://www.w3.org/2000/svg" height="32" width="32" version="1.0" xmlns:cc="http://creativecommons.org/ns#" xmlns:dc="http://purl.org/dc/elements/1.1/">
 <path d="m0 0v32h32v-32z" style="color:#000000;fill:#333"/>
 <path style="color:#000000;opacity:.05;fill:#fff" d="m0.009628-0.03861v32.13h16.06v-11.54-9.048-11.54z"/>
 <path style="fill:#fff" d="m7.095 18.31 7.775-7.78c0.3882-0.3882 0.9062-0.602 1.458-0.602 0.2238 0 0.4418 0.03573 0.6481 0.1033 0.0358-0.05922 0.07805-0.1149 0.1281-0.1651l3.259-3.259c0.17-0.16 0.39-0.249 0.62-0.249 0.2315 0 0.4487 0.08976 0.6116 0.2527l3.936 3.936c0.1629 0.1629 0.2527 0.3802 0.2527 0.6117s-0.08976 0.4487-0.2527 0.6115l-3.259 3.259c-0.0501 0.0501-0.1059 0.09242-0.1651 0.1282 0.0676 0.2062 0.1033 0.4242 0.1033 0.6481 0 0.5523-0.2138 1.07-0.6021 1.458l-7.777 7.777c-0.3882 0.3882-0.9062 0.6021-1.458 0.6021-0.5522 0-1.07-0.2138-1.458-0.6021l-3.815-3.81c-0.388-0.39-0.602-0.91-0.602-1.46 0.000133-0.5522 0.2139-1.07 0.6022-1.458zm15.45-5.012 1.051-1.051-1.414-1.414-1.051 1.051 1.414 1.415zm-2.298-2.299 1.051-1.051-1.414-1.414-1.051 1.051 1.414 1.414z"/>
</svg>
