<?xml version="1.0" encoding="UTF-8" standalone="no"?>
<svg xmlns:rdf="http://www.w3.org/1999/02/22-rdf-syntax-ns#" xmlns="http://www.w3.org/2000/svg" height="32" width="32" version="1.0" xmlns:cc="http://creativecommons.org/ns#" xmlns:dc="http://purl.org/dc/elements/1.1/">
 <path style="color:#000000;fill:#333" d="m0 0v32h32v-32z"/>
 <path style="fill:#fff" d="m16 6.195c-5.42 0-9.805 4.385-9.805 9.805s4.385 9.8 9.805 9.8 9.8-4.38 9.8-9.8-4.38-9.805-9.8-9.805zm1.25 2.02l1.96 0.654-1.96 0.654v-1.308zm-3.92 0.654l0.66 1.301-0.66-0.647v-0.654zm-2.61 2.611l2.61 0.66-2.61 0.65v-1.31zm11.11 0l1.3 1.97-1.96 0.65 0.66-2.62zm-5.89 0.66l1.96 0.65-1.3 1.31-0.66-1.96zm-7.836 2.61h0.65v2.62l-0.65-2.62zm3.266 0l1.31 0.65-1.31 1.97v-2.62zm8.5 1.3v0.66l-0.66 1.3-1.3-1.3 1.96-0.66zm2.61 0l1.31 1.32-1.96 0.65-0.65 1.3 1.3-3.27zm-7.19 1.31l1.31 1.96-1.96 0.66v-1.31l0.65-1.31zm-2.61 1.31v1.3h-1.97l-0.65-0.65 2.62-0.65zm6.53 1.96l1.97 1.31-1.31 1.31-1.96-1.31 1.3-1.31zm-6.53 1.31h1.31l1.3 0.65-0.65 0.65-1.96-1.3z"/>
</svg>
