<?xml version="1.0" encoding="UTF-8" standalone="no"?>
<svg xmlns:rdf="http://www.w3.org/1999/02/22-rdf-syntax-ns#" xmlns="http://www.w3.org/2000/svg" height="32" width="32" version="1.0" xmlns:cc="http://creativecommons.org/ns#" xmlns:dc="http://purl.org/dc/elements/1.1/">
 <path style="fill:#333" d="m0 0v32h32v-32z"/>
<g style="color-rendering:auto;color:#000000;isolation:auto;mix-blend-mode:normal;shape-rendering:auto;solid-color:#000000;image-rendering:auto;fill:#fff">
 <path d="m13.3 9.82c-0.3686-0.00786-0.7684 0.05792-1.198 0.2255-4.284 1.67-3.224 5.91-1.007 7.193 2.733 1.583 5.179-1.87 5.179-1.87s0.591 1.998 2.496 2.393c2.137 0.4427 5.102-2.616 3.905-4.982-2.74-5.419-6.31-0.72-6.31-0.72s-1.08-2.197-3.07-2.24zm1.649 2.852c0.03365 0.0017 0.0675 0.0055 0.102 0.01149 0.3784 0.06575 0.5756 0.3726 0.5756 0.803 0.000002 0.4304-0.3592 0.9231-0.7432 0.9231s-0.8393-0.4927-0.8393-0.9231c0-0.4035 0.4002-0.8404 0.9049-0.8145zm2.308 0.1072c0.4964-0.02398 0.7915 0.514 0.7915 0.9112 0 0.3973-0.3671 0.7191-0.6717 0.7191-0.3046-0.000002-0.6472-0.3219-0.6472-0.7191 0-0.3973-0.1121-0.8804 0.5274-0.9112z"/>
 <path d="m25.32 14.96s-2.397 2.877-3.093 3.501c-0.6953 0.6234-1.607 1.654-6.33 2.254-4.724 0.5994-9.231-5.227-9.231-5.227l0.02411 0.09569s-0.144 0.7435 0.1198 1.127c0.2637 0.3836-0.3685 1.806 0.6234 2.493 1.486 1.03 1.535-0.3596 2.686 0.1439s1.39 2.728 2.398 2.757c1.654 0.04795 0.9653-0.5888 3.045-0.9832 2.781-0.5275 2.471 1.509 4.484 0.9591 0.9572-0.2613 0.5342-2.058 1.925-2.897 1.391-0.8392 1.329 0.5516 2.87-0.7236 0.7205-0.5961 0.4795-3.501 0.4795-3.501zm-0.5827 1.443s0.4493 1.483-0.4662 1.924c-0.6777 0.3263-1.339 0.05934-1.339 0.05934s0.2117-0.466 0.6694-0.9747c0.4578-0.5086 1.136-1.009 1.136-1.009zm-17.3 0.8052 1.89 1.755s-0.9788 0.5811-1.517 0.04265c-0.7121-0.7121-0.3731-1.797-0.3731-1.797zm13.36 2.704s-0.3648 1.687-0.8734 1.831c-0.5086 0.1441-1.78-0.3308-1.78-0.3308l0.04265-0.2626 2.611-1.238zm-9.545 0.03412s0.7155 0.3975 1.449 0.6527c0.9749 0.3391 1.518 0.3813 1.518 0.3813s-0.8733 1.017-1.797 0.7714c-0.924-0.2458-1.17-1.805-1.17-1.805z"/>
</g>
</svg>
