<?xml version="1.0" encoding="UTF-8" standalone="no"?>
<svg xmlns:rdf="http://www.w3.org/1999/02/22-rdf-syntax-ns#" xmlns="http://www.w3.org/2000/svg" height="32" viewBox="0 0 32 32" width="32" version="1.1" xmlns:cc="http://creativecommons.org/ns#" xmlns:dc="http://purl.org/dc/elements/1.1/">
 <path style="color:#000000;fill:#333" d="m0 0v32h32v-32z"/>
<g fill="#fff">
 <path opacity=".05" style="color:#000000" d="m8.088-0.06309v32.13h15.82v-32.13z"/>
 <path  d="m15.99 6.079a0.9735 0.9735 0 0 0 -0.68 0.285l-2.85 2.855v9.175l8.13-8.13-3.899-3.9a0.9735 0.9735 0 0 0 -0.7 -0.286z"/>
 <path  d="m10.33 11.35-3.967 3.967a0.9735 0.9735 0 0 0 0 1.376l3.9 3.899 0.06647-0.06661v-9.175z"/>
 <path  d="m22.09 11.77-4.468 4.468 4.233 4.234 3.781-3.781a0.9735 0.9735 0 0 0 0 -1.376l-3.546-3.545z"/>
 <path  d="m16.12 17.74-3.662 3.662v1.38l2.855 2.856a0.9735 0.9735 0 0 0 1.376 0l3.664-3.664-4.233-4.234z"/>
 <path  d="m14.76 4.67 0.373 0.373c0.4766-0.4766 1.252-0.476 1.729 0.00138l0.374-0.3744c-0.683-0.6839-1.793-0.6828-2.476 0zm-0.8155-0.8169 0.4123 0.4123c0.905-0.905 2.375-0.9043 3.281 0.00162l0.4139-0.4139c-1.134-1.134-2.975-1.133-4.107-0.0000479z"/>
</g>
</svg>
