<?xml version="1.0" encoding="UTF-8" standalone="no"?>
<svg xmlns:rdf="http://www.w3.org/1999/02/22-rdf-syntax-ns#" xmlns="http://www.w3.org/2000/svg" height="32" width="32" version="1" xmlns:cc="http://creativecommons.org/ns#" xmlns:dc="http://purl.org/dc/elements/1.1/">
 <path fill="#333" d="m0 0v32h32v-32z"/>
<g fill="#fff">
 <path opacity=".1" d="m0 32.1h32.1v-16.1h-11.5-20.5z"/>
 <path d="m13.01 23.08c0.3302 0.3302 0.3302 0.8761 0 1.206-0.1685 0.1685-0.3841 0.2493-0.6065 0.2493s-0.438-0.08087-0.6065-0.2493l-1.51-1.51-1.51 1.51c-0.1685 0.1685-0.3841 0.2493-0.6065 0.2493s-0.438-0.08087-0.6065-0.2493c-0.3302-0.3302-0.3302-0.8761 0-1.206l1.505-1.51-1.51-1.51c-0.3302-0.3302-0.3302-0.8761 0-1.206 0.3302-0.3302 0.8761-0.3302 1.206 0l1.51 1.51 1.51-1.51c0.3302-0.3302 0.8761-0.3302 1.206 0 0.3302 0.3302 0.3302 0.8761 0 1.206l-1.51 1.51z"/>
 <path d="m13.28 12.66h-2.13v2.13c0 0.4717-0.3841 0.8559-0.8559 0.8559-0.4717 0-0.8559-0.3841-0.8559-0.8559v-2.13h-2.13c-0.4717 0-0.8559-0.3841-0.8559-0.8559 0-0.4717 0.3841-0.8559 0.8559-0.8559h2.13v-2.13c0-0.4717 0.3841-0.8559 0.8559-0.8559 0.4717 0 0.8559 0.3841 0.8559 0.8559v2.13h2.13c0.4717 0 0.8559 0.3841 0.8559 0.8559 0 0.4717-0.3841 0.8559-0.8559 0.8559z"/>
 <path d="m19.63 24.73c-0.2157 0-0.438-0.08087-0.6065-0.2493-0.3302-0.3302-0.3302-0.8761 0-1.206l4.225-4.225c0.3302-0.3302 0.8761-0.3302 1.206 0 0.3302 0.3302 0.3302 0.8761 0 1.206l-4.225 4.225c-0.1685 0.1685-0.3841 0.2493-0.6065 0.2493z"/>
 <path d="m18.61 19.46c0-0.5796 0.465-1.045 1.045-1.045 0.5796 0 1.045 0.465 1.045 1.045 0 0.5796-0.465 1.045-1.045 1.045-0.5796 0-1.045-0.465-1.045-1.045z"/>
 <path d="m24.24 24.73c-0.5796 0-1.045-0.465-1.045-1.045 0-0.5796 0.465-1.045 1.045-1.045 0.5796 0 1.045 0.465 1.045 1.045 0 0.5796-0.465 1.045-1.045 1.045z"/>
 <path d="m24.94 12.66h-5.971c-0.4717 0-0.8559-0.3841-0.8559-0.8559 0-0.4717 0.3841-0.8559 0.8559-0.8559h5.971c0.4717 0 0.8559 0.3841 0.8559 0.8559 0 0.4717-0.3841 0.8559-0.8559 0.8559z"/>
</g></svg>
