<?xml version="1.0" encoding="UTF-8" standalone="no"?>
<svg xmlns:rdf="http://www.w3.org/1999/02/22-rdf-syntax-ns#" xmlns="http://www.w3.org/2000/svg" height="32" width="32" version="1.0" xmlns:cc="http://creativecommons.org/ns#" xmlns:xlink="http://www.w3.org/1999/xlink" xmlns:dc="http://purl.org/dc/elements/1.1/">
 <path style="color:#000000;fill:#333" d="m0 0v32h32v-32z"/>
 <g style="fill:#fff" transform="matrix(.03878 0 0 .03878 6.107 4.624)">
  <g style="fill:#fff" transform="matrix(14.77 0 0 14.77 18.71 23.01)">
   <g style="fill:#fff">
    <g style="fill:#fff">
     <path style="fill:#fff" d="m29.33 3h-4.33v-2c0-0.553-0.45-1-1-1s-1 0.447-1 1v2h-6v-2c0-0.553-0.45-1-1-1s-1 0.447-1 1v2h-6v-2c0-0.553-0.448-1-1-1s-1 0.447-1 1v2h-4.333c-1.473 0-2.667 1.193-2.667 2.666v23.66c0 1.48 1.194 2.67 2.667 2.67h26.67c1.47 0 2.66-1.19 2.66-2.67v-23.66c0-1.477-1.19-2.67-2.67-2.67zm0.67 26.33c0 0.37-0.3 0.67-0.67 0.67h-26.66c-0.371 0-0.67-0.3-0.67-0.67v-23.66c0-0.371 0.299-0.67 0.667-0.67h4.333v2c0 0.553 0.448 1 1 1s1-0.447 1-1v-2h6v2c0 0.553 0.448 1 1 1s1-0.447 1-1v-2h6v2c0 0.553 0.447 1 1 1s1-0.447 1-1v-2h4.334c0.37 0 0.67 0.299 0.67 0.666v23.67z"/>
     <rect style="fill:#fff" height="3" width="4" y="12" x="7"/>
     <rect style="fill:#fff" height="3" width="4" y="17" x="7"/>
     <rect style="fill:#fff" height="3" width="4" y="22" x="7"/>
     <rect style="fill:#fff" height="3" width="4" y="22" x="14"/>
     <rect style="fill:#fff" height="3" width="4" y="17" x="14"/>
     <rect style="fill:#fff" height="3" width="4" y="12" x="14"/>
     <rect style="fill:#fff" height="3" width="4" y="22" x="21"/>
     <rect style="fill:#fff" height="3" width="4" y="17" x="21"/>
     <rect style="fill:#fff" height="3" width="4" y="12" x="21"/>
    </g>
   </g>
  </g>
 </g>
</svg>
