<?xml version="1.0" encoding="UTF-8" standalone="no"?>
<svg xmlns="http://www.w3.org/2000/svg" height="32" width="32" version="1.1" viewBox="0 0 32 32">
 <path d="m0 0v32h32v-32z" fill="#333"/>
 <g style="fill:#fff" transform="matrix(.7983 0 0 .7983 10.82 5.471)">
  <path d="m1.028 18.79c0 0.9817 0.7979 1.78 1.841 1.78h7.361v-1.84h-7.361v-1.841h7.241c0.9817 0 1.963-0.7978 1.963-1.78v0.06142-3.621c0-0.9817-0.9203-1.964-1.963-1.964h-7.241c-0.982 0-1.841 0.9818-1.841 1.964zm9.202-3.74h-7.361v-3.682h7.363z" style="fill:#fff"/>
  <g style="fill:#fff" transform="matrix(.3607 0 0 .3607 5.529 -7.644)">
   <g style="fill:#fff">
    <path style="fill:#fff" d="m10 35.9c-0.276 0-0.5 0.224-0.5 0.5s0.224 0.5 0.5 0.5c9.429 0 17.1 7.671 17.1 17.1 0 0.276 0.224 0.5 0.5 0.5s0.5-0.224 0.5-0.5c0-9.98-8.12-18.1-18.1-18.1z"/>
    <path style="fill:#fff" d="m10 22.7c-0.276 0-0.5 0.224-0.5 0.5s0.224 0.5 0.5 0.5c16.71 0 30.3 13.59 30.3 30.3 0 0.276 0.224 0.5 0.5 0.5s0.5-0.224 0.5-0.5c0-17.26-14.04-31.3-31.3-31.3z"/>
    <path style="fill:#fff" d="m10 9.5c-0.276 0-0.5 0.224-0.5 0.5s0.224 0.5 0.5 0.5c23.99 0 43.5 19.51 43.5 43.5 0 0.276 0.224 0.5 0.5 0.5s0.5-0.224 0.5-0.5c0-24.54-19.96-44.5-44.5-44.5z"/>
   </g>
  </g>
 </g>
</svg>
