<?xml version="1.0" encoding="UTF-8" standalone="no"?>
<svg xmlns="http://www.w3.org/2000/svg" height="32" width="32" version="1.1" viewBox="0 0 32 32">
 <path d="m0 0v32h32v-32z" fill="#333"/>
 <g style="fill:#fff" transform="matrix(.0735 0 0 .0735 4.2 5.34)">
  <g aria-label="E" style="fill:#fff">
   <path style="font-variant-numeric:normal;font-variant-ligatures:normal;font-variant-caps:normal;font-feature-settings:normal;stroke-width:10.6px;fill:#fff" d="m285 214h-11.9c-19.1 45-37.4 56-98.1 56h-16c-31.4 0-42.9-2.12-42.9-20v-103h64.1c36.5 0 42.9 5.52 48 41.2h9.77v-99.4h-9.77c-5.1 33.5-11.5 40.8-48 40.8h-63v-93c0-13.6 2.97-15.3 14.9-15.3h55.6c49.3 0 59 6.37 65.4 44.6h10.6l-3-60.8h-225v8.07c31.8 1.7 36.9 8.07 36.9 39.5v185c0 32.7-4.25 38.2-36.9 40.3v8.07h229z"/>
  </g>
 </g>
</svg>
