<?xml version="1.0" encoding="UTF-8" standalone="no"?>
<svg xmlns="http://www.w3.org/2000/svg" height="32" width="32" version="1.0">
 <path style="fill:#dea857" d="m0 0v32h32v-32z"/>
 <path style="opacity:.1" d="m7.894 6.685v20.9c0.8197 0.4098 0 0.4098 16.8 0.4098 0.6804 0 1.23-0.5492 1.23-1.23v-18.03c0-0.5574-0.3689-1.016-0.8771-1.172-0.15-0.504-0.6-0.873-1.16-0.873"/>
 <path style="fill:#dcdad2" d="m7.894 6.685-0.82 20.08c0.8197 0.4098 0 0.4098 16.8 0.4098 0.6804 0 1.23-0.5492 1.23-1.23v-18.03c0-0.6804-0.5492-1.23-1.23-1.23z"/>
 <path style="fill:#f7f4d5" d="m7.074 5.865v20.9c0.8197-0.4098 0-0.4098 15.98-0.4098 0.6804 0 1.23-0.5492 1.23-1.23v-18.02c0.01-0.686-0.54-1.235-1.22-1.235z"/>
 <g style="fill:#525252">
 <path d="m9.035 7.504v3.286h0.603v-2.447l1.634 2.443h0.7356v-3.286h-0.6036v2.43l-1.65-2.43h-0.726z"/>
 <path d="m12.74 10.79h2.095v-0.54h-1.53v-0.928h1.358v-0.536h-1.36v-0.743h1.526v-0.535h-2.095z"/>
 <path d="m15.1 7.504 0.8601 3.282h0.6201l0.7455-2.377 0.6308 2.377h0.6201l1.02-3.286h-0.62l-0.69 2.295-0.62-2.295h-0.65l-0.77 2.295-0.53-2.295z"/>
 <path d="m21.1 7.968c0.3447 0 0.5723 0.07656 0.8494 0.1824l0.2-0.524-0.07-0.025c-0.31-0.11-0.57-0.177-1-0.177-0.6745 0-1.266 0.303-1.266 0.9472 0 0.6687 0.5385 0.8511 1.067 1.01 0.2762 0.08144 0.7809 0.2305 0.7809 0.5001 0 0.3266-0.4074 0.4422-0.7669 0.4422-0.2424 0-0.5484-0.0676-0.9219-0.2069l-0.09236-0.03828-0.2037 0.5147 0.07751 0.03828c0.3785 0.1442 0.6259 0.2354 1.092 0.2354 0.7619 0 1.412-0.2834 1.412-0.9855 0-0.6638-0.5484-0.8462-1.077-1.01-0.2573-0.07656-0.771-0.2403-0.771-0.4756 0-0.3176 0.3397-0.4276 0.6886-0.4276z"/>
 </g>
 <g style="fill:#6a6a6a">
 <path d="m8.714 12.42v8.197h8.197v-8.197z"/>
 <rect height=".8197" width="4.098" y="12.42" x="18.55"/>
 <rect height=".8197" width="4.098" y="14.06" x="18.55"/>
 <rect height=".8197" width="4.098" y="15.7" x="18.55"/>
 <rect height=".8197" width="4.098" y="17.34" x="18.55"/>
 <rect height=".8197" width="2.459" y="18.98" x="18.55"/>
 <rect height=".8197" width="13.93" y="22.26" x="8.714"/>
 <rect height=".8197" width="6.558" y="23.9" x="8.714"/>
 <rect height=".8197" width="5.738" y="23.9" x="16.09"/>
 </g>
</svg>
