<?xml version="1.0" encoding="UTF-8" standalone="no"?>
<svg id="svg2817" xmlns:rdf="http://www.w3.org/1999/02/22-rdf-syntax-ns#" xmlns="http://www.w3.org/2000/svg" xmlns:osb="http://www.openswatchbook.org/uri/2009/osb" height="32" width="32" version="1.0" xmlns:cc="http://creativecommons.org/ns#" xmlns:dc="http://purl.org/dc/elements/1.1/">
 <path style="fill:#333" d="m0 0v32h32v-32z"/>
 <path id="path35717" fill="#fff" d="m21.368 21.826c-0.12848 0.12144-0.26166 3.427-0.41719 3.5111-0.15553 0.08405-2.9937-1.6159-3.1656-1.5749-0.17198 0.04093-1.9401 2.8371-2.1168 2.8321-0.17672-0.005-1.7846-2.8962-1.9541-2.9468-0.16941-0.05055-3.0987 1.4869-3.2493 1.3942-0.15055-0.09267-0.09744-3.4005-0.21888-3.529-0.121-0.129-3.4266-0.262-3.5107-0.417-0.084-0.156 1.6159-2.994 1.575-3.166-0.041-0.172-2.8371-1.94-2.8321-2.117 0.00498-0.17672 2.8962-1.7846 2.9468-1.9541 0.050546-0.16941-1.4869-3.0987-1.3942-3.2493 0.09267-0.15055 3.4005-0.09744 3.529-0.21888 0.12848-0.12144 0.26166-3.427 0.41719-3.5111 0.15553-0.084048 2.9937 1.6159 3.1656 1.5749 0.17199-0.04093 1.9401-2.8371 2.1168-2.8321 0.17672 0.00498 1.7846 2.8962 1.9541 2.9468 0.16941 0.050547 3.0987-1.4869 3.2493-1.3942 0.15055 0.09267 0.09744 3.4005 0.21888 3.529 0.12144 0.12848 3.427 0.26166 3.5111 0.41719 0.08405 0.15553-1.6159 2.9937-1.5749 3.1656 0.04093 0.17198 2.8371 1.9401 2.8321 2.1168-0.005 0.17672-2.8962 1.7846-2.9468 1.9541-0.05055 0.16941 1.4869 3.0987 1.3942 3.2493-0.09267 0.15055-3.4005 0.09744-3.529 0.21888z"/>
</svg>
