<?xml version="1.0" encoding="UTF-8" standalone="no"?>
<svg id="svg2817" xmlns:rdf="http://www.w3.org/1999/02/22-rdf-syntax-ns#" xmlns="http://www.w3.org/2000/svg" xmlns:osb="http://www.openswatchbook.org/uri/2009/osb" height="32" width="32" version="1.0" xmlns:cc="http://creativecommons.org/ns#" xmlns:xlink="http://www.w3.org/1999/xlink" xmlns:dc="http://purl.org/dc/elements/1.1/">
 <path style="fill:#333" d="m0 0v32h32v-32z"/>
 <path id="path3064" style="color-rendering:auto;color:#000000;isolation:auto;mix-blend-mode:normal;shape-rendering:auto;solid-color:#000000;image-rendering:auto" d="m18.651 17.982c0.23586-0.8813 1.4138-1.249 1.7797-2.1503 1.2974-2.0093 0.91322-4.9109-0.88506-6.4975-1.5186-1.5473-4.0677-1.7982-5.9573-0.82546-1.995 1.0759-3.1918 3.5063-2.6475 5.7359 0.27599 1.3461 1.1705 2.4994 2.2771 3.2816 0.14774 0.09516 0.15048 0.28537 0.14814 0.46099l0.33157 0.3549h4.5918zm-0.01715 2.2789c-0.06594-0.23391 0.13867-0.74884-0.25767-0.63958h-4.9643c-0.01605 0.42639-0.03215 0.85277-0.04819 1.2792h5.2943c-0.008-0.21319-0.01606-0.42639-0.02408-0.63958zm0.01715 2.6202c-0.07108-0.21127 0.17365-0.73843-0.18686-0.66021h-5.0935v1.3204h5.2804zm-5.191 1.8912-1.327-1.1167v-5.3052c-2.1808-1.625-3.1984-4.673-2.2843-7.261 0.8583-2.6524 3.5763-4.6249 6.3853-4.4233 3.3008-0.019177 6.2809 2.9802 6.2411 6.2843 0.13134 1.9905-0.85884 3.917-2.3415 5.2016-0.29992 0.15822-0.25513 0.46247-0.24546 0.75185v4.7076l-1.327 1.1609v0.57643h-5.1015z" fill="#fff"/>
</svg>
