<?xml version="1.0" encoding="UTF-8" standalone="no"?>
<svg xmlns:rdf="http://www.w3.org/1999/02/22-rdf-syntax-ns#" xmlns="http://www.w3.org/2000/svg" height="32" width="32" version="1.0" xmlns:cc="http://creativecommons.org/ns#" xmlns:dc="http://purl.org/dc/elements/1.1/">
 <path style="color:#000000;fill:#333" d="m0 0v32h32v-32z"/>
 <path style="fill:#fff" d="m6.119 7.855c-0.4494-0.02101-0.865 0.289-0.8125 0.6367 0.7733 5.127 1.024 10.25 0 15.38-0.06912 0.346 0.3629 0.6458 0.8125 0.6289 6.588-0.2455 13.18-0.2574 19.76 0 0.4496 0.0176 0.8747-0.2821 0.8125-0.6289-0.884-4.93-0.9207-10.05 0-15.38 0.05618-0.3253-0.3122-0.6212-0.7285-0.6367-0.02776-0.00104-0.0559-0.00154-0.08398 0-1.656 0.0905-3.306 0.1544-4.949 0.1953 0.2325 0.6711 0.3665 1.403 0.3926 2.166 0.0527 0.1 0.08984 0.2073 0.08984 0.3262 0 0.4167-0.3639 0.7559-0.8125 0.7559s-0.8125-0.3392-0.8125-0.7559c0-0.08604 0.02093-0.165 0.05078-0.2402-0.0036-0.02931-0.01367-0.05542-0.01367-0.08594 0-0.7815-0.1803-1.505-0.4707-2.148-2.247 0.036-4.483 0.03157-6.709-0.00977-0.2931 0.6453-0.4746 1.373-0.4746 2.158 0 0.0298-0.0102 0.05533-0.01367 0.08398 0.03027 0.0757 0.05078 0.1555 0.05078 0.2422 0 0.4167-0.3639 0.7559-0.8125 0.7559s-0.8125-0.3392-0.8125-0.7559c0-0.1189 0.03714-0.2262 0.08984-0.3262 0.02-0.772 0.15-1.51 0.39-2.185-1.655-0.043-3.305-0.103-4.951-0.18zm8.893 3.658h1.979c0.3017 0.6462 0.5998 1.31 0.8926 1.992 0.0732 0.1683 0.1472 0.3386 0.2207 0.5117 0.1469 0.3462 0.2945 0.702 0.4414 1.068 0.07347 0.1832 0.1475 0.3701 0.2207 0.5586 0.06872 0.1717 0.1359 0.3583 0.2051 0.5352h-2.047c-0.0212-0.05889-0.04542-0.1256-0.06641-0.1836-0.1331-0.368-0.2586-0.7027-0.3828-1.008-0.1153-0.3052-0.2218-0.5733-0.3105-0.8066-0.08873-0.2334-0.1597-0.42-0.2129-0.5547-0.04437 0.1347-0.1105 0.3213-0.1992 0.5547-0.08873 0.2333-0.1893 0.5015-0.3047 0.8066s-0.2389 0.6398-0.3809 1.008c-0.021 0.058-0.04716 0.1247-0.06836 0.1836h-1.973c0.0676-0.1768 0.1325-0.3635 0.1992-0.5352 0.3017-0.7539 0.5969-1.466 0.8809-2.139 0.1464-0.3411 0.296-0.6777 0.4473-1.01 0.02388-0.05242 0.04829-0.1041 0.07227-0.1562 0.1279-0.2783 0.256-0.5541 0.3867-0.8262zm-2.703 5.055h7.385c0.0673 0 0.1319 0.0067 0.1953 0.01953 0.0317 0.0064 0.06326 0.01402 0.09375 0.02344 0.03048 0.0094 0.06074 0.02096 0.08984 0.0332 0.0094 0.004 0.01809 0.0074 0.02734 0.01172 0.04796 0.02198 0.09337 0.04701 0.1367 0.07617 0.0776 0.05219 0.1476 0.1157 0.207 0.1875 0.1188 0.1437 0.1969 0.3231 0.2168 0.5195 0.0033 0.03274 0.0059 0.06596 0.0059 0.09961 0 0.2019-0.06127 0.3897-0.166 0.5449-0.08728 0.1293-0.2059 0.2358-0.3438 0.3105-0.1378 0.07475-0.2946 0.1172-0.4629 0.1172h-7.385c-0.1346 0-0.2644-0.02701-0.3809-0.07617-0.02911-0.01228-0.05641-0.02607-0.08398-0.04102-0.3033-0.1644-0.5078-0.4853-0.5078-0.8555 0-0.3365 0.169-0.6326 0.4277-0.8066 0.04334-0.02915 0.08875-0.05419 0.1367-0.07617 0.03788-0.01735 0.07685-0.03246 0.1172-0.04492 0.03049-0.0094 0.06205-0.017 0.09375-0.02344 0.0634-0.01287 0.13-0.01953 0.1973-0.01953zm0 0.3887c-0.04038 0-0.0811 0.004-0.1191 0.01172-0.01898 0.0038-0.03644 0.0081-0.05469 0.01367-0.07316 0.02254-0.1416 0.06014-0.1992 0.1074-0.02881 0.02364-0.05436 0.04943-0.07813 0.07813-0.02376 0.02869-0.04456 0.05882-0.0625 0.0918-0.009 0.01649-0.01802 0.03336-0.02539 0.05078-0.01473 0.03484-0.02545 0.07334-0.0332 0.1113-0.0039 0.01899-0.0078 0.037-0.0098 0.05664s-0.002 0.04036-0.002 0.06055 0.000011 0.03893 0.002 0.05859c0.002 0.01961 0.006 0.03962 0.0098 0.05859 0.000793 0.0039 0.0012 0.0078 0.002 0.01172 0.0076 0.03393 0.01801 0.06629 0.03125 0.09766 0.0074 0.01747 0.01642 0.03423 0.02539 0.05078 0.01794 0.03308 0.03874 0.06494 0.0625 0.09375s0.04931 0.05632 0.07813 0.08008c0.0288 0.02376 0.06067 0.04456 0.09375 0.0625 0.01654 0.009 0.03332 0.01607 0.05078 0.02344 0.03138 0.01324 0.06373 0.02361 0.09766 0.03125 0.0038 0.000865 0.0079 0.0032 0.01172 0.0039 0.01898 0.0039 0.03899 0.0059 0.05859 0.0078 0.0197 0.002 0.04031 0.0039 0.06055 0.0039h4.664c0.04038 0 0.0792-0.0039 0.1172-0.01172 0.03799-0.0078 0.07454-0.02043 0.1094-0.03516 0.01742-0.0074 0.03623-0.01447 0.05273-0.02344 0.03298-0.01794 0.0631-0.04069 0.0918-0.06445 0.02869-0.02376 0.05448-0.04931 0.07813-0.07813 0.04728-0.05762 0.08488-0.1241 0.1074-0.1973 0.0056-0.01829 0.0098-0.03762 0.01367-0.05664 0.0077-0.03804 0.01172-0.07681 0.01172-0.1172 0-0.04038-0.004-0.08115-0.01172-0.1191-0.0039-0.01899-0.0081-0.03644-0.01367-0.05469-0.02254-0.07302-0.06014-0.1399-0.1074-0.1973-0.02364-0.02869-0.04943-0.05448-0.07813-0.07813-0.05738-0.04728-0.1243-0.08489-0.1973-0.1074-0.01825-0.0056-0.03765-0.0098-0.05664-0.01367-0.03799-0.0077-0.07681-0.01172-0.1172-0.01172h-4.664zm-0.2812 1.912c0.04525 0.0094 0.09199 0.01802 0.1387 0.02344 0.04664 0.0054 0.0945 0.0078 0.1426 0.0078h1.84c-0.05387 0.1584-0.1083 0.3155-0.1641 0.4727-0.05575 0.1571-0.1122 0.3143-0.1699 0.4727-0.1154 0.3411-0.2266 0.6749-0.3242 0.998h-2.154c0.1203-0.3495 0.2365-0.6856 0.3516-1.014v-0.002c0.1151-0.3281 0.2281-0.6463 0.3398-0.959zm7.939 0c0.0019-0.000363 0.0039 0.000362 0.0059 0 0.1118 0.3127 0.2247 0.6309 0.3398 0.959s0.2332 0.666 0.3535 1.016h-2.225c-0.0244-0.08078-0.04993-0.1621-0.07617-0.2441-0.07872-0.2462-0.1647-0.4981-0.2578-0.7539-0.1071-0.3167-0.2152-0.6286-0.3223-0.9453h1.908c0.09422 0 0.1847-0.01314 0.2734-0.03125z"/>
 <path style="color:#000000;fill:#fff" d="m11.4 11.02c-0.299 0-0.5415-0.289-0.5415-0.6455 0-3.387 2.303-6.132 5.144-6.132s5.144 2.746 5.144 6.132c0 0.3565-0.2424 0.6455-0.5415 0.6455-0.299 0-0.5415-0.289-0.5415-0.6455 0-2.674-1.818-4.841-4.061-4.841s-4.061 2.168-4.061 4.841c0 0.3565-0.2424 0.6455-0.5415 0.6455z"/>
</svg>
