<?xml version="1.0" encoding="UTF-8" standalone="no"?>
<svg xmlns="http://www.w3.org/2000/svg" height="32" width="32" version="1.1" viewBox="0 0 32 32">
 <path fill="#333" d="m0 0v32h32v-32z"/>
 <path id="body" style="stroke-width:1.15;fill:#fff" d="m9.65 8.69c-0.356 0-0.71 0.0827-1.03 0.242l-0.36 0.18c-0.96 0.48-2.01 0.72-3.08 0.72h-0.806c-0.579 0-1.07 0.433-1.14 1.01l-0.736 7.55c-0.161 1.65 0.987 3.15 2.63 3.42l7.12 1.19c2.5 0.416 5.06 0.415 7.56-0.0023l7.08-1.18c1.64-0.274 2.79-1.77 2.63-3.43l-0.736-7.55c-0.1-0.5-0.6-0.97-1.2-0.97h-0.804c-1.07 0-2.13-0.249-3.09-0.727l-0.3-0.17c-0.3-0.16-0.7-0.24-1-0.24h-9.8zm6.35 0.88c1.32 0 2.64 0.11 3.94 0.328l2.65 0.44c0.346 0.0587 0.6 0.358 0.6 0.71v9.09c0 0.82-0.592 1.52-1.4 1.65l-1.85 0.308c-2.61 0.435-5.27 0.435-7.88 0l-1.85-0.308c-0.8-0.1-1.39-0.8-1.39-1.7v-9.09c0-0.351 0.255-0.652 0.602-0.71l2.69-0.4c1.3-0.22 2.6-0.33 3.9-0.33zm0 0.263c-1.26 0-2.53 0.106-3.78 0.314l-2.54 0.422c-0.332 0.0552-0.577 0.343-0.577 0.68v8.72c0 0.786 0.569 1.46 1.34 1.59l1.77 0.296c2.5 0.417 5.06 0.417 7.56 0l1.77-0.296c0.776-0.13 1.34-0.801 1.34-1.59v-8.72c0-0.337-0.243-0.624-0.575-0.68l-2.5-0.4c-1.3-0.16-2.5-0.27-3.8-0.27zm9.19 1.04a0.115 0.115 0 0 1 0.0068 0 0.115 0.115 0 0 1 0.115 0.115 0.115 0.115 0 0 1 -0.115 0.117 0.115 0.115 0 0 1 -0.115 -0.117 0.115 0.115 0 0 1 0.108 -0.115zm-14.7 0.115h11c0.126 0 0.229 0.105 0.229 0.231v7.59c0 0.126-0.103 0.229-0.229 0.229h-11c-0.126 0-0.231-0.103-0.231-0.229v-7.59c0-0.126 0.105-0.231 0.231-0.231zm-4.85 2.3h1.15v1.15h1.15v1.15h-1.15v1.15h-1.15v-1.2h-1.15v-1.15h1.15zm21.8 0.231a0.92 0.92 0 0 1 0.921 0.918 0.92 0.92 0 0 1 -0.921 0.921 0.92 0.92 0 0 1 -0.918 -0.921 0.92 0.92 0 0 1 0.918 -0.918zm-2.3 1.15a0.92 0.92 0 0 1 0.921 0.918 0.92 0.92 0 0 1 -0.921 0.921 0.92 0.92 0 0 1 -0.918 -0.921 0.92 0.92 0 0 1 0.918 -0.918zm1.76 2.87c0.0529-0.0138 0.11 0.0178 0.123 0.0718 0.0138 0.0529-0.0178 0.11-0.0718 0.123l-3.11 0.835c-0.054 0.0138-0.11-0.019-0.123-0.0718-0.0138-0.0529 0.0178-0.11 0.0718-0.123zm0.103 0.388c0.0529-0.0138 0.11 0.0178 0.123 0.0718 0.0138 0.0529-0.0178 0.11-0.0718 0.123l-3.11 0.835c-0.0529 0.015-0.11-0.0178-0.123-0.0718-0.0138-0.0529 0.0178-0.11 0.0718-0.123zm-19.1 0.0718a0.46 0.46 0 0 1 0.0314 0 0.46 0.46 0 0 1 0.46 0.458 0.46 0.46 0 0 1 -0.46 0.46 0.46 0.46 0 0 1 -0.46 -0.46 0.46 0.46 0 0 1 0.429 -0.458zm19.2 0.319c0.0529-0.0138 0.11 0.0178 0.123 0.0718 0.0138 0.0529-0.0178 0.107-0.0718 0.121l-3.11 0.835c-0.054 0.0138-0.107-0.0178-0.121-0.0718-0.0138-0.0529 0.0156-0.107 0.0696-0.121zm0.103 0.388c0.0529-0.0138 0.11 0.0178 0.123 0.0718 0.0138 0.0529-0.0178 0.11-0.0718 0.123l-3.11 0.833c-0.054 0.0149-0.11-0.0156-0.123-0.0696-0.0138-0.0529 0.0178-0.11 0.0718-0.123zm0.106 0.391c0.0529-0.0138 0.107 0.0156 0.121 0.0696 0.0138 0.0529-0.0156 0.11-0.0696 0.123l-3.11 0.835c-0.0529 0.0138-0.11-0.0178-0.123-0.0718-0.0138-0.0529 0.0178-0.11 0.0718-0.123zm-19.4 0.6a0.46 0.46 0 0 1 0.0314 0 0.46 0.46 0 0 1 0.46 0.458 0.46 0.46 0 0 1 -0.46 0.46 0.46 0.46 0 0 1 -0.46 -0.46 0.46 0.46 0 0 1 0.429 -0.458z"/>
</svg>
