<?xml version="1.0" encoding="UTF-8" standalone="no"?>
<svg xmlns:rdf="http://www.w3.org/1999/02/22-rdf-syntax-ns#" xmlns="http://www.w3.org/2000/svg" height="32" width="32" version="1.0" xmlns:cc="http://creativecommons.org/ns#" xmlns:dc="http://purl.org/dc/elements/1.1/">
 <path style="color:#000000;fill:#333" d="m0 0v32h32v-32z"/>
<g style="fill:#fff;fill-rule:evenodd">
 <polygon class="fil0"  points="2.219e4 1.153e5 4.438e4 7.689e4 1.332e5 7.689e4 1.11e5 1.153e5" transform="matrix(.0001583 0 0 .0001583 5.63 7.016)"/>
 <polygon class="fil1"  points="8.877e4 7.689e4 1.332e5 7.689e4 8.877e4 0 4.438e4 0" transform="matrix(.0001537 0 0 .0001537 6.071 6.738)"/>
 <polygon class="fil2" points="0 7.689e4 2.219e4 1.153e5 6.658e4 3.845e4 4.438e4 0" transform="matrix(.0001545 0 0 .0001545 5.306 7.114)"/>
</g>
</svg>
