<?xml version="1.0" encoding="UTF-8" standalone="no"?>
<svg xmlns:rdf="http://www.w3.org/1999/02/22-rdf-syntax-ns#" xmlns="http://www.w3.org/2000/svg" height="32" width="32" version="1.0" xmlns:cc="http://creativecommons.org/ns#" xmlns:dc="http://purl.org/dc/elements/1.1/">
 <path style="fill:#333" d="m0 0v32h32v-32z"/>
<g style="color-rendering:auto;color:#000000;isolation:auto;mix-blend-mode:normal;shape-rendering:auto;solid-color:#000000;image-rendering:auto;fill:#fff">
 <path  d="m8.412 8.752c-0.7916 0-1.434 0.6424-1.434 1.434v13.61l10.02-10.02c-0.6665-1.287-1.064-1.892-1.064-3.225 0-0.614 0.1389-1.269 0.5174-1.802zm2.75 1.68c0.5937 0 1.135 0.2285 1.539 0.6016l-0.6211 0.6074c-0.246-0.2129-0.5671-0.3418-0.918-0.3418-0.775 0-1.402 0.6273-1.402 1.402 0 0.775 0.6273 1.404 1.402 1.404 0.6174 0 1.142-0.3991 1.33-0.9531h-1.33v-0.7793h1.365 0.8809c0.01554 0.1072 0.02346 0.2166 0.02344 0.3281 0 0.1542-0.01562 0.3056-0.04492 0.4512-0.209 1.038-1.125 1.818-2.225 1.818-1.254 0-2.27-1.016-2.27-2.27s1.016-2.27 2.27-2.27zm12.58 4.469c-0.284 0.5005-0.5642 0.9688-0.8047 1.367-0.5604 0.9291-1.215 1.867-1.559 4.363-0.01598 0.1154-0.04594 0.7587-0.04594 0.7587l2.409 2.409zm-5.516 1.086-1.148 1.148 2.75 2.75c-0.3625-1.944-0.9355-2.788-1.436-3.617-0.04975-0.08243-0.1131-0.1934-0.166-0.2812zm-2.867 2.879-6.664 6.662h13.33z"/>
 <path  d="m20.71 6.68c-2.504 0-4.25 1.88-4.25 4.014 0 1.695 1.532 3.401 2.463 4.943 0.5603 0.929 1.215 1.867 1.559 4.363 0.01598 0.1154 0.08982 0.2223 0.231 0.2223h0.0069c0.1412 0 0.215-0.1069 0.231-0.2223 0.344-2.496 0.9985-3.434 1.559-4.363 0.9305-1.542 2.463-3.249 2.463-4.943 0-2.135-1.747-4.014-4.25-4.014h-0.01295zm0.0067 2.353c0.3975 0 0.7949 0.1514 1.098 0.4543 0.6054 0.6054 0.6054 1.59 0 2.195-0.6058 0.6058-1.59 0.6058-2.196 0-0.6053-0.6054-0.6053-1.59 0-2.195 0.3029-0.3029 0.7004-0.4543 1.098-0.4543z"/>
</g>
</svg>
