<?xml version="1.0" encoding="UTF-8" standalone="no"?>
<svg id="svg2817" xmlns:rdf="http://www.w3.org/1999/02/22-rdf-syntax-ns#" xmlns="http://www.w3.org/2000/svg" xmlns:osb="http://www.openswatchbook.org/uri/2009/osb" height="32" width="32" version="1.0" xmlns:cc="http://creativecommons.org/ns#" xmlns:xlink="http://www.w3.org/1999/xlink" xmlns:dc="http://purl.org/dc/elements/1.1/">
 <path d="m0 0v32h32v-32z" fill="#333"/>
  <path opacity=".05" fill="#fff" d="m0.0096284-0.038611v32.126h16.063v-32.126z"/>
 <g id="g4141" style="filter-blend-mode:normal;color-rendering:auto;color:#000000;isolation:auto;mix-blend-mode:normal;filter-gaussianBlur-deviation:0;shape-rendering:auto;solid-color:#000000;image-rendering:auto" transform="translate(-57 -70)">
  <path id="path4147" d="m80.914 77.384c-0.1669 0.19953-0.21344 0.51014-0.13203 0.79517 0.09439 0.33138 0.35994 0.62808 0.59582 0.8966 0.71988 0.82002 1.1586 1.3752 1.3096 2.1782 0.0727 0.38572 0.07955 0.82984-0.03931 1.2573-0.14835 0.53852-0.4929 1.0507-0.85803 1.5019-0.35697 0.44264-0.73341 0.82688-1.123 1.2117-0.40277 0.39684-0.81964 0.79628-1.3366 1.0655-0.44802 0.23291-0.97263 0.36884-1.4674 0.40519-0.60082 0.04302-1.1597-0.06083-1.699-0.26184-0.48307-0.18043-0.95038-0.4382-1.4164-0.6891-0.24014-0.13074-0.48066-0.25813-0.71561-0.39406-0.10477-0.02578-0.21381-0.03839-0.32137-0.02726-0.28836 0.02874-0.56207 0.22828-0.76976 0.42558-0.19731 0.20769-0.39703 0.48159-0.42596 0.77013-0.01113 0.10755 0.0015 0.21659 0.02745 0.32118 0.13556 0.23532 0.26351 0.47528 0.39387 0.7158 0.2509 0.46601 0.50885 0.93313 0.68946 1.416 0.20102 0.53926 0.30449 1.0985 0.26147 1.6994-0.03635 0.49475-0.17209 1.0192-0.405 1.4672-0.26926 0.51701-0.66814 0.93369-1.0654 1.3365-0.38479 0.38961-0.7692 0.76624-1.2118 1.1232-0.45099 0.36495-0.96373 0.70968-1.5021 0.85822-0.42725 0.11868-0.87157 0.112-1.2573 0.0393-0.80258-0.15132-1.3582-0.5897-2.1778-1.3099-0.26852-0.23588-0.56522-0.50143-0.89697-0.59545-0.28484-0.08159-0.59563-0.03486-0.79517 0.13203-0.10088 0.08456-0.17431 0.19954-0.22475 0.3197-0.247-0.24107-0.49327-0.4814-0.74102-0.72173 0.20547-0.37014 0.41835-0.73582 0.64681-1.0919 0.13945-0.21659 0.28335-0.42874 0.428-0.64162 0.33972-0.4955 0.6839-0.98802 1.0466-1.4561 0.88789-1.1431 1.8915-2.1378 3.3481-3.2828 0.63291-0.49791 1.3515-1.0236 1.7633-1.0646 0.19805-0.02002 0.32489 0.07418 0.55836 0.08252 0.11293 0.0028 0.25016-0.0128 0.38052-0.06305 0.25442-0.10014 0.4814-0.33305 0.68019-0.53778 0.19898-0.19304 0.43152-0.41965 0.53184-0.67426 0.05044-0.13055 0.06601-0.26778 0.06287-0.38034-0.008-0.23384-0.10218-0.36068-0.08215-0.55873 0.04061-0.41149 0.5667-1.1304 1.0642-1.763 1.1453-1.4568 2.14-2.4604 3.2832-3.3485 0.46805-0.36272 0.96058-0.7069 1.4561-1.0466 0.2127-0.14446 0.42503-0.28854 0.64144-0.42781 0.35604-0.22846 0.72192-0.44153 1.0921-0.647 0.24015 0.24793 0.48048 0.4942 0.72155 0.7412-0.11942 0.0497-0.2344 0.12313-0.31896 0.22401zm0.54816 2.4619c-0.3872-0.47473-0.78886-0.88752-1.258-1.2536-0.24645-0.19267-0.51163-0.37255-0.80333-0.43244-0.30486-0.06157-0.63791 0.0074-0.93591 0.13036-0.45989 0.19137-0.83318 0.51126-1.2016 0.83374-0.46972 0.41038-0.92961 0.82428-1.37 1.2558-0.37385 0.36643-0.7336 0.74547-1.0615 1.1564-0.39072 0.4916-0.73731 1.0296-1.0029 1.5562-0.15855 0.31432-0.28836 0.62512-0.17858 0.94407 0.14001 0.4089 0.67426 0.83003 1.1358 1.18 0.57616 0.43857 1.0396 0.76587 1.6159 0.94315 0.46749 0.14223 1.009 0.18822 1.5215 0.11924 0.39146-0.05322 0.76698-0.1732 1.1112-0.33824 0.82614-0.39443 1.4744-1.0457 2.0897-1.7437 0.45451-0.51682 0.89234-1.0585 1.0934-1.6853 0.13389-0.41464 0.16356-0.86563 0.04803-1.2942-0.13444-0.49346-0.46378-0.95631-0.8037-1.3715zm-9.0524 7.7469c-0.35085-0.46063-0.77217-0.9947-1.1809-1.1349-0.31877-0.10996-0.62975 0.02002-0.94426 0.17876-0.52665 0.26555-1.0644 0.61195-1.5562 1.0029-0.41075 0.32767-0.78979 0.68743-1.1562 1.0613-0.4317 0.4406-0.84561 0.9005-1.2558 1.37-0.32266 0.36866-0.64236 0.74176-0.83374 1.2016-0.12313 0.29819-0.19212 0.63124-0.13055 0.9361 0.06008 0.29151 0.23959 0.55706 0.43245 0.80332 0.36643 0.46879 0.77885 0.87083 1.2536 1.258 0.41538 0.33972 0.87824 0.66907 1.3715 0.80332 0.42874 0.11571 0.87973 0.08604 1.2944-0.04821 0.6266-0.2012 1.1683-0.63866 1.686-1.0941 0.69725-0.61418 1.3483-1.2627 1.7431-2.0892 0.16467-0.3438 0.28465-0.71932 0.33824-1.1112 0.0688-0.51237 0.02281-1.0539-0.11961-1.5212-0.17728-0.57597-0.5044-1.0396-0.94203-1.6167z" fill="#fff"/>
 </g>
</svg>
