<?xml version="1.0" encoding="UTF-8" standalone="no"?>
<svg id="svg2817" xmlns:rdf="http://www.w3.org/1999/02/22-rdf-syntax-ns#" xmlns="http://www.w3.org/2000/svg" xmlns:osb="http://www.openswatchbook.org/uri/2009/osb" height="32" width="32" version="1.0" xmlns:cc="http://creativecommons.org/ns#" xmlns:xlink="http://www.w3.org/1999/xlink" xmlns:dc="http://purl.org/dc/elements/1.1/">
 <path style="fill:#333" d="m0 0v32h32v-32z"/>
 <path style="color-rendering:auto;color:#000000;isolation:auto;mix-blend-mode:normal;shape-rendering:auto;solid-color:#000000;image-rendering:auto" d="m4.3368 9.4732v13.054c0 1.051 0.85996 1.9109 1.911 1.9109h18.758l0.005-0.000552c2.0047-0.02332 2.6068-0.51928 2.6524-1.9089l-0.0031-12.502 0.000506-0.000556-0.000506 0.000504v-0.55379c0-1.051-0.85996-1.9109-1.911-1.9109l-19.501 0.0011c-1.051 0-1.911 0.85994-1.911 1.911zm11.632 5.3674 9.2074-6.7825 0.000505-0.0005058c0.98926 0 1.7987 0.80942 1.7987 1.7987 0.000683 4.1822 0.0019 8.5175 0.0028 12.289-0.03857 1.1765-0.50161 1.6722-1.9674 1.776-0.18622 0.01519-0.37309 0.01466-0.52898 0.02079-0.0016-3.9266-0.0032-7.8533-0.0049-11.78l-17.016 11.781h-0.64036c-0.98926 0-1.7987-0.80942-1.7987-1.7987v-12.287c0-0.98928 0.80945-1.7987 1.7987-1.7987zm-8.5077-2.7374v11.244l8.1753-5.5813z" fill="#fff"/>
</svg>
