<?xml version="1.0" encoding="UTF-8" standalone="no"?>
<svg xmlns:rdf="http://www.w3.org/1999/02/22-rdf-syntax-ns#" xmlns="http://www.w3.org/2000/svg" height="32" width="32" version="1.0" xmlns:cc="http://creativecommons.org/ns#" xmlns:xlink="http://www.w3.org/1999/xlink" xmlns:dc="http://purl.org/dc/elements/1.1/">
 <path style="color:#000000;fill:#333" d="m0 0v32h32v-32z"/>
 <g style="fill:#fff" transform="matrix(.4244 0 0 .4244 4.5 .4679)">
  <g style="fill:#fff">
   <path style="fill:#fff" d="m17.86 23.52 11.31-11.32-4.24-4.241c-0.78-0.781-2.048-0.781-2.828 0l-8.485 8.485c-0.781 0.781-0.781 2.047 0 2.828l4.243 4.243z"/>
   <path style="fill:#fff" d="m46.14 29.17 2.828-2.828c0.375-0.375 0.586-0.884 0.586-1.415s-0.211-1.039-0.586-1.414l-8.486-8.485c-0.781-0.781-2.047-0.781-2.828 0l-2.82 2.84-2.83-2.83-11.31 11.31 2.829 2.829-4.243 4.243c-0.781 0.781-0.781 2.047 0 2.828l2.828 2.827-1.556 1.557c-1.622-1.077-3.523-1.656-5.515-1.656-2.671 0-5.183 1.04-7.071 2.93-0.781 0.781-0.781 2.048 0 2.828l11.31 11.31c0.391 0.391 0.902 0.586 1.414 0.586s1.023-0.195 1.414-0.586c1.889-1.888 2.929-4.399 2.929-7.07 0-1.991-0.58-3.894-1.656-5.515l1.556-1.557 2.829 2.829c0.75 0.749 2.079 0.749 2.829 0l4.242-4.244 2.829 2.829 11.31-11.3-2.83-2.83z"/>
   <path style="fill:#fff" d="m56.04 39.07-4.242-4.243-11.31 11.31 4.243 4.243c0.391 0.391 0.902 0.586 1.414 0.586s1.023-0.195 1.414-0.586l8.484-8.484c0.782-0.782 0.782-2.047 0.001-2.829z"/>
  </g>
 </g>
 <path style="fill:#fff" d="m10.08 24.31c0.04439 0 0.08041-0.03602 0.08041-0.08041s-0.03602-0.08041-0.08041-0.08041c-1.516 0-2.75-1.234-2.75-2.75 0-0.04439-0.03602-0.08041-0.08041-0.08041s-0.08041 0.03602-0.08041 0.08041c0 1.605 1.306 2.911 2.911 2.911z"/>
 <path style="fill:#fff" d="m10.08 26.44c0.04439 0 0.08041-0.03602 0.08041-0.08041s-0.03602-0.08041-0.08041-0.08041c-2.687 0-4.873-2.186-4.873-4.873 0-0.04439-0.03602-0.08041-0.08041-0.08041s-0.08041 0.03602-0.08041 0.08041c0 2.776 2.258 5.034 5.034 5.034z"/>
 <path style="fill:#fff" d="m10.08 28.56c0.04439 0 0.08041-0.03602 0.08041-0.08041s-0.03602-0.08041-0.08041-0.08041c-3.857 0-6.996-3.138-6.996-6.996 0-0.04439-0.03602-0.08041-0.08041-0.08041s-0.08041 0.03602-0.08041 0.08041c0 3.946 3.211 7.157 7.157 7.157z"/>
</svg>
