<?xml version="1.0" encoding="UTF-8" standalone="no"?>
<svg xmlns:rdf="http://www.w3.org/1999/02/22-rdf-syntax-ns#" xmlns="http://www.w3.org/2000/svg" height="32" width="32" version="1.0" xmlns:cc="http://creativecommons.org/ns#" xmlns:xlink="http://www.w3.org/1999/xlink" xmlns:dc="http://purl.org/dc/elements/1.1/">
 <path style="color:#000000;fill:#333" d="m0 0v32h32v-32z"/>
<g style="fill:#fff">
 <path d="m20.34 16.85c-0.3057 0-0.5077-0.08969-0.719-0.4194-0.2059-0.3277-0.551-0.8791-0.551-0.8791l1.501-2.091h-1.303l-1.192 1.659v-2.994h-1.089v5.748h1.089v-1.824s0.61 0.958 0.7953 1.253c0.2987 0.4556 0.6968 0.5759 1.358 0.5759l0.3185-0.000803v-1.027c-0.1157 0-0.1156-0.000402-0.2072-0.000402z"/>
 <path d="m30.08 16.85c-0.3059 0-0.5077-0.08969-0.719-0.4194-0.206-0.3277-0.5511-0.8791-0.5511-0.8791l1.501-2.091h-1.303l-1.192 1.659v-2.994h-1.089v5.748h1.089v-1.824s0.6099 0.958 0.7953 1.253c0.2986 0.4556 0.6967 0.5759 1.358 0.5759l0.3183-0.000803v-1.027c-0.1157 0-0.1156-0.000402-0.2071-0.000402z"/>
 <path d="m3.365 17.92c-0.6784 0-1.232-0.1244-1.68-0.5848l0.697-0.7c0.2302 0.2302 0.6346 0.3111 0.9893 0.3111 0.4295 0 0.6348-0.143 0.6348-0.3982 0-0.1059-0.0247-0.1932-0.08701-0.262-0.056-0.05-0.149-0.1-0.292-0.12l-0.535-0.07c-0.393-0.06-0.691-0.19-0.89-0.39-0.206-0.22-0.305-0.51-0.305-0.89 0-0.8091 0.6098-1.4 1.618-1.4 0.6348 0 1.114 0.1494 1.494 0.529l-0.6845 0.6845c-0.281-0.28-0.648-0.26-0.841-0.26-0.3796 0-0.5351 0.2179-0.5351 0.4108 0 0.05609 0.01867 0.1369 0.08714 0.2053 0.05595 0.05609 0.1492 0.112 0.305 0.1307l0.535 0.07476c0.3983 0.05582 0.6845 0.1802 0.8713 0.367 0.2365 0.2302 0.3296 0.5599 0.3296 0.9714 0 0.9024-0.7777 1.394-1.711 1.394z"/>
 <path d="m8.395 17.42c-0.3237 0.3237-0.6971 0.4978-1.238 0.4978-0.5415 0-0.9148-0.1742-1.238-0.4978-0.4668-0.4667-0.4481-1.089-0.4481-1.756 0-0.6658-0.01867-1.288 0.4481-1.755 0.3235-0.3237 0.6969-0.4979 1.238-0.4979 0.5413 0 0.9148 0.1743 1.238 0.4979 0.4666 0.4667 0.448 1.089 0.448 1.755 0 0.6662 0.01867 1.289-0.448 1.756zm-0.803-2.84c-0.08092-0.1058-0.2365-0.193-0.4356-0.193s-0.3547 0.08721-0.4354 0.193c-0.09952 0.1306-0.1618 0.28-0.1618 1.089 0 0.8099 0.06231 0.9528 0.1618 1.084 0.08078 0.1058 0.2363 0.199 0.4354 0.199 0.1992 0 0.3547-0.09323 0.4356-0.199 0.09946-0.1307 0.1617-0.2737 0.1617-1.084 0-0.8089-0.06224-0.9583-0.1617-1.089z"/>
 <path d="m24.66 17.93c-0.5165 0-0.9085-0.1743-1.232-0.4979-0.4663-0.4666-0.4477-1.089-0.4477-1.755 0-0.6662-0.01854-1.288 0.4477-1.755 0.3237-0.3237 0.7157-0.498 1.232-0.498 0.8403 0 1.519 0.4668 1.68 1.444h-1.107c-0.06-0.25-0.2-0.48-0.56-0.48-0.1993 0-0.3484 0.08092-0.4294 0.1867-0.09959 0.1307-0.168 0.2863-0.168 1.095 0 0.8095 0.06833 0.9651 0.168 1.096 0.08105 0.1059 0.2302 0.1868 0.4294 0.1868 0.3611 0 0.4979-0.2241 0.5664-0.4731h1.107c-0.1618 0.9769-0.84 1.444-1.68 1.444z"/>
 <path d="m15.35 18.21c0 0.5833-0.4029 0.6864-0.6633 0.6864l-0.396 0.0026v0.9716l0.483 0.0017c1.084-0.007 1.675-0.5732 1.675-1.66l-0.0038-3.271c0-0.5102-0.2349-0.9149-0.5786-1.176-0.3065-0.2328-0.7002-0.3498-1.093-0.3498-0.5165 0-0.9086 0.1744-1.232 0.498-0.467 0.4666-0.4482 1.089-0.4482 1.755 0 0.6659-0.01881 1.289 0.4482 1.755 0.3233 0.3237 0.7154 0.4979 1.232 0.4979 0.2004 0 0.3812-0.04002 0.5763-0.1337v0.4229zm-0.57-1.26c-0.1993 0-0.3485-0.08092-0.4294-0.1868-0.09966-0.1306-0.1681-0.2863-0.1681-1.096 0-0.8091 0.06834-0.9646 0.1681-1.095 0.08085-0.1058 0.2301-0.1867 0.4294-0.1867 0.3548 0 0.4928 0.2163 0.5625 0.4604v1.644c-0.06967 0.2436-0.2077 0.4602-0.5625 0.4602z"/>
 <path d="m12.65 15.37c0-0.4522 0.01807-0.9953-0.4482-1.461-0.3235-0.3237-0.6969-0.4979-1.238-0.4979-0.5413 0-0.9148 0.1743-1.238 0.4979-0.463 0.47-0.444 1.04-0.444 1.46l-0.0003347 2.51 1.088-0.000268 0.0011-2.509c0-0.5663 0.06211-0.6494 0.1618-0.78 0.08085-0.1058 0.2363-0.2081 0.4356-0.2081s0.3547 0.1023 0.4355 0.2081c0.09953 0.1306 0.1618 0.199 0.1618 0.7828l-0.002 2.505 1.088 0.0017 0.0027-2.509z"/>
 <polygon points="302.8 0.016 286.5 0.014 286.5 13.15 302.8 13.18" transform="matrix(.06693 0 0 .06693 1.685 12.13)"/>
 <path d="m20.83 13.46 1.107 0.000669 0.000201 2.705c0 0.4825 0.3094 0.683 0.671 0.683l0.2521 0.000267v1.03l-0.3541 0.0025c-1.105-0.007-1.675-0.6124-1.675-1.677l-0.0015-2.744z"/>
</g>
</svg>
