<?xml version="1.0" encoding="UTF-8" standalone="no"?>
<svg xmlns:rdf="http://www.w3.org/1999/02/22-rdf-syntax-ns#" xmlns="http://www.w3.org/2000/svg" height="32" width="32" version="1.0" xmlns:cc="http://creativecommons.org/ns#" xmlns:dc="http://purl.org/dc/elements/1.1/">
 <path style="color:#000000;fill:#333" d="m0 0v32h32v-32z"/>
<g style="fill:#fff;fill-rule:evenodd">
 <path d="m25.18 14.67v-2.595h-1.85v2.595h-2.664v1.854h2.664v2.669h1.85v-2.669h2.59v-1.854h-2.59z"/>
 <path d="m11.71 14.52v2.966s2.872-0.0039 4.041-0.0039c-0.6332 1.923-1.618 2.97-4.041 2.97-2.452 0-4.366-1.992-4.366-4.449s1.914-4.449 4.366-4.449c1.297 0 2.134 0.4566 2.902 1.093 0.6149-0.616 0.5635-0.7038 2.128-2.184-1.33-1.211-3.092-1.949-5.034-1.949-4.128 0-7.472 3.353-7.472 7.488 0 4.136 3.347 7.488 7.475 7.488 6.171 0 7.679-5.383 7.179-8.971h-7.179z"/>
</g>
</svg>
