<?xml version="1.0" encoding="UTF-8" standalone="no"?>
<svg xmlns:rdf="http://www.w3.org/1999/02/22-rdf-syntax-ns#" xmlns="http://www.w3.org/2000/svg" height="32" width="32" version="1.0" xmlns:cc="http://creativecommons.org/ns#" xmlns:dc="http://purl.org/dc/elements/1.1/">
 <path style="fill:#333" d="m0 0v32h32v-32z"/>
 <path opacity=".05" d="m16.06 32.06v-32.13h-16.06v32.13z" style="color:#000000" fill="#fff"/>
<g style="color-rendering:auto;color:#000000;isolation:auto;mix-blend-mode:normal;shape-rendering:auto;solid-color:#000000;image-rendering:auto;fill:#fff">
 <rect  rx=".7537" ry=".7068" height="1.58" width="16.09" y="6.739" x="7.955"/>
 <rect  rx=".7537" ry=".7068" height="1.58" width="16.09" y="9.926" x="7.955"/>
 <rect  rx=".7537" ry=".7068" height="1.58" width="16.09" y="13.11" x="7.955"/>
 <rect  rx=".7537" ry=".7898" height="1.58" width="12.27" y="16.3" x="7.955"/>
 <path  d="m23.44 20.62c-0.1562 0.0012-0.3128 0.06192-0.4333 0.1824l-3.054 3.054-1.116-1.116c-0.241-0.241-0.6264-0.2434-0.8643-0.0056-0.2379 0.2379-0.2354 0.6234 0.0056 0.8643l1.475 1.475c0.1376 0.1376 0.3222 0.197 0.4996 0.1788 0.1774 0.01827 0.3621-0.04124 0.4996-0.1788l3.413-3.413c0.241-0.241 0.2434-0.6264 0.0056-0.8643-0.1189-0.1189-0.2748-0.1778-0.431-0.1768z"/>
</g>
</svg>
