<?xml version="1.0" encoding="UTF-8" standalone="no"?>
<svg xmlns:rdf="http://www.w3.org/1999/02/22-rdf-syntax-ns#" xmlns="http://www.w3.org/2000/svg" height="32" width="32" version="1.0" xmlns:cc="http://creativecommons.org/ns#" xmlns:xlink="http://www.w3.org/1999/xlink" xmlns:dc="http://purl.org/dc/elements/1.1/">
 <path style="color:#000000;fill:#333" d="m0 0v32h32v-32z"/>
 <path style="fill:#fff" d="m27.72 20.47c0.2967-0.0023-16.77-0.08609-19.93-0.1013l-5.746-0.02773-0.02977-0.02759c-0.03326-0.03083-0.06967-0.09545-0.06991-0.1241-0.0001263-0.01443-0.00222-0.0155-0.00912-0.0046-0.01365 0.02155-0.02463-0.05328-0.01613-0.11 0.00394-0.02624 0.01046-0.04234 0.01451-0.0358 0.00423 0.0069 0.01243-0.0051 0.01932-0.02801 0.00658-0.02196 0.02741-0.05677 0.04629-0.07736l0.03433-0.03744 1.095-0.0069c0.6021-0.0038 5.584-0.0321 8.522-0.04884 2.939-0.01674 7.575-0.04259 10.3-0.05745 2.728-0.01485 5.042-0.02969 5.141-0.03297 0.1664-0.0055 0.1807-0.0075 0.1807-0.02525 0-0.01712-0.05243-0.1031-0.3509-0.5756-0.06908-0.1094-0.3284-0.5221-0.8623-1.372-0.1067-0.17-0.2323-0.3703-0.279-0.4452-0.04674-0.07486-0.09286-0.1376-0.1025-0.1395-0.01642-0.0032-0.1162 0.1275-0.9333 1.222-0.09737 0.1304-0.1119 0.1551-0.1119 0.1906 0 0.07286 0.05959 0.1138 0.1676 0.1152 0.08722 0.0011 0.1872 0.0812 0.2162 0.173 0.03783 0.12-0.01178 0.2436-0.1219 0.3036l-0.05762 0.03142-3.316 0.003c-2.168 0.002-3.361-0.000562-3.447-0.0075-0.3147-0.02545-0.5991-0.152-0.8095-0.3602-0.5496-0.6057-1.085-1.217-1.661-1.869-0.07685-0.08711-0.1468-0.1611-0.1554-0.1644s-0.5684-0.0026-0.5776 0.0066c-0.0095 0.0095-0.01146 1.465 0.05685 1.568 0.1218 0.1842 0.2939 0.2855 0.52 0.3063 0.1551 0.01426 0.1895 0.02423 0.2396 0.0695 0.06126 0.05534 0.08591 0.1096 0.08685 0.1913 0.000703 0.05767-0.0042 0.07692-0.03176 0.1257-0.03694 0.06542-0.1019 0.1127-0.1741 0.1266-0.02462 0.0048-2.873 0.0043-2.873 0.0043l-0.0419-0.02265c-0.09442-0.05104-0.1414-0.1294-0.1414-0.2356 0-0.08099 0.02727-0.1414 0.08688-0.1924 0.04638-0.0397 0.07408-0.04921 0.196-0.06725 0.1093-0.01617 0.18-0.05343 0.2683-0.1413 0.08492-0.0845 0.1419-0.1852 0.1607-0.2841 0.0087-0.04568 0.0057-4.787 0.0057-4.787l-0.02912-0.0593c-0.1177-0.1997-0.2871-0.1923-0.4213-0.1954-0.1135-0.0026-0.1822-0.02043-0.2664 0.0077-0.1094 0.03655-0.2302 0.08999-0.2824 0.1999l-0.02737 0.05762-0.0052 2.729-0.0052 2.729-0.02183 0.05923c-0.108 0.2929-0.4311 0.4239-0.7044 0.2856-0.05352-0.02708-0.1267-0.08754-0.3109-0.257-0.15-0.12-3.906-3.57-3.976-3.64-0.164-0.15-0.188-0.17-0.21-0.17-0.01697 0-0.01774 0.01746-0.01142 0.2593 0.1002 0.9353-0.07036 1.93 0.1217 2.847 0.06285 0.1298 0.177 0.2384 0.3195 0.3039 0.08826 0.04056 0.1407 0.05365 0.2514 0.06272 0.1102 0.009 0.1463 0.02118 0.1959 0.06606 0.06109 0.05519 0.08541 0.1093 0.08569 0.1906 0.0004161 0.1198-0.0727 0.2172-0.1857 0.2473-0.04519 0.01203-5.564 0.01124-5.6 0.0034-0.06799-0.01458-0.1285-0.05917-0.1653-0.1219-0.02535-0.04313-0.02951-0.06139-0.02951-0.1296 0-0.07009 0.00372-0.0854 0.0317-0.1307 0.04992-0.08069 0.1044-0.1083 0.2474-0.125 0.1884-0.0221 0.3215-0.08089 0.4352-0.1922 0.06906-0.06761 0.1203-0.1454 0.1463-0.2222 0.01862-0.05491 0.0278-5.647-0.03249-5.779-0.048-0.11-0.1-0.16-0.222-0.24-0.128-0.09-0.251-0.15-0.386-0.2-0.07249-0.02721-0.1054-0.04638-0.1423-0.08297-0.1343-0.1331-0.09822-0.3687 0.06822-0.4462 0.02922-0.01361 0.04605-0.02519 0.03741-0.02574-0.00864-0.000553-0.00393-0.0041 0.01048-0.008 0.0144-0.0038 26.37 0.1376 26.65 0.1411l0.5177 0.0064 0.0295 0.0323c0.05041 0.05519 0.06617 0.09916 0.06635 0.1852 0.000139 0.06775-0.0041 0.08632-0.03102 0.1349-0.01716 0.03097-0.04072 0.06239-0.05238 0.06981-0.02743 0.01747-0.478 0.02401-2.137 0.03105-0.6914 0.0029-1.655 0.0079-2.142 0.01095-1.747 0.01109-7.806 0.04668-9.732 0.05719-1.08 0.0059-3.884 0.02247-6.231 0.03684-4.149 0.0254-4.268 0.02668-4.324 0.04629-0.07392 0.02598-0.135 0.07128-0.1784 0.1324-0.07301 0.1027-0.0617 5.897-0.0617 5.897l0.03027 0.05762c0.09065 0.1726 0.24 0.2906 0.4303 0.34 0.1228 0.03188 0.2335 0.01418 0.3776-0.06041 0.09566-0.04951 0.1991-0.1469 0.2542-0.2395 0.05402-0.09064 0.2061-4.835 0.2123-5.042 0.01676-0.5613 0.0202-0.5814 0.1161-0.6777 0.06155-0.0618 0.1367-0.08676 0.239-0.07942 0.08811 0.0063 0.1347 0.03046 0.232 0.1203 0.04278 0.03948 0.1768 0.1612 0.2977 0.2705 0.121 0.1093 0.3358 0.3048 0.4773 0.4344 0.1416 0.1296 3.682 3.383 3.694 3.384 0.0069 0.000139 0.01466-0.0033 0.01733-0.0076 0.0073-0.01186 0.0152-0.4252 0.03488-1.832 0.01385-0.9898 0.0151-1.289 0.0055-1.321-0.01864-0.0622-0.1106-0.1858-0.178-0.2394-0.07104-0.05642-0.2066-0.1238-0.2799-0.1391-0.02881-0.006-0.08765-0.01396-0.1308-0.01766-0.09462-0.0081-0.1313-0.02238-0.187-0.07273-0.09957-0.08995-0.1061-0.2518-0.01432-0.3534 0.07507-0.0831 0.08987-0.08646 0.3687-0.08391 0.1354 0.0013 5.802 0.1046 5.935 0.1324 0.2264 0.04732 0.4725 0.1444 0.6196 0.2445 0.2828 0.1925 0.5213 0.5185 0.6303 0.8615 0.1472 0.4634 0.08738 0.9708-0.1631 1.384-0.1567 0.2582-0.4892 0.5849-0.7574 0.7442-0.04459 0.02649-0.07274 0.05012-0.07274 0.06105 0 0.0098 0.02946 0.05073 0.06548 0.09093 0.03601 0.04021 1.861 2.105 1.918 2.17 0.05705 0.06455 0.128 0.134 0.1576 0.1543 0.1851 0.1269 0.4426 0.1086 0.6049-0.04314 0.1199-0.1121 0.1525-0.1924 0.1675-0.4119 0.0065-0.09523 0.0034-4.69-0.0146-4.723-0.03899-0.07142-0.1972-0.1395-0.3582-0.1542-0.1714-0.01563-0.2671-0.1075-0.2671-0.2564 0-0.07437 0.02181-0.1271 0.07437-0.1799 0.08716-0.08753-0.01109-0.08198 1.45-0.08198 1.105 0 1.297 0.0022 1.342 0.01541 0.1503 0.04485 0.2246 0.2135 0.1574 0.3577-0.04188 0.08995-0.1143 0.1327-0.2535 0.1496-0.1441 0.01751-0.2686 0.06667-0.3253 0.1284-0.01242 0.01351-0.02771 0.04343-0.03399 0.06647-0.01445 0.05302-0.01596 4.637-0.0015 4.774 0.01125 0.1069 0.03148 0.1568 0.1005 0.2482 0.08336 0.1102 0.2183 0.1971 0.3714 0.2391 0.06044 0.01658 1.035 0.01719 1.18-0.05556 0.1234-0.06185 0.177-0.1198 0.4542-0.4915 0.1418-0.1901 1.5-2.009 1.504-2.021 0.0047-0.01236-1.537-2.469-1.574-2.528-0.03759-0.05971-0.09097-0.1282-0.1209-0.1551-0.1297-0.1166-0.3067-0.1879-0.5087-0.205-0.09533-0.0081-0.1351-0.01634-0.1778-0.03701-0.2038-0.09847-0.174-0.405 0.0458-0.4711 0.07513-0.02261 2.459-0.02206 2.535 0.000563 0.1521 0.04539 0.2264 0.2174 0.1553 0.36-0.03212 0.06445-0.1039 0.1241-0.1598 0.1328-0.1117 0.01734-0.1481 0.04262-0.1481 0.1027 0 0.02205 0.9438 1.416 0.9671 1.419 0.01895 0.0022 0.6315-0.8149 0.7705-1.001 0.2725-0.3648 0.2748-0.3691 0.237-0.4423-0.02164-0.04183-0.05897-0.0584-0.1515-0.06725-0.09343-0.0089-0.1297-0.02276-0.1834-0.06991-0.05222-0.04584-0.0808-0.1113-0.08126-0.186-0.000562-0.1004 0.05118-0.185 0.144-0.2352l0.0419-0.02265h1.126 1.126l0.0419 0.02265c0.1596 0.08627 0.196 0.2783 0.07722 0.4071-0.05325 0.05777-0.1017 0.07565-0.2396 0.08838-0.1397 0.0099-0.2754 0.05776-0.3909 0.1346-0.08885 0.06046-0.08346 0.05346-1.477 1.918-0.1783 0.2385-0.3314 0.4464-0.3404 0.4619-0.016 0.02788-0.01481 0.03027 0.09388 0.1897 0.06055 0.08879 2.247 3.298 2.277 3.341 0.2457 0.3575 0.2293 0.3389 0.3947 0.4473 0.1031 0.06755 0.2357 0.1336 0.3735 0.1859 0.04206 0.01598 0.09047 0.04083 0.1076 0.05523 0.08673 0.07297 0.1189 0.2179 0.07238 0.326-0.02702 0.06282-0.09949 0.1329-0.1485 0.1437-0.02025 0.0045-0.02743 0.0099-0.01944 0.01489 0.02504 0.01547-0.07039 0.02105-0.3189 0.01865-0.1383-0.0014-2.292-0.01395-1.849-0.01736zm-11.69-4.86c0.4638-0.3925 0.5523-1.265 0.1303-1.73-0.3171-0.3093-0.7711-0.3925-1.212-0.3786l-0.07857 0.0035-0.0053 2.342 0.02362 0.0089c0.3623 0.038 0.8475-0.02655 1.142-0.2457zm-13.37-4.09c-0.05587-0.0019-0.1502-0.0019-0.2095-0.000021-0.05937 0.0019-0.01365 0.0034 0.1016 0.0034 0.1152 0.000009 0.1638-0.0015 0.1079-0.0034z"/>
</svg>
