<?xml version="1.0" encoding="UTF-8" standalone="no"?>
<svg id="svg2817" xmlns:rdf="http://www.w3.org/1999/02/22-rdf-syntax-ns#" xmlns="http://www.w3.org/2000/svg" xmlns:osb="http://www.openswatchbook.org/uri/2009/osb" height="32" width="32" version="1.0" xmlns:cc="http://creativecommons.org/ns#" xmlns:xlink="http://www.w3.org/1999/xlink" xmlns:dc="http://purl.org/dc/elements/1.1/">
 <path style="fill:#333" d="m0 0v32h32v-32z"/>
 <path id="rect4238-4" opacity=".05" style="color:#000000" d="m-0.11079-0.05683 0.1356 31.855 32.23-31.516z" fill="#fff"/>
 <path id="twitter" style="filter-blend-mode:normal;color-rendering:auto;color:#000000;isolation:auto;mix-blend-mode:normal;filter-gaussianBlur-deviation:0;shape-rendering:auto;solid-color:#000000;image-rendering:auto" d="m20.021 16.018c0.55637 0 1.0345-0.20532 1.4324-0.61513 0.39818-0.41033 0.59696-0.90286 0.59696-1.4767 0-0.57433-0.19878-1.0666-0.59842-1.4766-0.39932-0.41033-0.87826-0.61575-1.4366-0.61575h-6.0116v-2.092c0-0.57485-0.19795-1.0667-0.59343-1.4762-0.39403-0.41126-0.86944-0.61606-1.4221-0.61606-0.56945 0-1.052 0.20137-1.447 0.6036-0.39486 0.40265-0.5925 0.89944-0.5925 1.4902v8.3505c0 1.7242 0.5925 3.198 1.7788 4.4211 1.1854 1.224 2.6131 1.8352 4.2834 1.8352h4.0106c0.5571 0 1.0337-0.2049 1.4316-0.61492 0.39808-0.40939 0.59686-0.90276 0.59686-1.4768 0-0.57434-0.19878-1.0661-0.59686-1.4764-0.39797-0.41043-0.87608-0.61617-1.4325-0.61617h-4.0115c-0.5571 0-1.031-0.20148-1.4212-0.60392-0.39019-0.4042-0.58482-0.89383-0.58482-1.47v-2.0743h6.0179z" fill="#fff"/>
</svg>
