<?xml version="1.0" encoding="UTF-8" standalone="no"?>
<svg xmlns:rdf="http://www.w3.org/1999/02/22-rdf-syntax-ns#" xmlns="http://www.w3.org/2000/svg" height="32" width="32" version="1.0" xmlns:cc="http://creativecommons.org/ns#" xmlns:dc="http://purl.org/dc/elements/1.1/">
 <path style="color:#000000;fill:#333" d="m0 0v32h32v-32z"/>
 <path opacity=".05" style="color:#000000" fill="#fff" d="m0.02481-0.06309v32.13h15.82v-32.13z"/>
 <path style="fill:#fff" d="m10.2 4.672c-1.422 0-2.573 1.152-2.573 2.573v17.51c0 1.422 1.152 2.573 2.573 2.573h11.6c1.422 0 2.573-1.152 2.573-2.573v-17.51c0-1.422-1.152-2.573-2.573-2.573h-11.6zm0.2447 2.135h11.11c0.5364 0 0.9706 0.4342 0.9706 0.9701v14.14h-0.000938c0 0.535-0.4342 0.9701-0.9701 0.9701h-11.11c-0.5355 0-0.9701-0.4342-0.9701-0.9701v-14.14c0-0.5355 0.4342-0.9701 0.9701-0.9701zm5.556 1.979c-0.1675-0.0000015-0.3351 0.06395-0.463 0.1918l-5.061 5.061c-0.2555 0.2555-0.2555 0.6702 0 0.9259l5.061 5.061c0.2558 0.2558 0.6704 0.2558 0.9259 0l5.061-5.061c0.2555-0.2558 0.2555-0.6704 0-0.9259l-0.7348-0.7345-4.79 4.79-3.592-3.593 3.592-3.592 1.197 1.197-2.395 2.395 1.198 1.198 3.592-3.592-3.129-3.129c-0.14-0.13-0.3-0.194-0.47-0.194zm-1.468 15.38h2.994c0.266 0 0.4814 0.2153 0.4814 0.4813v0.5281c0 0.266-0.2154 0.4814-0.4814 0.4814h-2.994c-0.266 0-0.4819-0.2154-0.4819-0.4814v-0.5281c0-0.266 0.2158-0.4813 0.4819-0.4813z"/>
</svg>
