<?xml version="1.0" encoding="UTF-8" standalone="no"?>
<svg xmlns:rdf="http://www.w3.org/1999/02/22-rdf-syntax-ns#" xmlns="http://www.w3.org/2000/svg" height="32" width="32" version="1.0" xmlns:cc="http://creativecommons.org/ns#" xmlns:dc="http://purl.org/dc/elements/1.1/">
 <path style="color:#000000;fill:#333" d="m0 0v32h32v-32z"/>
 <g style="fill:#fff" transform="matrix(-1 0 0 -1 40 40)">
  <path style="fill:#fff" d="m28.18 15c-2.66 0-4.82 2.156-4.82 4.82 0 0.832 0.211 1.617 0.578 2.301v0.012l-8.94 8.94v1.93h1.926l0.641-0.641v-1.289h1.289l0.641-0.641h1.285l0.641-0.641v-1.285l0.641-0.645h1.289v-1.285l2.512-2.512h0.02c0.684 0.371 1.465 0.582 2.297 0.582 2.66 0 4.816-2.16 4.816-4.824v-0.02c-0.012-2.66-2.156-4.801-4.816-4.801m0.973 2.57c0.707 0 1.281 0.578 1.285 1.289 0 0.707-0.574 1.285-1.285 1.285s-1.285-0.574-1.285-1.285 0.57-1.289 1.285-1.289"/>
 </g>
</svg>
