<?xml version="1.0" encoding="UTF-8" standalone="no"?>
<svg xmlns="http://www.w3.org/2000/svg" height="32" width="32" version="1.1" viewBox="0 0 32 32">
 <path fill="#333" d="m0 0v32h32v-32z"/>
 <path style="fill:#fff;fill-rule:evenodd" d="m29.6 9.47s-3.91 0.21-6.36 3.11c-2.4 2.9-5.2 12.9-14.6 10.7-8.32-1.9-6.3-8.8-4.83-10.5 1.47-1.8 4.74-1.6 6.33 0.1 2 2.1-0.31 5.9-2.86 4.2-2-1.4-0.27-2.7-0.27-2.7s-1.81 0.842-0.631 2.53c1.18 1.68 5.21 1.26 6.96-0.0421 2.93-2.18 3.95-3.37 3.95-3.37s-4.63-0.0453-3.22-3.96c0.591-1.64 3.35-1.67 3.56 0.47 0 0-0.232 1.54-1.28 0.821-0.981-0.667-0.158 1.17 2.34 0.779 1.91-0.299 1.26-0.842 4.21-1.35 2.95-0.505 6.73-0.8 6.73-0.8z"/>
</svg>
