<?xml version="1.0" encoding="UTF-8" standalone="no"?>
<svg xmlns:rdf="http://www.w3.org/1999/02/22-rdf-syntax-ns#" xmlns="http://www.w3.org/2000/svg" height="32" width="32" version="1" xmlns:cc="http://creativecommons.org/ns#" xmlns:dc="http://purl.org/dc/elements/1.1/">
 <path d="m0 0v32h32v-32z" style="fill:#333"/>
 <path style="opacity:.1;fill:#fff" d="m0.01995-0.09255v32.1h16.1v-32.1z"/>
 <path d="m6.611 31.98v-25.8c0-0.4007 0.3411-0.731 0.7148-0.731l9.184 0.00542c0.379 0 0.5902 0.1408 0.8556 0.4115l7.7 7.7c0.2708 0.2708 0.3141 0.444 0.3141 0.8285v17.54l1.067 0.01083v-17.85c0-0.4224-0.05415-0.6227-0.352-0.9206l-8.58-8.577c-0.3-0.297-0.53-0.454-0.95-0.454l-10.23-0.011c-0.417 0-0.796 0.3682-0.796 0.8177v27.01zm13.34-26.76 5.34 5.375c0.4386 0.4386 1.159 0.3357 1.159-0.3574v-5.269c0-0.4224-0.3845-0.8231-0.8068-0.8231h-5.345c-0.6877 0-0.7148 0.7148-0.352 1.078z" style="color-rendering:auto;isolation:auto;mix-blend-mode:normal;shape-rendering:auto;solid-color:#000000;text-decoration-line:none;image-rendering:auto;text-indent:0;text-transform:none;fill:#fff"/>
 <path d="m16 12.17c-1.035 0.01008-2.078 0.2466-2.979 0.7577-0.3594 0.2341-0.7911 0.5366-1.116 0.8412-0.5117 0.5011-0.9493 1.086-1.245 1.74 0.8111 1.789 2.594 3.101 4.556 3.295 1.286 0.1457 2.633-0.07671 3.765-0.7137 0.3594-0.2341 0.7911-0.5366 1.116-0.8412 0.5117-0.5011 0.9493-1.086 1.245-1.74-0.81-1.79-2.59-3.1-4.55-3.29-0.26-0.03-0.53-0.05-0.79-0.05zm0 1.335c1.073-0.02377 2.023 0.936 2.003 2.003 0.03438 1.18-1.141 2.198-2.303 1.977-1.174-0.1378-1.997-1.454-1.612-2.569 0.2465-0.8211 1.052-1.421 1.911-1.411zm0 1.335a0.6676 0.6676 0 0 0 -0.6676 0.6676 0.6676 0.6676 0 0 0 0.6676 0.6676 0.6676 0.6676 0 0 0 0.6676 -0.6676 0.6676 0.6676 0 0 0 -0.6676 -0.6676z" style="fill:#fff;fill-rule:evenodd"/>
</svg>
