<?xml version="1.0" encoding="UTF-8" standalone="no"?>
<svg xmlns:rdf="http://www.w3.org/1999/02/22-rdf-syntax-ns#" xmlns="http://www.w3.org/2000/svg" xmlns:osb="http://www.openswatchbook.org/uri/2009/osb" height="32" width="32" version="1.0" xmlns:cc="http://creativecommons.org/ns#" xmlns:dc="http://purl.org/dc/elements/1.1/">
 <path d="m0 0v32h32v-32z" style="color:#000000;fill:#333"/>
 <path d="m16 4.985c-6.084 0-11.02 4.932-11.02 11.02 0 6.084 4.932 11.02 11.02 11.02 6.084 0 11.02-4.932 11.02-11.02 0-6.084-4.932-11.02-11.02-11.02zm0 1.389c5.316 0 9.626 4.31 9.626 9.626s-4.31 9.626-9.626 9.626-9.626-4.31-9.626-9.626 4.31-9.626 9.626-9.626z" style="fill:#fff"/>
 <path d="m18.43 18.52c0.3389-0.9262 1.58-4.449 1.779-5.372 0.2253-1.045-0.2463-1.146-1.319-0.7962-1.073 0.3503-3.823 1.37-4.286 1.534-0.463 0.1643-2.717 0.9218-3.184 1.148-0.9544 0.5119-0.4901 1.293 0.5768 1.699 3.189 1.531 2.284 0.7507 3.707 3.583 0.293 0.7236 0.9839 1.956 1.646 1.024 0.3479-0.5299 0.8138-2.092 1.08-2.82z" style="fill:#fff"/>
</svg>
