<?xml version="1.0" encoding="UTF-8" standalone="no"?>
<svg xmlns:rdf="http://www.w3.org/1999/02/22-rdf-syntax-ns#" xmlns="http://www.w3.org/2000/svg" height="32" width="32" version="1.0" xmlns:cc="http://creativecommons.org/ns#" xmlns:dc="http://purl.org/dc/elements/1.1/">
 <path style="color:#000000;fill:#333" d="m0 0v32h32v-32z"/>
 <path style="color:#000000;opacity:.05;fill:#fff" d="m0.009628-0.03861v32.13l32.12-32.13z"/>
 <path style="fill:#fff" d="m12.96 23.95c-0.2555-0.1593-6.447-6.915-6.539-7.134-0.09872-0.2363-0.08702-0.5327 0.02966-0.7513 0.1333-0.2496 2.025-2.192 2.231-2.291 0.1995-0.0957 0.5514-0.0959 0.7731-0.000443 0.08112 0.03493 0.9023 0.8891 1.825 1.898 0.9226 1.009 1.729 1.864 1.791 1.899 0.1481 0.0843 0.3466 0.09177 0.5267 0.0198 0.07936-0.03172 2.117-2.107 4.529-4.611 2.411-2.504 4.456-4.606 4.543-4.67 0.1815-0.134 0.4947-0.1764 0.7886-0.1067 0.1715 0.04066 0.3567 0.2174 1.255 1.197 0.5793 0.6322 1.089 1.235 1.133 1.339 0.1096 0.2622 0.04979 0.681-0.131 0.918-0.2529 0.3315-11.69 12.16-11.87 12.27-0.238 0.1531-0.6623 0.164-0.8886 0.02286z"/>
</svg>
