<?xml version="1.0" encoding="UTF-8" standalone="no"?>
<svg xmlns="http://www.w3.org/2000/svg" height="32" width="32" version="1.1" viewBox="0 0 32 32">
 <path fill="#333" d="m0 0v32h32v-32z"/>
 <path style="color-rendering:auto;text-decoration-color:#000000;color:#000000;shape-rendering:auto;solid-color:#000000;stroke-width:.0702;fill:#fff;fill-rule:evenodd;mix-blend-mode:normal;image-rendering:auto;text-decoration-style:solid;isolation:auto;text-decoration-line:none" d="m12.6 5.48c-1.21-0.0516-2.44 0.268-3.67 0.941-0.26 0.141-0.423 0.136-0.621-0.09-0.176-0.201-0.38-0.4-0.613-0.524-0.528-0.281-1.14-0.159-1.56 0.257-0.409 0.428-0.534 1.04-0.255 1.57 0.123 0.234 0.321 0.44 0.521 0.617 0.224 0.198 0.23 0.363 0.0895 0.624-1.34 2.49-1.27 4.95 0.347 7.27 0.634 0.907 1.5 1.65 2.25 2.47 0.465 0.506 0.923 1.02 1.38 1.53 0.823 0.917 1.14 2.02 0.896 3.2-0.203 0.971 0.72 2.13 0.804 2.22l0.965 0.971c4.44-4.47 8.89-8.94 13.3-13.4l-0.965-0.971c-0.0841-0.0842-1.24-1.01-2.2-0.809-1.17 0.247-2.27-0.0732-3.18-0.902-0.508-0.462-1.02-0.922-1.52-1.39-0.817-0.761-1.55-1.63-2.46-2.27-1.15-0.815-2.34-1.24-3.55-1.29zm8.23 15.2c-1.36 1.37-2.73 2.74-4.09 4.11 1.27 0.318 2.45-0.0662 3.24-0.851 0.776-0.797 1.16-1.98 0.845-3.26z"/>
</svg>
