<?xml version="1.0" encoding="UTF-8" standalone="no"?>
<svg id="svg2817" xmlns:rdf="http://www.w3.org/1999/02/22-rdf-syntax-ns#" xmlns="http://www.w3.org/2000/svg" xmlns:osb="http://www.openswatchbook.org/uri/2009/osb" height="32" width="32" version="1.0" xmlns:cc="http://creativecommons.org/ns#" xmlns:xlink="http://www.w3.org/1999/xlink" xmlns:dc="http://purl.org/dc/elements/1.1/">
 <path style="fill:#333" d="m0 0v32h32v-32z"/>
 <g id="g15530" transform="matrix(.044201 0 0 .044201 4.7805 4.2478)">
  <g id="g21916" transform="matrix(1.0926 0 0 1.0926 -23.704 -27.704)" fill="#fff">
   <path id="path4206" d="m343.3 458.92c-12.276-2.6707-32.522-11.609-36.123-15.948-1.0204-1.2295 3.0132-18.868 17.64-77.14 10.43-41.551 19.276-75.859 19.658-76.241 1.6583-1.6584 22.572-0.38971 31.935 1.9372 10.263 2.5504 24.235 8.597 28.574 12.365l2.5252 2.1933-18.972 75.683c-10.434 41.625-19.214 75.925-19.51 76.221-1.0722 1.0722-9.5115 2.5944-14.035 2.5314-2.547-0.0353-7.8089-0.7558-11.693-1.6009zm-197.92-0.23797c-0.67543-0.51467-9.7824-35.174-20.238-77.022-18.72-74.927-18.975-76.114-16.717-77.932 4.6227-3.7206 19.229-9.8788 29.151-12.291 10.838-2.6346 29.504-3.5601 31.459-1.5599 0.62262 0.63676 9.5926 34.956 19.933 76.266 13.607 54.359 18.486 75.608 17.66 76.918-1.8188 2.8833-14.062 9.2277-24.132 12.505-7.0654 2.2993-12.419 3.1371-22.575 3.5329-7.3225 0.28537-13.866 0.0976-14.542-0.41692zm-44.17-14.87c-8.5398-2.3005-13.349-4.4601-20.494-9.2022l-6.2381-4.1406-8.8093-35.565c-5.2068-21.021-8.8058-37.977-8.8007-41.464 0.007-4.8665 0.78375-7.0945 4.4397-12.735 2.4371-3.76 5.2791-7.532 6.3156-8.3822 1.306-1.0714 1.5691-2.1374 0.85716-3.4732-0.565-1.06-1.8274-5.3541-2.8053-9.5426-7.6308-32.682-8.2665-66.649-1.805-96.435 14.071-64.865 65.882-119.56 133.67-141.12 39.759-12.383 88.004-12.417 128.51 4.1781 16.917 7.2214 18.246 7.8586 28.74 13.774 42.486 23.95 76.105 64.891 90.003 109.6 9.8101 31.562 10.568 70.913 2.0799 107.98-1.359 5.9343-3.0378 11.153-3.7308 11.597-0.83024 0.53206-0.42575 1.7162 1.187 3.4732 5.9028 6.431 10.806 15.838 10.806 20.731 0 7.7322-17.217 75.234-19.956 78.24-3.3015 3.6239-16.721 10.414-24.677 12.486-8.7093 2.2685-23.673 2.4122-23.673 0.22739 0-2.836 31.399-127.53 32.36-128.51 0.52106-0.53175 2.6539-0.0845 4.7395 0.99415l3.7921 1.961-0.75829-18.939c-0.80263-20.047-2.4682-32.399-6.5344-48.46-16.67-65.81-63.29-113.36-129.83-126.38-23.649-4.6277-45.156-5.6383-69.257-0.5845-62.851 13.545-112.05 61.039-128.53 124.08-3.8833 14.853-5.8712 29.915-6.6338 50.263-0.68846 18.37-0.63862 18.975 1.4914 18.105 1.212-0.49472 2.8968-0.97187 3.7441-1.0603 1.0982-0.11462 6.1361 18.286 17.547 64.089 8.8033 35.337 15.764 64.642 15.467 65.121-0.89536 1.4487-16.778 0.8299-23.216-0.9046z" fill="#fff"/>
  </g>
 </g>
</svg>
