<?xml version="1.0" encoding="UTF-8" standalone="no"?>
<svg xmlns:rdf="http://www.w3.org/1999/02/22-rdf-syntax-ns#" xmlns="http://www.w3.org/2000/svg" height="32" width="32" version="1.1" xmlns:cc="http://creativecommons.org/ns#" xmlns:dc="http://purl.org/dc/elements/1.1/" viewBox="0 0 32 32">
 <path style="fill:#333" d="m0 0v32h32v-32z"/>
<g style="color:#000000;fill:#fff">
 <path d="m14.79 16.89c-1.707-0.058-3.626 0.07441-5.691 0.5379a0.8398 0.8518 0 1 0 0.3693 1.662c7.686-1.725 12.87 1.354 12.87 1.354a0.8387 0.8507 0 1 0 0.8428 -1.47s-3.268-1.91-8.39-2.084z" />
 <path d="m15.02 12.09c-1.955-0.04515-4.113 0.1279-6.392 0.682a1.12 1.136 0 1 0 0.5208 2.209c8.3-2.018 14.73 1.393 14.73 1.393a1.118 1.134 0 1 0 1.032 -2.007s-4.032-2.141-9.896-2.276z" />
 <path d="m14.83 6.972c-2.23-0.024-4.62 0.19-7.053 0.807a1.398 1.418 0 1 0 0.682 2.747c8.631-2.191 17.14 1.36 17.14 1.36a1.401 1.421 0 1 0 1.08 -2.622s-5.162-2.223-11.85-2.296z" />
 <path d="m13.9 21.54c-6.381 0-11.81 4.585-12.75 10.64h5.753c0.6666-3.508 3.481-6.191 6.996-6.191 3.514 0 6.329 2.683 6.996 6.191h5.753c-0.92-6.06-6.36-10.64-12.74-10.64z" />
</g></svg>
