<?xml version="1.0" encoding="UTF-8" standalone="no"?>
<svg xmlns="http://www.w3.org/2000/svg" height="32" width="32" version="1.0">
 <path style="color:#000000;fill:#333" d="m0 0v32h32v-32z"/>
 <path style="stroke-width:0.95;fill:#fff" d="m23.65 12.06c0 2.33-0.827 4.285-2.518 5.713-0.07518 0-0.5263 0.4887-0.5263 0.4887l-0.07518 0.07518c-0.6766 0.9397-1.166 3.609-1.278 5.713-0.07518-0.07518-0.1504-0.07518-0.2632-0.07518h-4.436c-0.9397 0-0.9397 1.429 0 1.429h4.624c-0.2632 1.241-1.353 2.18-2.594 2.18h-1.504c-1.429 0-2.594-1.166-2.594-2.594v-0.1504c0-0.9397-0.07518-1.917-0.2632-2.932h4.699c0.9397 0 0.9397-1.429 0-1.429h-4.474c-0.07518 0-0.1879 0.07518-0.2632 0.07518-0.1504-0.9397-0.5263-1.767-0.7518-2.18l-0.4135-0.4887-0.07518-0.07518c-1.694-1.425-2.595-3.382-2.595-5.719 0-4.21 3.458-7.668 7.668-7.668 4.172 0 7.63 3.421 7.63 7.63z"/>
</svg>
