<?xml version="1.0" encoding="UTF-8" standalone="no"?>
<svg xmlns="http://www.w3.org/2000/svg" viewBox="0 0 32 32" height="32" width="32" version="1.1">
 <path d="m0 0v32h32v-32z" style="fill:#1b9f86"/>
 <g style="opacity:.1" transform="matrix(.06747 0 0 .06747 15.38 15.64)">
  <path d="m-60.02-120.4h122.9s4.803-0.2056 7.766 2.685c2.361 2.303 4.89 8.054 4.89 8.054l38.93 84.37h-173.3z"/>
  <path d="m26.58 167.3 87.59-189.6h-87.86l-42.03 92.75z"/>
 </g>
 <g style="fill:#fff" transform="matrix(.06747 0 0 .06747 14.16 14.42)">
  <path d="m-60.02-120.4h122.9s4.803-0.2056 7.766 2.685c2.361 2.303 4.89 8.054 4.89 8.054l38.93 84.37h-173.3z"/>
  <path d="m26.58 167.3 87.59-189.6h-87.86l-42.03 92.75z"/>
 </g>
</svg>
