<?xml version="1.0" encoding="UTF-8" standalone="no"?>
<svg xmlns:rdf="http://www.w3.org/1999/02/22-rdf-syntax-ns#" xmlns="http://www.w3.org/2000/svg" height="32" width="32" version="1.0" xmlns:cc="http://creativecommons.org/ns#" xmlns:dc="http://purl.org/dc/elements/1.1/">
 <path d="m0 0v32h32v-32z" style="color:#000000;fill:#333"/>
 <path style="color:#000000;opacity:.05;fill:#fff" d="m32.13 15.94h-32.13v16.06h11.54 9.048 11.54z"/>
 <path style="fill:#fff" d="m12.39 15.55q1.089 0.2327 1.697 0.9684 0.6156 0.7357 0.6156 1.817 0 1.659-1.141 2.568-1.141 0.9084-3.243 0.9084-0.7057 0-1.456-0.1426-0.7432-0.1351-1.539-0.4129v-1.464q0.6306 0.3679 1.381 0.5555 0.7507 0.1877 1.569 0.1877 1.426 0 2.17-0.563 0.7507-0.563 0.7507-1.637 0-0.991-0.6982-1.546-0.6907-0.563-1.929-0.563h-1.306v-1.246h1.366q1.119 0 1.712-0.4429 0.5931-0.4504 0.5931-1.291 0-0.8634-0.6156-1.321-0.6081-0.4655-1.749-0.4655-0.6231 0-1.336 0.1351-0.7132 0.1351-1.569 0.4204v-1.351q0.8625-0.24 1.613-0.36 0.758-0.12 1.426-0.12 1.727 0 2.733 0.7883 1.006 0.7808 1.006 2.117 0 0.9309-0.533 1.576-0.533 0.6381-1.516 0.8859z"/>
 <path style="fill:#fff" d="m18.23 20.32h2.477v-8.551l-2.695 0.5405v-1.381l2.68-0.5405h1.516v9.932h2.477v1.276h-6.456v-1.276z"/>
 <rect style="fill:#fff" ry=".5193" height="4.839" width="1.039" y="13.58" x="0.047"/>
 <rect style="fill:#fff" ry=".5193" height="4.839" width="1.039" y="13.58" x="30.92"/>
</svg>
