<?xml version="1.0" encoding="UTF-8" standalone="no"?>
<svg xmlns:rdf="http://www.w3.org/1999/02/22-rdf-syntax-ns#" xmlns="http://www.w3.org/2000/svg" height="32" width="32" version="1.0" xmlns:cc="http://creativecommons.org/ns#" xmlns:xlink="http://www.w3.org/1999/xlink" xmlns:dc="http://purl.org/dc/elements/1.1/">
 <path style="color:#000000;fill:#333" d="m0 0v32h32v-32z"/>
 <path style="fill:#fff" d="m16 6.807c-0.504 0-0.9552 0.2603-1.207 0.6969l-8.615 14.93c-0.252 0.4366-0.252 0.9356 0 1.372 0.252 0.4366 0.7038 0.6756 1.208 0.6756h17.23c0.504 0 0.9554-0.2387 1.207-0.6751 0.252-0.4366 0.252-0.9467 0-1.383l-8.61-14.92c-0.25-0.433-0.71-0.693-1.21-0.693zm0 5.182c0.2462 0 0.446 0.1998 0.446 0.446v5.575c0 0.2462-0.1998 0.446-0.446 0.446s-0.446-0.1998-0.446-0.446v-5.575c0-0.2462 0.1998-0.446 0.446-0.446zm0 7.582c0.2462 0 0.446 0.1998 0.446 0.446v0.892c0 0.2462-0.1998 0.446-0.446 0.446s-0.446-0.1998-0.446-0.446v-0.892c0-0.2462 0.1998-0.446 0.446-0.446z"/>
</svg>
