<?xml version="1.0" encoding="UTF-8" standalone="no"?>
<svg xmlns:rdf="http://www.w3.org/1999/02/22-rdf-syntax-ns#" xmlns="http://www.w3.org/2000/svg" height="32" width="32" version="1.0" xmlns:cc="http://creativecommons.org/ns#" xmlns:xlink="http://www.w3.org/1999/xlink" xmlns:dc="http://purl.org/dc/elements/1.1/">
 <path style="color:#000000;fill:#333" d="m0 0v32h32v-32z"/>
<g style="fill:#fff">
 <rect height="0.58" width="4.601" y="22.14" x="5.705"/>
 <path d="m5.705 22.86v3.118c0 0.1761 0.144 0.3198 0.3196 0.3198h3.962c0.1759 0 0.3196-0.144 0.3196-0.3198v-3.118h-4.601z"/>
 <path d="m10.31 22v-15.98c0-0.1761-0.144-0.3199-0.3196-0.3199h-3.962c-0.1759 0-0.3196 0.144-0.3196 0.3199v15.98h4.601z"/>
 <rect height="0.58" width="4.273" y="22.14" x="11.34"/>
 <path d="m15.61 22v-14.5c0-0.1695-0.1388-0.3083-0.308-0.3083h-3.656c-0.1695 0-0.3083 0.1388-0.3083 0.3083v14.5h4.272z"/>
 <path d="m11.34 22.86v3.129c0 0.1695 0.1388 0.308 0.3083 0.308h3.656c0.1692 0 0.308-0.1386 0.308-0.308v-3.129h-4.272z"/>
 <path d="m20.66 22v-12.69c0-0.1669-0.1365-0.3036-0.3036-0.3036h-3.535c-0.1669 0-0.3036 0.1365-0.3036 0.3036v12.69h4.143z"/>
 <rect height="0.58" width="4.143" y="22.14" x="16.52"/>
 <path d="m16.52 22.86v3.111c0 0.1669 0.1365 0.3034 0.3036 0.3034h3.536c0.1669 0 0.3036-0.1362 0.3036-0.3034v-3.111h-4.143z"/>
 <rect height="0.58" width="4.589" y="22.14" x="21.71"/>
 <path d="m26.29 22v-15.76c0-0.1759-0.144-0.3193-0.3193-0.3193h-3.951c-0.1756 0-0.3193 0.1437-0.3193 0.3193v15.76h4.589z"/>
 <path d="m21.71 22.86v3.095c0 0.1756 0.144 0.3191 0.3193 0.3191h3.951c0.1756 0 0.3193-0.1437 0.3193-0.3191v-3.095h-4.589z"/>
</g>
</svg>
