<?xml version="1.0" encoding="UTF-8" standalone="no"?>
<svg id="svg2817" xmlns:rdf="http://www.w3.org/1999/02/22-rdf-syntax-ns#" xmlns="http://www.w3.org/2000/svg" height="32" width="32" version="1.0" xmlns:cc="http://creativecommons.org/ns#" xmlns:dc="http://purl.org/dc/elements/1.1/">
 <path id="path14907" style="color:#000000" fill="#333" d="m0.009628-0.038611v32.126h32.126v-32.126z"/>
 <path id="rect4238" opacity=".05" style="color:#000000" fill="#fff" d="m32.063 15.937h-32.126v16.063h32.126z"/>
 <g id="g4959" fill="#fff" transform="matrix(.57699 0 0 .57699 8.3318 6.3485)" fill-rule="evenodd">
  <path id="path4533" d="m-0.60938 3.9336-0.03515 6.0273-5.8555-0.0195-0.0293 13.782h9.8652l0.037109-19.758-3.9824-0.03125zm0.050781 9.9219v5.8867h-2.0762v-5.8809l2.0762-0.0059z"/>
  <path id="path4537" d="m5.1541 9.7882 3.976-0.00525 0.00526 13.853h-3.8947l-0.086549-13.848z"/>
  <path id="path4539" d="m5.1794 3.9588-0.025349 4.0119h4.0678l-0.0612-4.0066-3.9813-0.00525z"/>
  <path id="path4541" d="m10.953 9.7891 0.01953 13.902 6.0332 0.03125 0.03516 1.9043-6.0312 0.06641-0.05664 3.8281h10.039v-19.732h-10.039zm3.9805 3.9805h1.9902l-0.0098 5.793-1.9844 0.0059 0.0039-5.7988z"/>
  <path id="path4545" d="m23.07 9.7012 0.01953 13.904 6.0332 0.03125 0.03516 1.9043-6.0332 0.06641-0.05469 3.8281h10.039v-19.734h-10.039zm3.9805 3.9824h1.9902l-0.0098 5.793-1.9863 0.0059 0.0059-5.7988z"/>
 </g>
</svg>
