<?xml version="1.0" encoding="UTF-8" standalone="no"?>
<svg id="svg2817" xmlns:rdf="http://www.w3.org/1999/02/22-rdf-syntax-ns#" xmlns="http://www.w3.org/2000/svg" height="32" width="32" version="1.0" xmlns:cc="http://creativecommons.org/ns#" xmlns:dc="http://purl.org/dc/elements/1.1/">

  <path fill="#333" d="m0.009628-0.038611v32.126h32.126v-32.126z"/>

 <path id="rect4198" style="color-rendering:auto;color:#000000;isolation:auto;mix-blend-mode:normal;shape-rendering:auto;solid-color:#000000;image-rendering:auto" d="m11.354 8.1523c-0.657 0-1.184 0.661-1.184 1.4805v12.734c0 0.82 0.527 1.481 1.184 1.481h9.292c0.657 0 1.184-0.661 1.184-1.481v-12.734c0-0.8197-0.527-1.4807-1.184-1.4807h-9.292zm3.597 2.2067h0.658c0.151 0 0.279 0.065 0.383 0.192 0.104 0.115 0.154 0.254 0.154 0.416 0 0.058-0.028 0.202-0.085 0.433-0.047 0.232-0.069 0.358-0.069 0.381v0.92c0.023 0.012 0.086 0.016 0.19 0.016l2.254-0.26c0.127 0 0.348 0.086 0.66 0.26 0.312 0.173 0.537 0.33 0.675 0.469l-0.207 0.209-0.226 0.224c-0.035 0.046-0.097 0.117-0.19 0.209-0.081 0.081-0.145 0.149-0.191 0.207-0.035 0.046-0.087 0.111-0.156 0.192-0.058 0.081-0.104 0.149-0.139 0.207-0.023 0.057-0.051 0.122-0.086 0.191s-0.059 0.14-0.07 0.209c-0.012 0.058-0.018 0.12-0.018 0.189 0 0.07 0.018 0.204 0.053 0.401h-0.937c-0.821 0.058-1.249 0.086-1.284 0.086-0.15 0-0.258-0.024-0.328-0.071l-0.017 2.69c-0.162 1.179-0.307 1.942-0.434 2.289-0.139-0.254-0.209-0.451-0.209-0.59v-1.006c0-0.011 0.012-0.116 0.035-0.312 0.023-0.197 0.035-0.317 0.035-0.364v-2.341c0-0.081-0.064-0.121-0.191-0.121-0.231 0-0.781 0.034-1.649 0.103-0.115 0.22-0.195 0.398-0.242 0.537-0.034 0-0.075-0.034-0.121-0.103-0.115-0.278-0.208-0.647-0.277-1.11-0.069-0.462-0.116-0.723-0.139-0.781l-0.554-1.266c0.104 0 0.27 0.012 0.501 0.036 0.232 0.023 0.376 0.035 0.434 0.035 0.266 0 0.973-0.101 2.117-0.297 0.081-0.058 0.121-0.138 0.121-0.242 0-0.601-0.15-1.346-0.451-2.237zm2.897 2.62c-0.047 0-0.111 0.004-0.192 0.015l-1.492 0.123c-0.035 0-0.087-0.03-0.156-0.088v2.151c0.034 0 0.105 0.006 0.209 0.017h0.242c0.012 0 0.03-0.006 0.053-0.017 0.034-0.012 0.087-0.022 0.156-0.034 0.069-0.023 0.144-0.041 0.225-0.052 0.901-0.139 1.353-0.659 1.353-1.561 0-0.219-0.03-0.364-0.088-0.433-0.046-0.081-0.148-0.121-0.31-0.121zm-2.481 0.259l-2.097 0.295c0.057 0.22 0.097 0.421 0.121 0.606 0.034 0.185 0.056 0.325 0.068 0.418 0.012 0.092 0.018 0.237 0.018 0.433 0.011 0.197 0.023 0.357 0.035 0.485l1.855-0.207v-2.03z" fill="#fff"/>
</svg>
