<?xml version="1.0" encoding="UTF-8" standalone="no"?>
<svg xmlns:rdf="http://www.w3.org/1999/02/22-rdf-syntax-ns#" xmlns="http://www.w3.org/2000/svg" height="32" width="32" version="1.0" xmlns:cc="http://creativecommons.org/ns#" xmlns:dc="http://purl.org/dc/elements/1.1/">
 <path d="m0 0v32h32v-32z" style="color:#000000;fill:#333"/>
 <g fill-rule="evenodd" fill="#fff">
  <path d="m17.14 14.87c0 0.8412 0.02154 1.541-0.3846 2.286-0.3268 0.6055-0.8462 0.9785-1.425 0.9785-0.7908 0-1.25-0.6295-1.25-1.56 0-1.836 1.572-2.17 3.06-2.17v0.4665m2.077 5.25c-0.1348 0.1274-0.3317 0.1372-0.4855 0.05292-0.6825-0.5938-0.8056-0.8702-1.183-1.438-1.13 1.207-1.928 1.567-3.394 1.567-1.733 0-3.083-1.118-3.083-3.356 0-1.748 0.9065-2.94 2.194-3.522 1.116-0.5145 2.678-0.6055 3.873-0.7477v-0.2788c0-0.512 0.03877-1.118-0.2474-1.56-0.2523-0.3969-0.7329-0.56-1.156-0.56-0.7858 0-1.486 0.4209-1.656 1.294-0.03631 0.1945-0.1705 0.3846-0.3582 0.3945l-1.998-0.2234c-0.168-0.04062-0.3532-0.1828-0.3077-0.4517 0.4615-2.529 2.649-3.294 4.606-3.294 1.002 0 2.313 0.2788 3.102 1.072 1.002 0.9785 0.9065 2.284 0.9065 3.705v3.356c0 1.01 0.3988 1.452 0.7766 1.998 0.1323 0.1926 0.1612 0.4277-0.0049 0.5723-0.4209 0.3705-1.168 1.048-1.579 1.43l-0.0074-0.0074"/>
  <path d="m22.83 20.3c-0.5598 0.0081-1.221 0.137-1.721 0.4976-0.1563 0.1108-0.1297 0.2643 0.04327 0.2428 0.5625-0.07015 1.82-0.2238 2.043 0.06971 0.2258 0.2929-0.2499 1.505-0.4591 2.046-0.06462 0.1637 0.07235 0.2307 0.2164 0.1058 0.9422-0.8049 1.183-2.492 0.9904-2.736-0.09477-0.1215-0.5532-0.234-1.113-0.226zm-14.71 0.3245c-0.1168 0.01566-0.1684 0.1605-0.04567 0.274 2.088 1.935 4.849 3.095 7.913 3.095 2.187 0 4.724-0.7071 6.477-2.029l0.0012-0.0024c0.2911-0.2215 0.04304-0.5481-0.2548-0.4207-1.962 0.856-4.099 1.267-6.038 1.267-2.878 0-5.666-0.8074-7.918-2.152-0.04923-0.02939-0.09569-0.03768-0.1346-0.03245z"/>
</g>
</svg>
