<?xml version="1.0" encoding="UTF-8" standalone="no"?>
<svg xmlns:rdf="http://www.w3.org/1999/02/22-rdf-syntax-ns#" xmlns="http://www.w3.org/2000/svg" height="32" width="32" version="1.0" xmlns:cc="http://creativecommons.org/ns#" xmlns:dc="http://purl.org/dc/elements/1.1/">
 <path style="color:#000000" fill="#333" d="m0.009628-0.03861v32.13h32.13v-32.13z"/>
  <g style="color-rendering:auto;color:#000000;isolation:auto;mix-blend-mode:normal;shape-rendering:auto;solid-color:#000000;image-rendering:auto" fill="#fff">
<g transform="matrix(.5175 0 0 .5175 -11.64 18.57)">
   <path  d="m53.46 6.017q0 1.348-0.5273 2.676-0.5078 1.328-1.602 2.383-1.074 1.035-2.773 1.699-1.699 0.6445-4.062 0.6445t-3.906-0.6445q-1.543-0.664-2.461-1.66-0.898-1.015-1.269-2.246-0.371-1.23-0.371-2.402h4.277q0.03906 0.8203 0.3125 1.523 0.293 0.7031 0.8008 1.23 0.5078 0.5273 1.211 0.8203 0.7227 0.293 1.602 0.293 0.8789 0 1.68-0.293 0.8203-0.3125 1.445-0.8594 0.625-0.5664 0.9961-1.348 0.3711-0.8008 0.3711-1.777 0-0.3906-0.1758-1.113-0.176-0.7421-0.664-1.465-0.469-0.7422-1.308-1.27-0.821-0.5469-2.11-0.5469h-2.188v-2.715q2.109 0 3.301-0.3906 1.191-0.4102 1.797-1.035 0.6055-0.625 0.7422-1.367 0.1562-0.7617 0.1562-1.445 0-0.7031-0.1758-1.387-0.1758-0.6836-0.5859-1.23-0.3906-0.5469-1.055-0.8789-0.6641-0.3516-1.66-0.3516-1.953 0-2.93 0.8984-0.957 0.8789-1.074 2.695h-4.277q0.07813-1.602 0.7227-2.793 0.6641-1.211 1.738-2.012 1.094-0.8203 2.52-1.211 1.445-0.4102 3.106-0.4102 1.641 0 3.086 0.4297 1.465 0.4102 2.539 1.25t1.699 2.09 0.625 2.91q0 1.348-0.4102 2.266-0.3906 0.8984-1.035 1.504-0.625 0.6055-1.426 0.9961-0.8008 0.3711-1.602 0.6641 0.7812 0.2148 1.641 0.6641 0.8789 0.4297 1.602 1.152 0.7422 0.7031 1.211 1.719 0.4688 0.9961 0.4688 2.344z"/>
   <path  d="m66.49 13.42v-19.77q-0.5078 0.4688-1.25 0.9375-0.7227 0.4492-1.523 0.8594-0.8008 0.3906-1.582 0.7227-0.7812 0.3125-1.367 0.4883v-3.848q0.6641-0.2734 1.523-0.8203 0.8789-0.5469 1.699-1.152 0.8203-0.625 1.484-1.191 0.6641-0.5664 0.8984-0.8789h4.199v24.65h-4.082z"/>
</g>
 <circle cy="6.492" cx="8" r="1.339"/>
 <circle cy="6.492" cx="24" r="1.339"/>
 </g>
</svg>
