<?xml version="1.0" encoding="UTF-8" standalone="no"?>
<svg xmlns:rdf="http://www.w3.org/1999/02/22-rdf-syntax-ns#" xmlns="http://www.w3.org/2000/svg" height="32" width="32" version="1.0" xmlns:cc="http://creativecommons.org/ns#" xmlns:xlink="http://www.w3.org/1999/xlink" xmlns:dc="http://purl.org/dc/elements/1.1/">
 <path style="color:#000000;fill:#333" d="m0 0v32h32v-32z"/>
 <g style="fill:#fff" transform="matrix(.8763 0 0 .8763 -5.056 -5.036)">
  <path style="fill:#fff" d="m17.42 22.53c1.711 3.422 4.644 6.233 8.07 8.07l2.689-2.689c0.367-0.367 0.856-0.489 1.222-0.244 1.344 0.489 2.811 0.733 4.4 0.733 0.733 0 1.222 0.489 1.222 1.222v4.156c0 0.733-0.489 1.222-1.222 1.222-11.49 0-20.78-9.289-20.78-20.78 0-0.733 0.489-1.222 1.222-1.222h4.278c0.733 0 1.222 0.489 1.222 1.222 0 1.467 0.244 2.933 0.733 4.4 0.122 0.367 0 0.856-0.244 1.222l-2.811 2.689z"/>
 </g>
</svg>
