<?xml version="1.0" encoding="UTF-8" standalone="no"?>
<svg xmlns:rdf="http://www.w3.org/1999/02/22-rdf-syntax-ns#" xmlns="http://www.w3.org/2000/svg" height="32" width="32" version="1.1" xmlns:cc="http://creativecommons.org/ns#" xmlns:dc="http://purl.org/dc/elements/1.1/" viewBox="0 0 32 32">
 <path d="m0 0v32h32v-32z" fill="#333"/>
 <path style="enable-background:new;fill:#fff" d="m22.82 19.12v-2.38h-1.323c0.9874-0.4221 1.642-1.754 1.642-3.017 0-1.981-1.605-3.588-3.584-3.588-1.234 0-2.323 0.6221-2.968 1.571-0.1026-2.948-2.523-5.308-5.497-5.308-3.038 0-5.502 2.468-5.502 5.506 0 2.083 1.158 3.568 2.866 4.834h-1.672v8.864h16.04v-2.451l3.588 1.833v-3.848-3.848l-3.588 1.832zm-6.79-4.78c0.1743 1.003 0.7652 1.972 1.588 2.394h-3.885c0.991-0.4221 1.796-1.38 2.297-2.394z"/>
</svg>
