<?xml version="1.0" encoding="UTF-8" standalone="no"?>
<svg xmlns:rdf="http://www.w3.org/1999/02/22-rdf-syntax-ns#" xmlns="http://www.w3.org/2000/svg" height="32" width="32" version="1.0" xmlns:cc="http://creativecommons.org/ns#" xmlns:dc="http://purl.org/dc/elements/1.1/">
 <path style="color:#000000;fill:#333" d="m32 0v32h-32v-32z"/>
 <g style="color-rendering:auto;color:#000000;isolation:auto;mix-blend-mode:normal;shape-rendering:auto;solid-color:#000000;image-rendering:auto;fill:#fff" transform="matrix(-1,0,0,1,32,0)">
  <path d="m8.611 22.56-1.385 2.832c-0.6851 0.07404-1.375 0.08298-2.061 0.03006l2.871-2.778c0.1929-0.02141 0.3843-0.04913 0.5754-0.08373z"/>
  <path d="m18.98 25.36c-0.275 1.409-1.389 2.518-2.8 2.787v3.952h-1.382v-3.962c-1.4-0.29-2.49-1.4-2.75-2.8zm-3.561 0.2547c-0.3181 0.000003-0.576 0.2579-0.576 0.576 0.000004 0.3181 0.2579 0.576 0.576 0.576 0.3181-0.000003 0.576-0.2579 0.576-0.576-0.000004-0.3181-0.2579-0.576-0.576-0.576z"/>
  <path d="m19.47 24.1v0.8967h-7.378a10.16 9.926 74.8 0 0 0.68 -0.9h6.698z"/>
  <path d="m16.93 17.83a4.08 4.194 0 0 1 -1.633 1.715 4.08 4.194 0 0 0 1.633 -1.715zm1.501 1.249c0.383 0.5608 0.611 1.237 0.6133 1.967v0.01119 2.679h-6.025a10.16 9.926 74.8 0 0 0.4437 -0.8053 10.16 9.926 74.8 0 0 0.9209 -3.007 4.08 4.194 0 0 1 -0.09507 0.0205 4.08 4.194 0 0 0 0.2591 -0.06898 4.08 4.194 0 0 1 -0.1119 0.03356c0.3607 0.08902 0.7358 0.1398 1.124 0.1398 1.066 0 2.059-0.3696 2.871-0.9693zm-6.232 0.8184a4.08 4.194 0 0 0 0.3766 0.09134 4.08 4.194 0 0 1 -0.3766 -0.09134zm1.95 0.07829a4.08 4.194 0 0 1 -0.2442 0.04474 4.08 4.194 0 0 0 0.2442 -0.04474zm-1.53 0.02a4.08 4.194 0 0 0 0.3244 0.04474 4.08 4.194 0 0 1 -0.3244 -0.04474zm1.119 0.04287a4.08 4.194 0 0 1 -0.2815 0.01864 4.08 4.194 0 0 0 0.2815 -0.01864zm-0.6879 0.01119a4.08 4.194 0 0 0 0.3039 0.0094 4.08 4.194 0 0 1 -0.3039 -0.0094z"/>
  <path d="m15.98 4.81c2.04 0 3.693 1.653 3.693 3.693-0.02764 2.731 0.9465 2.864 1.194 5.464 0 2.981-2.557 5.396-5.537 5.396-0.4472 0-0.8793-0.05849-1.295-0.161a4.699 4.831 0 0 0 0.13 -0.04 4.699 4.831 0 0 0 3.25 -3.98 4.699 4.831 0 0 0 -2.08 -4.66 2.665 2.665 0 0 0 2.67 -2.669 2.665 2.665 0 0 0 -2.67 -2.665v0.08374c-0.0068-0.1337-0.01284-0.2678-0.01288-0.3994 0.2136-0.03841 0.4323-0.06012 0.657-0.06012zm-0.6441 5.705a4.699 4.831 0 0 0 -0.06441 -0.04294l-0.02968 0.0365a2.665 2.665 0 0 1 -2.22 -1.338 2.665 2.665 0 0 1 -0.24 -0.584c0.05692-0.01482 0.1111-0.03553 0.1718-0.04079 0.2803-0.01896 0.6597 0.0726 0.8739 0.3478 0.2512 0.323 0.5726 0.6022 1.005 0.5647 0.1887-0.01637 0.3605-0.0824 0.5046-0.1846v1.23zm-6.038 7.306a4.699 4.831 0 0 0 4.676 1.398 11.7 11.43 74.8 0 1 -1.061 3.463 11.7 11.43 74.8 0 1 -7.195 5.98l3.081-6.3a8.674 8.874 0 0 1 -3.212 0.0022l3.71-4.543z"/>
  <path d="m9.732 17.49a4.305 4.187 90 0 0 4.35 1.211 4.305 4.187 90 0 0 2.898 -3.548 4.305 4.187 90 0 0 -1.911 -4.196"/>
  <path d="m15.29 4.905c0.000044 0.1249 0.004 0.251 0.01044 0.3779v2.449 1.362c-0.13 0.097-0.3 0.161-0.48 0.176-0.41 0.036-0.71-0.231-0.95-0.537-0.2-0.261-0.56-0.348-0.83-0.33-0.41 0.035-0.74 0.31-0.86 0.674-0.03-0.13-0.05-0.261-0.06-0.396-0.17-1.919 1.25-3.654 3.17-3.776z"/>
  <circle cy="7.281" cx="16.56" r=".6209"/>
 </g>
</svg>
