<?xml version="1.0" encoding="UTF-8" standalone="no"?>
<svg xmlns="http://www.w3.org/2000/svg" height="32" width="32" version="1.1" viewBox="0 0 32 32">
 <defs>
  <clipPath id="a">
   <g transform="translate(0 -1e3)">
    <rect style="fill:#1890d0" rx="4" height="46" width="46" y="1.01e3" x="1"/>
   </g>
  </clipPath>
 </defs>
 <path d="m0 0v32h32v-32z" fill="#333"/>
 <g transform="matrix(.828 0 0 .828 -3.86 -3.03)">
  <g clip-path="url(#a)">
   <g transform="translate(0,-1)">
    <path style="fill:#f9f9f9" d="m9 15 0.004 0.996h3.96l7.5 9.96 0.227 4.75c-0.199 0.824-0.84 1.12-1.3 1.29h-2.77l0.031 1h12.3v-1h-3.63c-0.453 0.074-0.418-0.934-0.457-1.21l-0.23-4.52c0.059-0.363 0.133-0.727 0.613-1.09l7.19-5.84 3.36-0.336 0.535-1h-11.1l0.18 1 3.21 0.102c0.191 0.16 0.57 0.145 0.152 0.859l-4.66 4.12c-0.246 0.152-0.434 0.07-0.613-0.074l-5.2-6.94c-0.387-0.551-0.012-1.03 0.457-1.07h3.36v-1h-13.2m0 0.004"/>
    <path style="fill:#f9f9f9" d="m31.8 30.3 1.49 0.938-1 1.79-1.52-0.965 1.03-1.77m0 0.004"/>
    <path style="fill:#f9f9f9" d="m32.5 28.6 1.26 0.82 5.2-8.69-2.94-1.72-3.52 9.58m0.004 0"/>
   </g>
  </g>
 </g>
</svg>
