<?xml version="1.0" encoding="UTF-8" standalone="no"?>
<svg xmlns="http://www.w3.org/2000/svg" height="32" width="32" version="1.1" viewBox="0 0 32 32">
 <path d="m0 0v32h32v-32z" fill="#333"/>
 <path id="e" style="stroke-width:.1024;fill:#fff" d="m4.619 12.53c-2.165 0-3.97 0.9186-3.97 3.69 0 2.196 1.213 3.578 4.026 3.578 3.31 0 3.523-2.181 3.523-2.181h-1.604s-0.3439 1.174-2.016 1.174c-1.362 0-2.342-0.9202-2.342-2.21h6.129v-0.8c0-1.276-0.81-3.243-3.746-3.243zm-0.05602 1.034c1.297 0 2.181 0.7944 2.181 1.985h-4.473c0-1.264 1.154-1.985 2.292-1.985z"/>
 <path id="b" style="stroke-width:.1024;fill:#fff" d="m8.364 9.849v8.561c0 0.4859-0.03472 1.168-0.03472 1.168h1.53s0.05499-0.49 0.05499-0.9379c0 0 0.7559 1.183 2.811 1.183 2.164 0 3.634-1.503 3.634-3.655 0-2.003-1.35-3.614-3.631-3.614-2.136 0-2.799 1.153-2.799 1.153v-3.861zm3.97 3.764c1.47 0 2.404 1.091 2.404 2.555 0 1.57-1.079 2.597-2.394 2.597-1.569 0-2.415-1.225-2.415-2.583 0-1.265 0.7592-2.569 2.404-2.569z"/>
 <path id="a" style="stroke-width:.1024;fill:#fff" d="m20.16 12.53c-3.258 0-3.467 1.784-3.467 2.069h1.622s0.085-1.041 1.733-1.041c1.071 0 1.901 0.4903 1.901 1.433v0.3355h-1.901c-2.524 0-3.858 0.7384-3.858 2.237 0 1.474 1.233 2.277 2.899 2.277 2.271 0 3.002-1.255 3.002-1.255 0 0.499 0.0384 0.9908 0.0384 0.9908h1.441s-0.05581-0.6095-0.05581-0.9995v-3.371c0-2.21-1.783-2.675-3.355-2.675zm1.789 3.802v0.4473c0 0.5834-0.3601 2.034-2.479 2.034-1.161 0-1.658-0.5792-1.658-1.251 0-1.222 1.676-1.23 4.138-1.23z"/>
 <path id="y" style="stroke-width:.1024;fill:#fff" d="m22.64 12.81h1.824l2.618 5.245 2.612-5.245h1.653l-4.758 9.338h-1.733l1.373-2.603z"/>
</svg>
