<?xml version="1.0" encoding="UTF-8" standalone="no"?>
<svg xmlns:rdf="http://www.w3.org/1999/02/22-rdf-syntax-ns#" xmlns="http://www.w3.org/2000/svg" height="32" width="32" version="1" xmlns:cc="http://creativecommons.org/ns#" xmlns:dc="http://purl.org/dc/elements/1.1/">
 <path fill="#333" d="m0 0v32h32v-32z"/>
 <path d="m12.65 19.23-5.67-9.391c-1.196 1.772-1.861 3.854-1.861 6.158 0 1.152 0.1772 2.215 0.4873 3.234h7.044zm2.392-7.93h11.03c-1.41-3.012-4.16-5.271-7.48-6.069l-3.544 6.069zm-3.544 3.411 5.715-9.702c-0.3544-0.0443-0.7088-0.0443-1.063-0.0443-3.278 0-6.247 1.462-8.24 3.721l3.633 6.025zm2.304 11.92 3.5-6.069h-11.16c1.462 3.19 4.386 5.538 7.93 6.202l-0.2658-0.1329zm5.759-14 5.538 9.658c1.24-1.772 1.994-3.943 1.994-6.291 0-1.152-0.1772-2.304-0.5316-3.323h-7.044zm1.108 4.652-5.538 9.658c0.3101 0.0443 0.6202 0.0443 0.9746 0.0443 3.19 0 6.114-1.373 8.107-3.588l-3.544-6.114z" style="fill:#fff"/>
</svg>
