<?xml version="1.0" encoding="UTF-8" standalone="no"?>
<svg xmlns="http://www.w3.org/2000/svg" xml:space="preserve" height="32" viewBox="-0.001 0 32 31.999999" width="32" version="1.1" y="0px" x="0px">
	<path d="m0-0v32h32v-32z" fill="#333"/>
	<g style="color-rendering:auto;text-decoration-color:#000000;color:#000000;font-variant-numeric:normal;shape-rendering:auto;solid-color:#000000;text-decoration-line:none;fill:#fbfbfb;font-variant-position:normal;mix-blend-mode:normal;font-feature-settings:normal;shape-padding:0;font-variant-alternates:normal;text-indent:0;font-variant-ligatures:normal;dominant-baseline:auto;font-variant-caps:normal;image-rendering:auto;white-space:normal;text-decoration-style:solid;text-orientation:mixed;isolation:auto;text-transform:none">
	<path d="m16.06 11.6c-2.72 0-5.19 0.71-7.085 1.88-0.215-0.26-0.457-0.5-0.758-0.68-0.455-0.26-0.964-0.4-1.473-0.4s-1.018 0.14-1.473 0.4c-0.909 0.53-1.462 1.51-1.459 2.56-0.003 1.05 0.551 2.03 1.459 2.56h0.002c0.083 0.05 0.167 0.07 0.25 0.1-0.056 0.31-0.093 0.62-0.093 0.94 0 2.09 1.251 3.95 3.181 5.25 1.929 1.31 4.559 2.1 7.449 2.1s5.52-0.79 7.45-2.1c1.84-1.24 2.99-3.01 3.1-4.99 0.01-0.14 0.01-0.38 0-0.53-0.01-0.21-0.04-0.42-0.08-0.63 0.07-0.03 0.12-0.04 0.2-0.09 0.91-0.53 1.46-1.5 1.46-2.55 0-1.06-0.55-2.03-1.46-2.56-0.46-0.27-0.96-0.4-1.47-0.4s-1.02 0.13-1.48 0.4c-0.27 0.16-0.49 0.37-0.68 0.59-1.89-1.15-4.34-1.85-7.04-1.85zm0 0.94c2.7 0 5.14 0.74 6.88 1.91l0.01 0.01c0.32 0.21 0.6 0.44 0.87 0.68 0.04 0.04 0.09 0.08 0.13 0.11 0.55 0.52 0.99 1.07 1.29 1.67 0.07 0.15 0.14 0.3 0.2 0.45 0 0.01 0.01 0.03 0.02 0.04 0.05 0.15 0.1 0.31 0.14 0.46l0.01 0.03c0.09 0.34 0.14 0.7 0.14 1.06 0 1.71-1.02 3.3-2.77 4.48s-4.2 1.94-6.92 1.94-5.18-0.76-6.923-1.94c-1.747-1.18-2.77-2.77-2.77-4.48 0-0.36 0.055-0.72 0.143-1.07 0.002-0.01 0.005-0.02 0.008-0.03 0.04-0.15 0.089-0.3 0.146-0.45 0.005-0.01 0.009-0.03 0.014-0.04 0.058-0.15 0.123-0.3 0.197-0.44 0.299-0.6 0.733-1.15 1.273-1.66 0.038-0.03 0.077-0.07 0.116-0.1 0.265-0.24 0.55-0.47 0.865-0.69l0.043-0.02c1.748-1.18 4.188-1.92 6.888-1.92zm-9.316 0.8c0.344 0 0.689 0.09 1 0.27l0.002 0.01c0.176 0.1 0.295 0.26 0.422 0.41-1.117 0.86-1.958 1.91-2.395 3.09-0.009 0-0.02-0.01-0.029-0.01h-0.002c-0.62-0.37-0.995-1.03-0.992-1.75-0.003-0.72 0.373-1.39 0.992-1.74l0.002-0.01c0.311-0.18 0.656-0.27 1-0.27zm18.52 0.06c0.34 0 0.69 0.09 1 0.27 0.62 0.36 1 1.02 0.99 1.74v0.01c0.01 0.7-0.36 1.35-0.96 1.72-0.42-1.2-1.25-2.27-2.38-3.14 0.11-0.12 0.21-0.25 0.35-0.33 0.31-0.18 0.65-0.27 1-0.27z" transform="translate(-.001)"/>
	<path d="m22.64 5.688c-0.9 0-1.69 0.465-2.16 1.166-0.71-0.28-1.42-0.554-2.13-0.708-0.48-0.102-0.96-0.149-1.43-0.101-0.46 0.047-0.9 0.194-1.31 0.459-0.98 0.449-1.45 1.403-1.64 2.459-0.18 1.067-0.12 2.297-0.06 3.517l0.94-0.05c-0.06-1.21-0.11-2.39 0.05-3.307 0.16-0.913 0.46-1.498 1.11-1.785l0.04-0.016 0.03-0.021c0.58-0.385 1.25-0.412 2.07-0.237 0.6 0.13 1.27 0.381 1.95 0.649-0.06 0.22-0.1 0.447-0.1 0.683 0 1.483 1.18 2.714 2.64 2.714 1.33 0 2.31-1.07 2.5-2.378 0.03-0.214 0.02-0.508 0-0.671 0-0.001-0.01-0.002-0.01-0.002-0.18-1.304-1.16-2.371-2.49-2.371zm0 0.937c0.93 0 1.69 0.779 1.69 1.771 0 0.993-0.76 1.774-1.69 1.774s-1.7-0.781-1.7-1.774c0-0.992 0.77-1.771 1.7-1.771z" transform="translate(-.001)"/>
	<path d="m11.75 20.89a0.4688 0.4688 0 0 0 -0.26 0.86c1.68 1.14 3.218 1.512 4.623 1.406 1.405-0.1058 2.656-0.6676 3.84-1.299a0.4692 0.4692 0 1 0 -0.4414 -0.8281c-1.145 0.6101-2.272 1.101-3.469 1.191-1.197 0.09012-2.485-0.1999-4.027-1.246a0.4688 0.4688 0 0 0 -0.2637 -0.08398z"/>
	</g>
	<path style="stroke:#000;stroke-linecap:round;stroke-width:.9375;fill:#fff" d="m26.22 18.96"/>
	<path style="fill:#fdfbfa" d="m13.3 17.57c0 0.7874-0.6478 1.428-1.45 1.428-0.8015 0-1.454-0.6412-1.454-1.428 0-0.7874 0.6515-1.425 1.454-1.425 0.8015 0 1.45 0.6374 1.45 1.425"/>
	<path style="fill:#fdfbfa" d="m20.85 17.45c0 0.7874-0.6515 1.425-1.468 1.425-0.7987 0-1.454-0.6374-1.454-1.425 0-0.7874 0.6449-1.428 1.454-1.428 0.8015 0 1.468 0.6412 1.468 1.428"/>
	
</svg>
