<?xml version="1.0" encoding="UTF-8" standalone="no"?>
<svg xmlns="http://www.w3.org/2000/svg" height="32" width="32" version="1.1" viewBox="0 0 32 32">
 <path d="m0 0v32h32v-32z" fill="#333"/>
 <g style="fill:#fff" transform="matrix(.95 0 0 .95 .8012 .7991)">
  <path d="m6.09 21.1c-0.31-0.3-0.86-0.5-1.41-0.5-0.907 0-1.71 0.484-2.14 1.3-0.252 0.484-0.375 1.04-0.375 1.73 0 0.819 0.225 1.49 0.675 2 0.457 0.532 1.05 0.771 1.83 0.771 0.634 0 1.11-0.157 1.54-0.518l-0.51-0.7c-0.334 0.259-0.634 0.355-0.962 0.355-0.478 0-0.853-0.211-1.08-0.628-0.171-0.3-0.232-0.73-0.232-1.49 0-0.655 0.0955-1.12 0.314-1.44 0.198-0.3 0.573-0.484 0.948-0.484 0.314 0 0.607 0.102 0.894 0.314l0.505-0.764"/>
  <path d="m6.73 20.6c0.0478 0.171 0.0819 0.553 0.0819 0.941v4.75h1.1v-2.8c0.239-0.218 0.587-0.382 0.853-0.382 0.307 0 0.416 0.15 0.416 0.566v2.76h1.06v-2.88c0-0.389-0.0273-0.532-0.109-0.764-0.13-0.355-0.546-0.587-1.07-0.587-0.416 0-0.88 0.177-1.17 0.443 0-0.0478 0.0205-0.211 0.0205-0.341v-0.825c0-0.389-0.0273-0.778-0.075-1l-1.1 0.259"/>
  <path d="m13.2 24.5-0.0136 0.88c-0.164 0.184-0.362 0.287-0.566 0.287-0.273 0-0.471-0.218-0.471-0.539 0-0.491 0.259-0.628 1-0.628zm-2.11-1.83 0.457 0.778c0.45-0.3 0.846-0.464 1.19-0.464 0.389 0 0.478 0.143 0.478 0.607v0.171c-0.0887-0.0136-0.157-0.0136-0.239-0.0136-1.31 0-1.98 0.45-1.98 1.42 0 0.812 0.505 1.28 1.42 1.28 0.334 0 0.621-0.0819 0.825-0.225 0.075-0.0614 0.171-0.136 0.246-0.218 0.102 0.211 0.327 0.389 0.58 0.498l0.573-0.655c-0.314-0.232-0.389-0.402-0.389-0.846v-0.075l0.0273-1.38c0.0068-0.443-0.0136-0.566-0.0682-0.737-0.164-0.464-0.641-0.723-1.33-0.723-0.382 0-0.723 0.075-1.13 0.246-0.287 0.116-0.45 0.198-0.669 0.334"/>
  <path d="m15.1 22.4c0.0955 0.273 0.143 0.607 0.143 0.962v2.98h1.08v-2.91c0.252-0.225 0.532-0.375 0.75-0.375 0.28 0 0.362 0.143 0.362 0.607v2.67h1.05v-3c0-0.259-0.0205-0.437-0.0682-0.587-0.136-0.355-0.532-0.593-0.989-0.593-0.246 0-0.532 0.0614-0.744 0.177-0.177 0.0887-0.314 0.191-0.478 0.307 0-0.177-0.0546-0.348-0.15-0.518l-0.955 0.273"/>
  <path d="m19.3 22.4c0.0955 0.273 0.143 0.607 0.143 0.962v2.98h1.08v-2.91c0.246-0.225 0.532-0.375 0.744-0.375 0.28 0 0.362 0.143 0.362 0.607v2.67h1.06v-3c0-0.259-0.0205-0.437-0.0819-0.587-0.13-0.355-0.532-0.593-0.989-0.593-0.239 0-0.518 0.0614-0.737 0.177-0.177 0.0887-0.314 0.191-0.478 0.307 0-0.177-0.0546-0.348-0.15-0.518l-0.955 0.273"/>
  <path d="m24.6 23.8v-0.0136c0-0.573 0.232-0.894 0.641-0.894 0.218 0 0.368 0.0819 0.478 0.246 0.0955 0.15 0.123 0.307 0.123 0.614v0.0478zm1.9 1.41c-0.327 0.273-0.675 0.416-1.04 0.416-0.553 0-0.866-0.368-0.866-0.996v-0.0341h2.3v-0.2c0-0.86-0.171-1.41-0.546-1.8-0.266-0.273-0.716-0.43-1.19-0.43-0.546 0-0.962 0.177-1.3 0.553-0.362 0.402-0.512 0.894-0.512 1.63 0 1.3 0.764 2.13 1.94 2.13 0.58 0 1.08-0.184 1.56-0.566l-0.3-0.7"/>
  <path d="m28.7 20.4-1.1 0.246c0.0341 0.375 0.0546 0.709 0.0546 1.24v3.06c0 0.593 0.0205 0.723 0.0955 0.928 0.13 0.348 0.505 0.559 0.955 0.559 0.239 0 0.464-0.0341 0.648-0.102l-0.184-0.648c-0.0614 0.0136-0.0819 0.0136-0.123 0.0136-0.0887 0-0.177-0.0409-0.211-0.109-0.0682-0.116-0.075-0.211-0.075-0.914v-3.21c0-0.573-0.0136-0.839-0.0614-1.06"/>
  <path d="m1.95 13.2 1.34 5.63h1.28l0.464-2.3c0.171-0.812 0.266-1.6 0.266-1.6 0.0136 0.157 0.0955 0.873 0.266 1.62l0.498 2.28h1.23l1.35-5.63h-1.19l-0.46 2.1c-0.109 0.553-0.287 1.68-0.3 1.86 0 0-0.136-0.955-0.246-1.48l-0.51-2.5h-1.22l-0.498 2.26c-0.171 0.771-0.266 1.57-0.287 1.78 0 0-0.075-0.791-0.3-1.84l-0.48-2.2h-1.19"/>
  <path d="m9.76 16.3v-0.0136c0-0.573 0.232-0.894 0.641-0.894 0.218 0 0.368 0.0819 0.478 0.246 0.0887 0.15 0.123 0.307 0.123 0.614v0.0478zm1.9 1.41c-0.327 0.273-0.675 0.409-1.04 0.409-0.553 0-0.866-0.362-0.866-0.989v-0.0341h2.37v-0.252c0-0.86-0.171-1.41-0.546-1.8-0.259-0.273-0.716-0.437-1.19-0.437-0.546 0-0.962 0.184-1.29 0.559-0.368 0.402-0.518 0.894-0.518 1.63 0 1.3 0.764 2.13 1.94 2.13 0.58 0 1.08-0.184 1.55-0.573l-0.416-0.641"/>
  <path d="m14.8 17-0.0136 0.88c-0.164 0.184-0.362 0.28-0.566 0.28-0.273 0-0.471-0.211-0.471-0.532 0-0.491 0.259-0.628 1-0.628zm-2.11-1.83 0.457 0.778c0.443-0.3 0.846-0.464 1.19-0.464 0.396 0 0.478 0.143 0.478 0.607v0.171c-0.0819-0.0136-0.157-0.0136-0.239-0.0136-1.31 0-1.98 0.45-1.98 1.41 0 0.825 0.498 1.29 1.41 1.29 0.341 0 0.628-0.0819 0.832-0.225 0.075-0.0546 0.171-0.136 0.246-0.218 0.102 0.211 0.334 0.396 0.58 0.498l0.573-0.655c-0.314-0.232-0.389-0.402-0.389-0.846v-0.075l0.0273-1.38c0.0068-0.437-0.0136-0.559-0.0682-0.737-0.1-0.4-0.6-0.7-1.3-0.7-0.382 0-0.723 0.075-1.13 0.246-0.287 0.116-0.45 0.198-0.669 0.334"/>
  <path d="m18.9 14.7h-0.962c0-0.423 0.0205-0.866 0.0614-1.24l-1.09 0.273c-0.0409 0.3-0.0409 0.566-0.0409 0.969h-0.409v0.737h0.409v2.23c0 0.382 0.0068 0.464 0.0682 0.641 0.13 0.362 0.566 0.6 1.11 0.6 0.28 0 0.559-0.0546 0.88-0.184l-0.143-0.641c-0.191 0.0546-0.287 0.075-0.382 0.075-0.368 0-0.464-0.136-0.464-0.655v-2.07h0.689l0.273-0.737"/>
  <path d="m19.4 13.1c0.0478 0.171 0.0819 0.553 0.0819 0.935v4.76h1.09v-2.95c0.246-0.218 0.587-0.375 0.853-0.375 0.307 0 0.416 0.15 0.416 0.559v2.76h1.06v-2.9c0-0.396-0.0341-0.532-0.109-0.771-0.13-0.355-0.546-0.587-1.07-0.587-0.416 0-0.88 0.177-1.17 0.45 0-0.0546 0.0205-0.218 0.0205-0.348v-0.819c0-0.396-0.0205-0.778-0.075-1.01l-1.1 0.259"/>
  <path d="m24.6 16.3v-0.0136c0-0.573 0.232-0.894 0.641-0.894 0.225 0 0.368 0.0819 0.478 0.246 0.0955 0.15 0.123 0.307 0.123 0.614v0.0478zm1.9 1.41c-0.327 0.273-0.675 0.409-1.04 0.409-0.553 0-0.866-0.362-0.866-0.989v-0.0341h2.38v-0.252c0-0.86-0.171-1.41-0.553-1.8-0.259-0.273-0.716-0.437-1.19-0.437-0.546 0-0.955 0.184-1.29 0.559-0.362 0.402-0.518 0.894-0.518 1.63 0 1.3 0.764 2.13 1.94 2.13 0.58 0 1.08-0.184 1.55-0.573l-0.4-0.6"/>
  <path d="m27.6 14.9c0.0887 0.232 0.15 0.648 0.15 1.21v2.74h1.08v-2.91c0.205-0.232 0.423-0.341 0.662-0.341 0.116 0 0.205 0.0205 0.314 0.0819l0.293-0.955c-0.164-0.075-0.239-0.0887-0.402-0.0887-0.116 0-0.266 0.0273-0.348 0.0682-0.205 0.0887-0.457 0.307-0.614 0.525-0.0136-0.239-0.0682-0.416-0.171-0.593l-0.962 0.259"/>
  <path d="m1.99 5.84v0.93h1.37v4.63h1.13v-4.63h1.34l0.19-0.93z"/>
  <path d="m6.5 5.72c0.0478 0.171 0.0819 0.553 0.0819 0.935v4.74h1.09v-2.93c0.24-0.22 0.59-0.37 0.85-0.37 0.307 0 0.416 0.143 0.416 0.559v2.74h1.05v-2.86c0-0.389-0.0341-0.532-0.109-0.764-0.12-0.36-0.54-0.59-1.07-0.59-0.416 0-0.88 0.177-1.17 0.443 0-0.0478 0.0205-0.211 0.0205-0.341v-0.82c0-0.389-0.0273-0.778-0.075-1l-1.1 0.259"/>
  <path d="m11.9 8.91v-0.02c0-0.566 0.232-0.887 0.648-0.887 0.211 0 0.362 0.0819 0.471 0.239 0.0955 0.157 0.123 0.314 0.123 0.621v0.0478zm1.9 1.41c-0.327 0.273-0.675 0.409-1.04 0.409-0.553 0-0.866-0.362-0.866-0.996v-0.027h2.37v-0.23c0-0.86-0.171-1.42-0.546-1.8-0.4-0.27-0.8-0.44-1.3-0.44-0.546 0-0.955 0.184-1.29 0.559-0.362 0.402-0.518 0.894-0.518 1.62 0 1.3 0.764 2.14 1.94 2.14 0.573 0 1.08-0.184 1.56-0.573l-0.423-0.641"/>
 </g>
</svg>
