<?xml version="1.0" encoding="UTF-8" standalone="no"?>
<svg xmlns:rdf="http://www.w3.org/1999/02/22-rdf-syntax-ns#" xmlns="http://www.w3.org/2000/svg" height="32" width="32" version="1.0" xmlns:cc="http://creativecommons.org/ns#" xmlns:dc="http://purl.org/dc/elements/1.1/">
 <path style="fill:#333" d="m0 0v32h32v-32z"/>
 <path style="fill:#fff" d="m23.4 10.14c0-0.464-0.37-0.84-0.83-0.842l-11.67-0.046c-0.4621-0.00181-0.8387 0.3716-0.8405 0.8337l-0.04056 10.39c-0.0018 0.4621 0.3717 0.8383 0.8338 0.8401l11.67 0.04489c0.4619 0.0018 0.838-0.3714 0.8398-0.8335l0.03998-10.39zm0.1948 14.99-13.85-0.05485c-0.455-0.01-0.829-0.38-0.827-0.84l0.059-15.13c0.00182-0.4619 0.3783-0.8355 0.8404-0.8337l13.85 0.05442c0.4621 0.00181 0.8351 0.3778 0.8333 0.8398l-0.05887 15.13c-0.0019 0.4626-0.3783 0.8355-0.8402 0.8336"/>
 <path style="fill:#fff" d="m5.579 7.151 13.33-3.733c0.4449-0.1243 0.9067 0.1356 1.031 0.5802l0.7152 2.554c0.1244 0.4446-0.9243 0.6573-1.049 0.2128l-0.45-1.537c-0.13-0.445-0.59-0.705-1.03-0.581l-11.24 3.146c-0.445 0.125-0.705 0.586-0.58 1.031l1.525 5.447c0.1247 0.4449 0.2244 1.18 0.2226 1.642l-0.00936 2.315c-0.00181 0.4621-0.105 0.4759-0.2286 0.03066l-2.822-10.07c-0.125-0.442 0.134-0.904 0.58-1.029"/>
</svg>
