<?xml version="1.0" encoding="UTF-8" standalone="no"?>
<svg xmlns:rdf="http://www.w3.org/1999/02/22-rdf-syntax-ns#" xmlns="http://www.w3.org/2000/svg" height="32" width="32" version="1.0" xmlns:cc="http://creativecommons.org/ns#" xmlns:dc="http://purl.org/dc/elements/1.1/">
 <path style="fill:#333" d="m0 0v32h32v-32z"/>
 <path style="color-rendering:auto;color:#000000;isolation:auto;mix-blend-mode:normal;shape-rendering:auto;solid-color:#000000;image-rendering:auto;fill:#fff" d="m25.52 32-0.01-23.42-11.57-0.044c-0.8121 0.2748-1.402 1.031-1.404 1.934l-0.0309 12.58c0.000252 0.4363 0.1373 0.7162 0.325 0.9095 0.1885 0.1893 0.4462 0.3034 0.7771 0.3059 0.3304-0.00051 0.5881-0.114 0.7776-0.3031 0.186-0.1908 0.3248-0.4717 0.3289-0.9085l0.01783-7.957c0.0013-0.4434 0.3615-0.8006 0.806-0.8006 0.4406 0.0011 0.7986 0.3602 0.7973 0.8044l-0.01861 7.958c0 0.8019-0.2893 1.53-0.7952 2.031-0.5011 0.5092-1.197 0.7812-1.918 0.7766-0.7236 0.0015-1.419-0.2743-1.916-0.783-0.5026-0.5077-0.7901-1.236-0.7863-2.04l0.03115-12.58c0.0026-0.7154 0.2176-1.378 0.5738-1.94l-5.02-0.01914 0.00535 23.49 19.03-0.000772z"/>
</svg>
