<?xml version="1.0" encoding="UTF-8" standalone="no"?>
<svg xmlns="http://www.w3.org/2000/svg" height="32" width="32" version="1.1" viewBox="0 0 32 32">
 <path fill="#333" d="m0 0v32h32v-32z"/>
 <circle cx="20.5" style="fill:#fff" r="2" cy="8"/>
 <path style="stroke:#fff;stroke-width:2;stroke-miterlimit:10;fill:none" stroke-miterlimit="10" d="m7.45 20h4.5c0.6 0 1.2-0.3 1.6-0.8l0.3-0.4"/>
 <path style="stroke:#fff;stroke-width:2;stroke-miterlimit:10;fill:none" stroke-miterlimit="10" d="m10.4 12s2.1-1 3.2-1.6c0.5-0.2 1-0.3 1.5-0.1l1.3 0.4 1.7 0.8c0.4 0.2 0.7 0.5 0.9 0.9l0.8 1.6c0.3 0.7 1 1.1 1.8 1.1h2.9"/>
 <path style="fill:#fff" d="m16.2 11-2.4 4.2c-0.5 0.9-0.3 2 0.5 2.7l3.9 2.8-1.2-2.9s-0.8 0.1-0.6-0.2l2.9-5.2z"/>
 <path style="fill:#fff" d="m17.4 21-1.9 5h2.1l1.7-4.3c0.4-1.1 0.2-2.4-0.7-3.2l-2.4-2.4-1.4 1.4 2.4 2.4c0.3 0.3 0.4 0.7 0.2 1.1z"/>
</svg>
