<?xml version="1.0" encoding="UTF-8" standalone="no"?>
<svg xmlns="http://www.w3.org/2000/svg" height="32" width="32" version="1.0">
 <path d="m0 0v32h32v-32z" style="fill:#cbcbcb"/>
 <path style="opacity:.1" d="m26.53 22.12h-0.8737c-1.404 3.307-2.746 4.119-7.207 4.119h-1.12c-2.309 0-3.152-0.156-3.152-1.467v-7.583h4.712c2.684 0 3.152 0.4056 3.526 3.027h0.7176v-7.303h-0.7176c-0.3744 2.465-0.8421 2.995-3.526 2.995h-4.71v-6.883c0-0.9986 0.2184-1.124 1.092-1.124h4.087c3.619 0 4.337 0.468 4.805 3.276h0.7804l-0.12-4.461h-16.53v0.5928c2.34 0.1248 2.714 0.5928 2.714 2.902v13.6c0 2.402-0.312 2.808-2.714 2.964v0.5928h16.81z"/>
 <path style="fill:#d08a48" d="m25.1 21.04h-0.8737c-1.404 3.307-2.746 4.119-7.207 4.119h-1.12c-2.309 0-3.152-0.156-3.152-1.467v-7.583h4.712c2.684 0 3.152 0.4056 3.526 3.027h0.7176v-7.303h-0.7176c-0.3744 2.465-0.8421 2.995-3.526 2.995h-4.71v-6.884c0-0.9986 0.2184-1.124 1.092-1.124h4.087c3.619 0 4.337 0.468 4.805 3.276h0.7804l-0.13-4.462h-16.54v0.5928c2.34 0.1248 2.714 0.5928 2.714 2.902v13.6c0 2.402-0.312 2.808-2.714 2.964v0.5928h16.82z"/>
</svg>
