<?xml version="1.0" encoding="UTF-8" standalone="no"?>
<svg xmlns="http://www.w3.org/2000/svg" height="32" width="32" version="1.1" viewBox="0 0 32 32">
 <path d="m0 0v32h32v-32z" fill="#333"/>
 <path style="stroke-width:.2212;fill:#fff" d="m14.43 6.648c0.46 1.539-1.17 2.867-2.59 2.104-1.41-0.763-1.2-2.854 0.34-3.314 0.96-0.285 1.96 0.256 2.25 1.21zm11.47 15.09-16.22 4.85c-0.6 0.18-1.231-0.16-1.41-0.76l-2.927-9.78c-0.179-0.6 0.162-1.23 0.761-1.41l3.986-1.19 0.9-3.811c0.4465 0.3083 0.9676 0.4909 1.509 0.5288l-0.67 2.75 4.75-1.42-2.06-1.941c0.43-0.328 0.77-0.767 0.97-1.27l2.85 2.691 3.99-1.193c0.5993-0.1789 1.23 0.1618 1.409 0.7611l2.923 9.779c0.1789 0.5993-0.1618 1.23-0.7611 1.409z"/>
</svg>
