<?xml version="1.0" encoding="UTF-8" standalone="no"?>
<svg id="svg2817" xmlns:rdf="http://www.w3.org/1999/02/22-rdf-syntax-ns#" xmlns="http://www.w3.org/2000/svg" xmlns:osb="http://www.openswatchbook.org/uri/2009/osb" height="32" width="32" version="1.0" xmlns:cc="http://creativecommons.org/ns#" xmlns:xlink="http://www.w3.org/1999/xlink" xmlns:dc="http://purl.org/dc/elements/1.1/">
 <path style="color:#000000;fill:#333" d="m0 0v32h32v-32z"/>
 <path id="rect4571" style="color-rendering:auto;color:#000000;isolation:auto;mix-blend-mode:normal;shape-rendering:auto;solid-color:#000000;image-rendering:auto" d="m24.342 7.084c-0.337 0-0.674 0.1289-0.932 0.3867l-7.744 7.7443h-7.959c-0.6174 0-1.1152 0.513-1.1152 1.15v0.262c0 0.637 0.4978 1.152 1.1152 1.152h7.867v8.504c0 0.352 0.261 0.635 0.586 0.635s0.588-0.283 0.588-0.635v-8.574c0.158-0.064 0.307-0.16 0.436-0.289l8.087-8.088c0.516-0.5155 0.516-1.3457 0-1.8613-0.257-0.2578-0.593-0.3867-0.929-0.3867z" fill="#fff"/>
</svg>
