<?xml version="1.0" encoding="UTF-8" standalone="no"?>
<svg xmlns="http://www.w3.org/2000/svg" height="32" width="32" version="1.0">
 <path style="color:#000000;fill:#333" d="m0 0v32h32v-32z"/>
 <g transform="matrix(.07141 0 0 .07141 12.4 14.3)">
  <path style="stroke-width:.09522;fill:#fff" d="m21.27 3.846c-0.74 0.014-1.49 0.094-2.2 0.25-1.6 0.35-2.77 0.906-3.69 1.744-0.87 0.795-1.19 1.533-1.57 3.598-0.28 1.502-0.45 2.162-0.73 2.712-0.51 1.04-0.94 1.24-3.396 1.66-2.438 0.42-3.005 0.65-3.852 1.58-0.838 0.91-1.391 2.09-1.742 3.69-0.628 2.87-0.051 6.32 1.273 7.61 0.682 0.66 2.029 1.19 3.553 1.4 0.961 0.14 3.084 0.05 4.034-0.17 1.6-0.36 2.77-0.91 3.67-1.74 0.93-0.85 1.16-1.42 1.58-3.86 0.41-2.45 0.62-2.88 1.66-3.39 0.55-0.28 1.2-0.46 2.71-0.73 2.07-0.38 2.8-0.7 3.6-1.57 0.84-0.92 1.39-2.09 1.74-3.69 0.62-2.84 0.06-6.294-1.25-7.596-0.97-0.977-3.16-1.54-5.39-1.498zm0.16 1.064c1.12-0.023 1.53 0.008 2.19 0.164 0.44 0.106 0.85 0.202 0.9 0.213 0.31 0.068 1.04 0.466 1.34 0.738 0.42 0.377 0.81 1.191 1.05 2.176 0.18 0.793 0.27 3.149 0.13 3.769-0.04 0.21-0.1 0.52-0.13 0.71-0.17 1.04-0.84 2.5-1.49 3.25-0.51 0.59-1.19 0.87-2.95 1.22-2.18 0.43-2.24 0.45-3.14 0.89-1.37 0.68-1.87 1.69-2.23 4.58-0.07 0.59-0.34 1.58-0.54 2-0.24 0.53-0.82 1.05-1.63 1.49-0.62 0.33-1.69 0.72-2.26 0.81-0.19 0.03-0.48 0.08-0.67 0.12-0.37 0.08-2.356 0.11-2.807 0.05-1.393-0.2-2.557-0.62-3.084-1.11-0.395-0.38-0.789-1.22-1.013-2.16-0.188-0.8-0.277-3.15-0.141-3.78 0.044-0.2 0.105-0.52 0.135-0.7 0.093-0.57 0.476-1.64 0.812-2.27 0.434-0.8 0.958-1.38 1.483-1.62 0.42-0.2 1.414-0.47 1.998-0.54 2.897-0.36 3.907-0.86 4.587-2.23 0.44-0.9 0.46-0.97 0.89-3.141 0.41-2.077 0.59-2.43 1.68-3.33 0.33-0.274 1.83-0.906 2.41-1.02 0.13-0.025 0.43-0.094 0.67-0.15 0.23-0.056 1.05-0.113 1.81-0.129z" transform="matrix(14 0 0 14 -173.7 -200.3)"/>
  <path style="stroke-width:1.333;fill:#fff" d="m-48.61 157c-3.014-3.925-2.942-5.887 0.3334-9.163 2.026-2.026 4.668-2.726 11-2.913 17.07-0.5041 28.04-2.072 31.18-4.455 6.619-5.014 15.98 0.884 12.73 8.019-3.242 7.116-11.84 9.673-36.25 10.79-16.21 0.7406-16.73 0.6781-19-2.277z"/>
  <path style="stroke-width:1.333;fill:#fff" d="m-32.7 129.2c-1.967-1.547-3.576-3.946-3.576-5.331 0-3.38 4.757-7.617 9.794-8.723 5.224-1.147 13.28-5.331 15.95-8.286 1.137-1.257 2.697-3.941 3.467-5.965 0.7697-2.024 2.982-4.402 4.916-5.283 3.18-1.449 3.83-1.238 6.791 2.204 3.58 4.162 3.423 7.548-0.6801 14.63-2.914 5.032-15.11 13.46-23.57 16.29-3.667 1.225-7.307 2.463-8.091 2.75-0.7832 0.2871-3.033-0.7438-5-2.291z"/>
  <path style="stroke-width:1.333;fill:#fff" d="m-91.63 114c-1.722-1.721-3.534-5.283-4.028-7.915-0.9632-5.134-0.1742-22.95 1.307-29.51 2.137-9.475 8.379-12.9 13.4-7.346 2.217 2.45 2.271 3.564 0.7061 14.48-1.582 11.04-1.489 14.42 0.689 24.94 1.487 7.183-6.643 10.79-12.08 5.352z"/>
  <path style="stroke-width:1.333;fill:#fff" d="m31.47 114.9c-3.678-4.283-3.808-5.46-1.166-10.58 3.195-6.192 3.788-9.368 4.796-25.69 0.9489-15.37 1.368-16.99 4.884-18.87 2.197-1.176 3.44-0.9422 6.243 1.173 3.451 2.605 3.497 2.856 3.272 18.1-0.2627 17.8-2.902 29.01-8.132 34.53-4.007 4.232-7.055 4.643-9.897 1.333z"/>
  <path style="stroke-width:1.333;fill:#fff" d="m-33.61 93.22c-1.467-1.467-2.734-3.417-2.817-4.333-0.7651-8.464-0.4693-11.1 1.749-15.58 4.179-8.447 17.15-15.87 23.05-13.18 6.914 3.15 5.206 11.84-2.849 14.5-5.883 1.942-8.434 5.752-7.54 11.26 0.5365 3.306 0.02268 5.06-2.107 7.19-3.522 3.522-6.072 3.562-9.483 0.1501z"/>
  <path style="stroke-width:1.333;fill:#fff" d="m-62.67 50.29c-2.469-2.469-1.898-8.328 1.193-12.26 4.603-5.852 12.77-9.265 22.01-9.202 9.82 0.0665 15.36 2.473 17.1 7.425 1.079 3.068 0.8055 4.185-1.619 6.61-2.553 2.553-3.544 2.753-7.934 1.597-7.107-1.871-14.64-0.2829-18.52 3.904-3.495 3.769-9.444 4.705-12.23 1.924z"/>
  <path style="stroke-width:1.333;fill:#fff" d="m60.79 44.31c-11.09-2.918 6.021-37.92 20.43-41.8 6.194-1.668 10.1-0.0672 11.27 4.623 1.103 4.394-1.371 8.381-5.803 9.354-4.622 1.015-7.87 5.247-12.68 16.51-5.315 12.46-6.149 13.17-13.22 11.31z"/>
  <path style="stroke-width:1.333;fill:#fff" d="m8.232 27.16c-1.907-2.91-1.971-3.865-0.4529-6.703 0.974-1.82 3.311-3.62 5.193-4 11.35-2.293 13.44-3.364 15.31-7.851 2.341-5.603 6.39-8.042 10.08-6.069 13.54 7.248-2.44 27.96-21.61 28-5.289 0.0106-6.66-0.5328-8.526-3.381z"/>
  <path style="stroke-width:1.333;fill:#fff" d="m135.8 9.854c-5.235-2.359-6.66-4.084-6.689-8.095-0.0386-5.249 4.019-7.296 12.75-6.434 7.221 0.7128 8.434 0.4297 14.27-3.33 7.337-4.726 10.31-5.097 13.41-1.671 4.99 5.514 2.475 9.694-9.97 16.57-8.527 4.711-17.44 5.82-23.78 2.961z"/>
  <path style="stroke-width:1.333;fill:#fff" d="m117.3-21.5c-5.367-5-3.111-10.16 6.126-14.02 5.51-2.302 12.29-9.329 12.29-12.74 0-1.281 1.541-3.542 3.424-5.023 2.815-2.214 3.996-2.433 6.641-1.228 10.36 4.719 1.002 23.97-15.69 32.29-8.316 4.144-9.069 4.186-12.79 0.7192z"/>
  <path style="stroke-width:1.333;fill:#fff" d="m74.28-28.49c-4.431-3.402-5.682-8.124-5.553-20.96 0.1561-15.53 2.454-23.88 7.316-26.61 3.294-1.849 3.773-1.772 6.818 1.089 1.922 1.806 3.126 4.271 2.915 5.967-0.1984 1.589-0.8203 5.818-1.382 9.399-1.465 9.344-1.258 18.56 0.4907 21.83 2.245 4.195 1.852 6.609-1.452 8.923-3.524 2.468-6.272 2.578-9.152 0.3665z"/>
  <path style="stroke-width:1.333;fill:#fff" d="m173.8-36.07c-1.495-1.652-2.091-3.746-1.614-5.667 0.4164-1.676 1.964-7.778 3.44-13.56 1.476-5.783 2.821-13.55 2.99-17.25 0.4722-10.35 6.964-14.99 12.47-8.912 2.074 2.292 2.298 4.262 1.628 14.33-0.8437 12.69-4.718 27.07-8.388 31.12-2.976 3.289-7.513 3.26-10.52-0.0659z"/>
  <path style="stroke-width:1.333;fill:#fff" d="m102.4-57.45c-5.812-5.812-1.398-11.97 15.27-21.31 12.49-6.995 24.17-6.683 25.27 0.6755 0.712 4.756-2.834 8.216-9.334 9.107-5.754 0.7887-18.16 7.719-21.91 12.24-2.266 2.73-6.148 2.432-9.294-0.7141z"/>
  <path style="stroke-width:1.333;fill:#fff" d="m118.1-99.79c-7.893-4.894-1.269-16.34 9.436-16.31 6.63 0.0214 18.36 3.261 20.86 5.759 3.025 3.025 2.534 8.506-0.9654 10.78-2.597 1.686-4.058 1.699-10.88 0.1022-6.801-1.593-8.252-1.582-10.63 0.08376-3.383 2.37-3.329 2.373-7.827-0.4158z"/>
 </g>
</svg>
