<?xml version="1.0" encoding="UTF-8" standalone="no"?>
<svg xmlns="http://www.w3.org/2000/svg" height="32" width="32" version="1.0" xmlns:xlink="http://www.w3.org/1999/xlink">
 <path style="color:#000000;fill:#f4dcc5" d="m0 0v32h32v-32z"/>
 <g transform="matrix(.04674 0 0 .04674 4.035 4.035)"></g>
 <g transform="matrix(.07141 0 0 .07141 12.4 14.3)">
  <path style="opacity:.1;stroke-width:1.333" d="m-32.72 209.2c-21.34-2.96-40.2-10.43-49.75-19.7-18.54-17.99-26.65-66.36-17.85-106.5 4.912-22.43 12.68-38.88 24.41-51.72 11.86-12.98 19.8-16.22 53.94-22.03 34.42-5.915 40.37-8.825 47.58-23.32 3.884-7.804 6.323-16.91 10.18-38 5.287-28.91 9.799-39.26 21.98-50.39 12.84-11.73 29.29-19.5 51.72-24.41 39.77-8.708 88.09-0.7694 106.3 17.47 18.24 18.24 26.18 66.56 17.47 106.3-4.912 22.43-12.68 38.88-24.41 51.72-11.13 12.18-21.48 16.69-50.39 21.98-21.09 3.856-30.2 6.295-38 10.18-14.5 7.214-17.41 13.17-23.26 47.58-5.808 34.14-9.052 42.08-22.03 53.94-12.71 11.61-29.02 19.36-51.38 24.41-13.39 3.023-43.09 4.304-56.54 2.439z"/>
  <path style="stroke-width:1.333" d="m-48.81 193.1c-21.34-2.96-40.2-10.43-49.75-19.7-18.54-17.99-26.65-66.36-17.85-106.5 4.912-22.43 12.68-38.88 24.41-51.72 11.86-12.98 19.8-16.22 53.94-22.03 34.41-5.854 40.36-8.764 47.58-23.26 3.884-7.804 6.323-16.91 10.18-38 5.287-28.91 9.799-39.26 21.98-50.39 12.84-11.73 29.29-19.5 51.72-24.41 39.77-8.708 88.09-0.7694 106.3 17.47 18.24 18.24 26.18 66.56 17.47 106.3-4.912 22.43-12.68 38.88-24.41 51.72-11.13 12.18-21.48 16.69-50.39 21.98-21.09 3.856-30.2 6.295-38 10.18-14.5 7.214-17.41 13.17-23.26 47.58-5.808 34.14-9.052 42.08-22.03 53.94-12.71 11.61-29.02 19.36-51.38 24.41-13.39 3.023-43.09 4.304-56.54 2.439z"/>
  <path style="stroke-width:1.333;fill:#ff6a00" d="m-5.606 178.4c2.567-0.5319 6.767-1.307 9.333-1.723 8.016-1.298 22.98-6.658 31.73-11.37 11.29-6.075 19.36-13.42 22.81-20.77 2.768-5.89 6.518-19.8 7.542-27.98 5.075-40.52 11.99-54.73 31.25-64.2 12.5-6.144 13.45-6.414 43.91-12.46 24.7-4.898 34.17-8.815 41.38-17.11 9.1-10.47 18.45-30.94 20.82-45.57 0.4156-2.567 1.263-6.993 1.883-9.836 1.9-8.711 0.6802-41.72-1.952-52.83-3.27-13.8-8.725-25.17-14.61-30.45-4.244-3.809-14.39-9.411-18.77-10.36-0.7333-0.1592-6.433-1.501-12.67-2.981-9.233-2.192-14.92-2.618-30.67-2.297-10.63 0.2167-22.03 1.04-25.33 1.83-3.3 0.7899-7.5 1.727-9.333 2.083-8.223 1.595-29.2 10.46-33.84 14.3-15.24 12.6-17.73 17.55-23.5 46.63-6.041 30.46-6.311 31.41-12.46 43.91-9.469 19.26-23.68 26.18-64.2 31.25-8.177 1.024-22.09 4.774-27.98 7.542-7.35 3.455-14.7 11.53-20.77 22.81-4.708 8.748-10.07 23.71-11.37 31.73-0.4156 2.567-1.263 6.993-1.883 9.836-1.9 8.711-0.6802 41.72 1.952 52.83 3.143 13.26 8.663 25.02 14.2 30.26 7.379 6.978 23.66 12.85 43.18 15.56 6.309 0.8776 34.18 0.4144 39.33-0.6539z"/>
  <path style="stroke-width:1.333" d="m-48.61 157c-3.014-3.925-2.942-5.887 0.3334-9.163 2.026-2.026 4.668-2.726 11-2.913 17.07-0.5041 28.04-2.072 31.18-4.455 6.619-5.014 15.98 0.884 12.73 8.019-3.242 7.116-11.84 9.673-36.25 10.79-16.21 0.7406-16.73 0.6781-19-2.277z"/>
  <path style="stroke-width:1.333" d="m-32.7 129.2c-1.967-1.547-3.576-3.946-3.576-5.331 0-3.38 4.757-7.617 9.794-8.723 5.224-1.147 13.28-5.331 15.95-8.286 1.137-1.257 2.697-3.941 3.467-5.965 0.7697-2.024 2.982-4.402 4.916-5.283 3.18-1.449 3.83-1.238 6.791 2.204 3.58 4.162 3.423 7.548-0.6801 14.63-2.914 5.032-15.11 13.46-23.57 16.29-3.667 1.225-7.307 2.463-8.091 2.75-0.7832 0.2871-3.033-0.7438-5-2.291z"/>
  <path style="stroke-width:1.333" d="m-91.63 114c-1.722-1.721-3.534-5.283-4.028-7.915-0.9632-5.134-0.1742-22.95 1.307-29.51 2.137-9.475 8.379-12.9 13.4-7.346 2.217 2.45 2.271 3.564 0.7061 14.48-1.582 11.04-1.489 14.42 0.689 24.94 1.487 7.183-6.643 10.79-12.08 5.352z"/>
  <path style="stroke-width:1.333" d="m31.47 114.9c-3.678-4.283-3.808-5.46-1.166-10.58 3.195-6.192 3.788-9.368 4.796-25.69 0.9489-15.37 1.368-16.99 4.884-18.87 2.197-1.176 3.44-0.9422 6.243 1.173 3.451 2.605 3.497 2.856 3.272 18.1-0.2627 17.8-2.902 29.01-8.132 34.53-4.007 4.232-7.055 4.643-9.897 1.333z"/>
  <path style="stroke-width:1.333" d="m-33.61 93.22c-1.467-1.467-2.734-3.417-2.817-4.333-0.7651-8.464-0.4693-11.1 1.749-15.58 4.179-8.447 17.15-15.87 23.05-13.18 6.914 3.15 5.206 11.84-2.849 14.5-5.883 1.942-8.434 5.752-7.54 11.26 0.5365 3.306 0.02268 5.06-2.107 7.19-3.522 3.522-6.072 3.562-9.483 0.1501z"/>
  <path style="stroke-width:1.333" d="m-62.67 50.29c-2.469-2.469-1.898-8.328 1.193-12.26 4.603-5.852 12.77-9.265 22.01-9.202 9.82 0.0665 15.36 2.473 17.1 7.425 1.079 3.068 0.8055 4.185-1.619 6.61-2.553 2.553-3.544 2.753-7.934 1.597-7.107-1.871-14.64-0.2829-18.52 3.904-3.495 3.769-9.444 4.705-12.23 1.924z"/>
  <path style="stroke-width:1.333" d="m60.79 44.31c-11.09-2.918 6.021-37.92 20.43-41.8 6.194-1.668 10.1-0.0672 11.27 4.623 1.103 4.394-1.371 8.381-5.803 9.354-4.622 1.015-7.87 5.247-12.68 16.51-5.315 12.46-6.149 13.17-13.22 11.31z"/>
  <path style="stroke-width:1.333" d="m8.232 27.16c-1.907-2.91-1.971-3.865-0.4529-6.703 0.974-1.82 3.311-3.62 5.193-4 11.35-2.293 13.44-3.364 15.31-7.851 2.341-5.603 6.39-8.042 10.08-6.069 13.54 7.248-2.44 27.96-21.61 28-5.289 0.0106-6.66-0.5328-8.526-3.381z"/>
  <path style="stroke-width:1.333" d="m135.8 9.854c-5.235-2.359-6.66-4.084-6.689-8.095-0.0386-5.249 4.019-7.296 12.75-6.434 7.221 0.7128 8.434 0.4297 14.27-3.33 7.337-4.726 10.31-5.097 13.41-1.671 4.99 5.514 2.475 9.694-9.97 16.57-8.527 4.711-17.44 5.82-23.78 2.961z"/>
  <path style="stroke-width:1.333" d="m117.3-21.5c-5.367-5-3.111-10.16 6.126-14.02 5.51-2.302 12.29-9.329 12.29-12.74 0-1.281 1.541-3.542 3.424-5.023 2.815-2.214 3.996-2.433 6.641-1.228 10.36 4.719 1.002 23.97-15.69 32.29-8.316 4.144-9.069 4.186-12.79 0.7192z"/>
  <path style="stroke-width:1.333" d="m74.28-28.49c-4.431-3.402-5.682-8.124-5.553-20.96 0.1561-15.53 2.454-23.88 7.316-26.61 3.294-1.849 3.773-1.772 6.818 1.089 1.922 1.806 3.126 4.271 2.915 5.967-0.1984 1.589-0.8203 5.818-1.382 9.399-1.465 9.344-1.258 18.56 0.4907 21.83 2.245 4.195 1.852 6.609-1.452 8.923-3.524 2.468-6.272 2.578-9.152 0.3665z"/>
  <path style="stroke-width:1.333" d="m173.8-36.07c-1.495-1.652-2.091-3.746-1.614-5.667 0.4164-1.676 1.964-7.778 3.44-13.56 1.476-5.783 2.821-13.55 2.99-17.25 0.4722-10.35 6.964-14.99 12.47-8.912 2.074 2.292 2.298 4.262 1.628 14.33-0.8437 12.69-4.718 27.07-8.388 31.12-2.976 3.289-7.513 3.26-10.52-0.0659z"/>
  <path style="stroke-width:1.333" d="m102.4-57.45c-5.812-5.812-1.398-11.97 15.27-21.31 12.49-6.995 24.17-6.683 25.27 0.6755 0.712 4.756-2.834 8.216-9.334 9.107-5.754 0.7887-18.16 7.719-21.91 12.24-2.266 2.73-6.148 2.432-9.294-0.7141z"/>
  <path style="stroke-width:1.333" d="m118.1-99.79c-7.893-4.894-1.269-16.34 9.436-16.31 6.63 0.0214 18.36 3.261 20.86 5.759 3.025 3.025 2.534 8.506-0.9654 10.78-2.597 1.686-4.058 1.699-10.88 0.1022-6.801-1.593-8.252-1.582-10.63 0.08376-3.383 2.37-3.329 2.373-7.827-0.4158z"/>
 </g>
</svg>
