<?xml version="1.0" encoding="UTF-8" standalone="no"?>
<svg xmlns:rdf="http://www.w3.org/1999/02/22-rdf-syntax-ns#" xmlns="http://www.w3.org/2000/svg" height="32" width="32" version="1" xmlns:cc="http://creativecommons.org/ns#" xmlns:dc="http://purl.org/dc/elements/1.1/" viewBox="0 0 32 32">
 <path d="m0 0v32h32v-32z" fill="#333"/>
<g fill="#fff">
 <path d="m22.82 28.1c0.1671-0.7556 0.1552-1.572-0.06376-2.302 0.7726-0.4561 0.7109-1.363 1.276-1.733 0.1689-0.1064 0.5312-0.2417 0.683-0.09767-0.3436-0.5843-2.369-0.5544-2.3 1.054-0.3309-0.5777-0.8179-1.042-1.508-1.305-1.328-0.5303-3.515 0.6795-3.02 2.59 0.0411-1.664 1.639-2.646 2.859-2.22 1.949 0.6758 2.087 3.519 1.141 5.116 0.4965-1.605-1.541-2.732-2.268-2.301 0.919 0.0092 0.8862 1.564 0.8464 2.013-0.04695 0.4941-0.05568 1.008 0.2502 1.54-1.537 1.208-3.661 1.705-5.47 1.508l0.000099 0.3728c2.58 0.243 4.974-0.3398 6.694-2.425 0.08528-0.1014 0.1645-0.2222 0.237-0.3302 1.264 0.1564 1.918-0.9123 2.844-0.9159 0.2764-0.0017 0.8393 0.1621 0.9052 0.4396 0.07898-0.8664-1.902-2.288-3.152-0.9791zm-2.98-4.666c0.3085-0.0012 0.6165 0.02975 0.924 0.09282-0.6211-0.5183-1.4-0.8272-2.188-0.9627-0.4166-0.07135-0.8913-0.1244-1.3 0.06792-0.3955 0.199-0.7753 0.6167-0.6871 1.1 0.01165 0.0709 0.05379 0.2387 0.1574 0.1955-0.1756 0.1191-0.1622 0.4665-0.12 0.6343 0.08429 0.3357 0.4106 0.4248 0.6775 0.2236 0.1495-0.1003 0.2614-0.2527 0.3921-0.379 0.1767-0.1834 0.3655-0.328 0.5738-0.4788 0.1169-0.06872 0.2337-0.1374 0.3506-0.2062 0.3949-0.1668 0.776-0.2761 1.207-0.2945zm-1.374 1.828c-0.191 0.2731-0.402 0.5845-0.4014 0.9252-0.006 0.3534 0.1608 0.7483 0.5254 0.8574 0.05761 0.01383 0.1856 0.04814 0.1872-0.04824 0.0294 0.1612 0.2654 0.268 0.4061 0.309 0.2626 0.05588 0.4331-0.1469 0.3987-0.3917-0.0233-0.1418-0.08538-0.2714-0.1281-0.4071-0.06098-0.1939-0.1159-0.3683-0.1447-0.5617-0.01111-0.103-0.01557-0.2188-0.01393-0.3152 0.0121-0.334 0.08791-0.6348 0.2152-0.9412 0.1002-0.2233 0.232-0.4139 0.3832-0.6105-0.5699 0.2539-1.059 0.6955-1.415 1.191z"/>
 <path d="m25.73 17.07c-0.1084-0.2797-0.4185-0.803-0.936-1.031-0.7401-0.2494-1.652-0.1106-2.16 0.5154-0.6223 0.8847-0.6129 1.739-0.2667 2.356-1.029-0.9953-2.266-1.696-4.041-2.402-0.01518-0.3159-0.2168-0.5594-0.3824-0.7098 1.368-1.174 3.566-3.527 2.179-4.062 0.07806-0.352-0.1959-0.7821-0.4908-0.9895-0.3881-0.1713-0.8905-0.08384-1.062 0.3043-0.7763-0.3426-1.119 0.4337-1.26 1.454-0.1749-1.005-0.5002-1.844-1.21-1.461-0.2378-0.3368-0.7192-0.472-1.092-0.3274-0.373 0.1446-0.6375 0.5688-0.5862 0.9779-0.7459 0.2891-0.4568 1.035 0.09108 1.895-0.8847-0.6223-1.625-0.8717-1.967-0.0954-0.352-0.07806-0.7821 0.1959-0.9895 0.4908-0.1713 0.3881-0.08384 0.8905 0.3043 1.062-0.3426 0.7763 0.4337 1.119 1.454 1.26-1.005 0.1749-1.844 0.5002-1.461 1.21-0.3368 0.2378-0.472 0.7192-0.3274 1.092 0.1446 0.373 0.5688 0.6375 0.9779 0.5862 0.2891 0.7459 1.035 0.4568 1.895-0.09108-0.6223 0.8847-0.8717 1.625-0.0954 1.967-0.07806 0.352 0.1959 0.7821 0.4908 0.9895 0.3881 0.1713 0.8905 0.08384 1.062-0.3043 1.423 0.6281 1.458-2.603 1.403-4.405 0 0 0.09324-0.03614 0.1294 0.0571 0.2226 0.02096 0.5023-0.08746 0.7459-0.2891 1.775 0.7062 3.767 1.972 4.827 3.599 0.9873 1.441 1.834 3.901 1.2 5.863-0.8832 2.702-3.262 4.589-6.571 4.906-1.859 0.1843-2.957 0.3954-2.885 0.5819 0.07228 0.1865 2.004 0.1886 2.226 0.2096 3.547 0.0195 6.816-1.784 7.912-5.319 0.7119-2.314 0.2385-4.919-1.245-6.81l-0.03614-0.09324c-0.8789-1.161-1.099-3.113 0.6151-3.67l-0.1865 0.07228c-0.3939 0.3672-0.4568 1.035-0.08962 1.429 0.3672 0.3939 1.035 0.4568 1.429 0.08962 0.3007-0.331 0.472-0.7192 0.3274-1.092zm-7.513-4.166c0.1503-0.1655 0.4301-0.2739 0.5956-0.1236 0.2588 0.1142 0.3672 0.3939 0.3101 0.5233 0.8695 0.3065-0.6129 1.739-1.308 2.437 0 0-0.09324 0.03614-0.1294-0.0571-0.09324 0.03614-0.2226-0.02096-0.2226-0.02096-0.07228-0.1865-0.05132-0.4091-0.03036-0.6317s0.0058-0.5385 0.02674-0.7611c0.08384-0.8905 0.24-1.594 0.8507-1.402zm-2.77 0.3231c-0.07228-0.1865 0.1352-0.4814 0.3216-0.5537 0.1865-0.07228 0.5385 0.0058 0.6108 0.1923 0.5594-0.2168 0.7553 0.5652 0.7647 1.42-0.02096 0.2226-0.0058 0.5385-0.02674 0.7611 0.01518 0.3159-0.0058 0.5385-0.02674 0.7611l-0.09324 0.03614c-0.1655-0.1503-0.331-0.3007-0.6259-0.5081-0.1655-0.1503-0.3672-0.3939-0.5327-0.5443-0.5688-0.6375-0.9512-1.347-0.3918-1.564zm-1.855 1.577c0.1142-0.2588 0.3939-0.3672 0.5233-0.3101 0.2284-0.5175 0.9114-0.1388 1.574 0.4626 0.1655 0.1503 0.3672 0.3939 0.5327 0.5443 0.2017 0.2436 0.4395 0.5804 0.5688 0.6375-0.1865 0.07228-0.5023 0.08746-0.8543 0.0094-0.2226-0.02096-0.5385-0.0058-0.7611-0.02674-0.8905-0.08384-1.594-0.24-1.402-0.8507-0.1655-0.1503-0.2739-0.4301-0.1236-0.5956zm0.5761 3.423c-0.1865 0.07228-0.4814-0.1352-0.5537-0.3216-0.07228-0.1865 0.0058-0.5385 0.1923-0.6108-0.2168-0.5594 0.5652-0.7553 1.42-0.7647 0.2226 0.02096 0.5385 0.0058 0.7611 0.02674 0.3159-0.01518 0.6679 0.06288 0.7972 0.12l0.03614 0.09324c-0.1503 0.1655-0.3007 0.331-0.5443 0.5327-0.1503 0.1655-0.3939 0.3672-0.5443 0.5327-0.6375 0.5688-1.347 0.9512-1.564 0.3918zm2.173 1.732c-0.1503 0.1655-0.4301 0.2739-0.5956 0.1236-0.2588-0.1142-0.3672-0.3939-0.3101-0.5233-0.5175-0.2284-0.1388-0.9114 0.4626-1.574 0.1503-0.1655 0.3939-0.3672 0.5443-0.5327 0.1503-0.1655 0.3007-0.331 0.4872-0.4033 0.03614 0.09324 0.1655 0.1503 0.2949 0.2074 0.04554 0.9476-0.01372 3.008-0.79 2.666z"/>
</g></svg>
