<?xml version="1.0" encoding="UTF-8" standalone="no"?>
<svg xmlns="http://www.w3.org/2000/svg" height="32" width="32" version="1.1" viewBox="0 0 32 32">
 <path fill="#333" d="m0 0v32h32v-32z"/>
 <path style="stroke-width:.234;fill:#faf8f8" d="m25.5 23.5-3-3c1.26-1.59 2.01-3.58 2.01-5.76-0.0234-5.13-4.19-9.29-9.29-9.29s-9.29 4.17-9.29 9.29c0 5.13 4.17 9.29 9.29 9.29 1.66 0 3.23-0.445 4.59-1.22l3.18 3.18c0.679 0.679 1.8 0.679 2.5 0 0.702-0.679 0.702-1.8 0-2.5zm-17-8.7c0-3.72 3-6.72 6.72-6.72s6.72 3.02 6.72 6.72-3.02 6.72-6.72 6.72-6.72-3.02-6.72-6.72z"/>
</svg>
