<?xml version="1.0" encoding="UTF-8" standalone="no"?>
<svg id="svg2817" xmlns:rdf="http://www.w3.org/1999/02/22-rdf-syntax-ns#" xmlns="http://www.w3.org/2000/svg" xmlns:osb="http://www.openswatchbook.org/uri/2009/osb" height="32" width="32" version="1.0" xmlns:cc="http://creativecommons.org/ns#" xmlns:xlink="http://www.w3.org/1999/xlink" xmlns:dc="http://purl.org/dc/elements/1.1/">
 <path style="color:#000000;fill:#333" d="m0 0v32h32v-32z"/>
 <path id="path4185" style="filter-blend-mode:normal;color-rendering:auto;color:#000000;isolation:auto;mix-blend-mode:normal;filter-gaussianBlur-deviation:0;shape-rendering:auto;solid-color:#000000;image-rendering:auto" d="m21.748 5.8649c1.8841 0.42656 5.1046 1.061 4.2487 3.9284-1.0878 3.6443-4.1542 6.9606-6.6913 9.4987l0.000067 0.000065c-0.0025 0.0024-0.005 0.005-0.0076 0.0076-0.0025 0.0024-0.005 0.005-0.0076 0.0076l-0.00007-0.000065c-2.5379 2.537-5.8543 5.6034-9.4985 6.6912-2.8674 0.85592-3.5018-2.3646-3.9284-4.2487l6.0856-2.6761 2.3845 1.2858c0.88244-0.563 2.406-1.9756 3.3484-2.9173 0.94173-0.9423 2.3543-2.4659 2.9173-3.3484l-1.5272-2.1432 2.6761-6.0856z" fill="#fff"/>
</svg>
