<?xml version="1.0" encoding="UTF-8" standalone="no"?>
<svg xmlns:rdf="http://www.w3.org/1999/02/22-rdf-syntax-ns#" xmlns="http://www.w3.org/2000/svg" height="32" width="32" version="1.0" xmlns:cc="http://creativecommons.org/ns#" xmlns:dc="http://purl.org/dc/elements/1.1/">
 <path style="fill:#333" d="m0 0v32h32v-32z"/>
<g style="color-rendering:auto;color:#000000;isolation:auto;mix-blend-mode:normal;shape-rendering:auto;solid-color:#000000;image-rendering:auto;fill:#fff">
 <path d="m16.04 8.553c-2.618-0.011-5.247 0.0691-7.678 0.2735-1.509 0.1677-2.543 2.005-2.656 3.399-0.239 2.93-0.239 4.599 0 7.529 0.1131 1.394 1.122 3.243 2.656 3.435 4.917 0.323 10.54 0.369 15.29 0 1.482-0.257 2.544-2.039 2.657-3.435 0.234-2.93 0.234-4.781 0-7.711-0.113-1.396-0.95-3.154-2.657-3.217-2.386-0.1604-4.992-0.2625-7.611-0.2735zm-0.002 0.3047c2.512 0.0106 5.012 0.108 7.301 0.2617 1.636 0.0603 2.438 1.747 2.547 3.086 0.225 2.81 0.225 4.584 0 7.395-0.109 1.338-1.126 3.047-2.547 3.295-4.553 0.353-9.948 0.309-14.66 0-1.483-0.19-2.451-1.96-2.56-3.3-0.229-2.81-0.229-4.41 0-7.22 0.109-1.34 1.102-3.1 2.549-3.261 2.33-0.196 4.85-0.272 7.36-0.262z"/>
 <path d="m13.9 11.81 6.288 4.192-6.288 4.192v-8.384z"/>
</g>
</svg>
