<?xml version="1.0" encoding="UTF-8" standalone="no"?>
<svg xmlns="http://www.w3.org/2000/svg" height="32" width="32" version="1.1" viewBox="0 0 32 32">
 <path fill="#333" d="m0 0v32h32v-32z"/>
 <g style="fill:#fff" transform="translate(-11.8 -68.1)">
  <g style="fill:#fff" transform="matrix(.263 0 0 .263 14.7 70.9)">
   <path style="fill:#fff;clip-rule:evenodd;fill-rule:evenodd" d="m74.9 83h-2.19v3.6c0 1.61 1.32 2.93 2.93 2.93h5.4c1.61 0 2.92-1.32 2.92-2.93v-8.32c-2 2.85-5.32 4.73-9.06 4.73z"/>
   <path style="fill:#fff;clip-rule:evenodd;fill-rule:evenodd" d="m15.7 77.7v8.94c0 1.61 1.32 2.93 2.92 2.93h5.4c1.61 0 2.92-1.32 2.92-2.93v-3.6h-1.79c-4 0-7.52-2.14-9.46-5.34z"/>
   <circle cx="25.2" cy="69.2" r="1.44" style="fill:#fff;clip-rule:evenodd;fill-rule:evenodd"/>
   <circle cx="21.1" cy="69.2" r="1.44" style="fill:#fff;clip-rule:evenodd;fill-rule:evenodd"/>
   <circle cx="74.8" cy="69.2" r="1.44" style="fill:#fff;clip-rule:evenodd;fill-rule:evenodd"/>
   <circle cx="78.9" cy="69.2" r="1.44" style="fill:#fff;clip-rule:evenodd;fill-rule:evenodd"/>
   <path style="fill:#fff;clip-rule:evenodd;fill-rule:evenodd" d="m92.5 30.1h-0.107c-0.197-1.85-1.75-3.3-3.65-3.3h-2.9v-10.7c0-3.12-2.55-5.67-5.67-5.67h-60.4c-3.12 0-5.67 2.55-5.67 5.67v10.7h-2.84c-1.9 0-3.45 1.45-3.65 3.3h-0.16c-1.19 0-2.16 0.974-2.16 2.16v11.2c0 1.19 0.974 2.16 2.16 2.16h2.8c1.19 0 2.16-0.974 2.16-2.16v-11.3c0-1.19-0.974-2.16-2.16-2.16h-0.52c0.144-0.632 0.708-1.11 1.38-1.11h2.92v40.3c0 6.09 4.97 11.1 11.1 11.1h49.7c6.09 0 11.1-4.97 11.1-11.1v-40.3h2.91c0.674 0 1.24 0.475 1.38 1.11h-0.508c-1.19 0-2.16 0.974-2.16 2.16v11.2c0 1.19 0.975 2.16 2.16 2.16h2.8c1.19 0 2.16-0.974 2.16-2.16v-11.2c0.001-1.19-0.974-2.16-2.16-2.16zm-59.9-15.6h34.8v6h-34.8zm-13.3 10h61.5v33.8h-61.5zm10.2 47.4c-0.109 0.166-0.279 0.258-0.477 0.258h-8c-2.34 0-4.25-1.91-4.25-4.25v-1.02c0-0.314 0.256-0.57 0.57-0.57h9.63c0.231 0 0.43 0.131 0.522 0.342l2.05 4.71c0.079 0.18 0.062 0.374-0.046 0.538zm53.6-4c0 2.34-1.91 4.25-4.25 4.25h-8c-0.199 0-0.369-0.092-0.479-0.258-0.107-0.164-0.123-0.357-0.045-0.539l2.05-4.71c0.094-0.211 0.291-0.342 0.523-0.342h9.63c0.314 0 0.57 0.256 0.57 0.57v1.03z"/>
  </g>
 </g>
</svg>
