<?xml version="1.0" encoding="UTF-8" standalone="no"?>
<svg xmlns="http://www.w3.org/2000/svg" height="32" width="32" version="1.1" viewBox="0 0 32 32">
 <path fill="#333" d="m0 0v32h32v-32z"/>
 <g style="fill:#fff" transform="matrix(.758 0 0 -.758 -5.91 82.9)">
  <path style="fill:#fff" transform="matrix(1.32 0 0 -1.32 7.94 109)" d="m16.1 9.48c-0.392 0-0.715 0.288-0.777 0.662l-2.81 7.83c-0.166 0.463 0.0307 0.957 0.441 1.1l0.205 0.0723c0.411 0.148 0.879-0.106 1.04-0.568l1.2-3v6.22c0 0.437 0.353 0.791 0.789 0.791h0.217c0.436 0 0.791-0.354 0.791-0.791v-0.102c0.0652-0.102 0.123-0.211 0.168-0.334l2-5.8v6.22c0 0.437 0.355 0.791 0.791 0.791h0.217c0.436 0 0.789-0.354 0.789-0.791v-0.102c0.0647-0.101 0.123-0.211 0.168-0.334l2.1-5.8v6.22c0 0.437 0.353 0.791 0.789 0.791h0.217c0.436 0 0.791-0.354 0.791-0.791v-0.102c0.0647-0.101 0.122-0.211 0.166-0.334l2-5.8v6.22c0 0.437 0.353 0.791 0.789 0.791h0.219c0.436 0 0.789-0.354 0.789-0.791v-0.102c0.0647-0.101 0.123-0.211 0.168-0.334l2.1-5.8v6.22c0 0.3 0.174 0.552 0.42 0.686v-12.8c-0.223 0.123-0.387 0.342-0.412 0.609-0.0297 0.0593-0.0567 0.12-0.0801 0.186l-2.2 6v-6.16c0-0.436-0.353-0.791-0.789-0.791h-0.219c-0.411 0-0.745 0.315-0.783 0.717-0.0297 0.0593-0.0567 0.12-0.0801 0.186l-2.1 6.1v-6.16c0-0.436-0.355-0.791-0.791-0.791h-0.217c-0.411 0-0.745 0.315-0.783 0.717-0.0297 0.0593-0.0567 0.12-0.0801 0.186l-2.2 6.1v-6.16c0-0.436-0.353-0.791-0.789-0.791h-0.219c-0.411 0-0.744 0.315-0.781 0.717-0.0297 0.0593-0.0587 0.12-0.082 0.186l-2.17 6.05v-6.16c0-0.436-0.355-0.791-0.791-0.791z"/>
 </g>
 <path style="color-rendering:auto;color:#000000;isolation:auto;mix-blend-mode:normal;shape-rendering:auto;solid-color:#000000;image-rendering:auto;fill:#fff" d="m0.0000575 4.89v1.72a9.41 9.41 0 0 1 8.92 9.39 9.41 9.41 0 0 1 -8.92 9.4v1.72a11.1 11.1 0 0 0 10.6 -11.1 11.1 11.1 0 0 0 -10.6 -11.1z"/>
</svg>
