<?xml version="1.0" encoding="UTF-8" standalone="no"?>
<svg xmlns="http://www.w3.org/2000/svg" height="32" width="32" version="1.1" xmlns:xlink="http://www.w3.org/1999/xlink" viewBox="0 0 32 32">
 <path d="m0 0v32h32v-32z" fill="#333"/>
 <path style="fill:#fff" d="m18.71 4.475c-4.861 0-8.876 3.971-8.876 8.826 0 1.845 0.6246 3.543 1.605 4.965l-5.918 5.918a1.614 1.614 0 0 0 2.257 2.307l5.918-5.918c1.424 0.9804 3.166 1.555 5.015 1.555 4.861 0 8.826-3.971 8.826-8.826s-3.966-8.826-8.826-8.826zm0 3.21c3.125 0 5.617 2.495 5.617 5.617 0 3.121-2.492 5.617-5.617 5.617s-5.617-2.495-5.617-5.617 2.492-5.617 5.617-5.617z"/>
</svg>
