<?xml version="1.0" encoding="UTF-8" standalone="no"?>
<svg xmlns="http://www.w3.org/2000/svg" height="32" width="32" version="1.0">
 <path style="color:#000000;fill:#4491ae" d="m0 0v32h32v-32z"/>
 <path style="opacity:.1;fill:#00000f;stroke-width:.5229;fill-opacity:.9412;fill-rule:evenodd" d="m31.98 25.18c0-2.872-2.324-5.198-5.198-5.198-2.872 0-5.198 2.326-5.198 5.198 0 0.7932 0.1752 1.538 0.4873 2.213l-1.949 1.949c-0.9224 0.9161-0.9224 0.925 0 1.848 0.9161 0.9161 0.925 0.9161 1.848 0l1.787-1.787c0.8581 0.6102 1.894 0.9747 3.025 0.9747 2.874 0 5.198-2.326 5.198-5.198zm-2.599-0.08105c0.02144 0.7028-0.2426 1.386-0.7321 1.891-0.49 0.5051-1.163 0.7896-1.867 0.7896-1.435 0-2.598-1.163-2.598-2.599 0-1.435 1.162-2.599 2.598-2.599 1.403-0.001 2.554 1.114 2.599 2.518z"/>
 <path style="opacity:.1;fill:#00000f;fill-opacity:.9412" d="m7.783 15.16c-0.466 0.02-0.783 0.13-0.783 0.63v10.51c0 0.67 0.575 1.2 1.295 1.2h10.04l1.35-1.35c-0.37-0.79-0.57-1.66-0.57-2.59 0-3.36 2.72-6.08 6.08-6.08 1.17 0 2.26 0.33 3.19 0.91v-2.6c0-0.67-0.59-0.63-1.32-0.63h-18.78c-0.183 0-0.349-0.01-0.501 0h-0.006z"/>
 <path d="m27.71 13.52-2.67-3.788s-1.337-1.977-2.008-1.977h-10.69c-0.6688 0-2.006 1.977-2.006 1.977h0.002l-2.67 3.788z" style="opacity:.1;fill:#00000f;fill-opacity:.9412"/>
 <path style="stroke-width:.8227;fill:#f9f9f9" d="m6.1 13.53l-0.004 0.01c-0.461 0.02-0.789 0.13-0.789 0.63v10.5c0 0.67 0.575 1.2 1.295 1.2h12.97c-0.29-0.71-0.45-1.49-0.45-2.31 0-3.36 2.72-6.08 6.08-6.08 0.52 0 1.02 0.07 1.5 0.19v-3.5c0-0.68-0.59-0.64-1.32-0.64h-18.78c-0.179 0-0.347-0.01-0.5 0z"/>
 <path style="stroke-width:.8227;fill:#f9f9f9" d="m8.638 8.104-2.674 3.786h9.216v-5.76h-4.531c-0.6689 0-2.006 1.976-2.006 1.976m8.178-1.974v5.759h9.206l-2.68-3.782s-1.337-1.976-2.008-1.976m-4.518 0"/>
 <path style="stroke-width:.01896;fill:#4491ae" d="m15.76 23.37-0.63-1.71c-0.51-0.12-0.91-0.53-1.01-1.05l-0.0031 0.0037-1.764-0.6551 1.23-1.23 1.54 0.133 0.0062 0.00056 0.3813 0.04087-1.28 1.572 0.2199 0.2199 1.48-1.817 0.1801-0.2214-0.2835-0.03053-0.4673-0.05017c0.2404-0.2836 0.5018-0.5488 0.7819-0.7932 0.1262 0.9402 0.8639 1.69 1.799 1.833-0.2437 0.2771-0.508 0.5356-0.7906 0.7731l-0.04603-0.4326-0.03053-0.2836-0.2215 0.1801-1.786 1.458 0.2194 0.2194 1.541-1.257 0.03676 0.3451 0.1309 1.522-1.23 1.23zm2.416-4.041c-0.1454-0.0067-0.2866-0.03025-0.4212-0.06882l0.2297-0.28c0.1244 0.04196 0.2545 0.07158 0.3886 0.08746-0.06396 0.08849-0.1294 0.1758-0.1971 0.2613zm-0.7249-0.1863c-0.1213-0.05977-0.2352-0.1324-0.3394-0.2163l0.2608-0.2861c0.09802 0.08074 0.204 0.1517 0.3167 0.2121l-0.238 0.2903zm1.126-0.3715c-0.1311-0.0019-0.2586-0.01916-0.3803-0.05017l0.2401-0.2929c0.1011 0.03013 0.2061 0.05038 0.3141 0.06104-0.05608 0.09538-0.1137 0.1895-0.1739 0.282zm-1.689-0.05845c-0.1112-0.1256-0.2053-0.2668-0.2789-0.4196l0.2867-0.2339c0.07087 0.1318 0.1563 0.2545 0.2546 0.3658l-0.2623 0.2877zm1.001-0.104c-0.1104-0.05376-0.2137-0.1203-0.3084-0.1966l0.2696-0.296c0.08842 0.07256 0.1846 0.1363 0.2867 0.1899l-0.2479 0.3027zm-0.5299-0.4129c-0.08617-0.1019-0.1602-0.2146-0.2194-0.3358l0.2975-0.2432c0.05473 0.1003 0.1193 0.1947 0.1925 0.2815l-0.2706 0.2975zm1.558-0.0036v-0.0037c-0.7603 0-1.374-0.6124-1.375-1.372 0.6499-0.3444 1.357-0.5949 2.104-0.7337-0.1372 0.7505-0.3858 1.46-0.7286 2.11zm-2.43-0.21c-0.0394-0.1424-0.06198-0.2918-0.06573-0.446 0.08175-0.06433 0.1649-0.1269 0.2494-0.1878 0.0154 0.1421 0.04554 0.2795 0.09008 0.4108l-0.2738 0.223zm0.5324-0.4346c-0.03311-0.1289-0.05088-0.2643-0.05123-0.4036 0.08743-0.0568 0.176-0.1114 0.266-0.1646 0.01192 0.1158 0.0357 0.2281 0.06984 0.3358l-0.2846 0.2323z"/>
 <g style="fill:#3370d0" transform="matrix(.7130 0 0 .7130 22.84 12.15)"></g>
 <g style="stroke:#000;stroke-width:4.4;fill:#4db147" transform="matrix(.7130 0 0 .7130 22.84 12.15)"></g>
 <path style="stroke-width:.5229;fill:#aaffef;fill-rule:evenodd" d="m30.49 23.69c0-2.872-2.324-5.198-5.198-5.198-2.872 0-5.198 2.326-5.198 5.198 0 0.7932 0.1752 1.538 0.4873 2.213l-1.949 1.949c-0.9224 0.9161-0.9224 0.925 0 1.848 0.9161 0.9161 0.925 0.9161 1.848 0l1.787-1.787c0.8581 0.6102 1.894 0.9747 3.025 0.9747 2.874 0 5.198-2.326 5.198-5.198zm-2.599-0.08105c0.02144 0.7028-0.2426 1.386-0.7321 1.891-0.49 0.5051-1.163 0.7896-1.867 0.7896-1.435 0-2.598-1.163-2.598-2.599 0-1.435 1.162-2.599 2.598-2.599 1.403-0.001 2.554 1.114 2.599 2.518z"/>
</svg>
