<?xml version="1.0" encoding="UTF-8" standalone="no"?>
<svg xmlns="http://www.w3.org/2000/svg" height="32" width="32" version="1.1" viewBox="0 0 32 32">
 <path d="m0 0v32h32v-32z" fill="#333"/>
 <path style="fill:#fff" d="m11.77 5.773c-0.2 0-0.38 0.078-0.52 0.215l-4.234 4.232h-0.002c-0.023 0.03-0.043 0.05-0.063 0.08-0.004 0-0.009 0.01-0.013 0.01-0.019 0.03-0.036 0.06-0.051 0.08-0.001 0.01-0.003 0.01-0.004 0.01-0.014 0.03-0.025 0.06-0.035 0.08-0.002 0.01-0.006 0.02-0.008 0.02-0.011 0.03-0.019 0.06-0.026 0.1 0 0 0.001 0 0 0-0.005 0.03-0.009 0.06-0.011 0.09l-0.002 0.02c-0.001 0.01 0 0.02 0 0.03v14.75c0 0.41 0.327 0.74 0.732 0.74h16.93c0.41 0 0.74-0.33 0.74-0.74v-14.71-0.04c0-0.22-0.1-0.41-0.25-0.55l-4.2-4.202c-0.14-0.137-0.32-0.215-0.52-0.215h-8.46zm0.3 0.67h7.86l3.21 3.917h-14.28l3.21-3.917zm7.58 8.787c-0.14 0.75-0.39 1.46-0.73 2.11-0.76 0-1.37-0.62-1.38-1.38 0.65-0.34 1.36-0.59 2.11-0.73zm-2.41 0.9c0.02 0.12 0.04 0.23 0.07 0.34l-0.28 0.23c-0.03-0.13-0.05-0.26-0.05-0.4 0.09-0.06 0.17-0.12 0.26-0.17zm-0.56 0.37c0.02 0.14 0.05 0.28 0.09 0.41l-0.27 0.22c-0.04-0.14-0.06-0.29-0.07-0.44 0.08-0.06 0.17-0.13 0.25-0.19zm0.76 0.26c0.05 0.1 0.12 0.2 0.19 0.28l-0.27 0.3c-0.08-0.1-0.16-0.21-0.22-0.33l0.3-0.25zm-1.3 0.17c0.13 0.94 0.86 1.69 1.8 1.83-0.24 0.28-0.51 0.54-0.79 0.78l-0.05-0.44-0.03-0.28-0.22 0.18-1.79 1.46 0.22 0.22 1.54-1.26 0.04 0.35 0.13 1.52-1.23 1.23-0.63-1.71c-0.51-0.13-0.91-0.54-1.01-1.05l-1.77-0.65 1.23-1.23 1.54 0.13h0.01l0.38 0.04-1.28 1.57 0.22 0.22 1.48-1.81 0.18-0.23-0.28-0.03-0.47-0.05c0.24-0.28 0.5-0.55 0.78-0.79zm0.76 0.28c0.07 0.13 0.15 0.25 0.25 0.36l-0.26 0.29c-0.11-0.13-0.21-0.27-0.28-0.42l0.29-0.23zm0.95 0.05c0.09 0.08 0.19 0.14 0.29 0.19l-0.25 0.31c-0.11-0.06-0.21-0.13-0.31-0.2l0.27-0.3zm0.59 0.31c0.1 0.03 0.21 0.06 0.31 0.07-0.05 0.09-0.11 0.19-0.17 0.28-0.13 0-0.26-0.02-0.38-0.05l0.24-0.3zm-1.06 0.22c0.09 0.08 0.2 0.15 0.31 0.21l-0.23 0.29c-0.13-0.06-0.24-0.13-0.34-0.22l0.26-0.28zm0.61 0.34c0.12 0.04 0.25 0.07 0.39 0.08-0.07 0.09-0.13 0.18-0.2 0.27-0.15-0.01-0.29-0.04-0.42-0.07l0.23-0.28z"/>
</svg>
