<?xml version="1.0" encoding="UTF-8" standalone="no"?>
<svg xmlns="http://www.w3.org/2000/svg" height="32" width="32" version="1.0">
 <path style="fill:#333" d="m0 0v32h32v-32z"/>
 <path style="stroke-width:0.9;fill:#fff" d="m16 4.3c-6.5 0-11.7 5.2-11.7 11.7s5.2 11.7 11.7 11.7c1.04 0 1.949-0.9094 1.949-1.949 0-0.52-0.1285-0.9108-0.5186-1.301-0.26-0.39-0.5203-0.7791-0.5203-1.299 0-1.04 0.9095-1.951 1.949-1.951h2.34c3.64 0 6.5-2.859 6.5-6.499 0-5.719-5.2-10.4-11.7-10.4zm-3.6 2.7c0.96 0 1.8 0.84 1.8 1.8s-0.84 1.8-1.8 1.8-1.8-0.84-1.8-1.8 0.84-1.8 1.8-1.8zm6.3 0c0.96 0 1.8 0.84 1.8 1.8s-0.84 1.8-1.8 1.8-1.8-0.84-1.8-1.8 0.84-1.8 1.8-1.8zm-10.8 5.4c0.96 0 1.8 0.8397 1.8 1.8s-0.84 1.8-1.8 1.8-1.8-0.8397-1.8-1.8 0.84-1.8 1.8-1.8zm15.3 0c0.96 0 1.8 0.84 1.8 1.8s-0.84 1.8-1.8 1.8-1.8-0.84-1.8-1.8 0.84-1.8 1.8-1.8z"/>
</svg>
