<?xml version="1.0" encoding="UTF-8" standalone="no"?>
<svg xmlns:rdf="http://www.w3.org/1999/02/22-rdf-syntax-ns#" xmlns="http://www.w3.org/2000/svg" height="32" width="32" version="1.1" xmlns:cc="http://creativecommons.org/ns#" xmlns:dc="http://purl.org/dc/elements/1.1/" viewBox="0 0 32 32">
 <path style="fill:#333" d="m0 0v32h32v-32z"/>
 <path d="m24.78 9.219h-14.63v-0.3149l9.141-3.656c0.5-0.208 0.75-0.776 0.55-1.276-0.2-0.499-0.77-0.741-1.27-0.545l-9.757 3.902c-0.369 0.15-0.615 0.507-0.615 0.905v0.9755h-0.9755c-0.5377 0-0.9755 0.4378-0.9755 0.9755v11.71c0 0.5377 0.4378 0.9755 0.9755 0.9755h17.56c0.5377 0 0.9755-0.4378 0.9755-0.9755v-11.71c0-0.5377-0.4378-0.9755-0.9755-0.9755zm-10.73 11.71h-4.878c-0.5377 0-0.9755-0.4378-0.9755-0.9755s0.4378-0.9755 0.9755-0.9755h4.878c0.5377 0 0.9755 0.4378 0.9755 0.9755s-0.4378 0.9755-0.9755 0.9755zm0-3.902h-4.878c-0.5377 0-0.9755-0.4378-0.9755-0.9755s0.4378-0.9755 0.9755-0.9755h4.878c0.5377 0 0.9755 0.4378 0.9755 0.9755s-0.4378 0.9755-0.9755 0.9755zm0-3.902h-4.878c-0.5377 0-0.9755-0.4378-0.9755-0.9755s0.4378-0.9755 0.9755-0.9755h4.878c0.5377 0 0.9755 0.4378 0.9755 0.9755s-0.4378 0.9755-0.9755 0.9755zm6.829 6.829c-2.155 0-3.902-1.748-3.902-3.902 0-2.155 1.748-3.902 3.902-3.902 2.155 0 3.902 1.748 3.902 3.902 0 2.155-1.748 3.902-3.902 3.902z" style="fill:#fff"/>
</svg>
