<?xml version="1.0" encoding="UTF-8" standalone="no"?>
<svg xmlns="http://www.w3.org/2000/svg" height="32" width="32" version="1.0">
 <path style="fill:#333" d="m0 0v32h32v-32z"/>
 <g style="fill:#fff">
 <path d="m26.1 21.6c-1.139-0.4987-2.412-0.5451-3.566-0.1813 0.09763-0.6528 0.1339-1.317 0.1045-1.983 0.9164-0.8297 1.662-1.809 2.215-2.918 0.114-0.2283 0.114-0.4968 0-0.7251-0.7211-1.444-1.754-2.654-2.994-3.566 1.156-0.5765 1.952-1.77 1.952-3.147 0-1.938-1.577-3.515-3.515-3.515s-3.515 1.577-3.515 3.515c0 0.4538 0.08742 0.8872 0.2446 1.286-0.3386-0.03467-0.6812-0.05264-1.027-0.05264-0.3459 0-0.6885 0.01797-1.027 0.05264 0.1572-0.3986 0.2446-0.832 0.2446-1.286 0-1.938-1.577-3.515-3.515-3.515s-3.515 1.577-3.515 3.515c0 1.377 0.7963 2.571 1.952 3.147-1.24 0.913-2.273 2.122-2.994 3.566-0.114 0.2283-0.114 0.4968 0 0.7251 0.5641 1.13 1.319 2.116 2.215 2.929-0.02852 0.6631 0.00777 1.323 0.1048 1.972-1.154-0.3637-2.427-0.3175-3.566 0.1813-0.3629 0.1588-0.558 0.5565-0.4617 0.9407 0.2139 0.8535 0.6457 1.634 1.251 2.276h-0.02122c-0.4482 0-0.8116 0.3634-0.8116 0.8116s0.3634 0.8116 0.8116 0.8116h5.414c0.3075 0 0.5887-0.1738 0.7261-0.4489 0.1374-0.275 0.1076-0.6042-0.0771-0.8501-0.5521-0.7352-0.9792-1.544-1.274-2.396-0.0065-0.01994-0.01345-0.03965-0.02145-0.05902-0.2223-0.6563-0.3643-1.338-0.4254-2.03 1.482 0.865 3.193 1.343 4.992 1.343 1.762 0 3.487-0.4747 4.993-1.355-0.06052 0.6972-0.203 1.383-0.4269 2.044-0.0072 0.01751-0.01345 0.03536-0.01936 0.05322-0.2953 0.8532-0.7229 1.664-1.276 2.4-0.1847 0.2459-0.2145 0.5751-0.0771 0.8501 0.1375 0.2751 0.4186 0.4489 0.7261 0.4489h5.116c0.4482 0 0.8116-0.3634 0.8116-0.8116 0-0.3641-0.2397-0.6721-0.5699-0.775 0.6236-0.6485 1.068-1.443 1.286-2.313 0.09612-0.3841-0.09902-0.7818-0.4619-0.9407zm-5.8-14.42c1.043 0 1.892 0.8487 1.892 1.892s-0.8488 1.892-1.892 1.892-1.892-0.8488-1.892-1.892 0.8487-1.892 1.892-1.892zm-8.596 0c1.043 0 1.892 0.8487 1.892 1.892s-0.8488 1.892-1.892 1.892-1.892-0.8488-1.892-1.892 0.8487-1.892 1.892-1.892zm-1.66 17.6c-0.774-0.08-1.483-0.42-2.05-0.96-0.293-0.28-0.534-0.61-0.713-0.97 0.9443-0.1806 1.94 0.04058 2.718 0.6227 0.1692 0.4562 0.3702 0.9017 0.6034 1.332h-0.4445c-0.03664-0.0095-0.07409-0.01739-0.1128-0.02168zm14.68-1.933c-0.1793 0.3579-0.4197 0.6852-0.713 0.9675-0.651 0.6263-1.503 0.977-2.399 0.9873-0.0019 0-0.0036 0.000348-0.0054 0.000348h-0.2c0.2331-0.4306 0.4341-0.876 0.6033-1.332 0.7782-0.5824 1.774-0.8034 2.718-0.6229zm-3.29-8.9h-10.86c1.476-1.29 3.388-2.03 5.434-2.03s3.958 0.7394 5.434 2.03zm-10.65 4.56c-0.04-0.04-0.09-0.08-0.14-0.11-0.733-0.63-1.362-1.39-1.851-2.26 0.11-0.19 0.227-0.38 0.35-0.56h13.72c0.123 0.1835 0.2402 0.3721 0.3497 0.5671-0.4953 0.8817-1.142 1.657-1.926 2.31-1.48 1.232-3.356 1.91-5.285 1.91-1.949-0.000116-3.776-0.6711-5.221-1.85z"/>
 <circle cx="20.3" r=".8167" cy="9.077"/>
 <circle cx="11.7" r=".8166" cy="9.077"/>
 </g>
</svg>
