<?xml version="1.0" encoding="UTF-8" standalone="no"?>
<svg xmlns="http://www.w3.org/2000/svg" height="32" width="32" version="1.0" xmlns:xlink="http://www.w3.org/1999/xlink">
 <path style="color:#000000;fill:#037777" d="m0 0v32h32v-32z"/>
 <path style="opacity:.1;stroke-width:.04674" d="m27.91 15.55c-0.4542-0.3783-0.6422-0.5576-0.5572-1 0.2612-0.4827 0.4121-1.05 0.4121-1.656 0-1.015-0.4223-1.919-1.078-2.502-0.4052-0.6933-1.135-1.19-2.016-1.367-0.9371-0.1882-1.9 0.02141-2.575 0.5606-1.732 1.383-3.212 1.999-4.801 1.999s-3.07-0.6166-4.801-1.999c-0.6752-0.5391-1.638-0.7488-2.575-0.5606-0.8806 0.1768-1.61 0.6736-2.016 1.367-0.6554 0.5823-1.078 1.487-1.078 2.502 0 0.6065 0.1509 1.174 0.4121 1.656 0.08507 0.4425-0.103 0.6219-0.5572 1-0.5699 0.4748-1.351 1.125-1.351 2.765 0 1.446 2.075 3.179 4.017 4.319 2.612 1.533 5.509 2.412 7.948 2.412s5.336-0.8791 7.948-2.412c1.942-1.14 4.017-2.873 4.017-4.319 0-1.64-0.7806-2.29-1.351-2.765z"/>
 <g transform="matrix(.04674 0 0 .04674 4.035 4.035)">
  <path style="fill:#bee178" d="m14 280c0 47.35 76.18 138 242 138s242-90.65 242-138z"/>
  <path style="fill:#82c35f" d="m492.8 243.2c-8.897-6.575-20.21-14.22-32.84-22.26l-1.183-12.9c8.2-10.6 13.2-24.6 13.2-39.9 0-19.9-8.4-37.5-21.4-48.5-16-29.17-61-36.66-86.9-16-35.7 28.5-69 44.5-107.7 44.5-38.67 0-72-16-107.7-44.52-25.9-20.66-70.85-13.17-86.94 16-12.94 11-21.36 28.6-21.36 48.5 0 16.48 5.759 31.4 15.08 42.24l-0.622 9.059c-13.62 8.6-25.82 16.8-35.28 23.8-6.32 4.7-11.18 12.2-11.18 21.3 0 13 8.782 23.54 19.62 23.54h456.8c10.83 0 19.62-10.54 19.62-23.54 0-9.078-4.855-16.58-11.18-21.25z"/>
  <path d="m472 268.1h-432c-4.418 0-8 3.582-8 8s3.582 8 8 8h432c4.418 0 8-3.582 8-8s-3.582-8-8-8z"/>
  <path d="m320 300.1h-128c-4.418 0-8 3.582-8 8s3.582 8 8 8h128c4.418 0 8-3.582 8-8s-3.582-8-8-8z"/>
  <path d="m483.1 224.9c-9.717-8.094-13.74-11.93-11.92-21.4 5.588-10.33 8.816-22.46 8.816-35.44 0-21.71-9.036-41.06-23.06-53.52-8.67-14.83-24.28-25.46-43.12-29.25-20.05-4.027-40.64 0.458-55.09 11.99-37 29.6-68.7 42.8-102.7 42.8s-65.7-13.2-102.7-42.77c-14.5-11.53-35.1-16.02-55.12-11.99-18.84 3.78-34.45 14.41-43.12 29.26-14.02 12.4-23.06 31.8-23.06 53.5 0 12.98 3.228 25.11 8.816 35.44 1.82 9.468-2.204 13.3-11.92 21.4-12.2 10.2-28.9 24.1-28.9 59.2 0 30.94 44.4 68.02 85.95 92.4 55.88 32.79 117.9 51.6 170 51.6 52.18 0 114.2-18.81 170-51.6 41.55-24.38 85.95-61.46 85.95-92.4 0-35.09-16.7-49-28.9-59.16zm-19.1-56.8c0 10.58-2.696 20.44-7.312 28.66-0.078 0.131-0.148 0.266-0.219 0.402-7.916 13.83-21.31 22.94-36.47 22.94-24.26 0-44-23.33-44-52s19.74-52 44-52c9.282 0 17.9 3.423 25 9.245 0.351 0.356 0.731 0.674 1.135 0.955 10.83 9.481 17.86 24.69 17.86 41.8zm-398.1-41.8c0.407-0.282 0.791-0.603 1.144-0.962 7.105-5.82 15.72-9.242 25-9.242 24.26 0 44 23.33 44 52s-19.74 52-44 52c-15.16 0-28.55-9.107-36.47-22.94-0.07-0.2-0.14-0.3-0.22-0.4-4.61-8.3-7.31-18.1-7.31-28.7 0-17.11 7.032-32.32 17.86-41.8zm352.1 236.4c-52.71 30.93-113.3 49.4-162 49.4s-109.2-18.47-162-49.4c-45.9-27-78-59.3-78-78.6 0-27.6 11.76-37.39 23.14-46.87 5.547-4.621 11.49-9.583 15.01-16.43 10.33 9.552 23.51 15.29 37.86 15.29 33.08 0 60-30.5 60-68 0-33.8-21.88-61.91-50.43-67.12 15.4-3.025 30.98 0.273 41.72 8.852 40.08 32 74.84 46.27 112.7 46.27 37.88 0 72.64-14.27 112.7-46.27 10.74-8.579 26.32-11.88 41.72-8.852-28.55 5.211-50.43 33.32-50.43 67.12 0 37.5 26.92 68 60 68 14.34 0 27.52-5.741 37.86-15.29 3.512 6.842 9.459 11.8 15.01 16.43 11.38 9.475 23.14 19.27 23.14 46.87 0 19.31-32.1 51.64-78.05 78.6z"/>
  <path d="m92 180.1c8.445 0 36-1.154 36-16s-27.56-16-36-16c-8.445 0-36 1.154-36 16s27.56 16 36 16z"/>
  <path d="m384 164.1c0 14.85 27.56 16 36 16 8.445 0 36-1.154 36-16s-27.56-16-36-16c-8.445 0-36 1.154-36 16z"/>
  <path d="m232 228.1c4.418 0 8-3.582 8-8v-8c0-4.418-3.582-8-8-8s-8 3.582-8 8v8c0 4.419 3.582 8 8 8z"/>
  <path d="m280 228.1c4.418 0 8-3.582 8-8v-8c0-4.418-3.582-8-8-8s-8 3.582-8 8v8c0 4.419 3.582 8 8 8z"/>
 </g>
</svg>
