<?xml version="1.0" encoding="UTF-8" standalone="no"?>
<svg id="svg2817" xmlns:rdf="http://www.w3.org/1999/02/22-rdf-syntax-ns#" xmlns="http://www.w3.org/2000/svg" xmlns:osb="http://www.openswatchbook.org/uri/2009/osb" height="32" width="32" version="1.0" xmlns:cc="http://creativecommons.org/ns#" xmlns:xlink="http://www.w3.org/1999/xlink" xmlns:dc="http://purl.org/dc/elements/1.1/">
 <g id="g4577">
  <path id="path14907" style="color:#000000" fill="#333" d="m0.0096284-0.038611v32.126h32.126v-32.126z"/>
  <path id="rect4238" opacity=".05" style="color:#000000" fill="#fff" d="m32.063 15.937h-32.126v16.063h11.539 9.0482 11.539z"/>
 </g>
 <path id="path4881" style="filter-blend-mode:normal;color-rendering:auto;color:#000000;isolation:auto;mix-blend-mode:normal;filter-gaussianBlur-deviation:0;shape-rendering:auto;solid-color:#000000;image-rendering:auto" d="m16 5.238a10.762 10.762 0 0 0 -10.762 10.762 10.762 10.762 0 0 0 10.762 10.762 10.762 10.762 0 0 0 10.762 -10.762 10.762 10.762 0 0 0 -10.762 -10.762zm-0.0507 4.36c2.2925 0.062672 5.86 1.5247 6.3558 5.5788 0.000673 0.0068-0.0081 0.17587-0.01114 0.19602-0.08572 0.55209-0.56213 0.96471-1.1269 0.96464-0.57783-0.000673-1.0637-0.4337-1.131-1.0076-0.3283-2.002-2.0579-3.4719-4.0867-3.473-0.61224 0.0013-1.2165 0.13867-1.7694 0.40162 0.11096-0.19092 0.16957-0.40774 0.17004-0.62856 0-0.04248-0.0027-0.08441-0.0068-0.12583l0.09615-0.03339a1.4333 1.4333 0 0 1 0.000633 0.0047 4.765 4.765 0 0 1 1.5592 -0.26806 4.765 4.765 0 0 1 4.4788 3.1508 1.4333 1.4333 0 0 1 0.22292 -0.11779 5.0166 5.0166 0 0 0 -4.7017 -3.2847 5.0166 5.0166 0 0 0 -1.5425 0.24827l-0.000316-0.0013c-0.0092-0.0047-0.09452 0.02781-0.16294 0.05473-0.05661-0.1826-0.15507-0.34625-0.28228-0.48262l0.16108-0.05965a5.5724 5.5724 0 0 1 1.8269 -0.31505 5.5724 5.5724 0 0 1 5.2508 3.7247 1.4333 1.4333 0 0 1 0.01206 -0.000317 1.4333 1.4333 0 0 1 0.3132 0.03615 5.8667 5.8667 0 0 0 -5.576 -4.0549 5.8667 5.8667 0 0 0 -2.0616 0.38184 1.4333 1.4333 0 0 1 0.0053 0.0047l-0.18643 0.07513c-0.19266-0.12044-0.41818-0.19323-0.66221-0.19324-0.08141 0.000316-0.16259 0.0087-0.24239 0.0247 0.94801-0.52485 2.0137-0.80045 3.0973-0.80109zm-3.1892 1.1032c0.61892 0.000013 1.1206 0.50184 1.1205 1.1208-0.000633 0.48424-0.68773 1.0595-0.64556 1.0543-0.90601 0.78544-1.4273 1.9249-1.4293 3.1239 0.0013 1.3281 0.63964 2.5749 1.7159 3.353-0.2429 0.0047-0.4679 0.07931-0.65793 0.20282a4.765 4.765 0 0 1 -1.6294 -3.5834 4.765 4.765 0 0 1 1.1523 -3.1038 1.4333 1.4333 0 0 1 -0.21642 -0.12892 5.0166 5.0166 0 0 0 -1.1872 3.2328 5.0166 5.0166 0 0 0 1.6847 3.7404c-0.13541 0.13291-0.23989 0.29606-0.30423 0.47861a5.5724 5.5724 0 0 1 -1.9367 -4.219 5.5724 5.5724 0 0 1 1.3619 -3.6455 1.4333 1.4333 0 0 1 -0.13356 -0.28723 5.8667 5.8667 0 0 0 -1.5221 3.9327 5.8667 5.8667 0 0 0 2.1407 4.5264 1.4333 1.4333 0 0 1 0.04174 -0.13882c-0.01609 0.08012-0.0247 0.16286-0.0247 0.24765 0.000316 0.3208 0.12326 0.62934 0.34381 0.8623-3.5925-2.2722-4.09-7.4648-0.61372-10.489 0.20416-0.18019 0.46694-0.27995 0.73925-0.28042zm9.579 5.6478c-0.18515 3.3942-2.9906 6.052-6.3898 6.0534-0.71052-0.0033-1.4155-0.1254-2.086-0.3605-0.1457-0.02498-0.28521-0.07796-0.41059-0.15614-0.0033-0.002-0.05998-0.03952-0.06523-0.04329-0.29615-0.21398-0.4721-0.55736-0.47242-0.92351 0.000034-0.62972 0.51052-1.1402 1.1402-1.1402 0.18677 0.0001 0.37066 0.04605 0.5355 0.13387l-0.002-0.0033c0.43724 0.15377 0.89719 0.23308 1.3607 0.23466 2.1131-0.000673 3.8872-1.5916 4.1173-3.6922 0.12896 0.24692 0.33421 0.43728 0.57723 0.55219a4.765 4.765 0 0 1 -4.6445 3.7339 4.765 4.765 0 0 1 -0.91702 -0.09059 1.4333 1.4333 0 0 1 0.01482 0.19386 1.4333 1.4333 0 0 1 -0.0033 0.06369 5.0166 5.0166 0 0 0 0.90527 0.08472 5.0166 5.0166 0 0 0 4.8832 -3.9015c0.09596 0.02342 0.1948 0.03797 0.29619 0.03804 0.09251-0.00004 0.18233-0.0136 0.27022-0.03306a5.5724 5.5724 0 0 1 -5.4496 4.4525 5.5724 5.5724 0 0 1 -1.0373 -0.10049 1.4333 1.4333 0 0 1 -0.15984 0.26434 5.8667 5.8667 0 0 0 1.1971 0.13048 5.8667 5.8667 0 0 0 5.7773 -4.8692c0.24783-0.13487 0.4502-0.34935 0.56239-0.62145z" fill="#fff"/>
</svg>
