<?xml version="1.0" encoding="UTF-8" standalone="no"?>
<svg xmlns="http://www.w3.org/2000/svg" height="32" width="32" version="1.1" viewBox="0 0 32 32">
 <path fill="#333" d="m0 0v32h32v-32z"/>
 <g style="fill:#fff" transform="translate(-.152)">
  <path style="stroke-width:.0271;fill:#fff" d="m20.7 26.5-1.89 1.65s0.203-0.0835 5.87-1.12z"/>
  <path style="stroke-width:.0271;fill:#fff" d="m18 3.81 1.12 3.75 8.04-0.043zm3.43 20.1-8.09 0.764-3.33 0.314l15.1 2z"/>
  <path style="stroke-width:.0271;fill:#fff" d="m28.1 7.87-24.3 0.13 4.77 16.8 19.6-1.8zm-7.28 3.19-0.217 1.39 1.21-0.154 0.0137 1.61-1.45 0.184-0.5 4.35-1.62 0.0273 0.506-4.14-1.49 0.15-0.242-1.54 0.0039 0.002 1.97-0.262 0.26-1.56zm3.21 0.189 1.43 0.553-1.11 1.99-1.31-0.482 0.984-2.05zm-10.9 0.338c0.538 0.429 1.06 0.867 1.58 1.32 0.72 0.661 1.43 1.34 2.12 2.03l-1.15 1.45c-0.578-0.647-1.18-1.26-1.81-1.85-0.61-0.556-1.21-1.12-1.81-1.69zm-3.18 2.11 1.85 0.0703-0.277 1.47a4.68 4.68 0 0 1 0.516 -0.0312 2.09 2.09 0 0 1 1.09 0.283 2.14 2.14 0 0 1 0.807 0.801 3.19 3.19 0 0 1 0.383 1.08 3.85 3.85 0 0 1 0.0371 1.13 6.31 6.31 0 0 1 -0.709 2.19l-1.83-0.0352a16.1 16.1 0 0 0 0.604 -1.65 4.52 4.52 0 0 0 0.0996 -0.932 2.04 2.04 0 0 0 -0.1 -1c-0.139-0.295-0.385-0.461-0.738-0.5a1.71 1.71 0 0 0 -0.4 0l-0.8 4.4-1.68-0.1 0.6-3.7c-0.36 0.2-0.7 0.4-1.03 0.6l-0.58-1.4a11.2 11.2 0 0 1 1.88 -0.857zm13.8 0.254c0.104 0.576 0.205 1.15 0.309 1.73a18 18 0 0 1 2.28 0.26l-0.404 1.52c-0.5-0.2-1-0.3-1.6-0.4a7.32 7.32 0 0 1 0.0527 0.979 1.66 1.66 0 0 1 -0.443 1.07 1.69 1.69 0 0 1 -1.01 0.541 2.38 2.38 0 0 1 -0.863 0.0137 1.71 1.71 0 0 1 -0.7 -0.3 1.66 1.66 0 0 1 -0.6 -0.7 2.66 2.66 0 0 1 -0.2 -0.8c-0.0325-0.404 0.068-0.764 0.305-1.08a2.52 2.52 0 0 1 0.883 -0.725 3.64 3.64 0 0 1 1.1 -0.355c-0.112-0.557-0.233-1.11-0.359-1.68zm-0.848 3.02c-0.134 0.0206-0.262 0.043-0.385 0.0625a1.15 1.15 0 0 0 -0.359 0.127 0.526 0.526 0 0 0 -0.258 0.26 0.645 0.645 0 0 0 -0.043 0.359 0.706 0.706 0 0 0 0.162 0.52c0.124 0.155 0.285 0.21 0.484 0.168a1.49 1.49 0 0 0 0.26 -0.0957 0.343 0.343 0 0 0 0.172 -0.205 1.03 1.03 0 0 0 0.041 -0.283h0.002a8.55 8.55 0 0 0 -0.0762 -0.912z"/>
 </g>
</svg>
