<?xml version="1.0" encoding="UTF-8" standalone="no"?>
<svg xmlns:rdf="http://www.w3.org/1999/02/22-rdf-syntax-ns#" xmlns="http://www.w3.org/2000/svg" height="32" width="32" version="1.0" xmlns:cc="http://creativecommons.org/ns#" xmlns:dc="http://purl.org/dc/elements/1.1/">
 <path d="m0 0v32h32v-32z" fill="#333"/>
 <path style="fill:#fff;fill-rule:evenodd" d="m16.08 14.83v2.339s2.265-0.0031 3.187-0.0031c-0.4994 1.516-1.276 2.342-3.187 2.342-1.934 0-3.444-1.571-3.444-3.509s1.51-3.509 3.444-3.509c1.023 0 1.683 0.3601 2.289 0.862 0.485-0.4858 0.4445-0.5551 1.678-1.722-1.049-0.9549-2.439-1.537-3.97-1.537-3.256 0-5.893 2.644-5.893 5.906s2.64 5.906 5.896 5.906c4.867 0 6.057-4.246 5.662-7.076h-5.662z"/>
 <path style="stroke-linejoin:round;color-rendering:auto;color:#000000;isolation:auto;mix-blend-mode:normal;shape-rendering:auto;solid-color:#000000;stroke:#fff;image-rendering:auto;fill:none" d="m26.05 21.8-10.05 5.8-10.05-5.8v-11.6l10.05-5.8 10.05 5.8z"/>
</svg>
