<?xml version="1.0" encoding="UTF-8" standalone="no"?>
<svg xmlns:rdf="http://www.w3.org/1999/02/22-rdf-syntax-ns#" xmlns="http://www.w3.org/2000/svg" height="32" width="32" version="1.0" xmlns:cc="http://creativecommons.org/ns#" xmlns:dc="http://purl.org/dc/elements/1.1/">
 <path d="m0.009628-0.03861v32.13h32.13v-32.13z" fill="#333"/>
 <path style="color:#000000;opacity:.05;fill:#fff" d="m32.06 11.53-11.54-11.53h11.54z"/>
<g style="color-rendering:auto;color:#000000;isolation:auto;mix-blend-mode:normal;shape-rendering:auto;solid-color:#000000;image-rendering:auto;fill:#fff">
 <path d="m6.876 16c0-2.437 0.9634-4.704 2.663-6.404s4.024-2.663 6.404-2.663 4.704 0.9634 6.404 2.663 2.663 4.024 2.663 6.404-0.9634 4.704-2.663 6.404-4.024 2.663-6.404 2.663-4.704-0.9634-6.404-2.663c-1.699-1.7-2.662-3.96-2.662-6.4zm18.02 0c0-4.93-4.024-8.954-8.954-8.954s-8.954 4.024-8.954 8.954 4.024 8.954 8.954 8.954 8.954-4.024 8.954-8.954z"/>
 <path d="m5.799 16c0-1.36 0.2833-2.72 0.7934-3.967 0.511-1.19 1.247-2.32 2.154-3.227s2.044-1.644 3.234-2.154c1.247-0.51 2.607-0.7934 3.967-0.7934s2.72 0.2833 3.967 0.7934c1.19 0.51 2.323 1.247 3.23 2.153 0.9067 0.9067 1.643 2.04 2.153 3.23 0.51 1.247 0.7934 2.607 0.7934 3.967s-0.2834 2.72-0.7934 3.967c-0.51 1.19-1.247 2.323-2.153 3.23-0.9067 0.9067-2.04 1.643-3.23 2.153-1.247 0.51-2.607 0.7934-3.967 0.7934s-2.72-0.2834-3.967-0.7934c-1.19-0.51-2.327-1.25-3.234-2.15-0.907-0.91-1.643-2.04-2.153-3.23-0.51-1.25-0.794-2.61-0.794-3.97zm19.66 0c0-5.214-4.25-9.52-9.52-9.52-5.21-0.001-9.517 4.25-9.517 9.52 0 5.214 4.25 9.52 9.52 9.52s9.52-4.25 9.52-9.52z"/>
 <path d="m5.175 16c0-1.473 0.2833-2.89 0.85-4.194 0.5667-1.303 1.303-2.437 2.323-3.457s2.153-1.757 3.457-2.323c1.36-0.5667 2.72-0.85 4.194-0.85 1.473 0 2.89 0.2833 4.194 0.85 1.303 0.5667 2.437 1.303 3.457 2.323s1.757 2.153 2.323 3.457c0.5667 1.36 0.85 2.72 0.85 4.194 0 1.473-0.2834 2.89-0.85 4.194-0.5667 1.303-1.303 2.437-2.323 3.457s-2.153 1.757-3.457 2.323c-1.36 0.5667-2.72 0.85-4.194 0.85-1.473 0-2.89-0.2834-4.194-0.85-1.3-0.57-2.431-1.31-3.451-2.33s-1.757-2.15-2.323-3.46c-0.567-1.3-0.851-2.72-0.851-4.19zm21.42 0c0-5.894-4.76-10.65-10.65-10.65-5.894 0-10.65 4.76-10.65 10.65 0 5.894 4.817 10.65 10.65 10.65 5.837 0 10.65-4.76 10.65-10.65z"/>
 <path d="m0.07654 10.09h31.68c0.08349 0 0.2505-0.08349 0.2505-0.2505s-0.08349-0.2505-0.2505-0.2505h-31.68z"/>
 <path d="m0.07654 12.6h31.68c0.08349 0 0.2505-0.08349 0.2505-0.2505s-0.08349-0.2505-0.2505-0.2505h-31.68z"/>
 <path d="m0.07654 15.1h31.7c0.08349 0 0.2505-0.08349 0.2505-0.2505s-0.08349-0.2505-0.2505-0.2505h-31.7z"/>
 <path d="m0.07654 17.61h31.7c0.08349 0 0.2505-0.08349 0.2505-0.2505s-0.08349-0.2505-0.2505-0.2505h-31.7z"/>
 <path d="m0.07654 20.2h31.72c0.08349 0 0.2505-0.08349 0.2505-0.2505s-0.08349-0.167-0.2505-0.167h-31.72z"/>
 <path d="m0.07654 22.28v0.4174h31.7c0.08349 0 0.2505-0.08349 0.2505-0.2505 0-0.08349-0.08349-0.2505-0.2505-0.2505z"/>
</g>
</svg>
