<?xml version="1.0" encoding="UTF-8" standalone="no"?>
<svg xmlns:rdf="http://www.w3.org/1999/02/22-rdf-syntax-ns#" xmlns="http://www.w3.org/2000/svg" height="32" width="32" version="1.0" xmlns:cc="http://creativecommons.org/ns#" xmlns:dc="http://purl.org/dc/elements/1.1/">
 <path style="fill:#333" d="m0 0v32h32v-32z"/>
<g style="color-rendering:auto;color:#000000;isolation:auto;mix-blend-mode:normal;shape-rendering:auto;solid-color:#000000;image-rendering:auto;fill:#fff">
 <path  d="m16.99 16.51s-2.84-1.42-4.788-4.463c-1.55-2.419-1.91-5.193-1.91-5.193s3.384 3.942 5.883 5.153c3.615 1.75 8.561 1.948 8.561 1.948s-2.916-1.592-4.463-3.246c-1.14-1.219-2.191-4.504-2.191-4.504s3.851 4.221 7.871 5.599c4.062 1.393 6.005 0.7303 6.005 0.7303v-12.5h-31.93s0.061 5.863 3.814 10.14c6.375 7.271 13.15 6.329 13.15 6.329z"/>
 <path  d="m21.02 19.04c-1.625 0-2.942 1.317-2.942 2.942s1.317 2.942 2.942 2.942 2.942-1.317 2.942-2.942-1.317-2.942-2.942-2.942zm-0.8176 1.44c0.6356-0.000059 1.151 0.5152 1.151 1.151-0.000029 0.6355-0.5153 1.151-1.151 1.151-0.6355-0.00003-1.151-0.5152-1.151-1.151-0.000058-0.6355 0.5151-1.151 1.151-1.151z"/>
 <path  d="m9.989 19.04c-1.625 0-2.942 1.317-2.942 2.942s1.317 2.942 2.942 2.942 2.942-1.317 2.942-2.942-1.317-2.942-2.942-2.942zm-0.8176 1.44c0.6356-0.000058 1.151 0.5152 1.151 1.151-0.000029 0.6355-0.5153 1.151-1.151 1.151-0.6355-0.000029-1.151-0.5152-1.151-1.151-0.0000582-0.6355 0.5151-1.151 1.151-1.151z"/>
</g></svg>
