<?xml version="1.0" encoding="UTF-8" standalone="no"?>
<svg id="svg2817" xmlns:rdf="http://www.w3.org/1999/02/22-rdf-syntax-ns#" xmlns="http://www.w3.org/2000/svg" xmlns:osb="http://www.openswatchbook.org/uri/2009/osb" height="32" width="32" version="1.0" xmlns:cc="http://creativecommons.org/ns#" xmlns:xlink="http://www.w3.org/1999/xlink" xmlns:dc="http://purl.org/dc/elements/1.1/">
 <path style="color:#000000;fill:#333" d="m0 0v32h32v-32z"/>
 <path d="m13.121 6.6937-8.1843 2.1292c-0.3334 0.0867-0.5314 0.4447-0.4464 0.7783l1.1444 4.4988c0.072041 0.28278 0.33194 0.46943 0.64109 0.46943h3.022v10.108c0 0.35478 0.27466 0.62948 0.62948 0.62948h12.122c0.35482 0 0.65252-0.2747 0.65252-0.62948v-10.108h3.022c0.2862 0 0.54748-0.19788 0.61805-0.46943l1.168-4.4988c0.086-0.3334-0.115-0.686-0.47-0.7783l-8.1843-2.1292h-0.16023-0.02304c-0.32042 0-0.58136 0.20668-0.62948 0.51534-0.06616 0.42395-0.29955 0.76412-0.69807 1.053-0.39125 0.28353-0.83576 0.42334-1.3395 0.42334-0.50353 0-0.95003-0.13714-1.3508-0.42334-0.4-0.2862-0.625-0.6303-0.697-1.053-0.053-0.3099-0.321-0.5153-0.63-0.5153h-0.04591-0.16005zm-0.21774 1.3852c0.25203 0.56095 0.65246 1.0188 1.2134 1.3736 0.56092 0.35482 1.1906 0.52641 1.8888 0.52641 0.68695 0.0000021 1.305-0.17156 1.8659-0.52641 0.56092-0.35482 0.9729-0.81268 1.2247-1.3736l7.0284 1.82-0.89278 3.3998h-3.1822c-0.3319 0-0.62966 0.2861-0.62966 0.64091v10.096h-10.863v-10.096c0-0.35482-0.27488-0.64091-0.62966-0.64091h-3.1592l-0.8921-3.4001 7.028-1.82z" fill="#fff"/>
</svg>
