<?xml version="1.0" encoding="UTF-8" standalone="no"?>
<svg xmlns:rdf="http://www.w3.org/1999/02/22-rdf-syntax-ns#" xmlns="http://www.w3.org/2000/svg" height="32" width="32" version="1.0" xmlns:cc="http://creativecommons.org/ns#" xmlns:xlink="http://www.w3.org/1999/xlink" xmlns:dc="http://purl.org/dc/elements/1.1/">
 <path style="color:#000000;fill:#333" d="m0 0v32h32v-32z"/>
 <g transform="matrix(.04184 0 0 .04184 5.518 5.331)">
  <path style="fill:#fff" d="m459 0h-408c-28.05 0-51 22.95-51 51v408c0 28.05 22.95 51 51 51h408c28.05 0 51-22.95 51-51v-408c0-28.05-23-51-51-51zm-204 153c56.1 0 102 45.9 102 102s-45.9 102-102 102-102-45.9-102-102 45.9-102 102-102zm-191.2 306c-7.65 0-12.75-5.1-12.75-12.8v-216.8h53.55c-2.6 7.8-2.6 18-2.6 25.6 0 84.15 68.85 153 153 153s153-68.85 153-153c0-7.65 0-17.85-2.55-25.5h53.55v216.8c0 7.65-5.1 12.75-12.75 12.75h-382.5zm395.2-344.2c0 7.65-5.1 12.75-12.75 12.75h-51c-7.65 0-12.75-5.1-12.75-12.75v-51c0.1-7.7 5.2-12.8 12.8-12.8h51c7.7 0 12.8 5.1 12.8 12.75v51z"/>
 </g>
</svg>
