<?xml version="1.0" encoding="UTF-8" standalone="no"?>
<svg xmlns:rdf="http://www.w3.org/1999/02/22-rdf-syntax-ns#" xmlns="http://www.w3.org/2000/svg" height="32" width="32" version="1.0" xmlns:cc="http://creativecommons.org/ns#" xmlns:dc="http://purl.org/dc/elements/1.1/">
 <path style="fill:#333" d="m0 0v32h32v-32z"/>
 <path style="color:#000000;opacity:.05;fill:#fff" d="m0-0.007356 0.007812 32.01 32-31.99z"/>
 <path style="color-rendering:auto;color:#000000;isolation:auto;mix-blend-mode:normal;shape-rendering:auto;solid-color:#000000;image-rendering:auto;fill:#fff" d="m17.37 24.73c-1.478-0.5466-1.909-2.094-1.848-3.51 0.02309-1.224-1.978-2.31-2.556-0.97 0.0231 1.324-0.8699 2.525-2.317 2.109-1.085-0.07698-2.44-1.247-2.009-2.417 0.5543-1.309 2.487-0.816 2.987-2.156 0.4234-1.039 0.05389-2.494-1.147-2.794-1.432-0.1925-2.733-1.494-2.502-3.01 0.2463-1.863 3.056-2.479 4.103-0.9315 0.8314 0.8699 0.6159 2.179 1.132 3.164 1.278 0.7236 2.502-0.639 2.556-1.886 0.1694-1.609 0.5004-3.403 1.963-4.357 1.655-1.416 4.604-1.47 5.858 0.5004 1.047 1.67 0.1694 3.934-1.486 4.842-1.486 1.062-3.695 0.8468-4.834 2.417-0.5158 1.101-0.7082 2.848 0.485 3.603 1.363 0.8853 3.31 1.093 4.165 2.633 0.4003 3.018-2.317 3.534-4.55 2.764z"/>
</svg>
