<?xml version="1.0" encoding="UTF-8" standalone="no"?>
<svg xmlns:rdf="http://www.w3.org/1999/02/22-rdf-syntax-ns#" xmlns="http://www.w3.org/2000/svg" height="32" width="32" version="1.1" xmlns:cc="http://creativecommons.org/ns#" xmlns:dc="http://purl.org/dc/elements/1.1/" viewBox="0 0 32 32">
 <path style="fill:#333" d="m0 0v32h32v-32z"/>
<g fill="#fff">
 <rect  height="2.053" width="16.04" y="23.73" x="7.996"/>
 <rect  height="2.053" width="16.04" y="16.03" x="7.996"/>
 <path d="m7.996 21.17v2.053h6.8v-2.053h-6.8zm9.238 0v2.053h6.8v-2.053h-6.8z" />
 <path d="m7.996 18.61v2.053h6.8v-2.053h-6.8zm9.238 0v2.053h6.8v-2.053h-6.8z" />
 <path d="m16.01 6.24c-1.502 0-2.773 0.7044-3.681 1.628-0.9079 0.9234-1.523 2.06-1.981 3.159-0.915 2.198-1.191 4.342-1.191 4.342l-0.02004 0.1604h2.458c0.05988-0.3831 0.3324-1.959 1.002-3.568 0.3821-0.9179 0.8921-1.796 1.472-2.385 0.5794-0.5894 1.155-0.8981 1.94-0.8981 0.7851 0 1.365 0.3087 1.945 0.8981 0.5794 0.5894 1.085 1.468 1.468 2.385 0.67 1.61 0.9425 3.186 1.002 3.568h2.458l-0.02004-0.1604s-0.2717-2.144-1.187-4.342c-0.46-1.102-1.08-2.239-1.98-3.162-0.91-0.923-2.18-1.628-3.69-1.628z" style="color:#000000;"/>
</g>
</svg>
