<?xml version="1.0" encoding="UTF-8" standalone="no"?>
<svg xmlns="http://www.w3.org/2000/svg" height="32" width="32" version="1.0">
 <path style="fill:#333" d="m0 0v32h32v-32z"/>
 <g style="fill:#fff">
  <path d="m7.403 32.07v-23.62c0-0.3669 0.3142-0.6713 0.6559-0.6713l8.41 0.00659c0.3493 0.0002728 0.5382 0.1276 0.7852 0.3745l7.053 7.05c0.247 0.2469 0.2893 0.4088 0.2893 0.758v16.07l0.9756 0.01226v-16.35c0-0.3888-0.04712-0.569-0.3221-0.844l-7.86-7.861c-0.28-0.275-0.49-0.417-0.88-0.417l-9.364-0.00736c-0.3805 0-0.7303 0.3389-0.7303 0.7474v24.74z"/>
  <path d="m19.61 7.567 4.896 4.918c0.3993 0.4011 1.063 0.3059 1.063-0.3268v-4.826c0-0.389-0.3522-0.7543-0.7393-0.7543h-4.896c-0.6293 0-0.6569 0.6547-0.3242 0.9891z"/>
 <path d="m16.21 17.67h6.056v2.586h-6.056z"/>
 <path d="m9.735 17.68h5.965v2.586h-5.965z"/>
 <path d="m16.21 21.42h6.056v2.586h-6.056z"/>
 <path d="m9.735 21.43h5.965v2.586h-5.965z"/>
 <path d="m16.21 25.18h6.056v2.586h-6.056z"/>
 <path d="m9.735 25.18h5.965v2.586h-5.965z"/>
 </g>
</svg>
