<?xml version="1.0" encoding="UTF-8" standalone="no"?>
<svg xmlns="http://www.w3.org/2000/svg" height="32" width="32" version="1.0">
 <path style="fill:#333" d="m0 0v32h32v-32z"/>
 <g style="fill:#fff">
  <path d="m7.403 32.07v-23.62c0-0.3669 0.3142-0.6713 0.6559-0.6713l8.41 0.00659c0.3493 0.0002728 0.5382 0.1276 0.7852 0.3745l7.053 7.05c0.247 0.2469 0.2893 0.4088 0.2893 0.758v16.07l0.9756 0.01226v-16.35c0-0.3888-0.04712-0.569-0.3221-0.844l-7.86-7.861c-0.28-0.275-0.49-0.417-0.88-0.417l-9.364-0.00736c-0.3805 0-0.7303 0.3389-0.7303 0.7474v24.74z"/>
  <path d="m19.61 7.567 4.896 4.918c0.3993 0.4011 1.063 0.3059 1.063-0.3268v-4.826c0-0.389-0.3522-0.7543-0.7393-0.7543h-4.896c-0.6293 0-0.6569 0.6547-0.3242 0.9891z"/>
  <path d="m15.68 16.16c-1.779 0.0675-3.678 0.4895-4.99 1.764-0.6027 0.6048-0.877 1.589-0.4201 2.356 0.6034 1.1 1.841 1.659 2.999 1.994 2.181 0.5969 4.596 0.4924 6.663-0.4481 0.909-0.4259 1.829-1.145 2.004-2.185 0.1379-1.034-0.665-1.919-1.505-2.396-1.416-0.8608-3.115-1.113-4.75-1.086zm6.249 4.802c-0.5958 1.178-1.88 1.784-3.091 2.147-2.252 0.6312-4.754 0.5272-6.89-0.4559-0.7842-0.3788-1.535-0.9268-1.908-1.736 0.03423 0.6831-0.07028 1.379 0.05447 2.055 0.2785 1.052 1.265 1.7 2.195 2.124 1.867 0.7758 3.999 0.8706 5.972 0.463 1.212-0.3006 2.485-0.787 3.264-1.811 0.4313-0.5388 0.4649-1.243 0.4221-1.905 0.0075-0.309 0.000582-0.6184 0.003-0.9275l-0.01993 0.04413-0.0012 0.0028zm-11.89 4.846c0.03183 1.041 0.8976 1.828 1.752 2.294 1.693 0.8789 3.679 1.081 5.562 0.8655 1.4-0.2022 2.861-0.6327 3.895-1.643 0.5526-0.5229 0.7875-1.303 0.6975-2.056 0.0084-0.3685 0.0031-0.7373 0.0046-1.106-0.5603 1.176-1.827 1.796-3.014 2.165-2.266 0.6614-4.792 0.5695-6.95-0.4087-0.7954-0.3814-1.573-0.9332-1.946-1.758v1.648z"/>
 </g>
</svg>
