<?xml version="1.0" encoding="UTF-8" standalone="no"?>
<svg xmlns="http://www.w3.org/2000/svg" height="32" width="32" version="1.0">
 <path style="fill:#333" d="m0 0v32h32v-32z"/>
 <g style="fill:#fff">
  <path d="m7.403 32.07v-23.62c0-0.3669 0.3142-0.6713 0.6559-0.6713l8.41 0.00659c0.3493 0.0002728 0.5382 0.1276 0.7852 0.3745l7.053 7.05c0.247 0.2469 0.2893 0.4088 0.2893 0.758v16.07l0.9756 0.01226v-16.35c0-0.3888-0.04712-0.569-0.3221-0.844l-7.86-7.861c-0.28-0.275-0.49-0.417-0.88-0.417l-9.364-0.00736c-0.3805 0-0.7303 0.3389-0.7303 0.7474v24.74z"/>
  <path d="m19.61 7.567 4.896 4.918c0.3993 0.4011 1.063 0.3059 1.063-0.3268v-4.826c0-0.389-0.3522-0.7543-0.7393-0.7543h-4.896c-0.6293 0-0.6569 0.6547-0.3242 0.9891z"/>
  <path d="m14.17 18.28c-0.8724 0.03092-1.438 0.07596-1.882 0.2465-0.4437 0.1705-0.7314 0.4892-0.9675 0.9393a0.2594 0.2594 0 0 0 -0.0012 0.0011l-0.7188 1.39a0.2594 0.2594 0 0 0 0.2096 0.3779l0.2454 0.01846a0.2594 0.2594 0 0 0 0.2476 -0.1336c0.2523-0.4629 0.4977-0.7882 0.7688-0.9925 0.2694-0.203 0.5673-0.3017 0.9881-0.303h0.0076l0.6233 0.01629c-0.3546 2.053-0.2846 3.642-1.795 6.29a0.2594 0.2594 0 0 0 -0.0152 0.03257c-0.1219 0.3069-0.1346 0.5975-0.04669 0.8383 0.08792 0.2408 0.2745 0.4185 0.4919 0.5071 0.4347 0.1772 0.9985 0.01234 1.304-0.4908a0.2594 0.2594 0 0 0 0.01195 -0.02281c0.6348-1.331 0.9689-3.858 1.175-7.151h2.115l-0.3453 5.406a0.2594 0.2594 0 0 0 0 0.01086c-0.01717 0.8015 0.1783 1.406 0.5353 1.799 0.357 0.3935 0.8688 0.5486 1.377 0.4843 1.016-0.1285 2.056-1.058 2.459-2.55a0.2594 0.2594 0 0 0 -0.25 -0.33h-0.2443a0.2594 0.2594 0 0 0 -0.2302 0.139c-0.3579 0.6795-0.7046 1.072-0.9784 1.245-0.2737 0.1738-0.4436 0.16-0.6211 0.05103s-0.3608-0.3648-0.4799-0.7319c-0.1191-0.3668-0.1754-0.836-0.1412-1.338 0.000025-0.000351-0.000026-0.000714 0-0.0011l0.303-4.173 2.424-0.03475a0.2594 0.2594 0 0 0 0.2563 -0.2595v-1.03a0.2594 0.2594 0 0 0 -0.27 -0.26h-6.556a0.2594 0.2594 0 0 0 -0.0098 0z"/>
 </g>
</svg>
