<?xml version="1.0" encoding="UTF-8" standalone="no"?>
<svg xmlns="http://www.w3.org/2000/svg" height="32" width="32" version="1.0">
 <path style="fill:#333" d="m0 0v32h32v-32z"/>
 <g style="fill:#fff">
  <path d="m7.403 32.07v-23.62c0-0.3669 0.3142-0.6713 0.6559-0.6713l8.41 0.00659c0.3493 0.0002728 0.5382 0.1276 0.7852 0.3745l7.053 7.05c0.247 0.2469 0.2893 0.4088 0.2893 0.758v16.07l0.9756 0.01226v-16.35c0-0.3888-0.04712-0.569-0.3221-0.844l-7.86-7.861c-0.28-0.275-0.49-0.417-0.88-0.417l-9.364-0.00736c-0.3805 0-0.7303 0.3389-0.7303 0.7474v24.74z"/>
  <path d="m19.61 7.567 4.896 4.918c0.3993 0.4011 1.063 0.3059 1.063-0.3268v-4.826c0-0.389-0.3522-0.7543-0.7393-0.7543h-4.896c-0.6293 0-0.6569 0.6547-0.3242 0.9891z"/>
  <path d="m15.98 17.68c-0.4663 0.1831-0.3962 0.8393-0.4372 1.262-0.0216 0.3348 0.1227 1.043 0.5976 0.7803 0.3511-0.3171 0.2449-0.8628 0.2345-1.286-0.04961-0.2618-0.05836-0.7049-0.3948-0.756zm0.7884 2.244c-1.075-0.02079-2.17 0.3434-2.931 1.121-0.9783 0.9185-1.36 2.514-0.6269 3.693 0.5419 0.8914 1.574 1.415 2.594 1.499 0.9021-0.0045 1.781-0.4254 2.44-1.026 0.6349-0.569 0.872-1.493 0.62-2.303-0.2444-1.019-1.254-1.779-2.304-1.7-0.908 0.02745-1.857 0.582-2.079 1.509-0.1903 0.6946 0.2938 1.473 0.9464 1.721 0.4548 0.2283 1.12-0.4105 0.4477-0.6337-0.5109-0.1489-0.8376-0.788-0.4083-1.209 0.4708-0.5955 1.434-0.8474 2.041-0.3074 0.5332 0.472 0.8739 1.368 0.4065 1.999-0.4298 0.5681-1.045 1.117-1.805 1.083-0.5561 0.01875-1.196 0.0376-1.597-0.4223-0.4218-0.3797-0.8663-0.8491-0.8104-1.465-0.08508-1.402 1.124-2.637 2.483-2.782 0.5266-0.0956 1.037 0.07966 1.548 0.1701 0.8503 0.1468 0.5313-0.8219-0.09171-0.8404-0.2832-0.08281-0.5803-0.1058-0.8741-0.1068zm-5.349 0.3862c-0.7438 0.07234-0.1051 0.8323 0.2948 0.9555 0.3307 0.2196 1.158 0.6123 1.201-0.04103-0.2714-0.417-0.7632-0.6359-1.201-0.8446-0.09338-0.03805-0.192-0.07022-0.2941-0.06988zm9.186 0c-0.5094 0.1078-0.9374 0.4571-1.336 0.7785-0.5044 0.2515-0.08334 0.9653 0.3636 0.5918 0.4673-0.276 1.03-0.5188 1.283-1.03 0.06556-0.1939-0.1239-0.3613-0.31-0.3408zm-7.161 5.312c-0.4952 0.1243-0.8565 0.5443-1.202 0.8982-0.464 0.2975-0.06935 1.035 0.3847 0.5863 0.4084-0.3367 0.8586-0.7114 1.024-1.231 0.02584-0.1256-0.07611-0.2561-0.2067-0.2533zm4.689 0.3751c-0.498 0.2495 0.08274 0.8896 0.2617 1.208 0.1551 0.4314 1.004 0.971 0.9451 0.1662-0.1475-0.4987-0.5247-0.9058-0.9057-1.246-0.08633-0.06554-0.1873-0.1343-0.3011-0.1283z"/>
</g>
</svg>
