<?xml version="1.0" encoding="UTF-8" standalone="no"?>
<svg xmlns:rdf="http://www.w3.org/1999/02/22-rdf-syntax-ns#" xmlns="http://www.w3.org/2000/svg" height="32" width="32" version="1.0" xmlns:cc="http://creativecommons.org/ns#" xmlns:dc="http://purl.org/dc/elements/1.1/">
 <path style="color:#000000;fill:#333" d="m0 0v32h32v-32z"/>
<g style="color-rendering:auto;color:#000000;isolation:auto;mix-blend-mode:normal;shape-rendering:auto;solid-color:#000000;image-rendering:auto;fill:#fff">
 <path d="m16.94 22.83-9.659-15.39 18.01 9.62z"/>
 <path d="m25.25 16.57-6.44-3.54 1.67-3.892 4.42-0.496z"/>
 <path d="m27.83 11.76-2.44-0.34-0.1-2.486z"/>
 <path d="m14.46 19.34s2.176 3.555 2.229 3.644c0.05306 0.08844-2.211 1.61-2.211 1.61l-1.397-3.75z"/>
 <path d="m14.25 19.15-3.361-5.395s-6.863-1.574-6.774-1.61c0.08844-0.03538 9.321 7.835 9.321 7.835z"/>
 <path d="m13.19 21.86 1.008 2.724-6.491-0.03538z"/>
</g>
</svg>
