<?xml version="1.0" encoding="UTF-8" standalone="no"?>
<svg id="svg2817" xmlns:rdf="http://www.w3.org/1999/02/22-rdf-syntax-ns#" xmlns="http://www.w3.org/2000/svg" height="32" width="32" version="1.0" xmlns:cc="http://creativecommons.org/ns#" xmlns:dc="http://purl.org/dc/elements/1.1/">
  <path fill="#333" d="m0.009628-0.038611v32.126h32.126v-32.126z"/>
 <g id="g21234" style="color-rendering:auto;color:#000000;isolation:auto;mix-blend-mode:normal;shape-rendering:auto;solid-color:#000000;image-rendering:auto" transform="matrix(.05 0 0 .05 19 19)" fill="#fff">
  <path id="path21236" d="m-339.71 285.64c0.5225-0.44216 4.1962-3.4048 8.1637-6.5838 10.952-8.7755 25.97-25.552 34.714-38.78 3.2627-4.936 3.9328-7.0026 5.1878-16 4.7134-33.79 16.326-76.445 28.692-105.39 7.1542-16.745 9.381-24.91 11.168-40.95 1.7696-15.881 3.3821-23.787 8.6336-42.327 2.2328-7.8828 3.9092-14.447 3.7253-14.587-0.18391-0.14033-7.3076-4.0236-15.83-8.6295-35.508-19.189-49.317-32.81-43.865-43.267 2.5354-4.8629 12.288-14.784 18.656-18.98 9.7702-6.4366 19.376-11.06 37.078-17.847 29.494-11.308 33.495-13.936 53.127-34.903 21.876-23.363 39.148-40.804 44.5-44.936 7.2077-5.5649 14.011-8.632 22-9.9184 3.85-0.61993 10.15-1.8585 14-2.7524 6.7891-1.5762 7.2721-1.8997 16.031-10.736 19.825-19.999 47.025-56.512 83.141-111.61 5.588-8.525 11.804-17.408 13.813-19.74 3.5091-4.0728 3.7587-4.1852 6.3338-2.8532 5.9019 3.0529 18.512 18.222 26.797 32.236 8.7641 14.824 11.19 28.419 9.2161 51.652-1.0352 12.186-0.99016 13.976 0.38648 15.353 2.1292 2.1292 5.4373 0.91861 7.2923-2.6685 0.90559-1.7512 1.489-5.6417 1.489-9.9291 0-8.1761 0.0918-8.2258 8.4041-4.5497 7.3256 3.2397 9.7128 3.152 16.267-0.59773 6.5092-3.7242 9.1965-3.383 14.072 1.7864 7.4234 7.8711 12.601 22.033 12.542 34.309-0.081 17.069-4.9572 28.453-18.222 42.543-16.734 17.776-27.808 42.003-35.178 76.959-3.6485 17.306-7.0818 30.131-10.472 39.12-3.8005 10.076-5.3606 19.695-6.4633 39.851-1.146 20.948 0.17289 51.777 2.6881 62.835 0.89237 3.9235 4.2284 13.897 7.4133 22.164 6.8012 17.653 9.5479 27.581 11.062 39.986 1.7359 14.224 0.41062 23.281-5.6403 38.544-3.8321 9.6664-6.8901 25.569-8.5402 44.412-1.272 14.526-0.62965 23.749 2.083 29.907 2.1593 4.902 4.9845 22.789 4.9845 31.559v6.1217h-195.2c-107.36 0-194.77-0.36177-194.25-0.80393z"/>
 </g>
</svg>
