<?xml version="1.0" encoding="UTF-8" standalone="no"?>
<svg xmlns="http://www.w3.org/2000/svg" height="32" width="32" version="1.0" xmlns:xlink="http://www.w3.org/1999/xlink">
 <defs>
  <clipPath id="a">
   <g transform="translate(0 -1004)">
    <rect rx="4" height="46" width="46" y="1005" x="1" fill="#1890d0"/>
   </g>
  </clipPath>
 </defs>
 <path style="color:#000000;fill:#777" d="m0 0v32h32v-32z"/>
 <path style="opacity:.1" d="m6.167 6.45c-0.539 0-1.031 0.355-1.031 0.75v18.56c0.051 0.367 0.527 0.691 1.031 0.688h21.94c0.539 0 1.031-0.355 1.031-0.75v-18.5c0-0.391-0.492-0.75-1.031-0.75m-18.97 2h18v16h-18m-1-10v4l-2-2m2-2"/>
 <g transform="translate(-7.98 -7.55)">
  <g clip-path="url(#a)">
   <path style="fill:#dedede" d="m13.03 13c-0.539 0-1.031 0.355-1.031 0.75v18.56c0.051 0.367 0.527 0.691 1.031 0.688h21.94c0.539 0 1.031-0.355 1.031-0.75v-18.5c0-0.391-0.492-0.75-1.031-0.75m-18.97 2h18v16h-18m-1-10v4l-2-2m2-2"/>
  </g>
 </g>
</svg>
