<?xml version="1.0" encoding="UTF-8" standalone="no"?>
<svg xmlns:rdf="http://www.w3.org/1999/02/22-rdf-syntax-ns#" xmlns="http://www.w3.org/2000/svg" height="32" width="32" version="1.0" xmlns:cc="http://creativecommons.org/ns#" xmlns:dc="http://purl.org/dc/elements/1.1/">
 <path style="color:#000000;fill:#333" d="m0.009628-0.03861v32.13h32.13v-32.13z"/>
<g style="color-rendering:auto;color:#000000;isolation:auto;mix-blend-mode:normal;shape-rendering:auto;solid-color:#000000;image-rendering:auto;fill:#fff">
 <path d="m11.57 6.228c-0.543 0-0.9801 0.5812-0.9801 1.303v16.94c0 0.722 0.4371 1.303 0.9801 1.303h8.677c0.543 0 0.9801-0.5812 0.9801-1.303v-16.94c0-0.722-0.4371-1.303-0.9801-1.303h-8.677zm-0.5139 1.416h9.704v16.13h-9.704v-16.13z"/>
 <path d="m23.82 13.76-0.67 0.68c0.8626 0.8626 0.8614 2.265-0.0018 3.129l0.6775 0.6775c1.238-1.238 1.236-3.246 0.000034-4.481zm1.478-1.476-0.7462 0.7462c1.638 1.638 1.637 4.299-0.0036 5.938l0.749 0.749c2.052-2.052 2.05-5.383 0.000103-7.433z"/>
 <path d="m17.55 14.89q0 0.7994-0.9136 1.285-0.3854 0.1927-0.4711 0.2998-0.1071 0.1213-0.1213 0.3783-0.01428 0.2569 0.0071 0.414h-0.5139v-0.3069q0-0.414 0.07851-0.6281 0.07851-0.2213 0.3854-0.3997 0.1642-0.07851 0.3283-0.1784 0.1642-0.1071 0.2926-0.207 0.1285-0.1071 0.207-0.2712 0.08565-0.1713 0.08565-0.3783 0-0.414-0.2926-0.6423-0.2855-0.2355-0.7137-0.2355-0.4639 0-0.7494 0.2926-0.2783 0.2855-0.3497 0.7565l-0.54-0.11q0.1071-0.6852 0.5424-1.063 0.4425-0.3783 1.135-0.3783 0.6638 0 1.128 0.3711 0.4711 0.364 0.4711 1.006zm-1.37 3.59h-0.728v-0.6994h0.728v0.6994z"/>
</g>
</svg>
