<?xml version="1.0" encoding="UTF-8" standalone="no"?>
<svg xmlns:rdf="http://www.w3.org/1999/02/22-rdf-syntax-ns#" xmlns="http://www.w3.org/2000/svg" height="32" width="32" version="1.0" xmlns:cc="http://creativecommons.org/ns#" xmlns:xlink="http://www.w3.org/1999/xlink" xmlns:dc="http://purl.org/dc/elements/1.1/">
 <path style="color:#000000;fill:#333" d="m0 0v32h32v-32z"/>
 <path style="color:#000000;fill:#fff" d="m22.08 17.01c-1.535 0-2.779-1.244-2.779-2.779s1.244-2.779 2.779-2.779 2.779 1.244 2.779 2.779-1.244 2.779-2.779 2.779zm-2.31 6.82c-1.535 0-2.779-1.244-2.779-2.779s1.244-2.779 2.779-2.779 2.779 1.244 2.779 2.779-1.244 2.779-2.779 2.779zm-6.55-14.14c0-1.535 1.244-2.779 2.779-2.779s2.779 1.244 2.779 2.779-1.244 2.779-2.779 2.779-2.779-1.244-2.779-2.779zm-1.026 14.15c-1.535 0-2.779-1.244-2.779-2.779s1.244-2.779 2.779-2.779 2.779 1.244 2.779 2.779-1.244 2.779-2.779 2.779zm-5.031-9.61c0-1.535 1.244-2.779 2.779-2.779s2.779 1.244 2.779 2.779-1.244 2.779-2.779 2.779-2.779-1.244-2.779-2.779zm8.841-9.344c-6.138 0-11.11 4.976-11.11 11.11-0.004 6.14 4.972 11.11 11.11 11.11 6.14 0 11.11-4.97 11.11-11.11 0-6.138-4.97-11.11-11.11-11.11"/>
 <path style="color:#000000;fill:#fff" d="m16 9.391c-0.8782 0-1.714 0.1754-2.48 0.4863 0.09938 1.29 1.165 2.309 2.48 2.309s2.381-1.019 2.48-2.309c-0.77-0.311-1.6-0.486-2.48-0.486zm-5.178 2.51c-0.891 1.13-1.429 2.55-1.429 4.1 0 0.2295 0.01038 0.4562 0.0332 0.6797 0.1658 0.03461 0.3376 0.05273 0.5137 0.05273 1.381 0 2.5-1.119 2.5-2.5 0-1.068-0.673-1.973-1.615-2.332zm10.36 0.0059c-0.9337 0.3632-1.6 1.265-1.6 2.326 0 1.381 1.121 2.5 2.502 2.5 0.1679 0 0.3316-0.01728 0.4902-0.04883 0.02311-0.2248 0.03516-0.4527 0.03516-0.6836 0-1.547-0.537-2.968-1.428-4.094zm-8.986 6.645c-0.7424 0-1.402 0.3296-1.859 0.8438 0.8736 1.454 2.289 2.541 3.969 2.986 0.243-0.3855 0.3906-0.8386 0.3906-1.328 0.000001-1.381-1.119-2.502-2.5-2.502zm7.578 0c-1.381 0-2.5 1.121-2.5 2.502 0 0.4927 0.1486 0.9489 0.3945 1.336 1.684-0.4387 3.103-1.521 3.982-2.973-0.4582-0.5262-1.124-0.8652-1.877-0.8652z"/>
</svg>
