<?xml version="1.0" encoding="UTF-8" standalone="no"?>
<svg xmlns:rdf="http://www.w3.org/1999/02/22-rdf-syntax-ns#" xmlns="http://www.w3.org/2000/svg" height="32" viewBox="0 0 32 32" width="32" version="1.1" xmlns:cc="http://creativecommons.org/ns#" xmlns:dc="http://purl.org/dc/elements/1.1/">

  <path style="color:#000000;fill:#333" d="m0 0v32h32v-32z"/>
  <path style="fill-rule:evenodd;fill:#fff;clip-rule:evenodd" d="m16.37 12.87c-4.507 0-7.272-0.04647-7.156-1.719 0.0697-1.069 1.347-1.022 1.347-1.022s0.04647-0.7899 1.092-0.395c0.4879-1.115 1.58-1.208 2.416-0.604 0.8131-0.7202 1.928-0.9061 3.183 0.8364 2.161-1.185 3.136 0.2323 3.671 0.9293 0.604-0.4647 2.021-0.5808 2.021 0.4647 0 1.324-2.068 1.51-6.575 1.51zm4.67-2.37c-0.55-0.646-0.92-1.111-1.81-1.227 1.115-0.697 2.625-0.7202 3.136 0.999-0.02323 0-0.999-0.1859-1.324 0.2323zm-1.76-1.599c-0.302 0.1859-0.4414 0.2323-0.4414 0.2323s-0.8131-2.114-2.811-1.742c0 0 0.5111-0.697 1.812-0.5808 1.255 0.2091 1.347 1.092 1.347 1.092s0.7899-1.185 1.928-0.604c1.301 0.5808 0.8596 1.696 0.8596 1.696s-1.092-0.9758-2.695-0.09293zm0-1.51c-0.12-0.441-1.07-0.813-1.07-0.813 0.86-0.604 2-0.511 2.49 0.372-0.89-0.07-1.05 0.185-1.42 0.441zm-3.65-0.116s-0.8364 0.1394-0.8596 0.3485c-0.6273-0.5111-1.487-0.5111-1.487-0.5111s0.1162-1.533 1.44-1.533 1.998 0.7899 1.975 1.045c-0.9293 0.2556-1.069 0.6505-1.069 0.6505zm2.161 0.9758c0.7202 0.7899 0.6505 0.9061 0.6505 0.9061s-0.5808 0.0697-1.045 0.3717c-0.84-1.069-2.09-1.743-3.3-0.814-1.23-0.581-2.05-0.186-2.56 0.628-0.62-0.21-0.95 0.255-0.95 0.255s0.2323-1.975 1.812-2.207c1.58-0.2323 2.323 0.604 2.323 0.604s1.557-1.138 3.067 0.2556zm-6.18 4.902s1.905 12.75 1.51 12.75-0.7667-0.4414-0.7667-0.4414l-3.177-13.07c0.999 0.8364 2.439 0.7667 2.439 0.7667zm2.881 0.2091s0.4182 10.8 0.4182 12.96c-0.5344 0.04647-1.162-0.2323-1.162-0.2323l-1.162-12.85 1.905 0.1162zm2.463-0.09293s-0.2556 12.01-0.2556 13.15c-0.4647 0.1162-1.045 0-1.045 0s-0.6505-13.15-0.395-13.15c0.2556 0.02323 1.696 0 1.696 0zm2.858-0.1162s-1.208 12.66-1.255 12.85c-0.04646 0.1859-1.138 0.302-1.138 0.302l0.3485-13.06 2.044-0.09293zm3.16-0.697c-0.3485 1.417-2.834 12.52-2.951 12.85-0.1162 0.3253-0.8596 0.5111-0.8596 0.5111s1.557-12.08 1.58-12.64c0.3485-0.02323 1.65-0.09293 2.23-0.7202z"/>
</svg>
