<?xml version="1.0" encoding="UTF-8" standalone="no"?>
<svg xmlns="http://www.w3.org/2000/svg" height="32" width="32" version="1.0">
 <path style="color:#000000;fill:#333" d="m0 0v32h32v-32z"/>
 <path style="fill:#fff;clip-rule:evenodd;fill-rule:evenodd" d="m15.88 4.848c-0.09-0.001-0.17 0.082-0.24 0.297-0.17 0.542-0.41 0.883-0.58 1.191s-1.63 3.065-1.74 3.373c-0.22 0.311-1.81 4.141-1.88 4.621s-0.51 1.63-0.82 2.05c-0.31 0.41-0.783 0.61-1.058 0.78-0.697 0.76-2.311 1.23-2.697 1.78-0.347 0.89 0.863 1.51 0.856 2.18-0.047 0.16-0.261 0.35-0.141 0.47l0.275 0.29 0.034 1.05-0.483 0.02-0.535 0.3c0 0.13-0.093 0.27-0.019 0.41 0.093 0.17 0.535 0.44 0.937 0.53 0.234 0.05 0.502 0.04 0.897 0.01 0 0 0.014 0.11 0.041 0.27 0.026 0.2 0.067 0.48 0.107 0.7 0.067 0.39 0.187 0.72 0.32 1.04 0.134 0.33 0.476 0.58 0.717 0.65 0.239 0.06 0.699 0.06 0.969-0.1 0.27-0.18 1.64-0.99 2.04-1.13 0.39-0.15 1.26-0.58 2.42-0.61 1.17-0.04 2.22-0.07 3.21 0.61s1.64 1.41 2.22 1.5c0.57 0.09 1.15-0.15 1.39-0.37 0.22-0.22 0.39-0.67 0.55-1.3 0.09-0.45 0.02-1.07 0.39-0.93 0.17 0.06 0.41 0.05 0.64 0 0.43-0.08 1.08-0.51 1.23-0.65 0.15-0.12 0.34-0.4 0.24-0.54-0.11-0.14-0.73-0.19-0.73-0.19 0.01-0.54-0.12-0.77-0.47-1.17l0.11-1.06 0.95-1.13s0.14-0.55-0.17-0.89-2.49-2.15-2.49-2.15 0-0.2-0.31-0.45c-0.31-0.23-0.81-0.6-0.92-0.78-0.12-0.17-0.62-1.57-0.62-1.81s-2.02-4.792-2.29-5.134c-0.28-0.341-1.84-3.244-2.07-3.525-0.1-0.117-0.2-0.203-0.28-0.203zm0.13 7.962c1.41 0.01 2.77 0.94 2.8 2.1 0.02 1.16-1.47 2.22-2.81 2.22s-2.75-0.87-2.73-2.35 1.33-1.97 2.74-1.97zm0 0.28c-1.23 0-2.37 0.43-2.39 1.71-0.01 1.29 1.22 2.06 2.39 2.06 1.16 0 2.46-0.93 2.44-1.94s-1.21-1.82-2.44-1.83zm-1.12 0.35c0.17-0.01 0.31 0.04 0.38 0.15 0.15 0.23-0.04 0.61-0.42 0.85-0.37 0.25-0.79 0.26-0.94 0.04-0.14-0.22 0.04-0.61 0.43-0.85 0.18-0.12 0.38-0.18 0.55-0.19zm-2.05 1.27c-0.05 0.51 0.19 1.34 0.59 1.76 0.4 0.43 1.19 1.07 2.62 1.08 1.42 0.01 2.3-0.76 2.74-1.3 0.44-0.53 0.48-1.53 0.49-1.53l0.91 0.01s0.63 1.35 0.9 2.53c0.27 1.19 1.07 4.55 1.13 5.76s-0.06 2.58-0.26 2.99c-0.67 1.37-2.2-0.21-2.71-0.53-0.6-0.38-1.92-1.01-3.02-1.07s-1.98 0.14-2.6 0.34c-0.61 0.2-1.83 0.87-2.29 1.1-0.47 0.23-0.94 0.62-1.34 0.53-0.391-0.09-0.465-0.66-0.559-1.26-0.1-0.6 0.121-2.4 0.295-3.3 0.174-0.89 0.804-2.96 0.994-3.63 0.21-0.66 1.18-3.41 1.18-3.41 0.15-0.01 0.93-0.08 0.93-0.07zm9.39 2.59c0.25 0.05 2.2 1.39 2.13 2.1s-0.69 1.12-0.69 1.12-0.41-0.08-0.52 0.1c-0.1 0.17-0.06 0.45-0.17 0.49s-0.4-0.04-0.4-0.04-0.64-1.71-0.66-2.25c-0.02-0.55 0.08-1.27 0.31-1.52zm-12.7 0.39c0.08-0.01 0.186 0 0.289 0.1 0.204 0.2 0.175 0.42 0.135 0.69s-0.65 2.49-0.65 2.49h-0.18l-0.402-0.38-0.414 0.09-0.825-1.12s-0.234-0.34 0.014-0.48c0.255-0.15 1.901-1.34 1.901-1.34s0.053-0.04 0.132-0.05z"/>
</svg>
