<?xml version="1.0" encoding="UTF-8" standalone="no"?>
<svg xmlns:rdf="http://www.w3.org/1999/02/22-rdf-syntax-ns#" xmlns="http://www.w3.org/2000/svg" height="32" width="32" version="1.0" xmlns:cc="http://creativecommons.org/ns#" xmlns:dc="http://purl.org/dc/elements/1.1/">
 <path d="m0 0v32h32v-32z" fill="#333"/>
 <path style="fill:#fff" d="m13.98 6.443c-0.64 1.323-1.26 2.683-1.86 4.077-0.5817 1.379-1.187 2.836-1.806 4.38-0.1366 0.3517-0.268 0.7338-0.4065 1.096h4.041c0.04343-0.1206 0.09648-0.2558 0.1395-0.3746 0.2908-0.7539 0.5449-1.439 0.7812-2.065 0.2363-0.6252 0.44-1.176 0.6218-1.654 0.1818-0.4781 0.3196-0.86 0.4105-1.136 0.1091 0.2759 0.2527 0.6577 0.4344 1.136 0.1818 0.4781 0.4014 1.029 0.6377 1.654 0.2545 0.6251 0.5125 1.311 0.7851 2.065 0.04301 0.1188 0.09208 0.254 0.1355 0.3746h4.193c-0.14-0.36-0.28-0.74-0.42-1.1-0.6-1.54-1.2-3-1.8-4.38-0.6-1.393-1.21-2.753-1.83-4.077h-4.053zm-5.545 10.36c-1.103 0-1.993 0.8858-1.993 1.989s0.8898 1.993 1.993 1.993h15.13c1.103 0 1.993-0.8898 1.993-1.993s-0.8898-1.989-1.993-1.989h-15.13zm0 0.7972h9.557c0.6618 0 1.192 0.5299 1.192 1.192 0 0.6618-0.5299 1.196-1.192 1.196h-9.557c-0.6618 0-1.196-0.5339-1.196-1.196 0-0.6618 0.5339-1.192 1.196-1.192zm-0.5739 3.918c-0.4579 1.281-0.9258 2.613-1.419 4.045h4.416c0.2-0.662 0.4253-1.346 0.6616-2.045 0.2364-0.649 0.4648-1.288 0.6855-1.937h-3.77c-0.1972 0-0.3885-0.0251-0.5739-0.06377zm16.27 0c-0.1818 0.03709-0.3689 0.06377-0.562 0.06377h-3.906c0.2194 0.6489 0.4382 1.288 0.6576 1.937 0.2545 0.6987 0.4856 1.383 0.6855 2.045h4.556c-0.4931-1.432-0.961-2.764-1.419-4.045-0.0043 0.000763-0.008-0.000763-0.01195 0z"/>
</svg>
