<?xml version="1.0" encoding="UTF-8" standalone="no"?>
<svg xmlns="http://www.w3.org/2000/svg" height="32" width="32" version="1.0" xmlns:xlink="http://www.w3.org/1999/xlink">
 <path style="color:#000000;fill:#dd524b" d="m0 0v32h32v-32z"/>
 <path style="opacity:.1;fill-rule:evenodd;clip-rule:evenodd;stroke-width:.1269" d="m16.59 5.559c-0.08787-0.0008248-0.1674 0.08259-0.2344 0.2969-0.1741 0.5423-0.4079 0.8834-0.582 1.191-0.1674 0.308-1.633 3.065-1.74 3.373-0.225 0.308-1.81 4.139-1.877 4.621-0.07373 0.4754-0.5143 1.634-0.8223 2.049-0.308 0.4084-0.7842 0.6091-1.059 0.7832-0.6972 0.7625-2.312 1.23-2.697 1.773-0.3473 0.8988 0.8624 1.511 0.8555 2.184-0.04681 0.1607-0.2611 0.355-0.1406 0.4688l0.2754 0.2871 0.0332 1.059-0.4824 0.01367-0.5352 0.3008c0 0.134-0.09314 0.2734-0.01953 0.4141 0.09378 0.1674 0.5358 0.4421 0.9375 0.5293 0.2344 0.04683 0.5015 0.03462 0.8965 0.0078 0 0 0.0141 0.1069 0.04102 0.2676 0.02676 0.2008 0.06719 0.4822 0.1074 0.7031 0.06701 0.3951 0.1866 0.7158 0.3203 1.037 0.134 0.3281 0.4757 0.5835 0.7168 0.6504 0.241 0.06701 0.6962 0.06583 0.9707-0.1016 0.2678-0.1741 1.633-0.9844 2.035-1.125 0.3951-0.1472 1.259-0.5817 2.424-0.6152s2.216-0.06779 3.207 0.6152c0.9909 0.6829 1.647 1.406 2.223 1.5 0.5691 0.09379 1.152-0.1462 1.387-0.3672 0.2275-0.2209 0.3882-0.6761 0.5488-1.299 0.09366-0.4552 0.01964-1.078 0.3945-0.9375 0.1673 0.06028 0.4092 0.05268 0.6367 0.0059 0.4286-0.08706 1.078-0.5147 1.232-0.6484 0.1539-0.1273 0.3406-0.4025 0.2402-0.543-0.1072-0.1406-0.7305-0.1875-0.7305-0.1875 0.01333-0.549-0.1205-0.7761-0.4688-1.178l0.1074-1.059 0.9512-1.125s0.14-0.5491-0.168-0.8906c-0.308-0.3414-2.49-2.148-2.49-2.148s-0.000589-0.2082-0.3086-0.4492c-0.3081-0.2343-0.81-0.6091-0.9238-0.7832-0.1137-0.1741-0.6152-1.574-0.6152-1.809 0-0.241-2.022-4.795-2.297-5.137-0.28-0.334-1.84-3.237-2.07-3.518-0.1-0.117-0.19-0.202-0.28-0.203zm6.354 12.46c0.2545 0.04683 2.203 1.386 2.129 2.096-0.06688 0.7164-0.6895 1.125-0.6895 1.125s-0.4144-0.08037-0.5215 0.09375c-0.1004 0.1741-0.06098 0.4481-0.168 0.4883-0.1138 0.0401-0.4023-0.0332-0.4023-0.0332s-0.6353-1.714-0.6621-2.256c-0.01991-0.5424 0.08691-1.266 0.3145-1.514zm-12.7 0.38c0.07949-0.0134 0.1853-0.000838 0.2891 0.09961 0.2076 0.2009 0.175 0.4148 0.1348 0.6895-0.0401 0.2745-0.6504 2.49-0.6504 2.49h-0.178l-0.4023-0.3809-0.4141 0.09375-0.8242-1.119s-0.2341-0.3477 0.01367-0.4883c0.2545-0.1473 1.9-1.332 1.9-1.332s0.05332-0.03933 0.1328-0.05273z"/>
 <path style="stroke-width:.1269;clip-rule:evenodd;fill-rule:evenodd" d="m15.88 4.848c-0.09-0.001-0.17 0.082-0.24 0.297-0.17 0.542-0.41 0.883-0.58 1.191s-1.63 3.065-1.74 3.373c-0.22 0.311-1.81 4.141-1.88 4.621s-0.51 1.63-0.82 2.05c-0.31 0.41-0.783 0.61-1.058 0.78-0.697 0.76-2.311 1.23-2.697 1.78-0.347 0.89 0.863 1.51 0.856 2.18-0.047 0.16-0.261 0.35-0.141 0.47l0.275 0.29 0.034 1.05-0.483 0.02-0.535 0.3c0 0.13-0.093 0.27-0.019 0.41 0.093 0.17 0.535 0.44 0.937 0.53 0.234 0.05 0.502 0.04 0.897 0.01 0 0 0.014 0.11 0.041 0.27 0.026 0.2 0.067 0.48 0.107 0.7 0.067 0.39 0.187 0.72 0.32 1.04 0.134 0.33 0.476 0.58 0.717 0.65 0.239 0.06 0.699 0.06 0.969-0.1 0.27-0.18 1.64-0.99 2.04-1.13 0.39-0.15 1.26-0.58 2.42-0.61 1.17-0.04 2.22-0.07 3.21 0.61s1.64 1.41 2.22 1.5c0.57 0.09 1.15-0.15 1.39-0.37 0.22-0.22 0.39-0.67 0.55-1.3 0.09-0.45 0.02-1.07 0.39-0.93 0.17 0.06 0.41 0.05 0.64 0 0.43-0.08 1.08-0.51 1.23-0.65 0.15-0.12 0.34-0.4 0.24-0.54-0.11-0.14-0.73-0.19-0.73-0.19 0.01-0.54-0.12-0.77-0.47-1.17l0.11-1.06 0.95-1.13s0.14-0.55-0.17-0.89-2.49-2.15-2.49-2.15 0-0.2-0.31-0.45c-0.31-0.23-0.81-0.6-0.92-0.78-0.12-0.17-0.62-1.57-0.62-1.81s-2.02-4.792-2.29-5.134c-0.28-0.341-1.84-3.244-2.07-3.525-0.1-0.117-0.2-0.203-0.28-0.203zm6.35 12.45c0.25 0.05 2.2 1.39 2.13 2.1s-0.69 1.12-0.69 1.12-0.41-0.08-0.52 0.1c-0.1 0.17-0.06 0.45-0.17 0.49s-0.4-0.04-0.4-0.04-0.64-1.71-0.66-2.25c-0.02-0.55 0.08-1.27 0.31-1.52zm-12.7 0.39c0.08-0.01 0.186 0 0.289 0.1 0.204 0.2 0.175 0.42 0.135 0.69s-0.65 2.49-0.65 2.49h-0.18l-0.402-0.38-0.414 0.09-0.825-1.12s-0.234-0.34 0.014-0.48c0.255-0.15 1.901-1.34 1.901-1.34s0.053-0.04 0.132-0.05z"/>
 <path style="fill:#9b5e56;stroke-width:.1269;clip-rule:evenodd;fill-rule:evenodd" d="m18.81 14.91c0.02005 1.158-1.466 2.223-2.805 2.223s-2.758-0.8771-2.738-2.357c0.02005-1.48 1.332-1.968 2.745-1.968 1.406 0.0067 2.772 0.9373 2.799 2.102z"/>
 <path style="fill:#fff;stroke-width:.1269;clip-rule:evenodd;fill-rule:evenodd" d="m11.91 14.78s-0.9774 2.752-1.178 3.415c-0.1942 0.6696-0.8235 2.732-0.9976 3.629-0.1741 0.8972-0.3951 2.698-0.2947 3.294 0.09379 0.6026 0.1674 1.178 0.5625 1.266 0.3951 0.09366 0.8637-0.3013 1.332-0.529 0.4621-0.2344 1.681-0.904 2.297-1.098 0.616-0.2009 1.5-0.4085 2.598-0.3481 1.098 0.06688 2.424 0.6962 3.02 1.071 0.5089 0.3213 2.042 1.901 2.705 0.5356 0.2009-0.4151 0.3213-1.781 0.2612-2.993-0.05356-1.212-0.857-4.573-1.132-5.758-0.2678-1.185-0.8971-2.531-0.8971-2.531l-0.9107-0.01332c-0.0067 0-0.04681 1.004-0.482 1.533-0.4419 0.5356-1.326 1.312-2.745 1.299-1.426-0.01332-2.223-0.6561-2.618-1.085-0.4018-0.4217-0.6428-1.245-0.5958-1.761-0.000127-0.0069-0.7768 0.06015-0.924 0.07348z"/>
 <path style="fill:#ab8793;stroke-width:.1269;clip-rule:evenodd;fill-rule:evenodd" d="m14.91 14.52c0.4553-0.2946 0.6897-0.7499 0.5089-1.024-0.1741-0.2678-0.6829-0.2477-1.145 0.04696-0.4552 0.2946-0.6896 0.7565-0.5156 1.024 0.174 0.2745 0.6896 0.2545 1.152-0.04696z"/>
 <path style="fill:#fff;stroke-width:.1269;clip-rule:evenodd;fill-rule:evenodd" d="m14.85 14.44c0.375-0.241 0.5691-0.616 0.4218-0.8436-0.1406-0.2209-0.5625-0.2009-0.9373 0.0401-0.3816 0.241-0.5691 0.6227-0.4284 0.8436 0.1472 0.2209 0.5691 0.2076 0.9439-0.0401z"/>
 <path style="fill:#825e4e;stroke-width:.1269;clip-rule:evenodd;fill-rule:evenodd" d="m15.37 16.32c0.2277 0.9306 1.64 0.4418 2.223 0.08706 0.5825-0.3616 0.6962-1.239 0.5021-1.547-0.4418-0.7031-1.152 0.1607-1.553 0.4151-0.4019 0.261-1.339 0.3749-1.172 1.044z"/>
 <path style="opacity:.1;fill-rule:evenodd;clip-rule:evenodd;stroke-width:.1269;fill:#050505" d="m19.75 14.74-0.4754-0.0067c-0.0067 0-0.04681 1.004-0.482 1.533-0.4419 0.5288-1.326 1.306-2.745 1.299-0.6495-0.0067-1.165-0.1472-1.573-0.3281 0.5825 0.3749 1.299 0.5758 2.002 0.5758 1.594 0 3.361-1.265 3.334-2.645-0.0066-0.1473-0.02667-0.2878-0.06015-0.4284z"/>
</svg>
