<?xml version="1.0" encoding="UTF-8" standalone="no"?>
<svg xmlns:rdf="http://www.w3.org/1999/02/22-rdf-syntax-ns#" xmlns="http://www.w3.org/2000/svg" height="32" viewBox="0 0 32 32.000001" width="32" version="1.1" xmlns:cc="http://creativecommons.org/ns#" xmlns:xlink="http://www.w3.org/1999/xlink" xmlns:dc="http://purl.org/dc/elements/1.1/">
 <path d="m0 0v32h32v-32z" fill="#333"/>
 <g transform="matrix(.04670 0 0 .05 4.6 3.6)">
  <path style="enable-background:new;fill:#fff" d="m234.1 130.9c-33.25 0-60.09 26.84-60.09 60.09 0 12.59 3.788 24.28 10.37 33.92 17.76-19.28 43.27-31.31 71.49-31.31 13.23 0 25.88 2.665 37.38 7.476 0.5546-3.284 0.9345-6.649 0.9345-10.09 0-33.25-26.84-60.09-60.09-60.09zm-81.59 28.97c-16.69 0-30.19 13.41-30.19 30.09 0 4.574 0.9874 8.931 2.804 12.8 10.69-5.589 22.82-8.785 35.7-8.785 0.4339 0 0.8761-0.004 1.308 0-0.0407-0.9955-0.0932-1.985-0.0932-2.991 0-9.574 1.918-18.74 5.327-27.1-4.4-2.512-9.406-4.019-14.86-4.019zm153 22.43c0.3434 2.848 0.5607 5.751 0.5607 8.691 0 5.331-0.5788 10.6-1.682 15.61 14.7 8.522 26.99 20.8 35.51 35.51 8.045-3.909 16.86-6.473 26.17-7.383-3.751-29.61-28.88-52.43-59.53-52.43-0.346 0-0.6834-0.004-1.028 0zm-49.62 23.27c-47.05 0-85.14 37.99-85.14 85.04s38.08 85.14 85.14 85.14c47.05 0 85.04-38.09 85.04-85.14 0-47.06-37.99-85.04-85.04-85.04zm-95.04 0.3739c-36.21 0-65.42 29.21-65.42 65.42s29.21 65.42 65.42 65.42c3.168 0 6.299-0.2211 9.345-0.6542-7.24-13.58-11.4-29.08-11.4-45.51 0-20.88 6.671-40.23 17.94-56.07-6.301-8.276-10.75-17.99-12.99-28.5-0.964-0.0419-1.923-0.0934-2.897-0.0934zm212.8 40.37c-10.18 0-19.83 2.323-28.41 6.448 4.94 11.63 7.663 24.44 7.663 37.85 0 25.73-10.06 49.14-26.45 66.54 11.89 12.33 28.66 20 47.19 20 36.21 0 65.42-29.21 65.42-65.42s-29.21-65.42-65.42-65.42zm-288.4 8.972c-32.73 0.5986-58.97 27.12-58.97 60 0 33.25 26.84 60.09 60.09 60.09 11.84 0 22.86-3.461 32.15-9.346-3.638-6.389-5.794-13.74-5.794-21.59 0-3.919 0.614-7.69 1.589-11.31-0.0164-0.0143 0.0164-0.0817 0-0.0934-18.69-14.14-30.84-36.49-30.84-61.68 0-5.526 0.6701-10.87 1.776-16.07zm368.7 53.74c-1.008 0-2.007 0.0964-2.991 0.1871 0.0263 0.8419 0.0932 1.675 0.0932 2.523 0 19.79-7.459 37.8-19.72 51.49 5.757 5.791 13.75 9.346 22.62 9.346 17.63 0 31.77-14.05 31.77-31.68s-14.14-31.87-31.77-31.87zm-328.9 30.93c-0.2041 1.465-0.3738 2.962-0.3738 4.486 0 17.63 14.14 31.87 31.77 31.87 13.02 0 24.22-7.738 29.16-18.88-3.098-3.259-5.97-6.713-8.598-10.37-5.211 1.112-10.63 1.682-16.17 1.682-12.91 0-25.08-3.171-35.79-8.785z"/>
 </g>
</svg>
