<?xml version="1.0" encoding="UTF-8" standalone="no"?>
<svg xmlns:rdf="http://www.w3.org/1999/02/22-rdf-syntax-ns#" xmlns="http://www.w3.org/2000/svg" height="32" width="32" version="1.0" xmlns:cc="http://creativecommons.org/ns#" xmlns:dc="http://purl.org/dc/elements/1.1/">
 <path style="fill:#333" d="m0 0v32h32v-32z"/>
<g style="color-rendering:auto;color:#000000;isolation:auto;mix-blend-mode:normal;shape-rendering:auto;solid-color:#000000;image-rendering:auto;fill:#fff">
 <path  d="m24.21 6.712c-0.1073-0.01656-0.2306 0.1069-0.3274 0.3987-0.1711 0.5129-1.246 3.697-6.766 4.594a2.626 2.626 0 0 1 1.222 2.216 2.626 2.626 0 0 1 -5.174 0.5943 2.237 2.237 0 0 1 -3.441 0.9221c0.3524 0.9298 0.4763 2.305-0.3729 3.185-0.2252 0.2334-0.4715 0.3904-0.7254 0.4944 3.111 2.162 8.499 3.937 12.17 1.624-0.02483-0.01275-1.083-0.5559-1.525-0.8877-0.4477-0.3357-1.119-0.7416-1.119-0.7416s0.0051-0.0225 0.0054-0.02472c-1.273 0.5281-3.321 0.2754-5.909-0.6384 3.708 0.7416 5.595 0.05378 6.701-0.7996-0.2918-0.3769-0.7899-0.7899-0.7899-0.7899s1.295 0.3593 1.751 0.9479c0.2081 0.2686 0.2579 0.4902 0.2429 0.7233 0.7389 0.274 1.631 0.6082 1.957 0.7491 0.07935 0.03431 0.1635 0.05727 0.2483 0.0763 1.8-2.17 2.77-5.98 2.09-12.2-0.04-0.265-0.13-0.421-0.24-0.438zm-14.91 2.053-0.087 3.715a2.237 2.237 0 0 1 4.032 0.5761 2.626 2.626 0 0 1 0.7792 -1.137c-3.3-0.23-4.724-3.156-4.724-3.156z"/>
 <path  d="m5.962 12.86a3.356 2.383 54.19 0 0 -0.952 4.45 3.356 2.383 54.19 1 0 3.866 -2.79 3.356 2.383 54.19 0 0 -2.914 -1.66z"/>
 <path  d="m11.62 12.65a1.35 1.35 0 0 0 -0.5943 0.1397 0.7458 0.7458 0 0 1 0.9189 0.7243 0.7459 0.7459 0 1 1 -1.492 0 0.7458 0.7458 0 0 1 0.05481 -0.2794 1.35 1.35 0 0 0 -0.2386 0.7663 1.35 1.35 0 0 0 1.351 1.35 1.35 1.35 0 0 0 1.35 -1.35 1.35 1.35 0 0 0 -1.35 -1.351z"/>
 <path  d="m16.34 12.72a1.583 1.583 0 0 0 -0.6717 0.1515 0.8754 0.8754 0 0 1 1.053 0.8576 0.8754 0.8754 0 1 1 -1.751 0 0.8754 0.8754 0 0 1 0.05696 -0.3106 1.583 1.583 0 0 0 -0.2697 0.8834 1.583 1.583 0 0 0 1.582 1.583 1.583 1.583 0 0 0 1.583 -1.583 1.583 1.583 0 0 0 -1.583 -1.582z"/>
 <path  d="m18.46 18.28c-0.2898 0.05061-0.319 0.4235-0.0043 0.6889 0 0 2.728 1.946 4.952 2.689 0.000257 0.05087 0.0041 0.1007 0.0172 0.1451l0.1913-0.07308c0.02667 0.0081 0.05519 0.02132 0.08168 0.02901l0.07953 0.07738 1.754 0.6394c-0.06549 0.6097 0.2599 1.306 1.022 1.598 1.384 0.5294 2.671 1.193 2.671 1.193-0.66-2.24-0.8942-4.02-2.619-3.861-0.3139 0.02881-0.558 0.1556-0.7372 0.3364l-1.565-1.002-0.1064-0.0086c-0.02352-0.01703-0.05232-0.03252-0.0763-0.04943l-0.05911-0.1891c-0.02992 0.01874-0.06374 0.06134-0.09565 0.0892-1.937-1.298-5.132-2.229-5.132-2.229-0.1515-0.07056-0.2774-0.08995-0.374-0.07308z"/>
</g>
</svg>
