<?xml version="1.0" encoding="UTF-8" standalone="no"?>
<svg xmlns:rdf="http://www.w3.org/1999/02/22-rdf-syntax-ns#" xmlns="http://www.w3.org/2000/svg" xmlns:osb="http://www.openswatchbook.org/uri/2009/osb" height="32" width="32" version="1.0" xmlns:cc="http://creativecommons.org/ns#" xmlns:xlink="http://www.w3.org/1999/xlink" xmlns:dc="http://purl.org/dc/elements/1.1/">
 <path d="m0 0v32h32v-32z" style="color:#000000;fill:#333"/>
<g style="color-rendering:auto;color:#000000;shape-rendering:auto;solid-color:#000000;text-decoration-line:none;fill:#fff;mix-blend-mode:normal;text-indent:0pt;image-rendering:auto;isolation:auto;text-transform:none">
 <path d="m7.403 32.07v-23.62c0-0.3669 0.3142-0.6713 0.6559-0.6713l8.41 0.00659c0.3493 0.0002728 0.5382 0.1276 0.7852 0.3745l7.053 7.05c0.247 0.2469 0.2893 0.4088 0.2893 0.758v16.07l0.9756 0.01226v-16.35c0-0.3888-0.04712-0.569-0.3221-0.844l-7.86-7.861c-0.28-0.275-0.49-0.417-0.88-0.417l-9.364-0.00736c-0.3805 0-0.7303 0.3389-0.7303 0.7474v24.74z"/>
 <path d="m19.61 7.567 4.896 4.918c0.3993 0.4011 1.063 0.3059 1.063-0.3268v-4.826c0-0.389-0.3522-0.7543-0.7393-0.7543h-4.896c-0.6293 0-0.6569 0.6547-0.3242 0.9891z"/>
</g>
</svg>
