<?xml version="1.0" encoding="UTF-8" standalone="no"?>
<svg xmlns:rdf="http://www.w3.org/1999/02/22-rdf-syntax-ns#" xmlns="http://www.w3.org/2000/svg" height="32" width="32" version="1.0" xmlns:cc="http://creativecommons.org/ns#" xmlns:dc="http://purl.org/dc/elements/1.1/">
<path d="m0.009628-0.038611v32.126h32.126v-32.126z" fill="#333"/>
<g style="fill:#fff" >
 <path d="m21.83 24.08h-11.64v-16.33h11.64v4.047l1.24-1.24v-3.427c0-0.3424-0.2775-0.6201-0.6201-0.6201h-12.88c-0.3426 0-0.6203 0.2777-0.6203 0.6202v17.57c0 0.3425 0.2777 0.6202 0.6203 0.6202h12.88c0.3425 0 0.6202-0.2777 0.6202-0.6202v-6.825l-1.24 1.24v4.964z"/>
 <path d="m20 9.236h-7.978c-0.2616 0-0.4739 0.2123-0.4739 0.474 0 0.2616 0.2123 0.4739 0.4739 0.4739h7.978c0.2617 0 0.4739-0.2123 0.4739-0.4739 0.000038-0.2617-0.2122-0.474-0.4739-0.474z"/>
 <path d="m20.48 12.24c0-0.2616-0.2123-0.474-0.4739-0.474h-7.978c-0.2616 0-0.4739 0.2123-0.4739 0.474s0.2123 0.474 0.4739 0.474h7.978c0.2617 0 0.474-0.2122 0.474-0.474z"/>
 <path d="m19.34 14.29h-7.311c-0.2616 0-0.4739 0.2123-0.4739 0.474s0.2123 0.4739 0.4739 0.4739h6.364l0.9479-0.9479z"/>
 <path d="m16.69 17.43c0.06415-0.2148 0.1558-0.4206 0.2675-0.6143h-4.928c-0.2616 0-0.4739 0.2123-0.4739 0.474 0 0.2616 0.2123 0.474 0.4739 0.474h4.561l0.09936-0.3336z"/>
 <path d="m12.03 19.35c-0.2616 0-0.4739 0.2123-0.4739 0.474 0 0.2616 0.2123 0.4739 0.4739 0.4739h4.163c-0.1228-0.298-0.1546-0.6273-0.06785-0.9479h-4.095z"/>
 <path d="m26.05 11.24c-0.2197-0.2198-0.5177-0.3432-0.828-0.3432-0.3104 0-0.6083 0.1234-0.8277 0.3429l-6.204 6.204c-0.1693 0.1692-0.2935 0.3776-0.362 0.6069l-0.4944 1.657c-0.02104 0.07015-0.0019 0.1461 0.04996 0.1979 0.03795 0.03799 0.08876 0.05842 0.1408 0.05842 0.01888 0 0.03822-0.0027 0.0571-0.0085l1.657-0.4945c0.2294-0.06853 0.4377-0.1928 0.6069-0.362l6.204-6.204c0.2195-0.2195 0.3429-0.5174 0.3429-0.8278 0-0.3105-0.1234-0.6083-0.3429-0.8278z"/>
</g>
</svg>
