<?xml version="1.0" encoding="UTF-8" standalone="no"?>
<svg xmlns:rdf="http://www.w3.org/1999/02/22-rdf-syntax-ns#" xmlns="http://www.w3.org/2000/svg" xmlns:osb="http://www.openswatchbook.org/uri/2009/osb" height="32" width="32" version="1.0" xmlns:cc="http://creativecommons.org/ns#" xmlns:xlink="http://www.w3.org/1999/xlink" xmlns:dc="http://purl.org/dc/elements/1.1/">
 <path d="m0 0v32h32v-32z" style="color:#000000;fill:#333"/>
 <path d="m15.82 4.96c-3.057 0-5.821 1.254-7.807 3.276 0.09238 0.1123 0.2036 0.2205 0.3367 0.3217 0.02067-0.021 0.04089-0.04235 0.06175-0.06321 0.9623-0.9623 2.083-1.718 3.33-2.245 1.291-0.5462 2.663-0.8232 4.078-0.8232 1.335 0 2.632 0.2471 3.86 0.7342 0.7169 0.1239 1.673 0.3624 2.469 0.8149-1.78-1.27-3.97-2.016-6.33-2.016zm-3.515 9.913c-0.06375-0.04349-0.1291-0.08392-0.1038-0.3062 0.2827-0.09652 0.458 0.01778 0.6186 0.1478 0.08028 0.06514 0.157 0.1342 0.2302 0.2074 0.03665 0.03655 0.0723 0.07412 0.1072 0.113 0.02905 0.03269 0.05598 0.06366 0.08503 0.1005 0.1659-0.4301 0.04952-1.149 0.02228-1.3-0.08782-0.1243-0.2124-0.2811-0.3528-0.505-0.1058-0.1689-0.2202-0.3762-0.3374-0.6399-0.1833-0.4123-0.2464-0.8273-0.2464-1.202 0.000152-0.4377 0.08514-0.8224 0.1698-1.1 0.02617-0.08558 0.05232-0.161 0.07612-0.2246 0.2631-1.145 1.523-2.27 1.523-2.27-1.769-0.2328-2.98 1.397-2.98 1.397-0.0049-0.00303-0.01-0.00575-0.01492-0.00873-0.1255 0.1391-0.5508 0.6366-0.5904 1.033 0 0 0.01469-0.7126 0.1929-1.211-0.6751-0.2151-1.47-0.1027-1.877-0.01828l0.00264 0.01482c-0.41 0.078-0.791 0.239-1.13 0.441s-0.634 0.446-0.877 0.682c-0.485 0.47-0.759 0.91-0.762 0.92v0.000203l-0.0131-0.0081c-0.857 1.242-1.396 3.89-1.396 3.89 0.09313-0.4191 0.5122-0.9313 0.5122-0.9313-0.4656 0.6984-0.3725 3.911-0.3725 3.911 0-0.5122 0.2794-1.118 0.2794-1.118 0.09313 1.071 0.5588 4.517 3.585 7.124 3.027 2.608 5.588 2.84 5.588 2.84-0.6053-0.1863-0.745-0.4656-0.745-0.4656 1.956 0.7916 3.166 0.6519 3.166 0.6519-0.3259-0.1863-0.3725-0.3259-0.3725-0.3259 2.095 0.09313 4.889-0.6519 5.541-1.118 0.6519-0.4656 1.211-1.397 1.211-1.397 1.676-0.7916 2.84-2.421 3.166-3.259 0.3259-0.8381 0-1.723 0-1.723s0-0.04656 0.7916-1.816 0-4.284 0-4.284c0 0.3785-0.3418 0.9089-0.408 1.008 0.01378-0.03515 0.03547-0.146 0.03547-0.4957 0-0.5122 0.1397-1.816-0.5122-3.259-0.66-1.432-1.64-2.131-1.64-2.131v0.3259c-0.08-0.285-0.6-0.728-1-1.028-0.24-0.189-0.44-0.322-0.44-0.322v0.4656c2.328 2.142 2.561 3.632 2.561 3.632-0.42-1.348-1.63-2.372-2.65-3.35-1.03-0.978-3.17-1.49-3.17-1.49l0.000002-0.0000239c2.282 1.304 3.399 3.353 3.399 3.353-1.164-1.118-2.095-1.024-2.095-1.024 0.6984 0.5122 1.024 1.071 1.676 2.095 0.6519 1.024 0.6053 3.446 0.6053 3.446-0.3259-0.7916-0.9778-1.118-0.9778-1.118s0.1397 1.397 0.2328 2.188c0.09313 0.7916-0.3259 2.282-0.3259 2.282 0-0.5588-0.3259-0.6984-0.3259-0.6984s0.09313 0.3259-0.3725 1.816-1.35 2.002-1.49 1.956c-0.1397-0.04656 0-0.2794 0-0.2794s-0.2328-0.1863-0.5588 0.3259c-0.2749 0.432-0.7485 0.6652-0.8901 0.7276 0.1518-0.08619 0.1916-0.4017 0.1916-0.4017s-0.3259 0.1863-1.816 0.4191-2.188-0.4191-2.188-0.4191c0.1397-0.1397 0.7916 0 0.7916 0 0-0.1397-0.745-0.3725-1.49-0.4656-0.6057-0.07571-0.8993-0.3567-1.04-0.5819-0.2793-0.1877-0.5136-0.3943-0.708-0.6129-0.2228-0.2505-0.3929-0.5166-0.5197-0.7867-0.2539-0.5406-0.3349-1.095-0.3349-1.584 0.000102-0.4623 0.07203-0.8687 0.1439-1.162 0.07194-0.2932 0.1441-0.4732 0.1473-0.4813l0.01 0.004c0.08744-0.2691 0.2591-0.4854 0.4623-0.5736m-5.054-7.788c-0.897 0.8661-1.116 2.328-1.162 3.212 0.01266-0.01485 0.02534-0.02966 0.03856-0.04484 0.303-0.35 0.746-0.784 1.315-1.126 0.197-0.118 0.409-0.225 0.635-0.312-0.897-0.747-0.827-1.73-0.827-1.73zm5.657 3.54c-0.0623 0.2321-0.1164 0.5265-0.1162 0.8468 0.000046 0.3233 0.05423 0.6711 0.2063 1.013 0.122 0.2743 0.2371 0.4756 0.3419 0.6372 0.07362 0.1135 0.1422 0.2073 0.2064 0.2947 0.1311-0.1206 0.2843-0.2417 0.4096-0.3252 0.2794-0.1863 1.35-0.6984 1.49-0.8381 0.1397-0.1397 0.4191-0.8847 0.1863-1.118-0.2328-0.2328-1.723-0.09313-2.188-0.1863-0.1962-0.03925-0.384-0.1776-0.5357-0.3247zm0.3079 4.551-0.0073 0.0052c0.0014 0.0037 0.0022 0.0058 0.0022 0.0058 0.0018-0.0036 0.0033-0.0074 0.0051-0.011zm-1.18 1.392c-0.01867 0.1563-0.03106 0.3244-0.03101 0.501-0.000046 0.3289 0.04111 0.684 0.1535 1.036 0.1125 0.3522 0.2954 0.7014 0.5835 1.026 0.1923 0.2161 0.4318 0.4214 0.7314 0.608l-0.01673 0.02701c0.5627 0.0102 1.478-0.000651 1.942-0.1553 0.6984-0.2328 1.816-1.118 1.816-1.118 0.2794-0.2794 0.6053-0.1397 0.8847-0.1397s0.3725-0.4191 0-0.8381c-0.3725-0.4191-1.676-0.8381-2.654-0.1863-0.9778 0.6519-2.375 0.1397-3.213-0.5588-0.07618-0.06347-0.1413-0.1313-0.1968-0.202z" style="fill:#fff"/>
</svg>
