<?xml version="1.0" encoding="UTF-8" standalone="no"?>
<svg id="svg2817" xmlns:rdf="http://www.w3.org/1999/02/22-rdf-syntax-ns#" xmlns="http://www.w3.org/2000/svg" xmlns:osb="http://www.openswatchbook.org/uri/2009/osb" height="32" width="32" version="1.0" xmlns:cc="http://creativecommons.org/ns#" xmlns:xlink="http://www.w3.org/1999/xlink" xmlns:dc="http://purl.org/dc/elements/1.1/">
  <path d="m0.009628-0.038611v32.126h32.126v-32.126z" fill="#333"/>
 <g fill="#fff">
  <path id="rect5662-3-0" style="color-rendering:auto;color:#000000;isolation:auto;mix-blend-mode:normal;shape-rendering:auto;solid-color:#000000;image-rendering:auto" d="m10.492 8.6504-2.9375 2.9355 3.5742 3.5723c0.88676-1.0449 2.234-1.7725 3.6641-2.207l-0.95898-0.95898c-0.13982 0.25301-0.31277 0.42855-0.51953 0.4707-0.87556 0.17893-2.0501-1.5591-2.0117-3.002zm12.465 1.4473c-0.91733 1.1317-2.1737 2.0781-3.1055 2.0781-0.52583 0-0.88475-0.31082-1.0918-0.77539l-1.0801 1.0781c0.01598-0.000224 0.0329-0.0037 0.04883-0.0039 1.9445-0.01725 3.5483 0.58689 3.7559 1.8203 0.01145 0.06804 0.01367 0.13325 0.01758 0.19922 0.0038 0.0082 0.0061 0.01714 0.0098 0.02539l2.933-2.934zm-13.029 0.285c1.3108-0.07597 1.8896 3.3026 1.0195 3.6855-0.402 0.177-1.0062-0.201-1.4724-0.773-0.4748-0.499-0.8189-1.242-0.6308-1.857 0.0606-0.326 0.2323-0.626 0.5683-0.858 0.1817-0.125 0.3547-0.188 0.5156-0.197zm9.8184 7.5215c-0.27959 0.19109-0.56587 0.37081-0.85547 0.55078-0.21607 0.13862-0.42599 0.27284-0.64062 0.40625-0.83886 0.52146-1.5751 1.0168-1.8789 1.5391l1.0932 1.0932c0.36721-0.20022 0.51449-0.37541 0.43589-0.97562-0.10432-0.79627 2.0778-1.3493 3.1643-0.84023 0.86946 0.5051 0.56026 1.0678 0.41797 1.8457-0.32327 0.95659-0.94291 1.6433-1.7324 2.2559l1.7578 1.7598 2.9375-2.9355zm-9.3398 1.8477-2.8516 2.8516 2.9375 2.9355 2.3398-2.3398c-1.102-0.959-1.976-2.187-2.426-3.448z"/>
   <path id="path7904" d="m22.136 6.4938c-3.6382 0-4.322 5.1828-2.2753 5.1828 2.0464 0 5.9136-5.1828 2.2753-5.1828z"/>
   <path id="path7902" d="m16.481 7.4581c-0.05777-0.0001745-0.11817 0.00445-0.18217 0.012752-2.0474 0.26574-1.327 3.8265-0.23682 3.893 1.0557 0.06447 2.2099-3.8996 0.419-3.9058z"/>
   <path id="path7900" d="m12.835 8.6266c-0.10823 0.0024-0.22669 0.027115-0.35523 0.080155-1.6456 0.67907-0.24968 3.4821 0.67221 3.2937 0.85055-0.17341 0.96016-3.4021-0.31698-3.3738z"/>
   <path id="path7898" d="m9.9611 10.768c-0.12771 0.0074-0.26574 0.05713-0.40989 0.15667-1.3173 0.91021 0.44368 3.1082 1.2187 2.7672 0.69028-0.30385 0.23111-2.9841-0.80884-2.9239z"/>
  <path id="path15047" d="m17.679 13.142c-2.6785 0.02376-6.0874 1.3812-6.681 4.0397-0.6594 2.9507 2.7139 7.0441 6.2341 7.0441 1.7318 0 3.7288-1.563 4.1025-3.5439 0.28542-1.5105-3.3589-0.90525-3.2279 0.09427 0.15688 1.1981-0.878 1.7884-1.8924 1.016-3.2293-2.4586 5.3469-3.6852 4.7816-7.0441-0.18329-1.0891-1.5999-1.6213-3.3169-1.6061z"/>
 </g>
</svg>
