<?xml version="1.0" encoding="UTF-8" standalone="no"?>
<svg xmlns:rdf="http://www.w3.org/1999/02/22-rdf-syntax-ns#" xmlns="http://www.w3.org/2000/svg" height="32" width="32" version="1.0" xmlns:cc="http://creativecommons.org/ns#" xmlns:dc="http://purl.org/dc/elements/1.1/">
 <path style="fill:#333" d="m0 0v32h32v-32z"/>
 <path style="color:#bebebe;fill:#fff" d="m16.01 6.114c-2.05 0-3.699 1.65-3.699 3.699v6.166c0 2.05 1.65 3.699 3.699 3.699 2.05 0 3.699-1.65 3.699-3.699v-6.166c0-2.05-1.65-3.699-3.699-3.699zm-7.399 8.632v1.233c0 3.662 2.666 6.698 6.166 7.283v8.774h2.466v-8.774c3.499-0.5846 6.166-3.621 6.166-7.283v-1.233h-2.466v1.233c0 2.754-2.178 4.932-4.932 4.932s-4.932-2.178-4.932-4.932v-1.233z"/>
</svg>
