<?xml version="1.0" encoding="UTF-8" standalone="no"?>
<svg xmlns="http://www.w3.org/2000/svg" height="32" width="32" version="1.1" viewBox="0 0 32 32">
 <path d="m0 0v32h32v-32z" fill="#333"/>
 <path style="fill:#fff" d="m8.574 26.71c-0.254-0.13-3.184-3.09-3.279-3.32-0.103-0.25-0.103-0.72 0-0.97 0.055-0.13 0.953-1.07 2.888-3.01 2.967-2.97 2.917-2.92 2.917-3.38 0-0.4669 0.04874-0.4104-2.944-3.413-3.067-3.087-2.942-2.938-2.94-3.524 0.001-0.145 0.045-0.354 0.099-0.469 0.135-0.289 3.086-3.224 3.351-3.334 0.106-0.044 0.306-0.08 0.443-0.08 0.5749 0.0006165 0.4338-0.1178 3.507 2.944 3.003 2.993 2.947 2.944 3.414 2.944 0.4678 0 0.4109 0.04908 3.388-2.92 1.939-1.934 2.875-2.833 3.008-2.888 0.2488-0.1031 0.7193-0.1029 0.9673 0.0003866 0.2338 0.09737 3.2 3.034 3.32 3.287 0.09184 0.1936 0.1061 0.8264 0.02359 1.046-0.03035 0.08069-1.318 1.413-2.862 2.961-2.99 2.998-2.92 2.916-2.92 3.413 0 0.4971-0.06733 0.418 2.891 3.387 1.528 1.533 2.815 2.863 2.862 2.955 0.05588 0.111 0.08392 0.3036 0.08392 0.5759 0 0.3628-0.01707 0.4356-0.1503 0.641-0.1945 0.2998-2.951 3.034-3.17 3.144-0.2262 0.1138-0.8993 0.1139-1.126 0.000048-0.09174-0.04614-1.421-1.334-2.955-2.861-2.97-2.958-2.891-2.891-3.388-2.891-0.4976 0-0.4157-0.06987-3.414 2.92-1.548 1.543-2.881 2.831-2.961 2.861-0.2186 0.0822-0.868 0.0664-1.054-0.02567z"/>
</svg>
