<?xml version="1.0" encoding="UTF-8" standalone="no"?>
<svg xmlns="http://www.w3.org/2000/svg" height="32" width="32" version="1.0">
 <defs>
  <clipPath id="a">
   <g transform="translate(0 -1004)">
    <rect style="fill:#1890d0" rx="4" height="46" width="46" y="1005" x="1"/>
   </g>
  </clipPath>
 </defs>
 <path style="color:#000000;fill:#4491ae" d="m0 0v32h32v-32z"/>
 <g style="opacity:.1;fill:#00000f;fill-opacity:.9412" transform="translate(-20)">
  <path style="fill-opacity:.9412;fill:#00000f" d="m27.79 15.16c-0.47 0.02-0.79 0.13-0.79 0.63v10.51c0 0.6656 0.5751 1.199 1.295 1.199h18.78c0.7231 0 1.318-0.5331 1.318-1.199v-10.51c0-0.6688-0.5948-0.6302-1.318-0.6302h-18.79c-0.1802 0-0.3472-0.0099-0.501 0"/>
  <path d="m47.71 13.52-2.67-3.788s-1.337-1.977-2.008-1.977h-10.69c-0.6688 0-2.006 1.977-2.006 1.977h0.002l-2.67 3.788z" style="fill-opacity:.9412;fill:#00000f"/>
 </g>
 <g transform="matrix(.8227 0 0 .8227 -3.744 -2.097)" clip-path="url(#a)">
  <g transform="translate(0,-1)">
   <path style="fill:#f9f9f9" d="m11.96 20c-0.56 0.03-0.96 0.16-0.96 0.77v12.77c0 0.809 0.699 1.457 1.574 1.457h22.83c0.88 0 1.6-0.65 1.6-1.46v-12.77c0-0.82-0.72-0.77-1.6-0.77h-22.83c-0.219 0-0.422-0.012-0.609 0"/>
   <path style="fill:#f9f9f9" d="m15.05 13.4-3.25 4.6h11.2v-7h-5.508c-0.813 0-2.438 2.402-2.438 2.402m9.94-2.4v7h11.19l-3.25-4.598s-1.625-2.402-2.441-2.402m-5.492 0"/>
  </g>
 </g>
 <path style="stroke-width:.01896;fill:#4491ae" d="m15.76 23.37-0.63-1.71c-0.51-0.12-0.91-0.53-1.01-1.05l-0.0031 0.0037-1.764-0.6551 1.23-1.23 1.54 0.133 0.0062 0.00056 0.3813 0.04087-1.28 1.572 0.2199 0.2199 1.48-1.817 0.1801-0.2214-0.2835-0.03053-0.4673-0.05017c0.2404-0.2836 0.5018-0.5488 0.7819-0.7932 0.1262 0.9402 0.8639 1.69 1.799 1.833-0.2437 0.2771-0.508 0.5356-0.7906 0.7731l-0.04603-0.4326-0.03053-0.2836-0.2215 0.1801-1.786 1.458 0.2194 0.2194 1.541-1.257 0.03676 0.3451 0.1309 1.522-1.23 1.23zm2.416-4.041c-0.1454-0.0067-0.2866-0.03025-0.4212-0.06882l0.2297-0.28c0.1244 0.04196 0.2545 0.07158 0.3886 0.08746-0.06396 0.08849-0.1294 0.1758-0.1971 0.2613zm-0.7249-0.1863c-0.1213-0.05977-0.2352-0.1324-0.3394-0.2163l0.2608-0.2861c0.09802 0.08074 0.204 0.1517 0.3167 0.2121l-0.238 0.2903zm1.126-0.3715c-0.1311-0.0019-0.2586-0.01916-0.3803-0.05017l0.2401-0.2929c0.1011 0.03013 0.2061 0.05038 0.3141 0.06104-0.05608 0.09538-0.1137 0.1895-0.1739 0.282zm-1.689-0.05845c-0.1112-0.1256-0.2053-0.2668-0.2789-0.4196l0.2867-0.2339c0.07087 0.1318 0.1563 0.2545 0.2546 0.3658l-0.2623 0.2877zm1.001-0.104c-0.1104-0.05376-0.2137-0.1203-0.3084-0.1966l0.2696-0.296c0.08842 0.07256 0.1846 0.1363 0.2867 0.1899l-0.2479 0.3027zm-0.5299-0.4129c-0.08617-0.1019-0.1602-0.2146-0.2194-0.3358l0.2975-0.2432c0.05473 0.1003 0.1193 0.1947 0.1925 0.2815l-0.2706 0.2975zm1.558-0.0036v-0.0037c-0.7603 0-1.374-0.6124-1.375-1.372 0.6499-0.3444 1.357-0.5949 2.104-0.7337-0.1372 0.7505-0.3858 1.46-0.7286 2.11zm-2.43-0.21c-0.0394-0.1424-0.06198-0.2918-0.06573-0.446 0.08175-0.06433 0.1649-0.1269 0.2494-0.1878 0.0154 0.1421 0.04554 0.2795 0.09008 0.4108l-0.2738 0.223zm0.5324-0.4346c-0.03311-0.1289-0.05088-0.2643-0.05123-0.4036 0.08743-0.0568 0.176-0.1114 0.266-0.1646 0.01192 0.1158 0.0357 0.2281 0.06984 0.3358l-0.2846 0.2323z"/>
 <path style="stroke-width:.4056;fill:#dc322f" d="m17.19 21.4h14.83v6.489h-14.83z"/>
</svg>
