<?xml version="1.0" encoding="UTF-8" standalone="no"?>
<svg xmlns="http://www.w3.org/2000/svg" height="32" width="32" version="1.1" viewBox="0 0 32 32">
 <path fill="#333" d="m0 0v32h32v-32z"/>
 <g style="fill:#f9fffe" transform="matrix(.226 0 0 .226 4.68 7.18)">
  <path style="fill:#f9fffe;clip-rule:evenodd;fill-rule:evenodd" d="m50.1 24.7c6.48 0 11.7 5.21 11.7 11.6 0 6.42-5.26 11.6-11.7 11.6-6.48 0-11.7-5.21-11.7-11.6 0-6.42 5.25-11.6 11.7-11.6"/>
  <path style="fill:#f9fffe;clip-rule:evenodd;fill-rule:evenodd" d="m63.2 32.2 0.093 0.092c14.1-2.42 26.9-9.81 35.9-20.8l0.012-0.023c0.5-0.6 0.8-1.3 0.8-2 0-1.7-1.4-3.07-3.2-3.07-0.179 0-0.351 0.011-0.528 0.04l-0.1-0.11c-14.1 2.3-26.9 9.64-36.1 20.5l0.172 0.029c1.42 1.54 2.47 3.38 3.08 5.4z"/>
  <path style="fill:#f9fffe;clip-rule:evenodd;fill-rule:evenodd" d="m3.6 6.54 0.09-0.07c-0.17-0.03-0.35-0.04-0.52-0.04-1.75 0-3.17 1.37-3.17 3.07 0 0.7 0.247 1.38 0.703 1.93l0.043 0.045c9.01 11 21.7 18.4 35.8 20.8l-0.006 0.006c0.608-2 1.66-3.84 3.09-5.38v0.1c-9.1-10.9-21.9-18.2-36-20.5z"/>
  <path style="fill:#f9fffe;clip-rule:evenodd;fill-rule:evenodd" d="m53 49.9v0.022c-1 0.195-2.03 0.299-3.06 0.299-1.06 0-2.12-0.109-3.16-0.321l-0.089 0.132c-2.39 6.53-3.61 13.4-3.61 20.4 0 7.2 1.31 14.3 3.87 21.1l0.04 0.086c0.464 1.27 1.65 2.11 2.96 2.11 1.32 0 2.5-0.837 2.97-2.11l-0.062-0.086c2.55-6.73 3.86-13.9 3.86-21.1 0-6.95-1.22-13.8-3.61-20.4z"/>
 </g>
</svg>
