<?xml version="1.0" encoding="UTF-8" standalone="no"?>
<svg xmlns="http://www.w3.org/2000/svg" height="32" width="32" version="1.0">
 <path style="color:#000000;fill:#4491ae" d="m0 0v32h32v-32z"/>
 <path style="opacity:.1;stroke-width:.3496" d="m6.644 10.64v-2.801h1.398v-1.398h2.797v1.398h2.797v-1.398h2.797v1.398h2.797v-1.398h2.797v1.398h2.797v-1.398h2.797v1.398h1.398v2.797h-1.398v2.797h1.398v2.797h-1.398v2.797h1.398v2.797h-1.398v2.797h1.398v2.797h-1.398v1.398h-2.797v-1.398h-2.797v1.398h-2.797v-1.398h-2.797v1.398h-2.797v-1.398h-2.797v1.398h-2.798v-1.42h-1.398v-2.797h1.398v-2.797h-1.398v-2.797h1.398v-2.797h-1.398v-2.797h1.398v-2.797z"/>
 <g transform="matrix(.3496 0 0 .3496 4.814 4.814)">
  <path style="fill:#dc322f" d="m0 12v-8h4v-4h8v4h8v-4h8v4h8v-4h8v4h8v-4h8v4h4v8h-4v8h4v8h-4v8h4v8h-4v8h4v8h-4v4h-8v-4h-8v4h-8v-4h-8v4h-8v-4h-8v4h-8v-4h-4v-8h4v-8h-4v-8h4v-8h-4v-8h4v-8z"/>
  <path style="fill:#fff;fill-opacity:.9020" d="m12 12h40v40h-40z"/>
  <path style="fill:#dc322f" d="m20 20c4 0 8 0 8 5.5 4-5.5 16-5.5 16-5.5-4 4-8 12-8 16l8 4s-4 4-8 4c-12 0-16-8-16-24z"/>
 </g>
</svg>
