<?xml version="1.0" encoding="UTF-8" standalone="no"?>
<svg xmlns="http://www.w3.org/2000/svg" height="32" width="32" version="1.1" viewBox="0 0 32 32">
 <path d="m0 0v32h32v-32z" fill="#333"/>
 <path style="stroke-width:.2444;fill:#fff" d="m13.14 18.86 3.57 8.329c0.09654 0.2251 0.3177 0.3703 0.5616 0.3703h0.01417c0.2495-0.0058 0.4705-0.1628 0.558-0.3964l7.33-19.55c0.09-0.222 0.03-0.475-0.14-0.644-0.17-0.17-0.42-0.224-0.64-0.14l-19.55 7.334c-0.2336 0.08749-0.3905 0.3084-0.3962 0.558-0.00562 0.2495 0.1408 0.4773 0.3703 0.5756zm10.42-10.42-6.33 16.87-2.9-6.77 5.2-5.21c0.2388-0.2385 0.2388-0.6254 0-0.8639-0.2388-0.2388-0.6254-0.2388-0.8639 0l-5.21 5.2-6.771-2.9z"/>
</svg>
