<?xml version="1.0" encoding="UTF-8" standalone="no"?>
<svg xmlns="http://www.w3.org/2000/svg" height="32" width="32" version="1.1" viewBox="0 0 32 32">
 <path fill="#333" d="m0 0v32h32v-32z"/>
 <path style="opacity:.1;fill:#fff" d="m32 32v-32l-32 32z"/>
 <g style="fill:#fafafa" transform="matrix(.114 0 0 .114 -64.8 -29.4)">
  <rect style="fill:#fff;fill-rule:evenodd" ry="3.65" height="30" width="91.2" y="430" x="711"/>
  <rect ry="3.65" style="fill:#fff;fill-rule:evenodd" transform="rotate(-90)" height="30" width="91.2" y="679" x="-397"/>
  <rect ry="3.66" style="fill:#fff;fill-rule:evenodd" transform="rotate(-90)" height="30.1" width="60.7" y="711" x="-429"/>
  <rect style="fill:#fff;fill-rule:evenodd" ry="3.65" height="30" width="91.2" y="399" x="617"/>
  <path style="fill:#fff;fill-rule:evenodd" d="m621 368c-2.03 0-3.67 1.64-3.67 3.67v22.8c0 2.03 1.64 3.67 3.67 3.67h53.4c2.03 0 3.67-1.64 3.67-3.67v-22.8c0-2.03-1.64-3.67-3.67-3.67zm1.29 1.53h50.8c1.82 0 3.3 1.47 3.3 3.3v20.5c0 1.82-1.47 3.28-3.3 3.28h-50.8c-1.82 0-3.3-1.46-3.3-3.28v-20.5c0-1.82 1.47-3.3 3.3-3.3z"/>
  <rect style="fill:#fff;fill-rule:evenodd" ry="3.65" height="30" width="91.2" y="337" x="711"/>
  <rect style="fill:#fff;fill-rule:evenodd" ry="3.66" height="30.1" width="60.7" y="430" x="648"/>
  <rect style="fill:#fff;fill-rule:evenodd" ry="3.66" height="30.1" width="60.7" y="305" x="711"/>
  <rect style="fill:#fff;fill-rule:evenodd" ry="3.65" height="30" width="91.2" y="462" x="680"/>
  <rect ry="3.66" style="fill:#fff;fill-rule:evenodd" transform="rotate(-90)" height="30.1" width="60.7" y="648" x="-367"/>
 </g>
</svg>
