<?xml version="1.0" encoding="UTF-8" standalone="no"?>
<svg xmlns:rdf="http://www.w3.org/1999/02/22-rdf-syntax-ns#" xmlns="http://www.w3.org/2000/svg" height="32" viewBox="0 0 32.000001 32.000001" width="32" version="1.1" xmlns:cc="http://creativecommons.org/ns#" xmlns:dc="http://purl.org/dc/elements/1.1/">
 <path d="m0 0v32h32v-32z" fill="#333"/>
  <g transform="translate(.7620)" style="color-rendering:auto;color:#000000;isolation:auto;mix-blend-mode:normal;shape-rendering:auto;solid-color:#000000;image-rendering:auto;fill:#fff">
   <path d="m6.184 5.723c-0.4713 0-0.8516 0.3802-0.8516 0.8516v2.9c0 0.4713 0.3802 0.8516 0.8516 0.8516h2.9c0.4713 0 0.8496-0.3802 0.8496-0.8516v-2.9c0-0.4713-0.3783-0.8516-0.8496-0.8516h-2.9zm0.377 0.5996h2.145c0.3486 0 0.6309 0.2803 0.6309 0.6289v2.146c0 0.3486-0.2823 0.6289-0.6309 0.6289h-2.145c-0.349 0-0.629-0.281-0.629-0.629v-2.146c0-0.3486 0.2803-0.6289 0.6289-0.6289z" />
   <path  d="m6.184 13.72c-0.4713 0-0.8516 0.3802-0.8516 0.8516v2.9c0 0.4713 0.3802 0.8516 0.8516 0.8516h2.9c0.4713 0 0.8496-0.3802 0.8496-0.8516v-2.9c0-0.4713-0.3783-0.8516-0.8496-0.8516h-2.9zm0.377 0.5996h2.145c0.3486 0 0.6309 0.2803 0.6309 0.6289v2.146c0 0.3486-0.2823 0.6289-0.6309 0.6289h-2.145c-0.3486 0-0.6289-0.2803-0.6289-0.6289v-2.146c0-0.3486 0.2803-0.6289 0.6289-0.6289z"/>
   <path  d="m6.184 21.72c-0.4713 0-0.8516 0.3802-0.8516 0.8516v2.9c0 0.4713 0.3802 0.8516 0.8516 0.8516h2.9c0.4713 0 0.8496-0.3802 0.8496-0.8516v-2.9c0-0.4713-0.3783-0.8516-0.8496-0.8516h-2.9zm0.377 0.5996h2.145c0.3486 0 0.6309 0.2803 0.6309 0.6289v2.146c0 0.3486-0.2823 0.6289-0.6309 0.6289h-2.145c-0.3486 0-0.6289-0.2803-0.6289-0.6289v-2.146c0-0.3486 0.2803-0.6289 0.6289-0.6289z"/>
   <rect  ry=".6292" height="1.534" width="12.85" y="7.257" x="12.44"/>
   <rect  ry=".6292" height="1.534" width="12.85" y="15.26" x="12.44"/>
   <rect  ry=".6292" height="1.534" width="12.85" y="23.26" x="12.44"/>
  </g>
</svg>
