<?xml version="1.0" encoding="UTF-8" standalone="no"?>
<svg xmlns="http://www.w3.org/2000/svg" height="32" width="32" version="1.1" viewBox="0 0 32 32">
 <path fill="#333" d="m0 0v32h32v-32z"/>
 <path style="fill:#fafafa" d="m6.2 20c-0.32-0.3-0.59-0.7-0.59-0.7-0.00633-0.0365 0.298-0.179 0.669-0.341 1.46-0.594 2.89-1.44 4.58-2.7 0.396-0.298 0.724-0.575 0.724-0.631 0-0.0491-0.0999-0.179-0.224-0.298-0.5-0.4-1.56-1.7-2-2.4s-1.13-2-1.13-2.2c0-0.0618 0.36-0.0935 1.13-0.0935h1.12l0.298 0.656c0.36 0.793 1.09 1.91 1.7 2.61 0.247 0.279 0.477 0.52 0.514 0.533 0.0745 0.0317 0.88-0.873 1.41-1.57 0.818-1.08 1.57-2.94 1.57-3.9v-0.9h-10.2v-1.58l2.74 0.0127 3.6-0.0127v-1.58h1.59v1.59l6.34 0.0127v1.56h-1.99l-0.0555 0.965c-0.224 1.94-1.42 4.15-3.33 6.14l-0.377 0.39 0.365 0.298c0.204 0.162 0.582 0.439 0.854 0.613 0.266 0.179 0.49 0.341 0.49 0.36 0 0.0254-0.0999 0.166-0.217 0.315-0.235 0.315-0.464 0.91-0.464 1.21 0 0.111-0.0254 0.204-0.0491 0.204-0.0317 0-0.49-0.334-1.03-0.743-0.539-0.409-1.05-0.799-1.14-0.861-0.185-0.13-0.0365-0.224-1.46 0.861-0.539 0.409-1.41 1.01-1.94 1.34-0.942 0.582-2.71 1.53-2.86 1.53-0.0365 0-0.334-0.303-0.656-0.669m0.0127 0.0063"/>
 <path style="fill:#fafafa" d="m20.1 14.4-4.76 12.7h1.59l1.19-3.17h5.55l1.19 3.17h1.59l-4.8-12.7zm0.824 1.59 2.35 6.34h-4.7z"/>
</svg>
