<?xml version="1.0" encoding="UTF-8" standalone="no"?>
<svg xmlns:rdf="http://www.w3.org/1999/02/22-rdf-syntax-ns#" xmlns="http://www.w3.org/2000/svg" xmlns:osb="http://www.openswatchbook.org/uri/2009/osb" height="32" width="32" version="1.0" xmlns:cc="http://creativecommons.org/ns#" xmlns:xlink="http://www.w3.org/1999/xlink" xmlns:dc="http://purl.org/dc/elements/1.1/">
 <path style="color:#000000;fill:#333" d="m0 0v32h32v-32z"/>
 <path style="color:#000000;opacity:.1;fill:#fff" d="m0 0v32h32z"/>
<g style="fill:#fff">
 <path  d="m27.21 14.97c-0.1758-0.148-0.3877-0.2343-0.6164-0.2343l-0.9542-0.000038c-0.1009 0.9414-0.3764 1.875-0.8211 2.752l1.775 0.000031c0.61-0.000025 1.1-0.6133 1.1-1.376-0.000044-0.4766-0.1905-0.8948-0.4834-1.142z"/>
 <path  d="m8.234 14.42h-1.778c-0.61 0.000025-1.1 0.6133-1.1 1.376 0.0000063 0.7627 0.4898 1.376 1.1 1.376l0.9567 0.000013c0.1011-0.9414 0.3762-1.875 0.8211-2.752z"/>
 <path  d="m17.51 5.265c-0.2471-0.2926-0.665-0.4833-1.142-0.4834-0.7627-0.0000063-1.376 0.4898-1.376 1.1v1.778c0.88-0.446 1.81-0.721 2.75-0.822l-0.000013-0.9567c0.000013-0.2288-0.08612-0.4408-0.2343-0.6164z"/>
 <path  d="m18.06 24.25c-0.8771 0.4447-1.81 0.7202-2.752 0.8211l-0.000025 0.9543c-0.000032 0.61 0.6132 1.1 1.376 1.1 0.7627 0.000006 1.376-0.4898 1.376-1.1z"/>
 <path  d="m23.16 9.325c-0.8-0.794-1.75-1.33-2.77-1.619l-1.736 5.208c0.2046 0.08471 0.3982 0.1936 0.561 0.3563 0.1627 0.1627 0.2717 0.3563 0.3563 0.561l5.2-1.73c-0.29-1.03-0.82-1.98-1.61-2.775z"/>
 <path  d="m19.51 7.521c-2.131-0.299-4.434 0.4195-6.152 2.138l-1.244 1.244 3.017 3.017c0.6215-0.5361 1.3-0.9119 1.963-1.078 0.2245-0.05612 0.4494-0.08086 0.6707-0.0863z"/>
 <path  d="m24.96 12.98-5.235 1.746c-0.0054 0.2213-0.03019 0.4462-0.0863 0.6707-0.1657 0.6628-0.5414 1.341-1.078 1.963l3.017 3.017 1.244-1.244c1.718-1.718 2.437-4.022 2.138-6.152z"/>
 <path  d="m18.58 13.9c-0.2501-0.2501-0.6854-0.3406-1.274-0.1935-0.5882 0.1471-1.28 0.5379-1.883 1.14-0.6025 0.6025-0.9934 1.294-1.14 1.883-0.1471 0.5882-0.05652 1.024 0.1935 1.274 0.2501 0.2501 0.6854 0.3406 1.274 0.1935 0.5882-0.1471 1.28-0.5379 1.883-1.14 0.6025-0.6025 0.9934-1.294 1.14-1.883 0.1471-0.5882 0.05651-1.024-0.1935-1.274z"/>
 <path  d="m11.48 11.53-1.244 1.244c-1.717 1.717-2.434 4.016-2.138 6.145l5.235-1.743c0.0058-0.2197 0.03056-0.4429 0.0863-0.6658 0.1657-0.6628 0.5414-1.341 1.078-1.963z"/>
 <path  d="m17.93 17.99c-0.6214 0.5362-1.3 0.9119-1.963 1.078-0.2229 0.05574-0.4461 0.08052-0.6658 0.0863l-1.743 5.235c2.129 0.2963 4.429-0.4215 6.145-2.138l1.244-1.244z"/>
 <path  d="m13.49 18.07-5.208 1.736c0.2889 1.024 0.8252 1.982 1.62 2.777 0.7952 0.7952 1.752 1.331 2.777 1.62l1.736-5.208c-0.21-0.09-0.41-0.2-0.57-0.36-0.17-0.17-0.28-0.36-0.36-0.57z"/>
 <path style="fill:#fff;fill-rule:evenodd" d="m26.62 5.216c-0.31-0.317-0.77-0.436-1.18-0.31l-1.879 0.577c-0.681 0.2098-1.206 0.7343-1.415 1.415l-0.196 0.6399c0.6123 0.3441 1.189 0.77 1.708 1.288 0.5184 0.5184 0.9413 1.094 1.285 1.706l0.6411-0.1973c0.6811-0.2099 1.206-0.7344 1.415-1.415l0.577-1.879c0.1263-0.4098 0.0075-0.8679-0.3095-1.185l-0.63-0.635z"/>
</g>
</svg>
