<?xml version="1.0" encoding="UTF-8" standalone="no"?>
<svg xmlns:rdf="http://www.w3.org/1999/02/22-rdf-syntax-ns#" xmlns="http://www.w3.org/2000/svg" height="32" width="32" version="1.0" xmlns:cc="http://creativecommons.org/ns#" xmlns:dc="http://purl.org/dc/elements/1.1/">
 <path style="fill:#333" d="m0 0v32h32v-32z"/>
 <path style="color:#000000;opacity:.05;fill:#fff" d="m32.01 32 0.05-15.97-17.52 15.97z"/>
 <path style="color-rendering:auto;text-decoration-color:#000000;color:#000000;shape-rendering:auto;solid-color:#000000;text-decoration-line:none;fill:#fff;mix-blend-mode:normal;block-progression:tb;text-indent:0;image-rendering:auto;white-space:normal;text-decoration-style:solid;isolation:auto;text-transform:none" d="m19.88 7.432c-2.551 0-4.637 2.05-4.637 4.574 0 0.1152 0.03063 0.2226 0.03906 0.3359-3.047-0.3121-5.743-1.769-7.576-3.982a0.5001 0.5001 0 0 0 -0.8164 0.0625c-0.404 0.676-0.633 1.465-0.633 2.298 0 0.932 0.3434 1.752 0.8301 2.477-0.03792-0.01907-0.08786-0.01289-0.125-0.0332a0.5001 0.5001 0 0 0 -0.7383 0.4238c-0.0007473 0.02644-0.00195 0.04923-0.00195 0.06641 0 1.471 0.7472 2.737 1.844 3.574a0.5001 0.5001 0 0 0 -0.367 0.66c0.4609 1.416 1.695 2.325 3.131 2.766-1.166 0.6785-2.473 1.152-3.93 1.152-0.3147 0-0.6251-0.01928-0.9297-0.05469a0.5001 0.5001 0 0 0 -0.3242 0.9199c1.908 1.204 4.176 1.908 6.609 1.908 7.883 0 12.27-6.449 12.27-12.09 0-0.1143-0.0046-0.2282-0.0078-0.3418 0.7475-0.5717 1.434-1.225 1.963-2a0.5001 0.5001 0 0 0 -0.59 -0.757c-0.16 0.068-0.34 0.077-0.5 0.135 0.24-0.355 0.48-0.716 0.62-1.133a0.5001 0.5001 0 0 0 -0.73 -0.586c-0.71 0.41-1.49 0.689-2.31 0.867-0.83-0.74-1.89-1.234-3.09-1.234zm0 0.5c1.19 0 2.267 0.4954 3.021 1.287 0.94-0.183 1.83-0.522 2.63-0.989-0.31 0.952-0.97 1.748-1.82 2.25 0.8369-0.09847 1.633-0.3166 2.375-0.6406-0.5548 0.8169-1.256 1.535-2.064 2.109 0.008 0.1748 0.01172 0.3507 0.01172 0.5273 0 5.383-4.162 11.59-11.77 11.59-2.337 0-4.511-0.6742-6.342-1.83 0.3237 0.03763 0.6523 0.05664 0.9863 0.05664 1.939 0 3.722-0.6515 5.139-1.744-1.811-0.03286-3.339-1.21-3.865-2.828 0.2527 0.04746 0.5127 0.07227 0.7793 0.07227 0.3774 0 0.7426-0.04946 1.09-0.1426-1.893-0.3746-3.32-2.021-3.32-3.994 0-0.01718 0.00147-0.03575 0.00195-0.05274 0.5579 0.3051 1.195 0.4886 1.873 0.5098-1.11-0.7304-1.84-1.977-1.84-3.391 0-0.7466 0.2044-1.445 0.5605-2.047 2.041 2.464 5.088 4.086 8.527 4.256-0.0706-0.2981-0.1055-0.6085-0.1055-0.9277 0-2.25 1.852-4.074 4.137-4.074z"/>
</svg>
