<?xml version="1.0" encoding="UTF-8" standalone="no"?>
<svg xmlns:rdf="http://www.w3.org/1999/02/22-rdf-syntax-ns#" xmlns="http://www.w3.org/2000/svg" height="32" width="32" version="1.0" xmlns:cc="http://creativecommons.org/ns#" xmlns:dc="http://purl.org/dc/elements/1.1/">
 <path d="m0 0v32h32v-32z" fill="#333"/>
 <path d="m26.08 10.11c-0.7419 0.3241-1.54 0.543-2.377 0.6416 0.8543-0.5042 1.51-1.303 1.819-2.254-0.7995 0.4669-1.685 0.8059-2.627 0.9886-0.75-0.788-1.83-1.282-3.02-1.282-2.285 0-4.137 1.824-4.137 4.073 0 0.3194 0.03659 0.6302 0.1072 0.9283-3.44-0.17-6.488-1.8-8.529-4.261-0.356 0.601-0.56 1.301-0.56 2.051 0 1.413 0.7304 2.66 1.841 3.39-0.6783-0.02116-1.316-0.2044-1.874-0.5094-0.0004802 0.01699-0.0004802 0.03404-0.0004802 0.05123 0 1.974 1.426 3.619 3.318 3.995-0.3472 0.09314-0.7129 0.1429-1.09 0.1429-0.2665 0-0.5258-0.02563-0.7784-0.07307 0.5265 1.618 2.055 2.797 3.866 2.83-1.416 1.093-3.201 1.744-5.138 1.744-0.334 0-0.6634-0.01936-0.9871-0.057 1.831 1.156 4.005 1.83 6.343 1.83 7.611 0 11.77-6.208 11.77-11.59 0-0.1766-0.004-0.3522-0.01201-0.5272 0.8084-0.5742 1.51-1.292 2.065-2.109z" style="fill:#fff"/>
</svg>
