<?xml version="1.0" encoding="UTF-8" standalone="no"?>
<svg xmlns:rdf="http://www.w3.org/1999/02/22-rdf-syntax-ns#" xmlns="http://www.w3.org/2000/svg" xmlns:osb="http://www.openswatchbook.org/uri/2009/osb" height="32" width="32" version="1.0" xmlns:cc="http://creativecommons.org/ns#" xmlns:xlink="http://www.w3.org/1999/xlink" xmlns:dc="http://purl.org/dc/elements/1.1/">
 <path style="color:#000000;fill:#333" d="m0 0v32h32v-32z"/>
 <path style="opacity:.05;color:#000000;fill:#fff" d="m0.000001 31.86 0.1351-31.73 31.75 31.61z"/>
 <path style="color-rendering:auto;color:#000000;isolation:auto;mix-blend-mode:normal;shape-rendering:auto;solid-color:#000000;image-rendering:auto;fill:#fff" d="m17.8 18.52-3.59-1.795 3.59-1.795v3.59zm-5.384-8.287v7.6l7.179 3.59v-7.6zm-4.038 5.594q0-2.075 1.024-3.828 1.024-1.754 2.777-2.777t3.828-1.024q2.076-0.0009 3.828 1.024 1.753 1.025 2.777 2.777t1.024 3.828q0 2.077-1.024 3.828-1.024 1.752-2.777 2.777t-3.828 1.024q-2.076-0.0009-3.828-1.024-1.753-1.023-2.777-2.777t-1.024-3.828zm-3.141 0q0 2.931 1.444 5.405t3.919 3.919 5.405 1.444q2.93-0.0009 5.405-1.444t3.919-3.919 1.444-5.405-1.444-5.405-3.919-3.919-5.405-1.444q-2.93-0.0009-5.405 1.444t-3.919 3.919-1.444 5.405z"/>
</svg>
