<?xml version="1.0" encoding="UTF-8" standalone="no"?>
<svg id="Layer_1" xmlns:rdf="http://www.w3.org/1999/02/22-rdf-syntax-ns#" xmlns="http://www.w3.org/2000/svg" xml:space="preserve" viewBox="0 0 32 32" height="32" width="32" version="1.1" y="0px" x="0px" xmlns:cc="http://creativecommons.org/ns#" xmlns:dc="http://purl.org/dc/elements/1.1/">
<g><path id="path14907" style="color:#000000" d="m0.009628-0.038611v32.126h32.126v-32.126z" fill="#333"/></g>
<path id="path4173" d="m15.31 5.0912c-0.01394 0.031175-0.04326 0.019169-0.06696 0.021303-0.33167 0.028093-0.6617 0.06515-0.98905 0.12477-2.3921 0.43526-4.3575 1.563-5.878 3.3856-1.2507 1.4989-1.9389 3.2183-2.0877 5.1355-0.072055 0.92919-0.00203 1.8504 0.20998 2.7587 0.15744 0.67565 0.39295 1.3283 0.70907 1.9522 0.027758 0.0531 0.053911 0.10667 0.082166 0.15977 0.51934 0.98241 1.1881 1.858 2.0253 2.6141 0.44074 0.39804 0.91122 0.75702 1.4212 1.0682 1.3503 0.82332 2.8108 1.2778 4.3746 1.4394l0.34388 0.03652c0.11376 0.0015 0.15594 0.02834 0.1552 0.13999-0.0051 0.95278-0.0033 1.9047-0.0031 2.8576 0.000124 0.03698 0.0038 0.07422 0.006 0.12021 0.41482 0.03427 0.77081-0.17262 1.0956-0.32563 1.6187-0.79011 3.1154-1.7587 4.4659-2.9382 0.30341-0.26492 0.59418-0.5417 0.87341-0.8308 0.11956-0.12363 0.23777-0.24928 0.35758-0.3728 0.18508-0.19013 0.3444-0.40235 0.51887-0.60256 0.20149-0.2309 0.38306-0.47726 0.56148-0.72429 0.39447-0.54597 0.74617-1.1147 1.0423-1.7164 0.14979-0.30416 0.29374-0.61138 0.41997-0.92514 0.0042-0.0059 0.0094-0.01033 0.01218-0.01674 0.34401-0.85914 0.56434-1.7492 0.68168-2.6613 0.04096-0.31767 0.06691-0.63765 0.08368-0.9571 0.03578-0.68786-0.0094-1.3713-0.13847-2.0481-0.346-1.805-1.169-3.3822-2.469-4.7277-0.549-0.568-1.163-1.0615-1.841-1.4805-1.264-0.7804-2.64-1.2579-4.133-1.4273-0.182-0.0207-0.367-0.0182-0.546-0.0593h-1.2888zm-0.99057 6.2325c0.32396-0.000387 0.59204 0.31576 0.48844 0.62538 0.02473 0.05852 0.01978 0.12149 0.01978 0.18259 0 1.3322 0.0012 2.6634 0 3.9958-0.001 1.1901-0.77092 2.3045-1.9051 2.7617-0.0286 0.01186-0.05577 0.02742-0.08368 0.04108-0.01529 0.0039-0.02981 0.0078-0.04565 0.01218-0.0088 0.0049-0.01861 0.0089-0.0274 0.01369-0.23699 0.06497-0.47529 0.11914-0.71972 0.15368-0.18645 0.02656-0.24272-0.0754-0.24498-0.25715-0.0018-0.12735-0.0021-0.25444-0.0031-0.38192l0.006-0.68473c-0.001-0.05039-0.0032-0.10049-0.0031-0.15064 0.000266-0.1753 0.1753-0.25 0.40018-0.29976 0.28513-0.06329 0.36234-0.15183 0.5843-0.35149 0.26638-0.23976 0.42574-0.64473 0.48692-0.98296-0.76922-0.0015-1.5632-0.0031-2.3326-0.0046-0.08365-0.000129-0.16728-0.000123-0.25106-0.0015-0.31412-0.005-0.52952-0.62509-0.52952-0.93123 0.0004-1.2053 0.0021-1.8941 0.003-3.0995 0-0.01161-0.000857-0.02339-0.0016-0.035-0.02421-0.22558 0.04274-0.41032 0.24954-0.53561 0.08032-0.04898 0.16777-0.06847 0.2602-0.06847 1.2163-0.000655 2.4324-0.000123 3.6488-0.0015zm7.0116 0c0.32396-0.000387 0.59204 0.31576 0.48844 0.62538 0.02473 0.05852 0.01978 0.12149 0.01978 0.18259 0 1.3322 0.0012 2.6634 0 3.9958-0.001 1.1901-0.77092 2.3045-1.9051 2.7617-0.02859 0.01186-0.05577 0.02742-0.08368 0.04108-0.01529 0.0039-0.02981 0.0078-0.04565 0.01218-0.0088 0.0049-0.01861 0.0089-0.0274 0.01369-0.23699 0.06497-0.47529 0.11914-0.71972 0.15368-0.18645 0.02656-0.24272-0.0754-0.24498-0.25715-0.0018-0.12735-0.0021-0.25444-0.0031-0.38192l0.006-0.68473c-0.001-0.05039-0.0032-0.10049-0.0031-0.15064 0.000265-0.1753 0.17529-0.25 0.40018-0.29976 0.28513-0.06329 0.36234-0.15183 0.5843-0.35149 0.26638-0.23976 0.42574-0.64473 0.48692-0.98296-0.76922-0.0015-1.5632-0.0031-2.3326-0.0046-0.08365-0.000129-0.16728-0.000123-0.25106-0.0015-0.31412-0.005-0.52952-0.62509-0.52952-0.93123 0.0004-1.2053 0.0022-1.8941 0.0031-3.0995 0-0.01161-0.000857-0.02339-0.0015-0.035-0.02421-0.22558 0.04274-0.41032 0.24954-0.53561 0.08032-0.04898 0.16777-0.06847 0.2602-0.06847 1.2163-0.000655 2.4324-0.000123 3.6488-0.0015z" fill="#fff"/>
</svg>
