<?xml version="1.0" encoding="UTF-8" standalone="no"?>
<svg xmlns:rdf="http://www.w3.org/1999/02/22-rdf-syntax-ns#" xmlns="http://www.w3.org/2000/svg" xmlns:osb="http://www.openswatchbook.org/uri/2009/osb" height="32" width="32" version="1.0" xmlns:cc="http://creativecommons.org/ns#" xmlns:dc="http://purl.org/dc/elements/1.1/">
 <path d="m0 0v32h32v-32z" style="color:#000000;fill:#333"/>
 <path style="fill:#fff" d="m15.9 5.179c-1.355 0-1.498 0.0887-1.835 1.128-0.3071 0.9458-0.5521 1.175-1.732 1.629-1.072 0.4129-1.381 0.412-1.906 0-0.635-0.5-1.433-0.332-2.219 0.461-0.886 0.894-0.949 1.189-0.451 2.133 0.4465 0.8464 0.4303 1.211-0.1059 2.382-0.406 0.8866-0.5996 1.069-1.428 1.338-0.943 0.3066-1.116 0.5946-1.116 1.872s0.149 1.525 1.064 1.759c0.9616 0.2458 1.15 0.425 1.631 1.578 0.5255 1.258 0.5231 1.189 0.07328 2.031-0.5522 1.034-0.5044 1.261 0.4615 2.225 0.9644 0.9633 1.199 1.012 2.199 0.4613 0.8173-0.45 0.9962-0.4495 2.134 0.01074 1.014 0.4103 1.466 0.8016 1.466 1.265 0 0.3531 0.1737 0.7198 0.5185 1.098 0.2235 0.2451 0.3549 0.2698 1.414 0.2698 1.378 0 1.625-0.1308 1.811-0.9576 0.2472-1.099 0.385-1.251 1.555-1.729 1.277-0.5218 1.375-0.5292 1.952-0.1376 0.8904 0.6044 1.415 0.5513 2.231-0.2266 0.9587-0.9135 1.145-1.45 0.7248-2.085-0.6171-0.9334-0.6353-1.198-0.1574-2.339 0.465-1.11 0.7275-1.335 1.743-1.497 0.76-0.1 0.91-0.36 0.96-1.65 0.05-1.53-0.08-1.77-1.17-2.1-0.98-0.29-1.1-0.41-1.58-1.57-0.46-1.1-0.48-1.46-0.12-1.95 0.54-0.732 0.48-1.414-0.19-2.136-1-1.063-1.35-1.149-2.4-0.599-0.78 0.412-1.05 0.437-1.7 0.167-1.35-0.558-1.71-0.767-1.78-1.033-0.45-1.674-0.57-1.78-2.04-1.78zm0.05 7.291c0.04414-0.000521 0.08884-0.0011 0.133 0 0.8482 0.02188 1.697 0.355 2.367 1.039 1.735 1.77 1.239 4.576-0.9962 5.632-2.817 1.331-5.851-1.457-4.758-4.373 0.5473-1.46 1.886-2.281 3.255-2.298z"/>
</svg>
