<?xml version="1.0" encoding="UTF-8" standalone="no"?>
<svg xmlns:rdf="http://www.w3.org/1999/02/22-rdf-syntax-ns#" xmlns="http://www.w3.org/2000/svg" height="32" width="32" version="1.0" xmlns:cc="http://creativecommons.org/ns#" xmlns:xlink="http://www.w3.org/1999/xlink" xmlns:dc="http://purl.org/dc/elements/1.1/">
 <path style="color:#000000;fill:#333" d="m0 0v32h32v-32z"/>
 <path style="color-rendering:auto;color:#000000;isolation:auto;mix-blend-mode:normal;shape-rendering:auto;solid-color:#000000;image-rendering:auto;fill:#fff" d="m16 5.152c-2.433-0.0001852-4.406 1.971-4.406 4.404 0.00004 0.5358 0.09629 1.05 0.2715 1.525l0.002 0.0078 4.076 10.8c-0.08667-0.1155 4.268-11.03 4.268-11.03v-0.0078c0.12-0.41 0.18-0.84 0.18-1.294 0-2.433-1.97-4.404-4.4-4.404zm0 3.004a1.401 1.401 0 0 1 1.4 1.4 1.401 1.401 0 0 1 -1.4 1.404 1.401 1.401 0 0 1 -1.4 -1.404 1.401 1.401 0 0 1 1.4 -1.4z"/>
 <path style="color-rendering:auto;color:#000000;isolation:auto;mix-blend-mode:normal;shape-rendering:auto;solid-color:#000000;image-rendering:auto;fill:#fff" d="m19.54 16.32c-0.1415 0.3582-0.1544 0.3885-0.3017 0.762a5.074 5.074 0 0 1 1.83 3.91 5.074 5.074 0 0 1 -5.07 5.07 5.074 5.074 0 0 1 -5.07 -5.07 5.074 5.074 0 0 1 1.74 -3.82l-0.3-0.78a5.862 5.862 0 0 0 -2.23 4.6 5.862 5.862 0 0 0 5.86 5.86 5.862 5.862 0 0 0 5.862 -5.862 5.862 5.862 0 0 0 -2.323 -4.667z"/>
</svg>
