<?xml version="1.0" encoding="UTF-8" standalone="no"?>
<svg xmlns:rdf="http://www.w3.org/1999/02/22-rdf-syntax-ns#" xmlns="http://www.w3.org/2000/svg" height="32" width="32" version="1.0" xmlns:cc="http://creativecommons.org/ns#" xmlns:xlink="http://www.w3.org/1999/xlink" xmlns:dc="http://purl.org/dc/elements/1.1/">
 <path style="color:#000000;fill:#333" d="m0 0v32h32v-32z"/>
 <g transform="matrix(-.08649 0 0 .08649 27.08 4.915)">
  <path style="fill:#fff" d="m163.9 250.1c-8.365 8.322-21.87 8.322-30.19 0l-117.6-110.3c-6.629-6.2-14.47-17.9-15.03-26.9-1.514-24.33-0.448-70.94 0.292-95.65 0.266-9.004 7.838-16.55 16.85-16.76 31.57-0.735 98.49-1.519 104.7 4.704l129.5 117.2c8.316 8.322 0.772 29.37-7.609 37.74l-80.94 89.96zm-103.1-213.8c-7.054-7.038-18.46-7.038-25.52 0-7.038 7.06-7.038 18.46 0 25.5 7.065 7.044 18.47 7.044 25.52 0 7.044-7.038 7.044-18.44 0-25.5z"/>
 </g>
</svg>
