<?xml version="1.0" encoding="UTF-8" standalone="no"?>
<svg xmlns:rdf="http://www.w3.org/1999/02/22-rdf-syntax-ns#" xmlns="http://www.w3.org/2000/svg" height="32" width="32" version="1.0" xmlns:cc="http://creativecommons.org/ns#" xmlns:dc="http://purl.org/dc/elements/1.1/">
  <path style="color:#000000" fill="#333" d="m0.-0.v32.13h32.13v-32.13z"/>
 <path style="stroke:#fff;stroke-width:1px;fill:none" d="m0 16h32.22"/>
<g style="stroke:#fff;stroke-width:.5;fill:none">
 <path d="m16 12.36v7.273"/>
 <path d="m26 13.38v5.239" />
 <path d="m6 13.38v5.239" />
 <path  d="m12 14.42v3.167"/>
 <path d="m10 14.42v3.167" />
 <path  d="m8 14.42v3.167"/>
 <path d="m14 14.42v3.167" />
 <path d="m22 14.42v3.167" />
 <path  d="m20 14.42v3.167"/>
 <path d="m18 14.42v3.167" />
 <path  d="m24 14.42v3.167"/>
 <path d="m28 14.42v3.167" />
 <path  d="m30 14.42v3.167"/>
 <path d="m4 14.42v3.167" />
 <path d="m2 14.42v3.167"/>
</g>
 <g style="fill:#fff" transform="matrix(.2977 0 0 .2977 9.657 17.68)">
  <path d="m20.67 17.37q0 2.06-1.03 3.12-1.02 1.05-3.04 1.06l-0.03-0.78q0.63 0 1.13-0.12 0.51-0.12 0.89-0.38 0.38-0.27 0.63-0.69 0.26-0.42 0.38-1.03-0.26 0.12-0.59 0.2-0.33 0.07-0.68 0.07-0.59 0-1-0.17-0.41-0.18-0.67-0.47-0.26-0.3-0.38-0.68-0.11-0.39-0.11-0.81 0-0.37 0.13-0.77t0.39-0.73q0.27-0.33 0.68-0.54t0.97-0.21q0.57 0 1 0.2 0.44 0.2 0.73 0.58 0.3 0.38 0.45 0.93 0.15 0.54 0.15 1.22zm-2.24 0.69q0.35 0 0.66-0.06 0.31-0.07 0.6-0.2 0.01-0.11 0.01-0.21 0-0.11 0-0.22 0-0.43-0.06-0.82-0.06-0.4-0.22-0.69-0.15-0.3-0.41-0.47-0.26-0.18-0.66-0.18-0.33 0-0.56 0.14t-0.38 0.36q-0.15 0.21-0.22 0.47-0.06 0.25-0.06 0.49 0 0.68 0.32 1.04 0.33 0.35 0.98 0.35z"/>
  <path d="m21.81 18.06q0-1.74 0.61-2.68 0.62-0.94 1.71-0.94t1.7 0.94q0.62 0.94 0.62 2.68t-0.62 2.68q-0.61 0.94-1.7 0.94t-1.71-0.94q-0.61-0.94-0.61-2.68zm3.66 0q0-0.57-0.07-1.08-0.06-0.51-0.22-0.89-0.15-0.38-0.41-0.6-0.26-0.23-0.64-0.23t-0.64 0.23q-0.26 0.22-0.42 0.6-0.15 0.38-0.22 0.89-0.06 0.51-0.06 1.08t0.06 1.08q0.07 0.51 0.22 0.89 0.16 0.38 0.42 0.61 0.26 0.22 0.64 0.22t0.64-0.22q0.26-0.23 0.41-0.61 0.16-0.38 0.22-0.89 0.07-0.51 0.07-1.08z"/>
 </g>
 <g style="fill:#fff" transform="matrix(.2977 0 0 .2977 4.708 17.68)">
  <path d="m-3.409 16.03q0.57-0.22 1.11-0.56 0.54-0.35 0.99-0.87h0.66v6.93h-0.93v-5.64q-0.12 0.11-0.3 0.23-0.17 0.12-0.38 0.23-0.2 0.11-0.43 0.21-0.22 0.1-0.43 0.17l-0.29-0.7z"/>
  <path d="m1.806 18.06q0-1.74 0.61-2.68 0.62-0.94 1.71-0.94t1.7 0.94q0.62 0.94 0.62 2.68t-0.62 2.68q-0.61 0.94-1.7 0.94t-1.71-0.94q-0.61-0.94-0.61-2.68zm3.66 0q0-0.57-0.07-1.08-0.06-0.51-0.22-0.89-0.15-0.38-0.41-0.6-0.26-0.23-0.64-0.23t-0.64 0.23q-0.26 0.22-0.42 0.6-0.15 0.38-0.22 0.89-0.06 0.51-0.06 1.08t0.06 1.08q0.07 0.51 0.22 0.89 0.16 0.38 0.42 0.61 0.26 0.22 0.64 0.22t0.64-0.22q0.26-0.23 0.41-0.61 0.16-0.38 0.22-0.89 0.07-0.51 0.07-1.08z"/>
  <path d="m7.45 18.06q0-1.74 0.61-2.68 0.62-0.94 1.71-0.94t1.7 0.94q0.62 0.94 0.62 2.68t-0.62 2.68q-0.61 0.94-1.7 0.94t-1.71-0.94q-0.61-0.94-0.61-2.68zm3.66 0q0-0.57-0.07-1.08-0.06-0.51-0.22-0.89-0.15-0.38-0.41-0.6-0.26-0.23-0.64-0.23t-0.64 0.23q-0.26 0.22-0.42 0.6-0.15 0.38-0.22 0.89-0.06 0.51-0.06 1.08t0.06 1.08q0.07 0.51 0.22 0.89 0.16 0.38 0.42 0.61 0.26 0.22 0.64 0.22t0.64-0.22q0.26-0.23 0.41-0.61 0.16-0.38 0.22-0.89 0.07-0.51 0.07-1.08z"/>
 </g>
 <g style="fill:#fff" transform="matrix(.2977 0 0 .2977 13.7 17.68)">
  <path d="m40.75 19.73q0 0.42-0.15 0.78-0.14 0.35-0.43 0.62-0.28 0.26-0.71 0.4-0.43 0.15-0.99 0.15-0.65 0-1.09-0.18-0.43-0.19-0.69-0.47t-0.37-0.61q-0.11-0.34-0.11-0.64 0-0.29 0.09-0.55 0.1-0.27 0.25-0.5 0.16-0.23 0.36-0.41 0.21-0.19 0.44-0.33-0.98-0.56-0.98-1.65 0-0.38 0.15-0.72 0.15-0.35 0.42-0.61 0.28-0.26 0.67-0.41 0.39-0.16 0.87-0.16 0.56 0 0.96 0.17t0.65 0.44q0.26 0.26 0.37 0.58 0.12 0.32 0.12 0.62 0 0.29-0.09 0.55-0.08 0.25-0.23 0.47-0.14 0.22-0.33 0.39-0.18 0.17-0.38 0.3 1.18 0.56 1.2 1.77zm-3.6 0.06q0 0.18 0.06 0.38 0.07 0.19 0.23 0.36 0.16 0.16 0.41 0.27t0.63 0.11q0.34 0 0.59-0.1 0.26-0.1 0.42-0.25 0.16-0.16 0.24-0.36t0.08-0.41q0-0.32-0.12-0.56t-0.35-0.42q-0.22-0.18-0.54-0.3-0.31-0.13-0.71-0.22-0.45 0.25-0.7 0.62-0.24 0.37-0.24 0.88zm2.5-3.55q0-0.15-0.07-0.33-0.06-0.18-0.2-0.33-0.14-0.16-0.36-0.26-0.22-0.11-0.54-0.11t-0.55 0.1q-0.22 0.1-0.36 0.26-0.14 0.15-0.21 0.34-0.06 0.18-0.06 0.36 0 0.22 0.08 0.44t0.25 0.41 0.44 0.34q0.28 0.15 0.66 0.24 0.42-0.25 0.67-0.58 0.25-0.34 0.25-0.88z"/>
  <path d="m41.81 18.06q0-1.74 0.61-2.68 0.62-0.94 1.71-0.94t1.7 0.94q0.62 0.94 0.62 2.68t-0.62 2.68q-0.61 0.94-1.7 0.94t-1.71-0.94q-0.61-0.94-0.61-2.68zm3.66 0q0-0.57-0.07-1.08-0.06-0.51-0.22-0.89-0.15-0.38-0.41-0.6-0.26-0.23-0.64-0.23t-0.64 0.23q-0.26 0.22-0.42 0.6-0.15 0.38-0.22 0.89-0.06 0.51-0.06 1.08t0.06 1.08q0.07 0.51 0.22 0.89 0.16 0.38 0.42 0.61 0.26 0.22 0.64 0.22t0.64-0.22q0.26-0.23 0.41-0.61 0.16-0.38 0.22-0.89 0.07-0.51 0.07-1.08z"/>
 </g>
 <rect style="stroke-linejoin:round;color-rendering:auto;color:#000000;shape-rendering:auto;solid-color:#000000;stroke:#fff;stroke-width:.5;fill:#fff;mix-blend-mode:normal;image-rendering:auto;isolation:auto" rx=".04494" ry=".4831" height="1.364" width=".4358" y="3.789" x="20.42"/>
 <path d="m20.64 4.339v26.09" style="stroke:#fff;stroke-width:0.3;fill:none"/>
</svg>
