<?xml version="1.0" encoding="UTF-8" standalone="no"?>
<svg id="svg2817" xmlns:rdf="http://www.w3.org/1999/02/22-rdf-syntax-ns#" xmlns="http://www.w3.org/2000/svg" xmlns:osb="http://www.openswatchbook.org/uri/2009/osb" height="32" width="32" version="1.0" xmlns:cc="http://creativecommons.org/ns#" xmlns:xlink="http://www.w3.org/1999/xlink" xmlns:dc="http://purl.org/dc/elements/1.1/">
 <path style="fill:#333" d="m0 0v32h32v-32z"/>
<g style="color-rendering:auto;color:#000000;isolation:auto;mix-blend-mode:normal;shape-rendering:auto;solid-color:#000000;image-rendering:auto">
 <path id="circle-of-friends"  d="m19.658 9.7126c0.84822 0.48985 1.9325 0.1993 2.422-0.64866 0.48976-0.84831 0.19946-1.9325-0.64884-2.4223-0.84813-0.48959-1.9324-0.19912-2.4221 0.64918-0.48959 0.84796-0.19913 1.9322 0.64892 2.4218zm-3.6297 11.468c-0.77989 0-1.519-0.17339-2.1824-0.48201l-1.2323 2.2084c1.0294 0.5097 2.1882 0.79769 3.4147 0.79769 0.71325 0 1.4029-0.09884 2.0583-0.28032 0.11596-0.71232 0.53892-1.3688 1.2132-1.7582 0.67312-0.38862 1.4522-0.42714 2.1265-0.17228 1.3114-1.2895 2.1647-3.0439 2.2889-4.9976l-2.5276-0.03678c-0.23261 2.6465-2.4528 4.7212-5.1594 4.7212zm0-10.361c2.7065 0 4.9267 2.0752 5.1594 4.7213l2.5276-0.03687c-0.124-1.954-0.977-3.708-2.289-4.998-0.674 0.255-1.453 0.216-2.126-0.172-0.674-0.3896-1.097-1.046-1.213-1.7584-0.655-0.1813-1.345-0.2802-2.058-0.2802-1.2264 0-2.3852 0.28791-3.4145 0.79778l1.2322 2.2081c0.66332-0.30861 1.4024-0.48201 2.1823-0.48201zm-5.1807 5.1807c0-1.7528 0.87106-3.3009 2.2029-4.2383l-1.296-2.1734c-1.552 1.037-2.7066 2.6222-3.1862 4.479 0.56023 0.45662 0.91818 1.152 0.91818 1.9315 0 0.77946-0.35804 1.4748-0.91826 1.9314 0.47946 1.8569 1.6341 3.442 3.1862 4.4791l1.2967-2.1721c-1.3318-0.93734-2.2029-2.4854-2.2029-4.2385zm8.8107 6.2873c-0.84831 0.48976-1.1388 1.5739-0.6491 2.4219 0.48976 0.84831 1.5739 1.1389 2.4222 0.64918 0.84805-0.48968 1.1386-1.5739 0.64884-2.4221-0.48959-0.84788-1.5739-1.1385-2.422-0.64892zm-12.662-8.061c-0.97969 0-1.7736 0.79377-1.7736 1.7735 0 0.97944 0.79386 1.7733 1.7736 1.7733 0.97935 0 1.7733-0.79386 1.7733-1.7733 0-0.97969-0.79394-1.7735-1.7733-1.7735" stroke="#808080" stroke-width=".069068" fill="#fff"/>
 <g id="g5162" transform="matrix(.31281 0 0 .31281 -288.75 -214.29)" fill="#fff">
  <path id="rect5148"  d="m966.83 729.41c-1.1811 0-2.1328 1.2431-2.1328 2.7871s0.95167 2.7871 2.1328 2.7871h14.789c1.1811 0 2.1328-1.2431 2.1328-2.7871s-0.95168-2.7871-2.1328-2.7871h-14.789zm13.744 0.35937a2.3951 2.3951 0 0 1 2.3945 2.3965 2.3951 2.3951 0 0 1 -2.3945 2.3945 2.3951 2.3951 0 0 1 -2.3945 -2.3945 2.3951 2.3951 0 0 1 2.3945 -2.3965z"/>
  <path id="path5160"  d="m981.62 737.41c1.1811 0 2.1328 1.2431 2.1328 2.7871s-0.95167 2.7871-2.1328 2.7871h-14.789c-1.1811 0-2.1328-1.2431-2.1328-2.7871s0.95168-2.7871 2.1328-2.7871h14.789zm-13.744 0.35937a2.3951 2.3951 0 0 0 -2.3945 2.3965 2.3951 2.3951 0 0 0 2.3945 2.3945 2.3951 2.3951 0 0 0 2.3945 -2.3945 2.3951 2.3951 0 0 0 -2.3945 -2.3965z"/>
 </g>
</g>
</svg>
