<?xml version="1.0" encoding="UTF-8" standalone="no"?>
<svg xmlns="http://www.w3.org/2000/svg" height="32" width="32" version="1.0">
 <path style="color:#000000;fill:#333" d="m0 0v32h32v-32z"/>
 <path style="stroke-width:.06475;fill:#fff" d="m16 4.672c-6.256 0-11.33 5.072-11.33 11.33 0 6.261 5.072 11.33 11.33 11.33 6.261 0 11.33-5.07 11.33-11.33 0-6.259-5.07-11.33-11.33-11.33zm5.422 12.24-6.76 4.65c-0.188 0.1288-0.4069 0.1946-0.6263 0.1946-0.1766 0-0.352-0.04196-0.5135-0.1263-0.3629-0.192-0.5908-0.5683-0.5908-0.9777v-9.298c0-0.4096 0.2279-0.786 0.5908-0.9777 0.3629-0.1904 0.8016-0.1641 1.14 0.06831l6.76 4.65c0.2991 0.2059 0.4783 0.5465 0.4783 0.9097s-0.1792 0.7038-0.4783 0.9097z"/>
</svg>
