<?xml version="1.0" encoding="UTF-8" standalone="no"?>
<svg xmlns:rdf="http://www.w3.org/1999/02/22-rdf-syntax-ns#" xmlns="http://www.w3.org/2000/svg" xml:space="preserve" height="32" width="32" version="1.1" y="0px" x="0px" xmlns:cc="http://creativecommons.org/ns#" xmlns:dc="http://purl.org/dc/elements/1.1/" viewBox="0 0 32 32">
<path style="fill:#333" d="m0 0v32h32v-32z"/>
<g fill="#fff"><path d="m15.99 4.411-1.662 5.998c-0.629 0.1901-1.213 0.4858-1.73 0.8652l-2.711-1.467 1.461 2.707c-0.3795 0.5177-0.6751 1.101-0.8652 1.73l-5.998 1.662 5.998 1.662c0.09342 0.3091 0.2137 0.606 0.3555 0.8906l1.027-1.348c-0.1127-0.385-0.1914-0.7837-0.1914-1.205 0-2.382 1.931-4.314 4.312-4.314 0.3646 0 0.7126 0.05934 1.051 0.1445l1.357-1.037c-0.2419-0.1124-0.4872-0.2186-0.7461-0.2969zm4.67 8.16-0.9336 1.225c0.3563 0.6276 0.5762 1.344 0.5762 2.117 0 2.382-1.931 4.312-4.312 4.312-0.8258 0-1.59-0.244-2.246-0.6465l-1.202 0.9197c0.55 0.4492 1.242 0.6902 1.786 0.9182l1.662 5.996 1.662-5.996c0.629-0.1901 1.211-0.4858 1.729-0.8652l2.707 1.459-1.459-2.705c0.3794-0.5177 0.6751-1.101 0.8652-1.73l5.98-1.66-6-1.66c-0.1842-0.6096-0.4713-1.174-0.834-1.68z"/><path d="m25.49 5.706-10.66 8.141 0.5078 0.5078a1.064 1.064 0 0 1 1.49 1.49l0.5176 0.5176 8.141-10.66z"/><path d="m14.66 14.02-8.138 10.65 10.66-8.14-0.52-0.51a1.064 1.064 0 0 1 -1.49 -1.5l-0.51-0.5z"/><path d="m16.6 15.8a0.8608 0.8608 0 1 1 -1.217 -1.217 0.8608 0.8608 0 0 1 1.217 1.217z"/></g>
</svg>
