<?xml version="1.0" encoding="UTF-8" standalone="no"?>
<svg xmlns:rdf="http://www.w3.org/1999/02/22-rdf-syntax-ns#" xmlns="http://www.w3.org/2000/svg" height="32" width="32" version="1.0" xmlns:cc="http://creativecommons.org/ns#" xmlns:dc="http://purl.org/dc/elements/1.1/">
 <path style="fill:#333" d="m0 0v32h32v-32z"/>
<g style="color-rendering:auto;color:#000000;isolation:auto;mix-blend-mode:normal;shape-rendering:auto;solid-color:#000000;image-rendering:auto;fill:#fff">
 <path  d="m19.91 20.98c0.4195-0.1296 1.103-0.5814 1.33-0.8789 0.2313-0.3033 0.3522-0.7257 0.3541-1.237l0.0015-0.4177-1.123-0.5619c-1.214-0.6074-1.437-0.6959-1.632-0.6468-0.07566 0.01899-0.2345 0.1754-0.3913 0.3854-0.4891 0.655-0.8406 1.006-1.007 1.006-0.211 0-1.148-0.4498-1.697-0.8152-0.2544-0.1691-0.6704-0.5051-0.9245-0.7467-0.6561-0.6238-1.449-1.704-1.449-1.975 0-0.05942 0.1532-0.2883 0.3404-0.5086 0.3891-0.4578 0.5472-0.7367 0.5472-0.9651 0-0.2579-0.9182-2.415-1.103-2.593-0.1517-0.1453-0.174-0.1501-0.6884-0.1501-0.638 0-0.7693 0.06251-1.181 0.5624-0.9043 1.099-0.9719 2.436-0.1982 3.923 0.2427 0.4665 0.9823 1.529 1.475 2.119 0.4643 0.5561 1.439 1.493 1.936 1.862 0.9558 0.708 2.11 1.233 3.545 1.612 0.6211 0.1641 1.383 0.1745 1.865 0.02567z"/>
 <path  d="m16.01 5.867c-1.111 0-1.382 0.0185-1.95 0.1337-2.78 0.563-5.072 2.116-6.623 4.479-2.107 3.22-2.173 7.38-0.168 10.74l0.3214 0.5397-0.4994 1.811c-0.2747 0.9958-0.4774 1.833-0.4506 1.859 0.02682 0.02682 0.8404-0.1603 1.808-0.4159s1.832-0.4655 1.922-0.4665c0.08935-0.000978 0.2626 0.06151 0.385 0.1388 1.011 0.6383 2.535 1.171 3.867 1.353 4.341 0.5919 8.618-1.693 10.54-5.633 0.1748-0.3576 0.4088-0.9282 0.5201-1.268 1.07-3.26 0.43-6.81-1.72-9.52-0.6-0.754-1.71-1.735-2.61-2.301-0.47-0.293-1.59-0.811-2.2-1.008-1.09-0.357-1.7-0.445-3.14-0.445zm-0.0012 0.8984c1.307 0 1.868 0.07948 2.862 0.4051 0.55 0.18 1.577 0.6514 2.001 0.9186 0.8187 0.5156 1.832 1.41 2.377 2.097 1.958 2.469 2.546 5.709 1.574 8.674-0.1014 0.3097-0.3148 0.8297-0.474 1.156-1.755 3.591-5.653 5.673-9.609 5.134-1.214-0.1655-2.603-0.6514-3.524-1.233-0.1116-0.07044-0.2696-0.1274-0.351-0.1265-0.08142 0.000895-0.8694 0.1922-1.751 0.4251-0.879 0.23-1.62 0.4-1.645 0.37-0.024-0.02 0.161-0.78 0.411-1.69l0.455-1.65-0.293-0.49c-1.826-3.07-1.767-6.86 0.153-9.79 1.414-2.154 3.504-3.57 6.044-4.083 0.51-0.105 0.76-0.122 1.77-0.122z"/>
</g>
</svg>
