<?xml version="1.0" encoding="UTF-8" standalone="no"?>
<svg xmlns:rdf="http://www.w3.org/1999/02/22-rdf-syntax-ns#" xmlns="http://www.w3.org/2000/svg" height="32" width="32" version="1.1" xmlns:cc="http://creativecommons.org/ns#" xmlns:dc="http://purl.org/dc/elements/1.1/" viewBox="0 0 32 32">
 <path d="m0 0v32.13h32.13v-32.13z" fill="#333"/>
 <path style="enable-background:new;fill:#fff" d="m11.35 23.91c-2.841-0.45-5.131-3.22-4.911-6.11-0.026-3.03-0.025-6.07-0.039-9.1h1.161c0.032 3.375-0.076 6.755 0.0759 10.13 0.3588 2.376 2.73 4.264 5.135 3.989 0.801-0.05178 2.091-0.4106 2.369-1.006-1.017-1.215-1.468-2.832-1.339-4.401 0.004-2.513-0.0824-5.03 0.0377-7.54 0.2982-1.613 2.568-2.338 3.735-1.168 0.7914 0.5917 0.7696 1.607 0.721 2.49-0.0117 2.662 0.0933 5.331-0.0686 7.988-0.1746 1.007-0.6762 1.928-1.289 2.735 1.968 1.533 5.106 1.088 6.585-0.9173 0.8472-1.051 1.087-2.443 0.994-3.759 0.0219-2.846 0.009-5.692 0.0127-8.537h1.159c-0.026 3.456 0.0228 6.917-0.0695 10.37-0.4536 2.716-2.969 4.944-5.748 4.929-1.354 0.01725-2.705-0.4399-3.782-1.257-1.333 1.006-3.085 1.456-4.735 1.168zm4.789-2.902c0.7723-0.9711 1.102-2.22 1.017-3.445l0.00022-7.452c-0.25-0.934-1.69-1.164-2.1-0.217-0.28 0.827-0.12 6.827-0.07 8.937 0.2376 0.7611 0.3806 1.766 1.153 2.175z"/>
</svg>
