<?xml version="1.0" encoding="UTF-8" standalone="no"?>
<svg xmlns="http://www.w3.org/2000/svg" height="32" width="32" version="1.0">
 <path style="color:#000000;fill:#333" d="m0 0v32h32v-32z"/>
 <path style="fill:#fff" d="m15.55 5.033c-0.8346-0.0007541-1.669 0.1085-2.519 0.3254-1.145 0.2924-2.723 0.872-2.751 1.011-0.01745 0.08606 1.155 3.28 1.219 3.319 1.311-0.4792 2.477-1.092 3.732-0.747 2.721 0.7348 1.018 3.55-0.1757 4.995-0.9462 1.123-1.58 2.368-1.783 3.507-0.1052 0.5897-0.1811 1.948-0.1161 2.07 0.0487 0.091 0.1215 0.09327 2.259 0.08096l2.21-0.01222 0.0046-0.7577c-0.06-1.65 1.14-3.2 2.05-4.17 1.27-1.56 2.03-3.16 2.03-4.721 0.06-2.078-1.57-3.936-3.32-4.473-0.96-0.281-1.91-0.423-2.85-0.423zm-0.16 16.07c-1.62 0-2.933 1.313-2.933 2.933s1.313 2.933 2.933 2.933 2.933-1.313 2.933-2.933-1.313-2.933-2.933-2.933z"/>
</svg>
