<?xml version="1.0" encoding="UTF-8" standalone="no"?>
<svg xmlns="http://www.w3.org/2000/svg" height="32" width="32" version="1.0" xmlns:xlink="http://www.w3.org/1999/xlink">
 <path style="color:#000000;fill:#dd524b" d="m0 0v32h32v-32z"/>
 <path style="opacity:.1" d="m18.15 22.26c-0.059-2.176 0.406-4.289 2.355-5.785 2.059-1.695 4.04-3.813 3.832-6.309-0.047-2.41-2.703-4.297-5.57-4.57-3.223-0.469-7.125 0.695-8.207 3.352-0.547 1.293-0.039 3.609 1.801 3.609 1.074 0 1.57-0.734 1.648-1.402 0.063-0.508-0.133-0.961-0.25-1.379-0.133-0.48 0.434-1.406 1.051-1.781 0.516-0.316 1.055-0.422 1.137-0.441 1.852-0.469 3.699 0.57 4.473 1.832 0.77 1.262-0.078 3.18-1.301 5.04-1.219 1.863-2.527 3.977-2.523 6.227 0 0.855-0.07 1.148-0.02 1.492 0.043 0.277 0.91 0.242 1.574 0.113m-0.844 2.93c-1.773-0.098-3 2.02-1.938 3.371 0.953 1.488 3.617 1.121 4.074-0.566 0.477-1.313-0.668-2.824-2.137-2.801m0-0.004"/>
 <path style="fill:#f9f9f9" d="m16.8 20.77c-0.059-2.176 0.406-4.289 2.355-5.785 2.059-1.695 4.04-3.813 3.832-6.309-0.047-2.41-2.703-4.297-5.57-4.57-3.223-0.469-7.125 0.695-8.207 3.352-0.547 1.293-0.039 3.609 1.801 3.609 1.074 0 1.57-0.734 1.648-1.402 0.063-0.508-0.133-0.961-0.25-1.379-0.133-0.48 0.434-1.406 1.051-1.781 0.516-0.316 1.055-0.422 1.137-0.441 1.852-0.469 3.699 0.57 4.473 1.832 0.77 1.262-0.078 3.18-1.301 5.04-1.219 1.863-2.527 3.977-2.523 6.227 0 0.855-0.07 1.148-0.02 1.492 0.043 0.277 0.91 0.242 1.574 0.113m-0.844 2.93c-1.773-0.098-3 2.02-1.938 3.371 0.953 1.488 3.617 1.121 4.074-0.566 0.477-1.313-0.668-2.824-2.137-2.801m0-0.004"/>
</svg>
