<?xml version="1.0" encoding="UTF-8" standalone="no"?>
<svg xmlns:rdf="http://www.w3.org/1999/02/22-rdf-syntax-ns#" xmlns="http://www.w3.org/2000/svg" height="32" width="32" version="1.0" xmlns:cc="http://creativecommons.org/ns#" xmlns:dc="http://purl.org/dc/elements/1.1/">

 <path fill="#333" d="m0 0v32h32v-32z"/>
 <path opacity=".05" d="m0 0v32l32-32z" style="color:#000000" fill="#fff"/>
<g style="color-rendering:auto;color:#000000;isolation:auto;mix-blend-mode:normal;shape-rendering:auto;solid-color:#000000;image-rendering:auto;fill:#fff">
 <path d="m16.04 8.553c-2.62-0.011-5.25 0.069-7.683 0.273-1.509 0.168-2.543 2.004-2.656 3.394-0.239 2.93-0.239 4.6 0 7.53 0.113 1.4 1.122 3.25 2.656 3.44 4.913 0.32 10.54 0.37 15.29 0 1.48-0.26 2.54-2.04 2.65-3.44 0.24-2.93 0.24-4.78 0-7.71-0.11-1.39-0.95-3.151-2.65-3.214-2.39-0.16-5-0.262-7.61-0.273zm-2.14 3.257l6.29 4.19-6.29 4.19v-8.38z"/>
 <path d="m14.32 12.59 5.118 3.412-5.118 3.412v-6.825z"/>
</g></svg>
